<?xml version="1.0" encoding="UTF-8"?>
<svg version="1.1" xmlns="http://www.w3.org/2000/svg" width="1920" height="1920">
<path d="M0 0 C633.6 0 1267.2 0 1920 0 C1920 633.6 1920 1267.2 1920 1920 C1286.4 1920 652.8 1920 0 1920 C0 1286.4 0 652.8 0 0 Z " fill="#000000" transform="translate(0,0)"/>
<path d="M0 0 C405.9 0 811.8 0 1230 0 C1230.12375 178.633125 1230.12375 178.633125 1230.25 360.875 C1230.28641602 398.48839355 1230.32283203 436.10178711 1230.36035156 474.85498047 C1230.37841797 520.75805664 1230.37841797 520.75805664 1230.3817749 542.24197388 C1230.38574934 558.24636928 1230.40298184 574.25069685 1230.42669371 590.25507324 C1230.45057138 606.59305129 1230.45933144 622.93098676 1230.4537798 639.26898158 C1230.45092095 648.96996419 1230.45875714 658.67078768 1230.48323038 668.37174068 C1230.49832835 674.79531432 1230.49861147 681.21878337 1230.48734136 687.64236447 C1230.48135083 691.28938283 1230.48130807 694.93609784 1230.49953032 698.58308244 C1230.62191109 724.65649854 1228.92266156 750.95930321 1218 775 C1217.67725098 775.72171387 1217.35450195 776.44342773 1217.02197266 777.18701172 C1212.43543758 787.40104237 1207.67743724 796.96824983 1201 806 C1200.42636719 806.78375 1199.85273437 807.5675 1199.26171875 808.375 C1194.84860003 814.2185779 1189.99438344 819.65008418 1185 825 C1184.30132813 825.7528125 1183.60265625 826.505625 1182.8828125 827.28125 C1157.23232402 853.96527465 1118.45534838 870.57956488 1081.61669366 871.41947581 C1073.15193753 871.56372545 1064.68612391 871.54397395 1056.22050117 871.52007158 C1051.33661793 871.51074915 1046.45278883 871.52478659 1041.56891656 871.53571075 C1033.02578879 871.55163469 1024.48275961 871.55281844 1015.93962288 871.54411316 C1003.23515178 871.53120255 990.53076929 871.54123195 977.82630347 871.55561271 C955.13069381 871.58051175 932.43512593 871.58244428 909.73950659 871.57433859 C889.87540717 871.56725909 870.01132394 871.56721489 850.14722443 871.57420158 C848.14790126 871.57488475 846.14857808 871.57556792 844.14925491 871.57624961 C839.46219037 871.57785058 834.77512583 871.57947283 830.08806131 871.58112001 C792.73234987 871.59415825 755.37664352 871.59926536 718.02093124 871.5875864 C717.31743679 871.58736785 716.61394234 871.58714929 715.88912987 871.58692412 C708.04520109 871.58447912 700.20127236 871.58190921 692.35734364 871.57928873 C691.29514563 871.57893392 691.29514563 871.57893392 690.21148908 871.57857194 C687.34776501 871.57761456 684.48404094 871.57665701 681.62031688 871.57569179 C636.33100172 871.5604468 591.04174982 871.5684353 545.75244141 871.59692383 C534.3399087 871.604089 522.92737597 871.61119186 511.51484299 871.61790562 C510.46063226 871.61852694 510.46063226 871.61852694 509.38512435 871.61916082 C487.70896488 871.63185354 466.03281069 871.6383526 444.35664749 871.63831234 C443.33519436 871.63831114 443.33519436 871.63831114 442.29310581 871.63830991 C427.34118804 871.6382257 412.38927075 871.63658533 397.43735331 871.63353152 C391.4209151 871.63231283 385.40447687 871.63122028 379.38803864 871.6301403 C377.4138187 871.62976697 377.4138187 871.62976697 375.39971553 871.6293861 C355.55429317 871.62594975 335.70890291 871.63523804 315.86348724 871.65091133 C293.28749997 871.66870043 270.71159065 871.66878223 248.13560668 871.64555968 C235.51206683 871.63308339 222.88870625 871.63426064 210.26517703 871.65544054 C201.81950637 871.66821364 193.37397304 871.66261501 184.9283172 871.64245573 C180.12531638 871.63149333 175.32266657 871.62809247 170.51968297 871.64713103 C130.61389869 871.79397788 95.66698983 865.13584682 63 841 C62.16210938 840.38769531 61.32421875 839.77539062 60.4609375 839.14453125 C36.20756072 820.61874345 16.54569576 793.44096407 8 764 C7.68546875 763.05511719 7.3709375 762.11023437 7.046875 761.13671875 C1.82579997 745.18126932 -0.16173106 729.1883505 -0.12304783 712.44692802 C-0.12420157 711.21087045 -0.12535532 709.97481288 -0.12654402 708.70129902 C-0.12872866 705.28231645 -0.12645281 701.86339044 -0.12226575 698.44441332 C-0.11882334 694.72895807 -0.12120731 691.01350578 -0.12284851 687.29804993 C-0.12492411 680.78344124 -0.12328279 674.2688417 -0.11921513 667.75423408 C-0.11310824 657.9414525 -0.1128457 648.12867646 -0.11368043 638.31589332 C-0.11492206 621.87067886 -0.11163093 605.4254684 -0.10557556 588.98025513 C-0.09740233 566.74407814 -0.09547257 544.50790798 -0.09460449 522.27172852 C-0.08935205 468.80615153 -0.07539097 415.34057569 -0.0625 361.875 C-0.041875 242.45625 -0.02125 123.0375 0 0 Z " fill="#FEFEFE" transform="translate(345,703)"/>
<path d="M0 0 C1.63426334 -0.00300203 3.26852527 -0.00687506 4.90278473 -0.01153234 C9.37996794 -0.02177181 13.85707172 -0.01966882 18.33426151 -0.01547697 C23.21057027 -0.01310445 28.08685987 -0.02228801 32.96316129 -0.02996117 C41.50542285 -0.04179298 50.04766307 -0.04617453 58.58993244 -0.04563999 C71.29331495 -0.04484596 83.99667055 -0.05540487 96.70004586 -0.06805556 C122.03381911 -0.09278315 147.3675858 -0.10157709 172.70136945 -0.10659205 C174.01309238 -0.10685322 175.32481531 -0.1071144 176.67628741 -0.10738349 C178.64787636 -0.1077739 178.64787636 -0.1077739 180.65929539 -0.1081722 C195.23175458 -0.11125577 209.80421195 -0.11776102 224.37666988 -0.12438488 C229.71684449 -0.12676805 235.05701911 -0.12912659 240.39719373 -0.13146645 C241.39245302 -0.13190282 241.39245302 -0.13190282 242.40781856 -0.132348 C280.42290708 -0.14896726 318.43799467 -0.16082723 356.45308685 -0.16326141 C357.87524322 -0.16335604 359.29739958 -0.16345105 360.71955594 -0.16354645 C367.14012812 -0.16397417 373.5607003 -0.16437955 379.98127248 -0.16478481 C382.84422123 -0.1649664 385.70716997 -0.16515129 388.57011871 -0.16533687 C390.00307562 -0.1654289 391.43603253 -0.16551929 392.86898944 -0.16560807 C438.15732788 -0.16842104 483.44562177 -0.19013654 528.73394489 -0.22699833 C562.5164543 -0.25449004 596.29895516 -0.28036483 630.08147621 -0.28694344 C630.76221245 -0.28707687 631.44294869 -0.28721031 632.1443133 -0.28734779 C647.09179976 -0.29022079 662.03928604 -0.29163737 676.98677277 -0.291706 C683.00177876 -0.29175062 689.01678475 -0.29195728 695.03179073 -0.29220104 C696.34765879 -0.29224516 697.66352684 -0.29228927 699.01926969 -0.29233472 C720.1699328 -0.2934533 741.32055235 -0.3108436 762.47120145 -0.33402036 C783.74170105 -0.35689548 805.01214197 -0.3610671 826.28264936 -0.34647106 C838.90816571 -0.33833722 851.53349686 -0.34394808 864.15899064 -0.36965191 C872.60752865 -0.38545932 881.05593588 -0.38287021 889.50447089 -0.36574518 C894.30843893 -0.35651542 899.11205156 -0.35484803 903.91599121 -0.37571125 C952.69764773 -0.57375525 995.27560599 10.50144223 1030.84600544 45.53594112 C1058.61697736 73.24413605 1071.08233319 105.81816504 1076.57403278 144.26006222 C1076.57403278 209.27006222 1076.57403278 274.28006222 1076.57403278 341.26006222 C670.67403278 341.26006222 264.77403278 341.26006222 -153.42596722 341.26006222 C-153.42596722 93.77858074 -153.42596722 93.77858074 -109.42596722 47.26006222 C-108.61901409 46.38865597 -107.81206097 45.51724972 -106.98065472 44.61943722 C-79.24110466 15.63781775 -39.80321695 -0.106785 0 0 Z " fill="#FEFEFE" transform="translate(498.4259672164917,345.7399377822876)"/>
<path d="M0 0 C2.9375 2.0625 2.9375 2.0625 5 5 C5.62305909 9.89546429 4.82389155 14.34016146 4.1015625 19.203125 C3.00391414 26.8135199 2.07072799 34.43707047 1.19506836 42.07592773 C0.93887556 44.30055543 0.6755898 46.52427211 0.41210938 48.74804688 C-0.43864004 56.06771932 -1.12482722 63.35439207 -1.49609375 70.71484375 C-1.88308754 78.30586741 -2.82205119 85.73844235 -4 93.25 C-4.35846693 95.56704713 -4.71265666 97.88476015 -5.0625 100.203125 C-5.29646484 101.69827637 -5.29646484 101.69827637 -5.53515625 103.22363281 C-6.22094951 108.79498266 -6.56947193 114.40313507 -7 120 C21.38 120 49.76 120 79 120 C79.33 113.73 79.66 107.46 80 101 C80.38047305 96.88699507 80.78512977 92.8019729 81.26953125 88.703125 C81.39049164 87.63588196 81.51145203 86.56863892 81.63607788 85.46905518 C82.02301588 82.06208541 82.41750533 78.6560442 82.8125 75.25 C83.35981464 70.47430267 83.90331558 65.69817855 84.4453125 60.921875 C84.64682167 59.15106567 84.64682167 59.15106567 84.85240173 57.34448242 C85.6921574 49.9070782 86.4674284 42.46627371 87.1796875 35.015625 C87.26766098 34.10596985 87.35563446 33.1963147 87.4462738 32.25909424 C87.85150166 28.05832094 88.2447665 23.85701828 88.6184082 19.65332031 C88.75943093 18.17508267 88.90092135 16.69688953 89.04296875 15.21875 C89.21348755 13.3305957 89.21348755 13.3305957 89.38745117 11.40429688 C90.19262468 6.92947049 91.69426745 3.44563246 94.75 0.0625 C98.20756312 -1.57023814 100.36885564 -1.01926859 104 0 C106.66740025 1.96504882 108.69279764 3.50581753 109.38549805 6.875 C109.45314865 9.27839128 109.32025531 11.6032188 109.125 14 C109.06473633 14.9494751 109.00447266 15.8989502 108.94238281 16.87719727 C108.15588088 27.50244013 106.58782059 38.04752865 105.08935547 48.59082031 C103.18000615 62.11433279 101.66539527 75.6665544 100.25 89.25 C100.14345093 90.27213593 100.03690186 91.29427185 99.92712402 92.34738159 C99.53156992 96.15111972 99.136833 99.95492968 98.7479248 103.75935364 C98.19405294 109.17635718 97.60819738 114.58881214 97 120 C97.77594513 119.99111755 98.55189026 119.98223511 99.35134888 119.9730835 C106.67808449 119.89280335 114.00460566 119.83196794 121.33166695 119.79275131 C125.09825591 119.77191146 128.86448024 119.74366092 132.63085938 119.69824219 C136.26836587 119.65465402 139.90552253 119.63083581 143.54327011 119.62049103 C144.92832824 119.61312274 146.31336807 119.59873395 147.69827652 119.57707977 C161.08918788 119.37610427 161.08918788 119.37610427 166 124 C167 125 167 125 167.25 128.8125 C167.21431913 131.6567752 167.0655184 132.87832297 165.6875 135.4375 C162.35570354 138.52249672 158.82194709 138.12161716 154.5090332 138.11352539 C153.52814224 138.11374443 153.52814224 138.11374443 152.5274353 138.1139679 C150.36851674 138.11327188 148.20968472 138.10549408 146.05078125 138.09765625 C144.55291287 138.09579096 143.05504389 138.09436758 141.55717468 138.09336853 C137.61654981 138.08955207 133.67596186 138.0797292 129.73535156 138.06866455 C125.71354675 138.05843172 121.69173596 138.0538669 117.66992188 138.04882812 C109.77993099 138.03810616 101.88997009 138.02104017 94 138 C94.02940674 139.1977002 94.05881348 140.39540039 94.08911133 141.62939453 C94.08445743 148.11155842 93.30294573 154.49577824 92.57421875 160.9296875 C92.42403827 162.28699114 92.27429311 163.64434301 92.12495422 165.0017395 C91.73094194 168.57237068 91.33108181 172.14232286 90.92993164 175.7121582 C90.53376722 179.24651935 90.14307053 182.78148369 89.75195312 186.31640625 C89.0640111 192.52690571 88.37152734 198.73688724 87.67671013 204.94662094 C86.87042912 212.15408687 86.06981597 219.36217847 85.26953125 226.5703125 C85.02189779 228.79964265 84.77425852 231.02897216 84.52661133 233.25830078 C84.35106881 234.83886659 84.17552939 236.41943274 84 238 C84.6403569 237.98889694 85.28071381 237.97779388 85.94047546 237.96635437 C92.6075546 237.85570497 99.27437278 237.7803092 105.94213867 237.7253418 C108.43020218 237.70020329 110.91819188 237.66608753 113.40600586 237.62280273 C116.98309541 237.5621257 120.55920835 237.53378266 124.13671875 237.51171875 C125.24834885 237.48591232 126.35997894 237.4601059 127.5052948 237.43351746 C136.11484613 237.43039318 136.11484613 237.43039318 139.20214844 240.39941406 C141.98273743 244.42152623 141.68664118 246.19351177 141 251 C139.12984906 253.43119623 137.71861655 254.64069173 135 256 C133.27393547 256.09061856 131.54435493 256.11754501 129.81591797 256.11352539 C128.73494843 256.11344986 127.65397888 256.11337433 126.54025269 256.11329651 C124.78396042 256.10555458 124.78396042 256.10555458 122.9921875 256.09765625 C121.79643097 256.0962413 120.60067444 256.09482635 119.36868286 256.09336853 C115.53743013 256.08775663 111.70623516 256.07520208 107.875 256.0625 C105.28255293 256.05748653 102.69010494 256.05292336 100.09765625 256.04882812 C93.73175102 256.03778333 87.36587963 256.02103359 81 256 C81.0182785 257.30418884 81.03655701 258.60837769 81.0553894 259.9520874 C81.05288268 264.61216431 80.66527507 269.14343256 80.11376953 273.76660156 C80.01944641 274.59249786 79.92512329 275.41839417 79.82794189 276.26931763 C79.51758994 278.97698365 79.20016375 281.68377123 78.8828125 284.390625 C78.66289881 286.30037759 78.44349698 288.21018918 78.22457886 290.12005615 C77.64771338 295.14300555 77.06513197 300.16527399 76.48095703 305.18737793 C75.55205255 313.17958795 74.63105201 321.17270879 73.71157455 329.166008 C73.3935606 331.92246346 73.07262528 334.67856591 72.75125122 337.43463135 C72.54909727 339.18330005 72.34701889 340.93197749 72.14501953 342.68066406 C72.04592852 343.52411503 71.9468375 344.36756599 71.84474373 345.23657608 C71.32527019 349.75411459 70.88753185 354.26584031 70.54779053 358.80065918 C70.47211287 359.75417141 70.3964352 360.70768364 70.31846428 361.69009018 C70.17739007 363.51293359 70.05080338 365.33697806 69.9413166 367.16199112 C69.537102 372.27968896 68.8724112 375.29236614 65 379 C61.86599115 380.56700442 58.36844905 380.85164561 55 380 C52.38040613 377.3527579 51.10725266 375.69062018 50.53027344 371.9753418 C50.55637695 370.83234619 50.58248047 369.68935059 50.609375 368.51171875 C50.63073517 367.54476326 50.63073517 367.54476326 50.65252686 366.55827332 C50.95696941 357.26889162 52.15595661 348.03400196 53.25 338.8125 C53.47984451 336.82285083 53.70883615 334.83310297 53.93701172 332.84326172 C54.39887425 328.82136622 54.86461357 324.79994831 55.33300781 320.77880859 C55.94828507 315.47581477 56.53890309 310.17042367 57.1171875 304.86328125 C57.20371582 304.0713588 57.29024414 303.27943634 57.37939453 302.46351624 C57.70379341 299.49277561 58.02801638 296.52201933 58.34924316 293.55093384 C59.70915366 281.0041043 61.36689357 268.52048264 63 256 C34.62 256 6.24 256 -23 256 C-23.33 260.95 -23.66 265.9 -24 271 C-24.31325954 274.26482934 -24.64135922 277.51713605 -25.015625 280.77416992 C-25.11170044 281.63490616 -25.20777588 282.4956424 -25.3067627 283.38246155 C-25.61811245 286.16548429 -25.93406849 288.94796279 -26.25 291.73046875 C-26.47071863 293.69806663 -26.69108947 295.66570356 -26.91113281 297.63337708 C-27.48659095 302.77293464 -28.06573112 307.91206959 -28.64599609 313.05108643 C-29.57516468 321.2833599 -30.4997883 329.51614189 -31.42224121 337.7491703 C-31.74244854 340.60072058 -32.06494319 343.45200523 -32.38769531 346.30326843 C-32.58686221 348.07348608 -32.7857646 349.84373351 -32.984375 351.61401367 C-33.12524788 352.86261059 -33.12524788 352.86261059 -33.26896667 354.13643169 C-33.88177607 359.65994707 -34.35828408 365.17994728 -34.67114258 370.72969055 C-35.19487961 374.34537644 -36.58886101 376.29660173 -39 379 C-42.25128121 380.6256406 -45.49781865 380.68302581 -49 380 C-52.06419634 377.51034047 -53.75627688 375.99325421 -54.23912048 372.04438782 C-54.13948068 366.20121591 -53.54839255 360.51724565 -52.75390625 354.73046875 C-51.3860867 344.2870159 -50.17464747 333.83267856 -49.02734375 323.36328125 C-48.85548288 321.80109169 -48.68357709 320.23890706 -48.5116272 318.67672729 C-47.80609185 312.25950443 -47.10433052 305.84187078 -46.40405273 299.42407227 C-45.96854966 295.43444551 -45.5302619 291.44513197 -45.09039497 287.45598412 C-44.92628405 285.96245239 -44.76322334 284.46880481 -44.60133171 282.9750309 C-43.62262531 273.94483373 -42.46912516 264.96513291 -41 256 C-41.92850266 256.01110306 -42.85700531 256.02220612 -43.81364441 256.03364563 C-52.56811199 256.13387166 -61.32238663 256.20997723 -70.07729626 256.25906086 C-74.57822857 256.28514391 -79.07868644 256.32051776 -83.5793457 256.37719727 C-87.92359892 256.43156406 -92.26739609 256.46143027 -96.61196327 256.47438622 C-98.26860038 256.48361781 -99.92521279 256.50164546 -101.5816555 256.52865028 C-103.90418601 256.56500498 -106.2248377 256.56994301 -108.54760742 256.56762695 C-109.23093643 256.58560333 -109.91426544 256.60357971 -110.61830139 256.62210083 C-114.45134104 256.58080239 -115.92124273 256.06481443 -118.92427063 253.59342957 C-121.68830695 250.14002489 -121.68830695 250.14002489 -121.625 247 C-121.63789062 246.360625 -121.65078125 245.72125 -121.6640625 245.0625 C-120.58973721 241.72577205 -118.68501102 240.20103163 -116 238 C-113.24052738 237.52923826 -111.11041405 237.36204799 -108.36401367 237.43237305 C-107.23638107 237.43127785 -107.23638107 237.43127785 -106.08596802 237.43016052 C-103.61255571 237.43363125 -101.14105011 237.4724642 -98.66796875 237.51171875 C-96.94876636 237.5210488 -95.22955065 237.52816401 -93.5103302 237.53315735 C-88.99397831 237.55221224 -84.47843545 237.60129947 -79.96240234 237.65667725 C-75.35069726 237.70790263 -70.73886094 237.73067838 -66.12695312 237.75585938 C-57.08428072 237.80942012 -48.04220774 237.89471425 -39 238 C-38.92548615 237.14336258 -38.85097229 236.28672516 -38.77420044 235.40412903 C-37.08700018 216.12804671 -35.17071448 196.90225664 -32.875 177.6875 C-32.4758318 174.32374215 -32.07799377 170.95983791 -31.68240356 167.59565735 C-31.44090209 165.54394848 -31.19734858 163.49247945 -30.95114136 161.44132996 C-30.2457004 155.47353378 -29.69693643 149.51218093 -29.27053833 143.51765442 C-29 141 -29 141 -28 138 C-29.1484565 138.01665459 -29.1484565 138.01665459 -30.32011414 138.03364563 C-37.54412652 138.13393216 -44.76780027 138.21000681 -51.99232769 138.25906086 C-55.70636943 138.28512841 -59.41983486 138.32047209 -63.13354492 138.37719727 C-66.71919713 138.43162214 -70.30429591 138.46144192 -73.89032936 138.47438622 C-75.25670902 138.48360764 -76.62305919 138.50161581 -77.9892025 138.52865028 C-90.05035781 138.75778203 -90.05035781 138.75778203 -93.33447266 135.59838867 C-94.90999855 133.14041123 -95.70493306 131.88226583 -95.6875 129 C-95.71199219 128.360625 -95.73648437 127.72125 -95.76171875 127.0625 C-94.44976298 123.51012745 -92.31822137 121.61365513 -89 120 C-84.14457694 119.29386467 -79.30728724 119.41761058 -74.4140625 119.51171875 C-72.98775475 119.52105405 -71.56143088 119.52816678 -70.13510132 119.53315735 C-66.3962919 119.55217149 -62.65846672 119.60122141 -58.92004395 119.65667725 C-55.09917513 119.70799204 -51.27814595 119.73069729 -47.45703125 119.75585938 C-39.97090735 119.80934789 -32.48559203 119.89459 -25 120 C-25.019487 119.32902786 -25.038974 118.65805573 -25.05905151 117.9667511 C-25.20128393 108.94037927 -24.32176065 100.11917881 -23.3203125 91.16796875 C-23.14523088 89.56201139 -22.97067066 87.9559971 -22.79660034 86.34992981 C-22.43226274 83.00034227 -22.0637965 79.65124623 -21.69189453 76.30249023 C-21.22010773 72.05407543 -20.75542017 67.8049254 -20.2934742 63.55543041 C-19.8465418 59.44684039 -19.39607448 55.33864009 -18.9453125 51.23046875 C-18.82043142 50.08860139 -18.82043142 50.08860139 -18.6930275 48.923666 C-17.71993576 40.05075842 -16.65811378 31.20252937 -15.39962769 22.3651886 C-14.98610475 18.88299076 -14.80777547 15.4410536 -14.6875 11.9375 C-14.31156691 6.27761847 -13.25678072 3.73766112 -9 0 C-5.77509551 -1.61245225 -3.43772273 -0.81573082 0 0 Z " fill="#040404" transform="translate(1165,949)"/>
<path d="M0 0 C0 0.66 0 1.32 0 2 C0.68964844 2.10183594 1.37929688 2.20367188 2.08984375 2.30859375 C21.23762356 6.85779781 38.0912589 22.91505486 52 36 C52.68835938 36.62261719 53.37671875 37.24523437 54.0859375 37.88671875 C67.43718072 50.42111376 86.60011995 73.70076468 89.5 92.1875 C88.86685954 95.74891507 87.49731077 97.42923892 85 100 C81.86128812 101.56935594 79.46144178 101.35201103 76 101 C71.48579675 97.29548718 69.21645478 93.05940481 66.6875 87.9375 C54.18537729 63.59864823 35.43945838 42.28002117 12 28 C11.09628662 27.4419165 11.09628662 27.4419165 10.17431641 26.87255859 C-17.3585628 10.17154462 -49.99470099 5.98160174 -81.08251953 13.50390625 C-117.00850562 23.2063481 -145.90685783 49.80497075 -164.36328125 81.29296875 C-171.56625453 93.95154199 -177.15658444 107.02625721 -181.37988281 120.95556641 C-181.95268749 122.84401772 -182.54950329 124.72514128 -183.1484375 126.60546875 C-188.42214699 143.83424148 -190.19996551 161.54740503 -190.1875 179.5 C-190.18722809 180.16163147 -190.18695618 180.82326294 -190.18667603 181.50494385 C-190.1666313 192.13442145 -189.66515936 202.49908876 -188 213 C-187.89816406 213.65500488 -187.79632812 214.31000977 -187.69140625 214.98486328 C-186.39697192 223.11702711 -184.5580017 231.0934301 -182.5 239.0625 C-182.29850342 239.84810303 -182.09700684 240.63370605 -181.8894043 241.44311523 C-180.62735414 246.1736501 -179.00244562 250.51903713 -177 255 C-176.383241 256.57807229 -175.77024969 258.15762006 -175.16015625 259.73828125 C-168.93788893 275.33963649 -160.59289594 289.98258214 -150 303 C-149.29689697 303.88606934 -149.29689697 303.88606934 -148.57958984 304.79003906 C-130.91179518 326.97194031 -107.5077618 342.72871751 -80 350 C-79.25363281 350.21269531 -78.50726562 350.42539063 -77.73828125 350.64453125 C-46.59254556 359.14994827 -15.30137202 351.1546776 12.0234375 335.83203125 C21.99762055 329.69306557 30.54932032 322.03061665 39 314 C39.63421875 313.43023438 40.2684375 312.86046875 40.921875 312.2734375 C53.53643169 300.55992057 62.67914308 283.99894107 70.26171875 268.77734375 C72.1808435 265.71105678 73.97433052 263.96692044 77 262 C81.38858425 261.92163242 83.41144744 262.56171618 86.9375 265.1875 C89.49210405 268.67105097 89.51428814 269.74365337 89 274 C87.74672341 277.17983808 86.14858448 280.13455829 84.5 283.125 C84.04367187 283.96885254 83.58734375 284.81270508 83.1171875 285.68212891 C65.16257275 318.45055464 38.85750901 344.91273329 5 361 C3.8140625 361.56460937 2.628125 362.12921875 1.40625 362.7109375 C-25.13951238 374.28066137 -60.23503944 377.03272052 -88 368 C-89.01682861 367.67854004 -89.01682861 367.67854004 -90.05419922 367.35058594 C-133.92830581 353.10938054 -166.34831685 320.18754952 -187.1484375 279.81640625 C-189.63758681 274.81355217 -191.67988568 269.65313543 -193.67578125 264.4375 C-194.55096091 262.1656472 -195.48683143 259.9161595 -196.484375 257.6953125 C-198.34200699 253.16613761 -199.66364737 248.59658523 -200.9375 243.875 C-201.19619873 242.91795166 -201.45489746 241.96090332 -201.72143555 240.97485352 C-203.47388396 234.33665945 -205.00412567 227.67708431 -206.3125 220.9375 C-206.47161865 220.13103027 -206.6307373 219.32456055 -206.79467773 218.49365234 C-209.18888681 205.51985895 -209.27385277 192.3391219 -209.3125 179.1875 C-209.31511841 178.3299411 -209.31773682 177.4723822 -209.32043457 176.58883667 C-209.32506605 162.37564408 -208.19361372 148.88613796 -205 135 C-204.69609997 133.56651525 -204.39268337 132.1329279 -204.08984375 130.69921875 C-200.83538554 116.03901566 -195.64163647 101.45603227 -189 88 C-188.45085938 86.81792969 -187.90171875 85.63585938 -187.3359375 84.41796875 C-168.8326678 45.20493156 -135.8967906 13.04355563 -95 -2 C-90.04620896 -3.59320477 -85.07462411 -4.85582588 -80 -6 C-78.20949219 -6.44859375 -78.20949219 -6.44859375 -76.3828125 -6.90625 C-50.60382073 -12.69446437 -24.72962138 -8.00268915 0 0 Z " fill="#060606" transform="translate(797,957)"/>
<path d="M0 0 C1.35301514 -0.00521566 2.7060233 -0.01262191 4.05901584 -0.02202183 C7.79263375 -0.0415577 11.52560837 -0.02980928 15.25921622 -0.01313207 C19.31510455 -0.00048417 23.37089184 -0.01673388 27.42676598 -0.02934873 C34.54037401 -0.04744008 41.65379246 -0.04683935 48.76740932 -0.03411293 C59.34542664 -0.01523983 69.92328334 -0.02484864 80.5012995 -0.04015447 C99.39126713 -0.0665186 118.28115034 -0.0641871 137.17112605 -0.0497599 C153.70239412 -0.03719575 170.23363121 -0.03389224 186.76490307 -0.03987312 C188.40798185 -0.04044601 188.40798185 -0.04044601 190.08425415 -0.04103047 C194.53048547 -0.0425871 198.97671678 -0.04417909 203.42294807 -0.04582929 C245.15661183 -0.06113416 286.89022175 -0.04724156 328.6238772 -0.02034481 C365.72212762 0.00338265 402.82029224 0.00126262 439.91854191 -0.02264977 C481.57301926 -0.04940903 523.227449 -0.0600472 564.88193375 -0.04458845 C569.32050326 -0.0429848 573.75907279 -0.0414206 578.19764233 -0.03987312 C579.83704481 -0.03928004 579.83704481 -0.03928004 581.50956654 -0.03867498 C598.03194125 -0.0329817 614.55428161 -0.03965002 631.07665157 -0.05227089 C649.85948545 -0.06654667 668.64222151 -0.06303705 687.42504316 -0.03586717 C697.94403132 -0.02115412 708.46280779 -0.02027261 718.98179059 -0.03909804 C726.00095059 -0.05027715 733.01994023 -0.04339201 740.03907491 -0.0215742 C744.04319771 -0.0096366 748.04689878 -0.00570263 752.05100887 -0.02360411 C755.69138524 -0.03971407 759.33096443 -0.03295685 762.97128228 -0.00770081 C764.90219356 -0.00026318 766.83315133 -0.0174172 768.76399252 -0.03547221 C778.10063986 0.06650746 778.10063986 0.06650746 781.83037812 2.98103106 C784.04818058 5.6292057 784.04818058 5.6292057 784.61068058 8.6292057 C783.9824564 11.97973467 783.1388872 13.94115433 781.04818058 16.6292057 C777.83193704 18.68179459 775.27321372 18.87996595 771.49804884 18.88220537 C769.79003751 18.8904846 769.79003751 18.8904846 768.04752091 18.89893109 C766.79362964 18.89482045 765.53973838 18.89070981 764.24785042 18.88647461 C762.89911691 18.88916689 761.55038491 18.89273408 760.20165578 18.89709908 C756.47543576 18.90658923 752.74931309 18.90354609 749.02308818 18.89854353 C744.97679887 18.89528662 740.93053081 18.90355131 736.8842482 18.91036189 C729.78597525 18.92068759 722.68772959 18.92350123 715.58944988 18.92144966 C705.03423549 18.91840636 694.47905142 18.92670869 683.92384291 18.93719891 C663.97822949 18.9565672 644.03262632 18.96216817 624.08700461 18.96331303 C608.68858823 18.96423112 593.29017589 18.96834259 577.89176083 18.97471428 C573.46389944 18.97650928 569.03603804 18.97828891 564.60817665 18.98006403 C562.95714732 18.98072718 562.95714732 18.98072718 561.27276387 18.98140372 C530.30192264 18.99371647 499.33108281 19.0016044 468.36023903 19.00071716 C467.19195244 19.00068601 466.02366585 19.00065485 464.81997664 19.00062275 C458.89822238 19.00045652 452.97646811 19.00025844 447.05471385 19.00005333 C445.29049778 18.9999935 445.29049778 18.9999935 443.49064097 18.99993245 C441.1121907 18.99985158 438.73374042 18.99976798 436.35529014 18.99968167 C399.33778414 18.99845574 362.32031477 19.01347529 325.30281925 19.0408268 C283.74285661 19.07152178 242.18291804 19.08876088 200.62294334 19.08690035 C196.19476759 19.08675108 191.76659185 19.08665368 187.3384161 19.08659172 C186.24803349 19.08656841 185.15765087 19.0865451 184.03422636 19.08652109 C166.45785445 19.08645944 148.88151423 19.09925199 131.30515175 19.11645625 C113.65330998 19.13337754 96.00151478 19.13541411 78.3496694 19.12223761 C67.85271432 19.11482521 57.35590033 19.11857443 46.85896008 19.13812229 C39.85574338 19.15006607 32.85262956 19.14759408 25.84941771 19.13318129 C21.85359358 19.12537062 17.8580437 19.12400212 13.86223824 19.14009599 C10.23061701 19.15459569 6.59949977 19.1508509 2.96790143 19.13224826 C1.03918184 19.12715485 -0.88955863 19.14178168 -2.81822416 19.15709382 C-3.9594019 19.1475922 -5.10057964 19.13809058 -6.27633852 19.12830102 C-7.25921336 19.12847747 -8.24208819 19.12865391 -9.25474712 19.1288357 C-12.72891042 18.48525036 -14.42424322 17.0474559 -16.95181942 14.6292057 C-17.83463192 12.44561195 -17.83463192 12.44561195 -18.07681942 10.1917057 C-18.18252254 9.45049477 -18.28822567 8.70928383 -18.39713192 7.94561195 C-17.87047893 5.20609248 -16.86169797 3.61954571 -14.84062653 1.70281167 C-10.44735996 -0.79433967 -4.90231177 -0.04575524 0 0 Z " fill="#040404" transform="translate(576.9518194198608,1447.3707942962646)"/>
<path d="M0 0 C1.13417963 -0.00301597 2.26835926 -0.00603194 3.43690798 -0.0091393 C4.69605327 -0.00736983 5.95519855 -0.00560036 7.25249976 -0.00377727 C8.5989009 -0.0054257 9.94530156 -0.00751141 11.29170141 -0.00999737 C15.02074936 -0.01558935 18.74977445 -0.014887 22.47882526 -0.01321978 C26.52472339 -0.01249148 30.57061492 -0.017505 34.61651027 -0.0217948 C42.65412782 -0.02939246 50.69173872 -0.03156875 58.72935948 -0.03212385 C68.3512786 -0.03303575 77.97319153 -0.03969807 87.595108 -0.04647068 C110.85378636 -0.06255061 134.11246409 -0.06843606 157.37114701 -0.07321942 C168.36762225 -0.07555322 179.36409696 -0.07915561 190.36057179 -0.0829148 C227.98102859 -0.09575161 265.60148509 -0.10647106 303.22194403 -0.1099174 C305.58468871 -0.11013904 307.94743338 -0.11036082 310.31017805 -0.11058275 C312.67872398 -0.1108034 315.0472699 -0.11102388 317.41581583 -0.1112442 C322.16776186 -0.11168676 326.91970789 -0.11213388 331.67165393 -0.11258388 C332.84986524 -0.11269327 334.02807656 -0.11280266 335.24199125 -0.11291536 C373.46161264 -0.11654751 411.68121507 -0.13247283 449.9008292 -0.15577424 C490.28127445 -0.18034817 530.66170887 -0.19408909 571.04216182 -0.19528532 C575.47149211 -0.19545678 579.9008224 -0.19567221 584.33015269 -0.19591975 C585.96616611 -0.19600341 585.96616611 -0.19600341 587.63523031 -0.19608875 C605.21728608 -0.19724128 622.79932246 -0.20828037 640.38137167 -0.22280681 C658.04017137 -0.23714483 675.69894612 -0.24042408 693.35775004 -0.23236683 C703.85911675 -0.22789791 714.36040313 -0.2318214 724.86175935 -0.24760534 C731.86798523 -0.25731437 738.87415449 -0.25621634 745.88037979 -0.24616911 C749.87792566 -0.24074746 753.87531665 -0.24016132 757.87285004 -0.25267783 C761.50601794 -0.26395912 765.13890394 -0.26155657 768.77206175 -0.24801075 C770.70165378 -0.24440741 772.63125589 -0.2555976 774.56081578 -0.26730204 C775.70250597 -0.26030393 776.84419616 -0.25330583 778.02048302 -0.24609566 C779.00380533 -0.24633986 779.98712765 -0.24658406 781.00024762 -0.24683566 C784.22899214 0.20131565 786.08057171 1.20873208 788.69826525 3.1276505 C791.03995289 6.64018196 791.19450203 7.99234406 790.69826525 12.1276505 C788.89832751 14.82755712 787.61449226 16.669537 784.69826525 18.1276505 C782.92885908 18.22456921 781.1557637 18.25661984 779.38370645 18.258753 C778.24665998 18.26253765 777.10961352 18.26632229 775.9381111 18.27022162 C774.67575712 18.26930969 773.41340314 18.26839776 772.11279601 18.2674582 C770.76298373 18.27001607 769.41317223 18.2730096 768.06336179 18.27640191 C764.3248465 18.28450028 760.58634985 18.28630099 756.84782683 18.28712486 C752.79166037 18.28908832 748.73550415 18.2967614 744.6793437 18.30369741 C736.62132388 18.3165396 728.56330727 18.32390362 720.50527958 18.32959619 C710.85893584 18.33664305 701.21260175 18.34940135 691.56626416 18.36214539 C667.14071572 18.39402803 642.7151609 18.41383523 618.28959861 18.43143091 C611.67710887 18.4361966 605.06461933 18.4412056 598.45212978 18.44623613 C557.43218442 18.47727737 516.41223745 18.50390448 475.39228362 18.52065492 C465.88498385 18.52459237 456.37768411 18.52860417 446.8703844 18.5326798 C445.68918339 18.53318146 444.50798239 18.53368313 443.29098742 18.5342 C404.97433943 18.5506263 366.65775522 18.58909365 328.34113862 18.6399669 C288.97322644 18.69214098 249.60534823 18.7249625 210.23740078 18.73223245 C204.68184775 18.73326112 199.12629479 18.73449745 193.57074183 18.73585248 C192.47729992 18.73611052 191.383858 18.73636856 190.25728149 18.73663441 C172.63056397 18.74133703 155.00393025 18.7663034 137.37724415 18.79860391 C119.67361996 18.83057345 101.97009053 18.84063664 84.26644089 18.82817196 C73.73831803 18.82141484 63.21051971 18.83148475 52.68244732 18.86529896 C45.65839711 18.88621945 38.634568 18.88553567 31.61051162 18.86696555 C27.602645 18.85699439 23.595399 18.8567023 19.58759012 18.88262837 C15.9449267 18.90600595 12.3033818 18.90201377 8.66074755 18.87573168 C6.72620657 18.86895819 4.79163201 18.89178031 2.85722616 18.91562846 C-5.28306288 18.8179073 -5.28306288 18.8179073 -8.18710246 16.85011656 C-10.36191938 14.38152762 -11.27240584 12.28733011 -11.86423475 9.0651505 C-11.17194114 5.44983942 -9.84582442 3.74656634 -7.30173475 1.1276505 C-4.72392834 -0.1612527 -2.88805414 0.00151359 0 0 Z " fill="#020202" transform="translate(570.3017347455025,811.8723495006561)"/>
<path d="M0 0 C28.38 0 56.76 0 86 0 C86 12.35600907 86 12.35600907 85.265625 17.3359375 C85.02561768 19.02783203 85.02561768 19.02783203 84.78076172 20.75390625 C84.60561035 21.94886719 84.43045898 23.14382813 84.25 24.375 C83.8789406 27.0281916 83.51062898 29.68154145 83.1484375 32.3359375 C83.00651474 33.37509308 83.00651474 33.37509308 82.86172485 34.4352417 C81.71627685 42.93988717 80.79002005 51.46800249 79.875 60 C79.79495728 60.73885437 79.71491455 61.47770874 79.63244629 62.23895264 C78.27321533 74.81481514 77.14541431 87.40044261 76 100 C47.62 100 19.24 100 -10 100 C-10 87.64134563 -10 87.64134563 -9.23046875 81.61328125 C-9.1497966 80.96081421 -9.06912445 80.30834717 -8.98600769 79.6361084 C-8.81394346 78.2459763 -8.6391824 76.8561756 -8.46185303 75.46670532 C-7.98592558 71.72974842 -7.53287234 67.99005552 -7.08203125 64.25 C-6.98966187 63.4846846 -6.89729248 62.7193692 -6.80212402 61.93086243 C-5.69524237 52.62893566 -4.85423971 43.30333755 -4.03979492 33.97192383 C-3.37259891 26.46039638 -2.52232582 19.01073393 -1.48681641 11.54174805 C-0.95860524 7.6988396 -0.48113571 3.8490857 0 0 Z " fill="#FCFCFC" transform="translate(1155,1087)"/>
<path d="M0 0 C1.19783592 -0.00657338 1.19783592 -0.00657338 2.41987056 -0.01327956 C5.11061976 -0.02669358 7.8013362 -0.03285222 10.49211121 -0.03897095 C12.41530507 -0.0468698 14.33849744 -0.05513861 16.26168823 -0.06375122 C22.59002767 -0.08999412 28.9183738 -0.10528006 35.24674988 -0.11953735 C37.42281791 -0.1248959 39.5988859 -0.1302734 41.77495384 -0.13566971 C50.82433021 -0.15730081 59.87370478 -0.17603894 68.92310047 -0.1872921 C81.9053613 -0.20354048 94.88732324 -0.23673733 107.86947137 -0.29369295 C116.99053355 -0.33234926 126.11151564 -0.35191962 135.23265761 -0.35721266 C140.68400675 -0.36087172 146.13503729 -0.37295207 151.58629799 -0.4053154 C156.71387457 -0.4353205 161.8409385 -0.44173486 166.96858406 -0.42993164 C168.85158445 -0.42971028 170.7346081 -0.43806688 172.61752701 -0.45558548 C175.18680158 -0.47819067 177.75420358 -0.4700235 180.32348633 -0.45410156 C181.07018375 -0.46798365 181.81688117 -0.48186574 182.58620578 -0.49616849 C186.4839737 -0.43657498 188.21106166 0.04354689 191.31885815 2.47315025 C193.35221863 5.15390015 193.35221863 5.15390015 193.91471863 8.65390015 C193.27099644 12.65928266 192.19276036 14.31335841 189.35221863 17.15390015 C186.29409754 18.68296069 183.09812673 18.30189661 179.74240112 18.30107117 C178.94792739 18.30474786 178.15345366 18.30842454 177.33490497 18.31221265 C174.65797118 18.32327456 171.98107618 18.32709755 169.30412292 18.3309021 C167.39078141 18.33716481 165.47744112 18.34381144 163.56410217 18.35081482 C158.35537755 18.36824136 153.14666212 18.37878088 147.93791556 18.38702035 C144.68583055 18.39216653 141.43374841 18.39824241 138.18166542 18.40453148 C128.01285368 18.42358735 117.84404922 18.43781818 107.67522305 18.44614345 C95.92533279 18.4559212 84.17563065 18.48225317 72.4258067 18.52264434 C63.35145171 18.55277118 54.27715074 18.56760902 45.20274669 18.57092446 C39.77939411 18.57327869 34.35624241 18.58228762 28.93294334 18.60738564 C23.83168121 18.6306116 18.73075299 18.63492166 13.62945175 18.62462425 C11.75613484 18.62412746 9.88280179 18.63048993 8.00953484 18.6441803 C5.45361579 18.66181596 2.89890597 18.6548347 0.34298706 18.64164734 C-0.77122265 18.65810121 -0.77122265 18.65810121 -1.90794164 18.67488748 C-6.76173476 18.61434846 -9.24349429 17.61006449 -12.64778137 14.15390015 C-14.07440356 11.30065577 -13.95812005 9.31935466 -13.64778137 6.15390015 C-9.67020143 0.18753023 -6.78695334 0.00448407 0 0 Z " fill="#030303" transform="translate(1239.6477813720703,506.8460998535156)"/>
<path d="M0 0 C0.80995422 -0.0065712 1.61990845 -0.0131424 2.45440674 -0.01991272 C5.14180591 -0.0396646 7.82914912 -0.05131325 10.51660156 -0.0612793 C11.89271984 -0.06739259 11.89271984 -0.06739259 13.29663849 -0.07362938 C18.15348588 -0.0944994 23.01030495 -0.10879638 27.8671875 -0.11816406 C32.88210633 -0.1292231 37.89658078 -0.16361445 42.91134262 -0.20333576 C46.76842061 -0.22949413 50.62539268 -0.23785527 54.48255157 -0.24144554 C56.33090461 -0.24631448 58.17925282 -0.25793723 60.02751923 -0.27648354 C62.61766122 -0.3008559 65.20665322 -0.29991352 67.796875 -0.29296875 C68.55762329 -0.30577881 69.31837158 -0.31858887 70.10217285 -0.33178711 C75.24685804 -0.28162363 78.25151991 0.83271197 82.15722656 4.17700195 C83.28222656 7.55200195 83.28222656 7.55200195 83.15722656 11.17700195 C80.23185343 16.818793 80.23185343 16.818793 76.15722656 18.17700195 C73.46139522 18.29884319 70.79013122 18.36548194 68.09326172 18.38574219 C66.86107155 18.40041786 66.86107155 18.40041786 65.60398865 18.41539001 C62.88477191 18.44531245 60.16560411 18.46671786 57.44628906 18.4855957 C56.51751324 18.49216753 55.58873741 18.49873936 54.63181686 18.50551033 C49.71777621 18.53808642 44.80375712 18.56254435 39.88964844 18.58203125 C35.82129481 18.59986241 31.75363195 18.63471373 27.68554688 18.68457031 C22.7736901 18.74469685 17.86247506 18.77549591 12.95026779 18.78520393 C11.07871405 18.79377053 9.20717802 18.81261832 7.3358345 18.84194756 C4.71645292 18.88079805 2.09958101 18.88190624 -0.52001953 18.87402344 C-1.67820442 18.90402435 -1.67820442 18.90402435 -2.85978699 18.93463135 C-5.76635804 18.89537789 -8.11989929 18.75133536 -10.44734573 16.90214729 C-12.66504586 14.36819011 -13.79514235 12.43632674 -14.40527344 9.11450195 C-13.71297983 5.49919088 -12.38686311 3.79591779 -9.84277344 1.17700195 C-6.72871339 -0.38002807 -3.41926892 0.0119583 0 0 Z " fill="#040404" transform="translate(832.8427734375,506.822998046875)"/>
<path d="M0 0 C0.83150574 -0.0087616 1.66301147 -0.01752319 2.51971436 -0.02655029 C5.2610737 -0.04850973 8.00081252 -0.03400446 10.7421875 -0.01708984 C12.65120757 -0.02045899 14.56022555 -0.02531242 16.46923828 -0.03158569 C20.46733045 -0.03895232 24.46486352 -0.02825829 28.46289062 -0.00488281 C33.58456931 0.02360487 38.70493797 0.00719977 43.8265686 -0.02274513 C47.76775969 -0.04082379 51.70864082 -0.03505748 55.64984131 -0.02210617 C57.53806717 -0.01877373 59.4263213 -0.02285356 61.31451416 -0.03450394 C63.95522455 -0.04722218 66.5938218 -0.02782357 69.234375 0 C70.01270691 -0.01012115 70.79103882 -0.02024231 71.59295654 -0.03067017 C75.57074367 0.0468717 77.42805326 0.50005257 80.60595703 2.96865845 C82.6171875 5.64697266 82.6171875 5.64697266 83.1796875 9.14697266 C82.53596531 13.15235517 81.45772924 14.80643092 78.6171875 17.64697266 C75.47727771 19.21692755 72.11554815 18.82100259 68.66674805 18.83984375 C67.84543396 18.84802124 67.02411987 18.85619873 66.17791748 18.86462402 C63.45325453 18.88948649 60.72864369 18.90599591 58.00390625 18.92041016 C57.07421335 18.92573383 56.14452045 18.93105751 55.18665504 18.93654251 C50.26612802 18.96327741 45.3456264 18.98265148 40.42504883 18.99707031 C35.34043215 19.01372188 30.25646317 19.05850282 25.17209148 19.10944176 C21.26444242 19.14308284 17.35694771 19.15464427 13.44916725 19.16029739 C11.57484803 19.16701824 9.70053926 19.18226194 7.8263607 19.2061882 C5.20230561 19.23777693 2.58000553 19.23788643 -0.04418945 19.23046875 C-0.81788376 19.24687408 -1.59157806 19.26327942 -2.38871765 19.28018188 C-6.42642614 19.23347964 -8.17959138 18.81117512 -11.36247253 16.2394104 C-13.3191887 13.72861275 -14.07049861 12.75620351 -14.0078125 9.64697266 C-14.02070313 9.00759766 -14.03359375 8.36822266 -14.046875 7.70947266 C-11.82613566 0.81211752 -6.41503343 -0.08341884 0 0 Z " fill="#040404" transform="translate(500.3828125,506.35302734375)"/>
<path d="M0 0 C0.81053833 -0.0087616 1.62107666 -0.01752319 2.45617676 -0.02655029 C5.12237865 -0.04846903 7.7869077 -0.03401923 10.453125 -0.01708984 C12.31347978 -0.02046016 14.17383242 -0.02531458 16.03417969 -0.03158569 C19.92794821 -0.0389468 23.82114216 -0.02827622 27.71484375 -0.00488281 C32.69852433 0.02360466 37.68085854 0.00719658 42.66448975 -0.02274513 C46.50449717 -0.04083881 50.34418695 -0.03505062 54.1842041 -0.02210617 C56.02136394 -0.01877787 57.85855289 -0.02283894 59.69567871 -0.03450394 C62.26664275 -0.04724713 64.83544634 -0.02778936 67.40625 0 C68.53794617 -0.01518173 68.53794617 -0.01518173 69.69250488 -0.03067017 C75.45161558 0.08428214 77.82477727 1.67750678 81.703125 5.64697266 C82.46484375 7.70947266 82.46484375 7.70947266 82.390625 9.64697266 C82.39449219 10.28634766 82.39835938 10.92572266 82.40234375 11.58447266 C81.26914061 14.92710539 79.42895216 16.44038855 76.703125 18.64697266 C73.71771336 19.14679566 71.30165381 19.342565 68.3203125 19.30981445 C67.48880676 19.32018234 66.65730103 19.33055023 65.80059814 19.3412323 C63.05926791 19.36827846 60.31954011 19.35864689 57.578125 19.34619141 C55.66910354 19.35210086 53.76008579 19.35934781 51.85107422 19.36787415 C47.85299347 19.37975037 43.85546957 19.37305305 39.85742188 19.35375977 C34.73558861 19.33086719 29.61541362 19.35765806 24.4937439 19.39882183 C20.55253843 19.42440415 16.61172958 19.42181893 12.67047119 19.41092873 C10.78223159 19.40944242 8.89396154 19.41712766 7.00579834 19.43417931 C4.36482314 19.45415902 1.72677787 19.43576108 -0.9140625 19.4074707 C-1.69239441 19.42118713 -2.47072632 19.43490356 -3.27264404 19.44903564 C-6.18111632 19.38681075 -8.56306213 19.22401827 -10.9006958 17.38578224 C-13.30301838 14.65803868 -14.29352294 12.6643424 -14.984375 9.08447266 C-14.22503422 5.28776875 -13.12895719 4.03095057 -10.11877441 1.68230057 C-6.91383281 -0.13896655 -3.57816714 -0.0480012 0 0 Z " fill="#040404" transform="translate(667.296875,506.35302734375)"/>
<path d="M0 0 C0.66 0.66 1.32 1.32 2 2 C-1.29977553 6.6891547 -4.75418808 10.57200213 -10 13 C-6.73279209 8.61105071 -3.45101522 4.24740335 0 0 Z " fill="#DADADA" transform="translate(864,1266)"/>
</svg>
