<?xml version="1.0" encoding="UTF-8"?>
<svg version="1.1" xmlns="http://www.w3.org/2000/svg" width="272" height="128">
<path d="M0 0 C89.76 0 179.52 0 272 0 C272 42.24 272 84.48 272 128 C182.24 128 92.48 128 0 128 C0 85.76 0 43.52 0 0 Z " fill="#FDFEFE" transform="translate(0,0)"/>
<path d="M0 0 C3.67356131 4.63332057 6.21380979 9.7991116 9 15 C13.95 15 18.9 15 24 15 C26.31 10.05 28.62 5.1 31 0 C31.66 0 32.32 0 33 0 C33.13986328 0.589021 33.27972656 1.17804199 33.42382812 1.78491211 C36.97103176 17.68645347 36.97103176 17.68645347 47 30 C43.70963982 34.1364528 40.34049586 37.57510061 36.28076172 40.97460938 C28.18480637 47.86732953 24.47395644 55.04553574 21 65 C18.03 65 15.06 65 12 65 C6 53 6 53 4.66796875 49.953125 C2.67671101 46.42761948 0.14196492 43.99909234 -2.875 41.375 C-3.39191406 40.9109375 -3.90882812 40.446875 -4.44140625 39.96875 C-7.54316294 37.20295184 -10.73316947 34.56765647 -14 32 C-13.42117746 28.76417277 -12.5245778 27.27199462 -10.1875 25 C-6.01052863 20.34337641 -4.71549859 14.90131515 -3 9 C-2.42481932 7.24730352 -1.84241839 5.4969454 -1.25 3.75 C-0.8375 2.5125 -0.425 1.275 0 0 Z " fill="#05AAE5" transform="translate(119,1)"/>
<path d="M0 0 C2.97 0 5.94 0 9 0 C11.26812312 2.76956761 12.50288718 4.8318766 14 8 C15.03399471 9.91609939 16.07198739 11.83004497 17.11328125 13.7421875 C18.18309444 15.78467747 19.24944914 17.82898231 20.3125 19.875 C21.13717773 21.44121094 21.13717773 21.44121094 21.97851562 23.0390625 C22.75678711 24.53179687 22.75678711 24.53179687 23.55078125 26.0546875 C24.02169189 26.95687012 24.49260254 27.85905273 24.9777832 28.78857422 C26 31 26 31 26 33 C26.66 33 27.32 33 28 33 C28.4021875 31.6696875 28.4021875 31.6696875 28.8125 30.3125 C29.204375 29.219375 29.59625 28.12625 30 27 C30.33 26.05125 30.66 25.1025 31 24.125 C33 22 33 22 35.41796875 21.69140625 C37.94740245 21.68783864 40.47587975 21.83609609 43 22 C45.475 26.95 45.475 26.95 48 32 C50.33867421 28.88176772 52.05399198 26.17675975 53.8125 22.75390625 C54.33070312 21.75166016 54.84890625 20.74941406 55.3828125 19.71679688 C55.91648438 18.67587891 56.45015625 17.63496094 57 16.5625 C58.06107986 14.50057065 59.12353402 12.43934783 60.1875 10.37890625 C60.65542969 9.4669751 61.12335937 8.55504395 61.60546875 7.61547852 C62.99532572 5.00876673 64.35858029 2.45761791 66 0 C68.26171875 -0.48828125 68.26171875 -0.48828125 70.6875 -0.3125 C71.49574219 -0.26738281 72.30398437 -0.22226563 73.13671875 -0.17578125 C73.75160156 -0.11777344 74.36648437 -0.05976562 75 0 C70.45860199 9.32322296 65.70591762 18.51481258 60.75 27.625 C60.24307617 28.56037598 59.73615234 29.49575195 59.21386719 30.45947266 C52.78111299 42.21888701 52.78111299 42.21888701 50 45 C48.43452952 45.09326716 46.86487228 45.11745582 45.29663086 45.11352539 C44.29566879 45.11344986 43.29470673 45.11337433 42.26341248 45.11329651 C41.1748848 45.10813522 40.08635712 45.10297394 38.96484375 45.09765625 C37.85645645 45.0962413 36.74806915 45.09482635 35.60609436 45.09336853 C32.04986931 45.08775033 28.49370617 45.07519475 24.9375 45.0625 C22.53320403 45.05748734 20.12890708 45.05292403 17.72460938 45.04882812 C11.81636294 45.0386239 5.90825115 45.01905205 0 45 C0 30.15 0 15.3 0 0 Z " fill="#07ABE5" transform="translate(0,83)"/>
<path d="M0 0 C3.20870846 1.39534866 4.14227898 3.63217 5.9050293 6.61376953 C6.25286469 7.19405411 6.60070007 7.77433868 6.95907593 8.37220764 C8.08447134 10.25583072 9.19206478 12.14926458 10.29956055 14.04345703 C11.0633126 15.3296981 11.82820608 16.61526208 12.59423828 17.90014648 C14.09634946 20.42327697 15.59197843 22.95005555 17.08178711 25.48046875 C18.78070237 28.35734763 20.49544406 31.2226951 22.22924805 34.07861328 C22.65439697 34.77905762 23.0795459 35.47950195 23.51757812 36.20117188 C24.09028442 37.14404053 24.09028442 37.14404053 24.67456055 38.10595703 C28.11206055 43.79180297 28.11206055 43.79180297 28.11206055 44.91845703 C24.95282307 45.48711978 22.24734768 45.68825924 19.11206055 44.91845703 C16.4551227 42.26151918 14.67928736 39.3233341 13.11206055 35.91845703 C13.11206055 35.25845703 13.11206055 34.59845703 13.11206055 33.91845703 C8.5687987 33.79566617 4.03182248 33.78450184 -0.51293945 33.79345703 C-1.79813477 33.75736328 -3.08333008 33.72126953 -4.4074707 33.68408203 C-8.15207342 33.7228862 -11.29245621 33.8558335 -14.88793945 34.91845703 C-17.13971413 37.40333909 -18.34423791 39.61193481 -19.60473633 42.70947266 C-20.88793945 44.91845703 -20.88793945 44.91845703 -23.21801758 45.58056641 C-25.51810422 45.54702715 -27.63454379 45.36913616 -29.88793945 44.91845703 C-24.59762592 35.58266312 -19.21248249 26.30862455 -13.70385742 17.09985352 C-12.89684007 15.74870331 -12.09222457 14.39611614 -11.28979492 13.04223633 C-10.11132856 11.05395812 -8.92626085 9.06976262 -7.73950195 7.08642578 C-7.38119293 6.47929245 -7.02288391 5.87215912 -6.65371704 5.24662781 C-3.40596299 -0.14710871 -3.40596299 -0.14710871 0 0 Z " fill="#09ACE6" transform="translate(92.887939453125,82.08154296875)"/>
<path d="M0 0 C5.65999023 -0.02467467 11.31994932 -0.04284788 16.97998047 -0.05493164 C18.90641831 -0.05996787 20.83285231 -0.06679712 22.75927734 -0.07543945 C25.52442368 -0.08753608 28.28951958 -0.09323533 31.0546875 -0.09765625 C32.3516304 -0.10539818 32.3516304 -0.10539818 33.67477417 -0.11329651 C39.77225659 -0.11387171 39.77225659 -0.11387171 42 1 C42.34765625 3.13671875 42.34765625 3.13671875 42 6 C40.19803936 8.14519124 38.48553439 9.93642179 36.4375 11.8125 C35.32364582 12.87564318 34.21165799 13.94074523 33.1015625 15.0078125 C32.56305664 15.52118164 32.02455078 16.03455078 31.46972656 16.56347656 C29.6410202 18.35086995 27.96521638 20.23713801 26.3125 22.1875 C22.42764265 26.65875091 18.18832911 30.81167089 14 35 C27.86 35.495 27.86 35.495 42 36 C42 38.64 42 41.28 42 44 C36.34001954 44.04934926 30.68016364 44.08569529 25.02001953 44.10986328 C23.09356506 44.11993582 21.16712592 44.13359443 19.24072266 44.15087891 C16.47554748 44.17507241 13.710574 44.18647036 10.9453125 44.1953125 C10.0806839 44.20563507 9.2160553 44.21595764 8.32522583 44.22659302 C6.21546479 44.22699106 4.10619282 44.12265243 2 44 C0 42 0 42 -0.52148438 39.80200195 C0.29702662 35.40403813 3.19143923 33.1920361 6.34375 30.16796875 C6.9874353 29.53135818 7.63112061 28.89474762 8.29431152 28.23884583 C10.35143465 26.20969476 12.42526009 24.19861967 14.5 22.1875 C15.89827175 20.81430718 17.29542172 19.43997107 18.69140625 18.06445312 C22.11281774 14.69389496 25.55625057 11.34832534 29 8 C19.43 7.67 9.86 7.34 0 7 C0 4.69 0 2.38 0 0 Z " fill="#09ACE6" transform="translate(124,83)"/>
<path d="M0 0 C2.64 0 5.28 0 8 0 C8 5.94 8 11.88 8 18 C17.24 18 26.48 18 36 18 C36 12.06 36 6.12 36 0 C38.31 0 40.62 0 43 0 C43 14.52 43 29.04 43 44 C40.69 44 38.38 44 36 44 C36 37.73 36 31.46 36 25 C26.76 25 17.52 25 8 25 C8 31.27 8 37.54 8 44 C5.36 44 2.72 44 0 44 C0 29.48 0 14.96 0 0 Z " fill="#05AAE5" transform="translate(228,83)"/>
<path d="M0 0 C2.64 0 5.28 0 8 0 C8.01458252 0.85231201 8.02916504 1.70462402 8.04418945 2.58276367 C8.10543285 5.76071175 8.17962029 8.93802546 8.26245117 12.11547852 C8.29559806 13.48775958 8.32366171 14.86017362 8.34643555 16.23266602 C8.38016766 18.21137766 8.4340149 20.18971376 8.48828125 22.16796875 C8.51446533 23.35672607 8.54064941 24.5454834 8.56762695 25.77026367 C9.03508788 29.26209914 9.93456379 31.17718385 12 34 C15.46849621 36.59744852 19.16215694 36.2998867 23.375 36.3125 C24.66148437 36.32925781 25.94796875 36.34601563 27.2734375 36.36328125 C31.27216366 35.97346832 33.64758592 35.19044165 37 33 C39.32464659 29.55834778 39.30672776 26.34434503 39.4140625 22.265625 C39.45273438 20.97011719 39.49140625 19.67460938 39.53125 18.33984375 C39.56270267 16.97656716 39.59395007 15.61328582 39.625 14.25 C39.66320469 12.87106972 39.70225787 11.49216266 39.7421875 10.11328125 C39.83648004 6.74232282 39.9220822 3.37137022 40 0 C42.31 0 44.62 0 47 0 C47.12452065 4.41071299 47.21476527 8.82046857 47.2746582 13.23242188 C47.29965007 14.72999923 47.33365627 16.22745651 47.37719727 17.72460938 C47.81399366 33.14095277 47.81399366 33.14095277 43.52246094 38.53540039 C37.37718855 44.44712089 31.77761928 44.65231159 23.5625 44.5625 C22.56412109 44.58634766 21.56574219 44.61019531 20.53710938 44.63476562 C13.80536634 44.62148803 9.15721065 43.45567228 4 39 C0.12230792 33.87143951 -0.12437287 29.3519965 -0.09765625 23.046875 C-0.0962413 22.38665344 -0.09482635 21.72643188 -0.09336853 21.04620361 C-0.08779245 18.94742206 -0.07524447 16.84874905 -0.0625 14.75 C-0.0574819 13.32291821 -0.05291954 11.89583475 -0.04882812 10.46875 C-0.03783088 6.97913168 -0.0205828 3.48957644 0 0 Z " fill="#05ABE5" transform="translate(174,83)"/>
<path d="M0 0 C2.94611195 3.68263994 4.91826203 6.45324682 6.98828125 10.53515625 C7.53033203 11.59283203 8.07238281 12.65050781 8.63085938 13.74023438 C9.18580078 14.83658203 9.74074219 15.93292969 10.3125 17.0625 C12.51202581 21.39110418 14.74045945 25.70241716 17 30 C17.58313965 31.13808105 18.1662793 32.27616211 18.76708984 33.44873047 C19.35312988 34.53686035 19.93916992 35.62499023 20.54296875 36.74609375 C21.06270264 37.73150146 21.58243652 38.71690918 22.11791992 39.73217773 C23.87782948 42.30341651 23.87782948 42.30341651 27.21606445 42.82836914 C28.13476318 42.88500732 29.05346191 42.94164551 30 43 C30.226875 42.360625 30.45375 41.72125 30.6875 41.0625 C32.48565826 36.86679739 34.73904021 32.96099444 37 29 C39.49552403 31.27597646 41.06622986 33.60721178 42.6875 36.5625 C43.12449219 37.34753906 43.56148437 38.13257813 44.01171875 38.94140625 C45 41 45 41 45 43 C45.99 43.495 45.99 43.495 47 44 C31.49 44 15.98 44 0 44 C0 29.48 0 14.96 0 0 Z " fill="#FAFDFE" transform="translate(0,84)"/>
<path d="M0 0 C0.66 0 1.32 0 2 0 C3.33858524 2.28874173 4.67101014 4.58069656 6 6.875 C6.3815625 7.52597656 6.763125 8.17695312 7.15625 8.84765625 C10 13.7734375 10 13.7734375 10 16 C3.73 16 -2.54 16 -9 16 C-7.25746132 12.51492263 -5.42899643 9.13391747 -3.5 5.75 C-2.8915625 4.67234375 -2.283125 3.5946875 -1.65625 2.484375 C-0.83640625 1.25460938 -0.83640625 1.25460938 0 0 Z " fill="#ECF8FD" transform="translate(91,94)"/>
<path d="M0 0 C4.7190991 0.46765847 6.91832317 2.34934594 10.3125 5.5625 C11.19550781 6.38878906 12.07851562 7.21507812 12.98828125 8.06640625 C13.65214844 8.70449219 14.31601563 9.34257813 15 10 C15.43957031 9.49855469 15.87914062 8.99710938 16.33203125 8.48046875 C17.15767578 7.74763672 17.15767578 7.74763672 18 7 C20.6875 7.3125 20.6875 7.3125 23 8 C23.33 8.99 23.66 9.98 24 11 C25.79275845 9.54300902 27.58417229 8.08436345 29.375 6.625 C30.37273437 5.81289063 31.37046875 5.00078125 32.3984375 4.1640625 C34.96360506 2.09734084 34.96360506 2.09734084 37 0 C39.125 0.375 39.125 0.375 41 1 C38.92181956 2.9640607 36.83785435 4.92126906 34.75 6.875 C34.16347656 7.43058594 33.57695312 7.98617187 32.97265625 8.55859375 C32.39902344 9.09355469 31.82539063 9.62851562 31.234375 10.1796875 C30.71069336 10.67194824 30.18701172 11.16420898 29.64746094 11.67138672 C27.86610207 13.10798348 26.07537799 14.04911389 24 15 C22.68 13.68 21.36 12.36 20 11 C19.01 12.32 18.02 13.64 17 15 C12.58068871 14.58110793 10.25029216 11.55211494 7.375 8.5 C4.04275785 4.79727917 4.04275785 4.79727917 0 2 C0 1.34 0 0.68 0 0 Z " fill="#E7F7FC" transform="translate(115,32)"/>
</svg>
