<?xml version="1.0" encoding="UTF-8"?>
<svg version="1.1" xmlns="http://www.w3.org/2000/svg" width="512" height="512">
<path d="M0 0 C70.6921875 -1.0828125 70.6921875 -1.0828125 142.8125 -2.1875 C165.04459839 -2.66546021 165.04459839 -2.66546021 187.72583008 -3.15307617 C205.97595215 -3.31115723 205.97595215 -3.31115723 214.5488739 -3.3405304 C220.47743418 -3.3728596 226.39403755 -3.50040933 232.31925964 -3.69514465 C286.78568271 -5.43035472 286.78568271 -5.43035472 304.20670885 10.06363195 C310.84992568 16.46415831 316.62073596 23.52389455 321.93984509 31.04667187 C325.08216474 35.36921397 328.90596983 38.60834096 333 42 C334.53369104 43.46304904 336.0518415 44.94279505 337.54492188 46.44726562 C338.33934692 47.2449939 339.13377197 48.04272217 339.95227051 48.86462402 C340.78270874 49.7033606 341.61314697 50.54209717 342.46875 51.40625 C343.34849487 52.28978149 344.22823975 53.17331299 345.13464355 54.08361816 C348.39656945 57.3597232 351.65392564 60.6403498 354.91094971 63.92132568 C358.1148726 67.14830538 361.32269116 70.3713808 364.53125 73.59375 C365.36168823 74.43248657 366.19212646 75.27122314 367.04772949 76.13537598 C367.84215454 76.93310425 368.63657959 77.73083252 369.45507812 78.55273438 C370.14154419 79.24443726 370.82801025 79.93614014 371.53527832 80.64880371 C376.31984377 85.21299147 381.02450332 89.44312982 386.6569519 92.93661499 C393.00467733 97.33175295 398.5712549 102.51783871 400.57168293 110.19357395 C403.05280099 124.0041482 402.14060127 138.47511983 401.82509089 152.43212938 C401.71176243 158.29734317 401.70193192 164.16276042 401.68063354 170.02890015 C401.62491745 181.11150834 401.47753738 192.19088055 401.29634273 203.27207029 C401.09441511 215.89814835 400.99599995 228.52438961 400.9058249 241.15168309 C400.71820359 267.10297017 400.39839438 293.05116603 400 319 C409.57 319 419.14 319 429 319 C429 360.25 429 401.5 429 444 C419.43 444 409.86 444 400 444 C400 461.82 400 479.64 400 498 C268 498 136 498 0 498 C0 480.18 0 462.36 0 444 C-9.57 444 -19.14 444 -29 444 C-29 402.75 -29 361.5 -29 319 C-19.43 319 -9.86 319 0 319 C0 213.73 0 108.46 0 0 Z M15 16 C15 115.99 15 215.98 15 319 C136.44 319 257.88 319 383 319 C383 253.33 383 187.66 383 120 C349.94100424 119.82948084 349.94100424 119.82948084 316.88183594 119.70214844 C310.48876953 119.65673828 310.48876953 119.65673828 307.49615479 119.63043213 C305.4055355 119.61581538 303.31485243 119.60904657 301.22418213 119.60845947 C298.0575552 119.60604808 294.89202361 119.57875842 291.72558594 119.54589844 C290.79377377 119.55092251 289.86196159 119.55594658 288.90191269 119.56112289 C288.04835316 119.54721638 287.19479362 119.53330986 286.31536865 119.51898193 C285.57424709 119.51529476 284.83312553 119.51160759 284.06954575 119.50780869 C282 119 282 119 278 115 C277.505 65.995 277.505 65.995 277 16 C190.54 16 104.08 16 15 16 Z M294 28 C294 53.08 294 78.16 294 104 C319.41 104 344.82 104 371 104 C366.28107585 98.45072974 366.28107585 98.45072974 361.32470703 93.1953125 C360.34306076 92.20893799 360.34306076 92.20893799 359.34158325 91.20263672 C358.6539389 90.5170166 357.96629456 89.83139648 357.2578125 89.125 C356.53061005 88.39684082 355.80340759 87.66868164 355.0541687 86.91845703 C353.52415712 85.3877687 351.99289701 83.85832743 350.46044922 82.33007812 C348.13524902 80.01022545 345.81542402 77.68509461 343.49609375 75.359375 C342.00032043 73.8642627 340.50423681 72.36946074 339.0078125 70.875 C338.32421661 70.18937988 337.64062073 69.50375977 336.93630981 68.79736328 C333.05762321 64.93718068 329.06747616 61.28008827 324.92645264 57.70407104 C321.86358277 54.994766 318.99831773 52.10273629 316.12890625 49.19140625 C315.52110825 48.57982162 314.91331024 47.968237 314.28709412 47.33811951 C312.37640496 45.41536534 310.46905374 43.48935422 308.5625 41.5625 C306.02497078 38.99846917 303.48419833 36.43771659 300.94140625 33.87890625 C300.35919815 33.28839981 299.77699005 32.69789337 299.17713928 32.0894928 C297.80353934 30.7074069 296.404408 29.35076881 295 28 C294.67 28 294.34 28 294 28 Z M-13 335 C-13 365.69 -13 396.38 -13 428 C127.58 428 268.16 428 413 428 C413 397.31 413 366.62 413 335 C272.42 335 131.84 335 -13 335 Z M16 444 C16 456.54 16 469.08 16 482 C137.44 482 258.88 482 384 482 C384 469.46 384 456.92 384 444 C262.56 444 141.12 444 16 444 Z " fill="#000000" transform="translate(56,7)"/>
<path d="M0 0 C8.58 0 17.16 0 26 0 C26.825 2.413125 27.65 4.82625 28.5 7.3125 C28.89155273 8.44619019 28.89155273 8.44619019 29.29101562 9.6027832 C30.27717698 12.52487323 31 14.89614406 31 18 C36.43339761 17.47064325 39.53143258 14.45839935 43.5390625 10.97460938 C45.0625 9.73828125 45.0625 9.73828125 48 8 C51.59434187 9.04150723 54.27529773 10.75633869 57.20703125 13.0390625 C57.95791016 13.61914062 58.70878906 14.19921875 59.48242188 14.796875 C60.25134766 15.40015625 61.02027344 16.0034375 61.8125 16.625 C62.99489258 17.54152344 62.99489258 17.54152344 64.20117188 18.4765625 C66.13820974 19.9792343 68.07092079 21.48713386 70 23 C69.79721436 23.66966797 69.59442871 24.33933594 69.38549805 25.02929688 C69.11777588 25.91681641 68.85005371 26.80433594 68.57421875 27.71875 C68.30955811 28.59466797 68.04489746 29.47058594 67.7722168 30.37304688 C65.78821254 36.5919722 65.78821254 36.5919722 65 43 C71.27 43 77.54 43 84 43 C87.37941457 50.88530067 87.37941457 50.88530067 88.38671875 54.11328125 C88.60263672 54.80357422 88.81855469 55.49386719 89.04101562 56.20507812 C89.25435547 56.90052734 89.46769531 57.59597656 89.6875 58.3125 C89.91244141 59.02728516 90.13738281 59.74207031 90.36914062 60.47851562 C92 65.73791318 92 65.73791318 92 68 C88.85675371 69.95932801 85.66826922 71.77020371 82.41992188 73.546875 C81.74638672 73.93101562 81.07285156 74.31515625 80.37890625 74.7109375 C79.7557251 75.05431152 79.13254395 75.39768555 78.49047852 75.75146484 C76.59172421 77.34200203 76.37365682 78.5976046 76 81 C76.71542969 81.25523437 77.43085938 81.51046875 78.16796875 81.7734375 C81.20246618 83.0876888 83.63188911 84.69496016 86.3125 86.625 C87.19550781 87.25664062 88.07851563 87.88828125 88.98828125 88.5390625 C89.65214844 89.02117187 90.31601562 89.50328125 91 90 C89.82981326 95.9573143 88.23930991 101.70842209 86.4375 107.5 C86.21553955 108.21865234 85.9935791 108.93730469 85.76489258 109.67773438 C84.12575354 114.87424646 84.12575354 114.87424646 83 116 C81.65732587 116.08631874 80.31025678 116.10706473 78.96484375 116.09765625 C78.15595703 116.09443359 77.34707031 116.09121094 76.51367188 116.08789062 C75.66353516 116.07951172 74.81339844 116.07113281 73.9375 116.0625 C73.08349609 116.05798828 72.22949219 116.05347656 71.34960938 116.04882812 C69.23304337 116.03700373 67.11651315 116.01906769 65 116 C63.68380318 119.94859046 64.98816873 122.30666495 66.4375 126 C69 132.63395225 69 132.63395225 69 136 C66.21580715 138.74540442 62.96351498 140.94247335 59.8125 143.25 C58.94818359 143.91257813 58.08386719 144.57515625 57.19335938 145.2578125 C56.35224609 145.87914062 55.51113281 146.50046875 54.64453125 147.140625 C53.87471924 147.71329102 53.10490723 148.28595703 52.31176758 148.87597656 C49.37884542 150.30201665 48.04948848 150.03617028 45 149 C42.02410648 146.75766007 39.30546734 144.31308736 36.5234375 141.8359375 C35.69070312 141.23007813 34.85796875 140.62421875 34 140 C33.01 140.33 32.02 140.66 31 141 C29.98341026 143.67956602 29.1404986 146.2498754 28.375 149 C26.0923913 156.9076087 26.0923913 156.9076087 25 158 C23.07332493 158.08748207 21.14348139 158.10697334 19.21484375 158.09765625 C18.04501953 158.09443359 16.87519531 158.09121094 15.66992188 158.08789062 C14.43822266 158.07951172 13.20652344 158.07113281 11.9375 158.0625 C10.08415039 158.05573242 10.08415039 158.05573242 8.19335938 158.04882812 C5.12888587 158.03699618 2.06443707 158.01906008 -1 158 C-2.65 152.39 -4.3 146.78 -6 141 C-11.40025896 142.35006474 -14.24914211 145.5081626 -18.34375 149.1640625 C-21 151 -21 151 -22.89550781 150.79858398 C-25.36777073 149.86044338 -27.19778633 148.62591434 -29.328125 147.05859375 C-30.12734375 146.47529297 -30.9265625 145.89199219 -31.75 145.29101562 C-32.575 144.67935547 -33.4 144.06769531 -34.25 143.4375 C-35.09046875 142.82197266 -35.9309375 142.20644531 -36.796875 141.57226562 C-38.86873236 140.05368836 -40.93617964 138.52947228 -43 137 C-42.48763007 132.91596397 -41.87198483 129.17244228 -40.4375 125.3125 C-39.2606962 122.14244958 -39 120.53444472 -39 117 C-45.27 117 -51.54 117 -58 117 C-59.20204693 113.44182119 -60.38695798 109.87943035 -61.5625 106.3125 C-62.07586914 104.80139648 -62.07586914 104.80139648 -62.59960938 103.25976562 C-62.91865234 102.28330078 -63.23769531 101.30683594 -63.56640625 100.30078125 C-64.01415405 98.95753784 -64.01415405 98.95753784 -64.47094727 97.5871582 C-65.0732383 94.64185222 -64.9478845 92.84604715 -64 90 C-61.82129607 88.18007335 -59.81229742 86.69145495 -57.4375 85.1875 C-56.82197266 84.78080078 -56.20644531 84.37410156 -55.57226562 83.95507812 C-54.05694751 82.9566127 -52.52958612 81.97646735 -51 81 C-51.00682102 79.14993285 -51.00682102 79.14993285 -52 77 C-54.16517274 75.26326118 -56.24547306 73.74910911 -58.5625 72.25 C-59.48579102 71.63318359 -59.48579102 71.63318359 -60.42773438 71.00390625 C-61.94504641 69.99236489 -63.47166086 68.99480211 -65 68 C-64.3858292 62.20813617 -62.84331568 57.05175402 -60.9375 51.5625 C-59.968125 48.736875 -58.99875 45.91125 -58 43 C-51.73 42.67 -45.46 42.34 -39 42 C-39.85032009 35.91394466 -39.85032009 35.91394466 -41.5625 30.3125 C-42.7393038 27.14244958 -43 25.53444472 -43 22 C-41.31933594 20.24487305 -41.31933594 20.24487305 -38.984375 18.51171875 C-38.14519531 17.88845703 -37.30601562 17.26519531 -36.44140625 16.62304688 C-35.10916016 15.66495117 -35.10916016 15.66495117 -33.75 14.6875 C-32.87730469 14.02943359 -32.00460938 13.37136719 -31.10546875 12.69335938 C-30.26113281 12.07654297 -29.41679687 11.45972656 -28.546875 10.82421875 C-27.38430176 9.97476685 -27.38430176 9.97476685 -26.19824219 9.1081543 C-24 8 -24 8 -21.88183594 8.19433594 C-17.91249681 9.89371569 -14.8641819 13.24183983 -11.65625 16.06640625 C-9.00859582 18.39235007 -9.00859582 18.39235007 -5 18 C-4.70996094 16.80503906 -4.70996094 16.80503906 -4.4140625 15.5859375 C-4.15367187 14.52632812 -3.89328125 13.46671875 -3.625 12.375 C-3.36976563 11.33085938 -3.11453125 10.28671875 -2.8515625 9.2109375 C-2.02764916 6.1042551 -1.01638126 3.04914379 0 0 Z M12 18 C11.82726562 18.89203125 11.65453125 19.7840625 11.4765625 20.703125 C9.22482728 30.08191208 9.22482728 30.08191208 5.75390625 32.68359375 C3.18332987 33.68913124 0.69088206 34.39372102 -2 35 C-3.27159638 35.43527722 -4.54254042 35.87247015 -5.8125 36.3125 C-9.26479359 37.05711234 -10.72676756 37.277359 -14 36 C-16.1099984 34.46015896 -18.13689125 32.86495953 -20.1328125 31.1796875 C-20.74898437 30.79039063 -21.36515625 30.40109375 -22 30 C-22.99 30.33 -23.98 30.66 -25 31 C-24.69964844 31.73605469 -24.39929688 32.47210938 -24.08984375 33.23046875 C-23.70957031 34.20628906 -23.32929688 35.18210937 -22.9375 36.1875 C-22.55464844 37.15042969 -22.17179687 38.11335938 -21.77734375 39.10546875 C-20.41943403 44.16180595 -21.97220467 47.58722448 -24.52758789 52.0637207 C-29.14242121 59.41768089 -29.14242121 59.41768089 -32.89404297 60.59375 C-37.3180638 61.13602883 -41.60174196 60.67799235 -46 60 C-46.33 60.66 -46.66 61.32 -47 62 C-45.3790787 63.17232685 -43.75313167 64.3377077 -42.125 65.5 C-41.22007812 66.1496875 -40.31515625 66.799375 -39.3828125 67.46875 C-37.19164492 69.18020606 -37.19164492 69.18020606 -35 69 C-35 76.26 -35 83.52 -35 91 C-37.475 91.99 -37.475 91.99 -40 93 C-42.01345199 94.2509846 -42.01345199 94.2509846 -43.8125 95.625 C-45.3903125 96.800625 -45.3903125 96.800625 -47 98 C-46.67 98.66 -46.34 99.32 -46 100 C-45.03320312 99.83757812 -44.06640625 99.67515625 -43.0703125 99.5078125 C-32.96874736 98.52766064 -32.96874736 98.52766064 -29.29199219 101.27734375 C-27.67777164 102.97395362 -26.33073472 104.69856087 -25 106.625 C-24.57348145 107.24133301 -24.14696289 107.85766602 -23.70751953 108.49267578 C-21.85057678 111.50733722 -20.97887195 113.56660402 -21.15234375 117.125 C-21.43207031 118.07375 -21.71179688 119.0225 -22 120 C-22.24878906 120.91523438 -22.49757813 121.83046875 -22.75390625 122.7734375 C-23.02074219 123.63195312 -23.28757812 124.49046875 -23.5625 125.375 C-23.83191406 126.24898438 -24.10132813 127.12296875 -24.37890625 128.0234375 C-24.58386719 128.67570312 -24.78882813 129.32796875 -25 130 C-21.56252776 129.40680789 -19.83283293 128.16966562 -17.25 125.875 C-14.07458011 123.43191864 -13.31822548 123.00513267 -9.125 122.9375 C-7.73765098 123.23969484 -6.36222319 123.59949155 -5 124 C-3.70255859 124.37511719 -3.70255859 124.37511719 -2.37890625 124.7578125 C-0.64557402 125.27605117 1.08179448 125.81490588 2.80078125 126.37890625 C5.10030572 127.13589247 5.10030572 127.13589247 8 127 C8.20496094 127.83144531 8.40992188 128.66289062 8.62109375 129.51953125 C8.89050781 130.60621094 9.15992188 131.69289063 9.4375 132.8125 C9.70433594 133.89144531 9.97117188 134.97039062 10.24609375 136.08203125 C10.76077412 138.0740843 11.34937175 140.04811524 12 142 C12.66 142 13.32 142 14 142 C14.18691406 141.04738281 14.37382812 140.09476562 14.56640625 139.11328125 C17.13206983 129.32351394 17.13206983 129.32351394 20.62841797 126.84619141 C26.07701039 124.25223408 32.97846499 122.17014139 39 123 C41.38671875 124.53125 41.38671875 124.53125 43.6875 126.5 C46.47899375 129.19171047 46.47899375 129.19171047 50 130 C49.71259058 128.62410383 49.41982258 127.24932678 49.125 125.875 C48.96257812 125.10929687 48.80015625 124.34359375 48.6328125 123.5546875 C48.0641928 120.89153167 48.0641928 120.89153167 46.65625 118.1875 C45.8147605 114.10026529 46.73450374 112.56220001 48.92456055 109.13696289 C49.40320557 108.47301514 49.88185059 107.80906738 50.375 107.125 C50.8594458 106.44751709 51.3438916 105.77003418 51.84301758 105.07202148 C54.65499855 101.60270563 56.78639237 99.61931265 61.30078125 99.02734375 C65.27368875 98.90299748 69.08694026 99.33718562 73 100 C73 99.01 73 98.02 73 97 C71.18229473 96.15311459 69.34521296 95.34764743 67.5 94.5625 C64.42312021 92.70838023 62.43573645 91.34316523 61.30175781 87.84765625 C60.29941854 81.93175171 60.18725901 75.76400927 62 70 C65.1988017 66.13436346 68.60154926 64.27062879 73 62 C73 61.34 73 60.68 73 60 C67.54230189 59.88861841 62.38490641 60.08342019 57 61 C56.63841797 60.18402344 56.63841797 60.18402344 56.26953125 59.3515625 C55.00549731 56.85986912 55.00549731 56.85986912 52.94921875 54.3359375 C46.94311098 46.47301921 46.94311098 46.47301921 47.109375 42.16796875 C47.90540977 39.66346312 48.90453997 37.3852092 50 35 C50.37437149 33.3420691 50.71913728 31.67630696 51 30 C47.5599004 30.59496179 45.79001329 31.84581321 43.1875 34.125 C39.43653101 36.98288114 39.43653101 36.98288114 35.8125 37.125 C34.554375 36.75375 33.29625 36.3825 32 36 C30.95972656 35.83886719 29.91945313 35.67773438 28.84765625 35.51171875 C25.0843744 34.75398258 22.30271979 33.97816899 19 32 C16.39208207 27.47926051 15.11407972 23.11246398 14 18 C13.34 18 12.68 18 12 18 Z " fill="#000000" transform="translate(192,88)"/>
<path d="M0 0 C5.28 0 10.56 0 16 0 C16 3.96 16 7.92 16 12 C20.95 13.485 20.95 13.485 26 15 C28.31 12.69 30.62 10.38 33 8 C36.66771845 9.83385923 38.46834996 11.25062829 41.25 14.125 C41.95640625 14.84945312 42.6628125 15.57390625 43.390625 16.3203125 C44.18726563 17.15175781 44.18726563 17.15175781 45 18 C43.67711074 20.97650083 42.90028909 22.07931549 40.25 24.1875 C37.7268041 26.7029105 37.7268041 26.7029105 38.12109375 29.3203125 C38.63369694 31.57576652 39.30822315 33.79290244 40 36 C43.96 36 47.92 36 52 36 C52 41.28 52 46.56 52 52 C48.04 52 44.08 52 40 52 C39.01 55.3 38.02 58.6 37 62 C39.31 64.31 41.62 66.62 44 69 C42.16614077 72.66771845 40.74937171 74.46834996 37.875 77.25 C37.15054688 77.95640625 36.42609375 78.6628125 35.6796875 79.390625 C35.12539063 79.92171875 34.57109375 80.4528125 34 81 C30.07699728 79.17495091 27.26212728 76.81729174 24 74 C23.071875 74.495 22.14375 74.99 21.1875 75.5 C18 77 18 77 15 77 C15 80.96 15 84.92 15 89 C9.72 89 4.44 89 -1 89 C-1 85.04 -1 81.08 -1 77 C-5.91582077 75.48046291 -5.91582077 75.48046291 -11 75 C-12.66756036 76.30436727 -12.66756036 76.30436727 -14.1875 78 C-14.71730469 78.556875 -15.24710937 79.11375 -15.79296875 79.6875 C-16.19128906 80.120625 -16.58960938 80.55375 -17 81 C-20.45201639 79.52278578 -22.64961936 77.56205999 -25.25 74.875 C-25.95640625 74.15054688 -26.6628125 73.42609375 -27.390625 72.6796875 C-27.92171875 72.12539063 -28.4528125 71.57109375 -29 71 C-27.80594521 68.40117486 -26.995269 66.99580968 -24.8125 65.0625 C-22.70803902 63.15146026 -22.70803902 63.15146026 -23.125 60.5625 C-23.99647071 58.01033577 -24.99841481 55.50396297 -26 53 C-29.96 52.67 -33.92 52.34 -38 52 C-38 46.72 -38 41.44 -38 36 C-33.71 36 -29.42 36 -25 36 C-23.50427408 31.05105098 -23.50427408 31.05105098 -23 26 C-24.66645325 23.229792 -26.37330542 21.99628788 -29 20 C-27.52278578 16.54798361 -25.56205999 14.35038064 -22.875 11.75 C-22.15054687 11.04359375 -21.42609375 10.3371875 -20.6796875 9.609375 C-20.12539063 9.07828125 -19.57109375 8.5471875 -19 8 C-16.39810847 9.19298346 -15.02462208 9.97127424 -13.125 12.1875 C-11.09130293 14.3480123 -11.09130293 14.3480123 -8.0625 13.8125 C-6.5465625 13.4103125 -6.5465625 13.4103125 -5 13 C-3.35 12.67 -1.7 12.34 0 12 C0 8.04 0 4.08 0 0 Z M-6.8125 35.0625 C-10.34505437 39.80621587 -10.8186648 44.25074038 -10 50 C-7.75660943 55.51177855 -4.40338834 59.40221714 1 62 C6.34751678 63.43130561 11.03557062 63.36163349 16.140625 61.15625 C20.4194078 58.49549431 23.41773779 54.74678662 25 50 C25.53760715 43.65623563 24.68147796 39.26890424 21 34 C16.91187465 29.68772157 13.11261059 27.86042949 7.1875 27.6875 C0.77309703 27.77140934 -2.67504426 30.34909161 -6.8125 35.0625 Z " fill="#000000" transform="translate(327,204)"/>
<path d="M0 0 C42.14698795 0 42.14698795 0 48.65625 6.37109375 C51.80331748 10.18599822 52.17871681 13.72844913 51.875 18.5 C51.28115625 22.79450421 49.68176483 25.56398882 47 29 C46.67 29.66 46.34 30.32 46 31 C46.928125 31.680625 47.85625 32.36125 48.8125 33.0625 C53.36646792 36.89515386 54.78567935 41.07111412 55.4375 46.9375 C55.16742211 52.99663883 52.40107751 57.34744704 48.5625 61.875 C36.10847499 69.30371667 11.22357589 66 0 66 C0 44.22 0 22.44 0 0 Z M13 12 C13 16.62 13 21.24 13 26 C15.6881249 26.08164159 18.373723 26.14079668 21.0625 26.1875 C21.81466797 26.21263672 22.56683594 26.23777344 23.34179688 26.26367188 C28.6424924 26.33251208 32.35490773 25.63624068 37 23 C38.24285895 19.55125329 38.24285895 19.55125329 38 16 C36.27773504 12.75150023 36.27773504 12.75150023 33 12 C31.44578271 11.91893314 29.88832973 11.89243102 28.33203125 11.90234375 C27.43935547 11.90556641 26.54667969 11.90878906 25.62695312 11.91210938 C24.69818359 11.92048828 23.76941406 11.92886719 22.8125 11.9375 C21.40194336 11.94426758 21.40194336 11.94426758 19.96289062 11.95117188 C17.64189992 11.96295355 15.32094193 11.98088886 13 12 Z M13 38 C13 43.28 13 48.56 13 54 C16.39631472 54.08107913 19.79068616 54.14053944 23.1875 54.1875 C24.62706055 54.22520508 24.62706055 54.22520508 26.09570312 54.26367188 C33.0590537 54.38866979 33.0590537 54.38866979 39 51 C40.42041821 48.15916359 40.31452272 46.14522722 40 43 C37.6171868 39.85128256 35.81006964 38.71210983 32 38 C30.48604304 37.92181364 28.96906493 37.89210091 27.453125 37.90234375 C26.60878906 37.90556641 25.76445312 37.90878906 24.89453125 37.91210938 C24.02183594 37.92048828 23.14914063 37.92886719 22.25 37.9375 C21.36183594 37.94201172 20.47367188 37.94652344 19.55859375 37.95117188 C17.37236684 37.96292578 15.18617472 37.98086034 13 38 Z " fill="#000000" transform="translate(173,357)"/>
<path d="M0 0 C5.28 0 10.56 0 16 0 C16.96679688 2.45308594 17.93359375 4.90617187 18.9296875 7.43359375 C19.90015442 9.89470023 20.87083269 12.35572326 21.84152222 14.81674194 C22.5287061 16.55934613 23.21565803 18.3020418 23.90237427 20.04483032 C27.3140742 28.7028722 30.72668108 37.35994694 34.22265625 45.984375 C34.9199585 47.70829468 34.9199585 47.70829468 35.63134766 49.46704102 C36.48463275 51.57090713 37.3421976 53.67304391 38.20458984 55.77319336 C38.57922363 56.69753174 38.95385742 57.62187012 39.33984375 58.57421875 C39.66331787 59.36401123 39.98679199 60.15380371 40.32006836 60.9675293 C41 63 41 63 41 66 C36.05 66 31.1 66 26 66 C21.125 55.375 21.125 55.375 20 52 C11.75 51.67 3.5 51.34 -5 51 C-5.99 54.3 -6.98 57.6 -8 61 C-8.99 63.475 -8.99 63.475 -10 66 C-14.95 66 -19.9 66 -25 66 C-20.05406621 51.67300817 -14.63220655 37.55693057 -9.125 23.4375 C-8.23673683 21.15439114 -7.34871434 18.87118863 -6.4609375 16.58789062 C-4.31005966 11.05751215 -2.15594679 5.52840427 0 0 Z M8 18 C6.6638956 21.31138908 5.331582 24.62429006 4 27.9375 C3.6184375 28.88302734 3.236875 29.82855469 2.84375 30.80273438 C2.4828125 31.70185547 2.121875 32.60097656 1.75 33.52734375 C1.41484375 34.35999756 1.0796875 35.19265137 0.734375 36.05053711 C-0.05875383 37.8087676 -0.05875383 37.8087676 0 39 C5.28 39 10.56 39 16 39 C13.9376064 31.88474206 11.59810321 24.93706745 9 18 C8.67 18 8.34 18 8 18 Z " fill="#000000" transform="translate(256,357)"/>
<path d="M0 0 C6.15031176 4.39459993 10.76203107 10.1076637 12.2578125 17.61328125 C13.32384024 26.59456493 11.33796897 32.99304654 6.3828125 40.42578125 C0.62779793 46.35006095 -5.81205387 48.87952229 -13.9921875 49.05078125 C-21.43567631 48.91498214 -27.00654678 46.94528282 -32.5859375 41.96875 C-39.03623127 34.9651222 -40.39366525 28.50846295 -40.14453125 19.12109375 C-39.2702315 11.49855804 -36.18765389 6.4528161 -30.3046875 1.61328125 C-20.96335656 -4.89502309 -10.03013447 -5.72459443 0 0 Z M-22.7421875 17.61328125 C-24.17522814 20.47936254 -24.04862905 22.42628908 -23.7421875 25.61328125 C-21.78343433 29.68748785 -20.49282643 31.26576323 -16.3671875 33.17578125 C-12.01184356 33.70142621 -10.33435692 33.06248767 -6.7421875 30.61328125 C-3.85341085 28.01338227 -3.74323808 26.62273645 -3.3046875 22.67578125 C-3.44959022 18.58799938 -4.77903306 16.48928409 -7.7421875 13.61328125 C-14.11740991 10.42567004 -18.27932165 13.1504154 -22.7421875 17.61328125 Z " fill="#000000" transform="translate(218.7421875,144.38671875)"/>
<path d="M0 0 C17.16 0 34.32 0 52 0 C52 3.96 52 7.92 52 12 C45.73 12 39.46 12 33 12 C33 29.82 33 47.64 33 66 C28.38 66 23.76 66 19 66 C19 48.18 19 30.36 19 12 C12.73 12 6.46 12 0 12 C0 8.04 0 4.08 0 0 Z " fill="#000000" transform="translate(292,357)"/>
</svg>
