<?xml version="1.0" encoding="UTF-8"?>
<svg version="1.1" xmlns="http://www.w3.org/2000/svg" width="512" height="512">
<path d="M0 0 C0.91443298 -0.07634997 1.82886596 -0.15269993 2.77100903 -0.23136353 C5.85887048 -0.48496367 8.94735299 -0.72929752 12.03614807 -0.97125244 C13.1165933 -1.05671452 14.19703854 -1.14217659 15.31022453 -1.23022842 C36.34577491 -2.87303107 57.40098965 -3.91870023 78.48380556 -4.70743667 C81.97570131 -4.83846083 85.46739937 -4.97418882 88.95899963 -5.112854 C90.00079547 -5.15410658 90.00079547 -5.15410658 91.06363768 -5.19619253 C100.71202075 -5.58819621 110.3109251 -6.23547787 119.92758157 -7.1052467 C180.1582053 -12.54486952 233.78290311 -9.0621384 281.79084913 30.77789991 C323.23072632 65.92773855 344.62105476 105.38596717 349.22981584 159.62058568 C352.62413552 203.21182373 350.53487253 247.09824574 348.22538775 290.68842852 C347.38372768 306.76581047 346.83385237 322.8352625 346.47169495 338.93035889 C346.44584515 340.07573131 346.41999534 341.22110374 346.39336222 342.40118442 C346.26488287 348.1527352 346.14060648 353.90436877 346.01778209 359.6560427 C345.26710749 394.4386011 344.2163642 429.20603614 342.57136071 463.95829093 C342.44547222 466.6650446 342.32635041 469.37201807 342.20910645 472.07915878 C342.02724908 476.24893174 341.82629045 480.4173256 341.6090861 484.58540335 C341.53304773 486.09277148 341.46296512 487.60045418 341.39941382 489.10840038 C341.3115516 491.15615418 341.20056257 493.20137147 341.08332729 495.2476244 C341.0268444 496.38422278 340.97036151 497.52082117 340.91216701 498.69186193 C339.72962385 504.69772894 336.15969383 508.38182519 331.29225159 511.840271 C326.79138946 514.09070206 320.69335852 513.15014424 315.68922424 513.19036865 C314.17799993 513.20693268 312.66685411 513.23422943 311.15602112 513.2723999 C308.97445665 513.32721308 306.79472464 513.34904458 304.61256409 513.3637085 C303.30561584 513.38352783 301.9986676 513.40334717 300.65211487 513.42376709 C297.29225159 512.840271 297.29225159 512.840271 294.83473206 510.43255615 C293.29225159 507.840271 293.29225159 507.840271 293.29225159 505.840271 C287.02225159 505.840271 280.75225159 505.840271 274.29225159 505.840271 C273.96225159 507.160271 273.63225159 508.480271 273.29225159 509.840271 C271.68150574 512.03285251 270.83633828 512.74502178 268.13760394 513.21746916 C267.29445976 513.21849829 266.45131558 513.21952742 265.58262157 513.22058773 C264.60848126 513.22902767 263.63434094 513.23746761 262.63068122 513.24616331 C261.55793788 513.24015326 260.48519455 513.23414322 259.37994385 513.22795105 C257.67348237 513.23602936 257.67348237 513.23602936 255.93254691 513.24427086 C252.10011031 513.25863929 248.2680148 513.25142466 244.43556213 513.24432373 C241.69611204 513.24837733 238.95667966 513.25688394 236.21723938 513.26512146 C229.53599369 513.28234279 222.85484191 513.28314243 216.17357977 513.27790856 C210.7432005 513.27387107 205.31284903 513.27530539 199.88247108 513.28065681 C199.11028411 513.28140524 198.33809713 513.28215366 197.54251054 513.28292476 C195.97390653 513.28445621 194.40530251 513.28599455 192.83669851 513.28753973 C178.116229 513.30127734 163.39581258 513.2958187 148.67534427 513.28435452 C135.20652763 513.27442529 121.73784844 513.28735515 108.269053 513.31128871 C94.44434303 513.33566982 80.61969709 513.34528974 66.79496604 513.33863598 C59.0314696 513.33514097 51.26807883 513.33739407 43.50459862 513.35488701 C36.89412071 513.36959687 30.28382284 513.37026071 23.67334851 513.3528161 C20.30032861 513.3442925 16.92789512 513.34434937 13.55484962 513.35746765 C9.89809723 513.37060522 6.24222431 513.35919275 2.58551025 513.34147644 C1.51945909 513.35108145 0.45340792 513.36068645 -0.64494783 513.37058252 C-6.66275443 513.31043721 -10.12438717 512.84859284 -14.70774841 508.840271 C-18.92951276 504.04799795 -19.83268109 501.67510631 -19.83917618 495.32437229 C-19.84122881 494.64423717 -19.84328145 493.96410205 -19.84539628 493.26335678 C-19.85109529 490.96171162 -19.84960548 488.66012575 -19.84819031 486.35847473 C-19.85077228 484.70071625 -19.85378496 483.04295839 -19.85719371 481.38520139 C-19.86528659 476.81207615 -19.86705455 472.23896658 -19.86779118 467.66583502 C-19.86963773 462.74074544 -19.87718298 457.81566408 -19.88392639 452.89057922 C-19.89752583 442.11398152 -19.90353675 431.33738753 -19.90793705 420.56078267 C-19.91069639 413.83724275 -19.91493314 407.11370427 -19.91944122 400.39016533 C-19.93163531 381.78963467 -19.94193479 363.18910517 -19.94531631 344.58857059 C-19.94553588 343.3974158 -19.94575545 342.206261 -19.94598167 340.97901061 C-19.94619994 339.78494409 -19.94641822 338.59087758 -19.94664311 337.36062723 C-19.94708659 334.94083726 -19.94753315 332.52104729 -19.94798279 330.10125732 C-19.94820422 328.90094812 -19.94842565 327.70063892 -19.94865379 326.46395671 C-19.95260428 307.00184864 -19.97006533 287.53977796 -19.99334231 268.07768435 C-20.01702504 248.115936 -20.02951674 228.15420643 -20.03068423 208.19244379 C-20.03160266 196.97663904 -20.03739704 185.760883 -20.05550385 174.54509163 C-20.07086326 164.99720738 -20.07604995 155.44938691 -20.06776574 145.90149266 C-20.0638446 141.02624255 -20.06485976 136.15112103 -20.07882309 131.27588654 C-20.09147467 126.81806491 -20.09044226 122.36046966 -20.07823238 117.90264874 C-20.07626011 116.2848979 -20.07942355 114.6671315 -20.08807674 113.0494026 C-20.09905185 110.8599921 -20.09176664 108.67139726 -20.07968521 106.48201084 C-20.0802823 105.26305357 -20.08087939 104.04409629 -20.08149457 102.78820091 C-19.70774841 99.840271 -19.70774841 99.840271 -18.43450236 97.92516226 C-16.70774841 96.840271 -16.70774841 96.840271 -12.70774841 96.840271 C-12.70774841 90.240271 -12.70774841 83.640271 -12.70774841 76.840271 C-14.35774841 76.510271 -16.00774841 76.180271 -17.70774841 75.840271 C-20.39665056 73.15136884 -19.97170386 71.77746065 -19.99827576 68.01702881 C-20.01103546 66.7952594 -20.02379517 65.57348999 -20.03694153 64.31469727 C-20.03999978 62.97426511 -20.04222722 61.63383084 -20.04368591 60.293396 C-20.05011252 58.92057149 -20.05684078 57.54774837 -20.06385803 56.17492676 C-20.07584619 53.29316028 -20.07953754 50.41151378 -20.07835388 47.52972412 C-20.07815116 43.84643755 -20.10539664 40.16392664 -20.1398983 36.48082352 C-20.16220298 33.64282745 -20.16619027 30.80501656 -20.16513443 27.96694183 C-20.16862804 25.95178004 -20.19027865 23.93667607 -20.2122345 21.92163086 C-20.15558608 10.55764376 -20.15558608 10.55764376 -15.70774841 5.840271 C-10.48583489 1.24001385 -6.80368115 0.55257604 0 0 Z " fill="#F9F6F6" transform="translate(95.70774841308594,-0.84027099609375)"/>
<path d="M0 0 C0.91443298 -0.07634997 1.82886596 -0.15269993 2.77100903 -0.23136353 C5.85887048 -0.48496367 8.94735299 -0.72929752 12.03614807 -0.97125244 C13.1165933 -1.05671452 14.19703854 -1.14217659 15.31022453 -1.23022842 C36.34577491 -2.87303107 57.40098965 -3.91870023 78.48380556 -4.70743667 C81.97570131 -4.83846083 85.46739937 -4.97418882 88.95899963 -5.112854 C90.00079547 -5.15410658 90.00079547 -5.15410658 91.06363768 -5.19619253 C100.71202075 -5.58819621 110.3109251 -6.23547787 119.92758157 -7.1052467 C180.1582053 -12.54486952 233.78290311 -9.0621384 281.79084913 30.77789991 C323.23072632 65.92773855 344.62105476 105.38596717 349.22981584 159.62058568 C352.62413552 203.21182373 350.53487253 247.09824574 348.22538775 290.68842852 C347.38372768 306.76581047 346.83385237 322.8352625 346.47169495 338.93035889 C346.44584515 340.07573131 346.41999534 341.22110374 346.39336222 342.40118442 C346.26488287 348.1527352 346.14060648 353.90436877 346.01778209 359.6560427 C345.26710749 394.4386011 344.2163642 429.20603614 342.57136071 463.95829093 C342.44547222 466.6650446 342.32635041 469.37201807 342.20910645 472.07915878 C342.02724908 476.24893174 341.82629045 480.4173256 341.6090861 484.58540335 C341.53304773 486.09277148 341.46296512 487.60045418 341.39941382 489.10840038 C341.3115516 491.15615418 341.20056257 493.20137147 341.08332729 495.2476244 C341.0268444 496.38422278 340.97036151 497.52082117 340.91216701 498.69186193 C339.72962385 504.69772894 336.15969383 508.38182519 331.29225159 511.840271 C326.79138946 514.09070206 320.69335852 513.15014424 315.68922424 513.19036865 C314.17799993 513.20693268 312.66685411 513.23422943 311.15602112 513.2723999 C308.97445665 513.32721308 306.79472464 513.34904458 304.61256409 513.3637085 C303.30561584 513.38352783 301.9986676 513.40334717 300.65211487 513.42376709 C297.29225159 512.840271 297.29225159 512.840271 294.83473206 510.43255615 C293.29225159 507.840271 293.29225159 507.840271 293.29225159 505.840271 C287.02225159 505.840271 280.75225159 505.840271 274.29225159 505.840271 C273.96225159 507.160271 273.63225159 508.480271 273.29225159 509.840271 C271.68150574 512.03285251 270.83633828 512.74502178 268.13760394 513.21746916 C267.29445976 513.21849829 266.45131558 513.21952742 265.58262157 513.22058773 C264.60848126 513.22902767 263.63434094 513.23746761 262.63068122 513.24616331 C261.55793788 513.24015326 260.48519455 513.23414322 259.37994385 513.22795105 C257.67348237 513.23602936 257.67348237 513.23602936 255.93254691 513.24427086 C252.10011031 513.25863929 248.2680148 513.25142466 244.43556213 513.24432373 C241.69611204 513.24837733 238.95667966 513.25688394 236.21723938 513.26512146 C229.53599369 513.28234279 222.85484191 513.28314243 216.17357977 513.27790856 C210.7432005 513.27387107 205.31284903 513.27530539 199.88247108 513.28065681 C199.11028411 513.28140524 198.33809713 513.28215366 197.54251054 513.28292476 C195.97390653 513.28445621 194.40530251 513.28599455 192.83669851 513.28753973 C178.116229 513.30127734 163.39581258 513.2958187 148.67534427 513.28435452 C135.20652763 513.27442529 121.73784844 513.28735515 108.269053 513.31128871 C94.44434303 513.33566982 80.61969709 513.34528974 66.79496604 513.33863598 C59.0314696 513.33514097 51.26807883 513.33739407 43.50459862 513.35488701 C36.89412071 513.36959687 30.28382284 513.37026071 23.67334851 513.3528161 C20.30032861 513.3442925 16.92789512 513.34434937 13.55484962 513.35746765 C9.89809723 513.37060522 6.24222431 513.35919275 2.58551025 513.34147644 C1.51945909 513.35108145 0.45340792 513.36068645 -0.64494783 513.37058252 C-6.66275443 513.31043721 -10.12438717 512.84859284 -14.70774841 508.840271 C-18.92951276 504.04799795 -19.83268109 501.67510631 -19.83917618 495.32437229 C-19.84122881 494.64423717 -19.84328145 493.96410205 -19.84539628 493.26335678 C-19.85109529 490.96171162 -19.84960548 488.66012575 -19.84819031 486.35847473 C-19.85077228 484.70071625 -19.85378496 483.04295839 -19.85719371 481.38520139 C-19.86528659 476.81207615 -19.86705455 472.23896658 -19.86779118 467.66583502 C-19.86963773 462.74074544 -19.87718298 457.81566408 -19.88392639 452.89057922 C-19.89752583 442.11398152 -19.90353675 431.33738753 -19.90793705 420.56078267 C-19.91069639 413.83724275 -19.91493314 407.11370427 -19.91944122 400.39016533 C-19.93163531 381.78963467 -19.94193479 363.18910517 -19.94531631 344.58857059 C-19.94553588 343.3974158 -19.94575545 342.206261 -19.94598167 340.97901061 C-19.94619994 339.78494409 -19.94641822 338.59087758 -19.94664311 337.36062723 C-19.94708659 334.94083726 -19.94753315 332.52104729 -19.94798279 330.10125732 C-19.94820422 328.90094812 -19.94842565 327.70063892 -19.94865379 326.46395671 C-19.95260428 307.00184864 -19.97006533 287.53977796 -19.99334231 268.07768435 C-20.01702504 248.115936 -20.02951674 228.15420643 -20.03068423 208.19244379 C-20.03160266 196.97663904 -20.03739704 185.760883 -20.05550385 174.54509163 C-20.07086326 164.99720738 -20.07604995 155.44938691 -20.06776574 145.90149266 C-20.0638446 141.02624255 -20.06485976 136.15112103 -20.07882309 131.27588654 C-20.09147467 126.81806491 -20.09044226 122.36046966 -20.07823238 117.90264874 C-20.07626011 116.2848979 -20.07942355 114.6671315 -20.08807674 113.0494026 C-20.09905185 110.8599921 -20.09176664 108.67139726 -20.07968521 106.48201084 C-20.0802823 105.26305357 -20.08087939 104.04409629 -20.08149457 102.78820091 C-19.70774841 99.840271 -19.70774841 99.840271 -18.39543986 97.95641226 C-15.4493738 96.00805499 -13.11807041 96.36988176 -9.70774841 96.840271 C-6.86514374 98.84933083 -5.00800421 100.4446847 -4.25481737 103.94549048 C-4.07501193 106.62012881 -4.0657232 109.25201791 -4.10647583 111.93251038 C-4.10219574 112.9552002 -4.09791565 113.97789001 -4.09350586 115.03157043 C-4.08522085 118.47386041 -4.11285887 121.91493765 -4.14012146 125.3571167 C-4.14165287 127.86080226 -4.14098612 130.36448997 -4.13829517 132.86817455 C-4.13727974 138.8997489 -4.15871626 144.93085284 -4.19080182 150.96230946 C-4.22680622 157.93934033 -4.23077575 164.91624099 -4.23472595 171.89337158 C-4.26097618 190.3132304 -4.3307818 208.73300629 -4.39524841 227.152771 C-4.49837341 268.299646 -4.60149841 309.446521 -4.70774841 351.840271 C104.19225159 351.840271 213.09225159 351.840271 325.29225159 351.840271 C325.29225159 275.280271 325.29225159 198.720271 325.29225159 119.840271 C295.26225159 119.840271 265.23225159 119.840271 234.29225159 119.840271 C227.14447578 115.75582768 224.8095501 113.87486803 221.29225159 106.840271 C221.29225159 76.810271 221.29225159 46.780271 221.29225159 15.840271 C147.04225159 16.170271 72.79225159 16.500271 -3.70774841 16.840271 C-4.03774841 34.990271 -4.36774841 53.140271 -4.70774841 71.840271 C-9.70774841 76.840271 -9.70774841 76.840271 -13.33274841 77.340271 C-16.70774841 76.840271 -16.70774841 76.840271 -18.39343262 75.68006897 C-20.2673279 73.05696367 -20.09571044 71.10993351 -20.11180115 67.90350342 C-20.12448532 66.68180954 -20.13716949 65.46011566 -20.15023804 64.20140076 C-20.14818604 62.8661787 -20.14519756 61.53095781 -20.14134216 60.19573975 C-20.14590423 58.82434327 -20.15120988 57.45294909 -20.15722656 56.08155823 C-20.16616385 53.205706 -20.16372953 50.33013134 -20.15379333 47.45428467 C-20.14232878 43.77882987 -20.16247168 40.10433943 -20.19171047 36.42901134 C-20.21011338 33.59528058 -20.20977155 30.76177888 -20.20407295 27.92800331 C-20.20384601 25.91729758 -20.22071817 23.9066133 -20.23788452 21.89598083 C-20.1515293 10.56277363 -20.1515293 10.56277363 -15.70774841 5.840271 C-10.48583489 1.24001385 -6.80368115 0.55257604 0 0 Z " fill="#6B5D68" transform="translate(95.70774841308594,-0.84027099609375)"/>
<path d="M0 0 C0.80308594 -0.01095703 1.60617188 -0.02191406 2.43359375 -0.03320312 C8.21165339 0.03703261 12.67224552 1.34185134 17.5 4.5625 C22.49015896 9.8152989 23.75870171 13.59260748 23.625 20.8125 C23.60695313 22.07578125 23.58890625 23.3390625 23.5703125 24.640625 C23.54710937 25.60484375 23.52390625 26.5690625 23.5 27.5625 C25.16666667 27.89583333 26.83333333 28.22916667 28.5 28.5625 C29.34433594 28.82675781 30.18867188 29.09101562 31.05859375 29.36328125 C33.61049549 29.84393889 33.61049549 29.84393889 35.59765625 27.98046875 C36.24605469 27.24441406 36.89445313 26.50835937 37.5625 25.75 C40.8087947 22.11800692 43.09149741 19.95696342 47.98046875 19.15625 C56.6828779 18.85486786 61.15047724 21.70377942 67.5078125 27.34375 C71.62112695 31.26774873 75.12392372 34.85542838 75.93359375 40.68359375 C75.94663466 51.75532739 75.94663466 51.75532739 71.5 56.5625 C70.571875 57.3875 69.64375 58.2125 68.6875 59.0625 C66.14741312 61.38594139 66.14741312 61.38594139 66.625 64.5625 C67.058125 66.0475 67.058125 66.0475 67.5 67.5625 C67.84356322 69.227088 68.1786029 70.89349048 68.5 72.5625 C70.03720703 72.51029297 70.03720703 72.51029297 71.60546875 72.45703125 C72.96612936 72.42887965 74.3268078 72.40158096 75.6875 72.375 C76.36103516 72.34986328 77.03457031 72.32472656 77.72851562 72.29882812 C82.20864748 72.23326522 84.89440999 72.89506351 88.5 75.5625 C88.5825 74.840625 88.665 74.11875 88.75 73.375 C89.95244472 68.86583231 92.17537477 66.37977995 96.12109375 63.9453125 C100.20380932 62.27446705 103.50875922 62.02435635 107.875 62.0625 C108.62869873 62.06822021 109.38239746 62.07394043 110.15893555 62.07983398 C116.0072799 62.26820382 120.34801898 63.16430986 124.5 67.5625 C128.83733406 72.37481589 128.87763165 77.11320299 128.640625 83.40234375 C128.59421875 84.11519531 128.5478125 84.82804687 128.5 85.5625 C131.10134984 86.6969095 131.10134984 86.6969095 134.5 86.5625 C136.7808369 84.9603302 138.68854656 83.18646376 140.66796875 81.2265625 C144.26674444 77.95773853 148.39538674 78.21948155 153.01171875 78.29296875 C159.86903734 79.03575522 165.15002461 85.61716374 169.5 90.5625 C172.40742374 95.0144926 173.13865181 98.27081356 172.5 103.5625 C171.03003573 107.58040234 169.39762775 110.76191308 166.1875 113.625 C164.06011574 115.60757052 164.06011574 115.60757052 164.75 119.3125 C165.12125 120.92125 165.12125 120.92125 165.5 122.5625 C166.21285156 122.51609375 166.92570312 122.4696875 167.66015625 122.421875 C174.27648643 122.1725382 178.21253684 122.46201837 183.5 126.5625 C187.95557194 131.7673815 188.11546166 136.01967281 188 142.5625 C188.01546875 143.4390625 188.0309375 144.315625 188.046875 145.21875 C188.01307211 150.83003018 187.24108582 154.12475016 183.5 158.5625 C179.44134164 162.12919978 176.12340715 162.68748126 170.8125 162.625 C169.81863281 162.61597656 168.82476562 162.60695313 167.80078125 162.59765625 C167.04152344 162.58605469 166.28226562 162.57445312 165.5 162.5625 C164.46146706 165.72574392 164.46146706 165.72574392 164.5 169.5625 C165.79836113 171.60096926 167.24625862 173.1840733 168.95703125 174.88671875 C171.56776135 177.72216992 172.43390408 179.98966869 172.875 183.8125 C172.04599311 192.10256885 167.57083792 196.93526354 161.81640625 202.6796875 C157.24154261 206.39821073 152.81924772 207.10444305 147.0625 207.02734375 C143.29441078 206.34380317 141.10640047 204.41236431 138.25 201.96484375 C135.15750877 199.48670904 132.31318373 199.5625 128.5 199.5625 C128.58701172 200.614375 128.58701172 200.614375 128.67578125 201.6875 C128.96104347 207.68615703 128.53627193 211.72817709 125.27734375 216.80859375 C120.75586839 221.27044526 116.41422168 223.06430717 110.18359375 223.109375 C109.46300781 223.09390625 108.74242187 223.0784375 108 223.0625 C106.91912109 223.08570313 106.91912109 223.08570313 105.81640625 223.109375 C99.58577832 223.06430717 95.24413161 221.27044526 90.72265625 216.80859375 C87.07316989 211.11932714 86.95033735 206.20731073 87.5 199.5625 C84.89865016 198.4280905 84.89865016 198.4280905 81.5 198.5625 C79.2191631 200.1646698 77.31145344 201.93853624 75.33203125 203.8984375 C71.73325556 207.16726147 67.60461326 206.90551845 62.98828125 206.83203125 C56.18574821 206.09517916 50.74751074 199.55074661 46.5 194.5625 C43.65974781 190.14642683 42.69431995 185.75466035 43.5 180.5625 C45.26090169 177.37246071 47.29345829 174.458586 49.5 171.5625 C48.345 171.2325 47.19 170.9025 46 170.5625 C42.13122084 169.18467163 40.25957845 167.36310392 37.625 164.25 C35.75948916 162.05973027 35.75948916 162.05973027 33.5 160.5625 C29.88298934 160.46404269 26.86776733 161.29268609 23.5 162.5625 C23.54640625 163.408125 23.5928125 164.25375 23.640625 165.125 C23.8648672 172.1726119 23.88195059 177.80051952 19.5 183.5625 C13.66851303 189.24446166 7.98632487 189.94537788 0.1875 190 C-0.62912109 190.03287109 -1.44574219 190.06574219 -2.28710938 190.09960938 C-8.5396894 190.15441287 -12.68224112 188.56428681 -17.5 184.5625 C-22.06906331 179.69140012 -22.79228536 175.7400707 -22.8125 169.0625 C-22.73280497 166.89479526 -22.63682337 164.72734976 -22.5 162.5625 C-23.4075 162.418125 -24.315 162.27375 -25.25 162.125 C-28.5 161.5625 -28.5 161.5625 -30.625 160.76171875 C-32.67616019 160.32263257 -32.67616019 160.32263257 -34.5 162.14453125 C-35.16 162.88058594 -35.82 163.61664063 -36.5 164.375 C-39.7704533 167.98399632 -42.0945297 170.16853321 -46.98046875 170.96875 C-54.55869207 171.23119929 -58.77752094 169.45202842 -64.5 164.5625 C-65.47646484 163.75039063 -65.47646484 163.75039063 -66.47265625 162.921875 C-71.99322613 157.90530619 -74.9800308 152.3322767 -76 144.9375 C-75.12373645 139.02272103 -72.50960064 135.36873344 -68.1875 131.5 C-65.14185077 128.84926228 -65.14185077 128.84926228 -65.5625 125.5 C-65.871875 124.530625 -66.18125 123.56125 -66.5 122.5625 C-66.8463654 120.89849282 -67.18184119 119.23212986 -67.5 117.5625 C-68.985 117.66691406 -68.985 117.66691406 -70.5 117.7734375 C-77.60893703 118.12438502 -83.29632243 118.30346874 -88.984375 113.4609375 C-93.80802499 107.41894293 -93.99178859 102.00497178 -93.9375 94.5625 C-93.95748047 93.59054688 -93.97746094 92.61859375 -93.99804688 91.6171875 C-93.99403967 85.73460572 -93.48767439 82.18820229 -89.5 77.5625 C-89.03980469 77.00820312 -88.57960938 76.45390625 -88.10546875 75.8828125 C-82.25286744 70.9492147 -74.69005414 72.1460876 -67.5 72.5625 C-65.47239738 66.59194166 -65.47239738 66.59194166 -66.5 60.5625 C-68.02983678 58.45043119 -68.02983678 58.45043119 -69.9375 56.5625 C-73.64287424 52.5002557 -75.24951631 49.77510597 -75.875 44.25 C-74.86786974 34.34655245 -68.10316751 28.21724718 -60.74609375 22.10546875 C-55.78046485 18.7192688 -50.24590804 18.70931972 -44.5 19.5625 C-40.67653644 21.43816137 -38.2430162 23.82195049 -35.375 26.875 C-34.42625 27.761875 -33.4775 28.64875 -32.5 29.5625 C-30.60249627 29.3320259 -30.60249627 29.3320259 -28.5 28.5625 C-26.50211562 28.21671232 -24.50240549 27.88106451 -22.5 27.5625 C-22.55800781 26.6446875 -22.61601562 25.726875 -22.67578125 24.78125 C-23.13540151 12.27957896 -23.13540151 12.27957896 -19.15161133 7.32202148 C-13.59882739 1.40643925 -7.92194873 -0.23524246 0 0 Z " fill="#030404" transform="translate(207.5,95.4375)"/>
<path d="M0 0 C0.91443298 -0.07634997 1.82886596 -0.15269993 2.77100903 -0.23136353 C5.85887048 -0.48496367 8.94735299 -0.72929752 12.03614807 -0.97125244 C13.1165933 -1.05671452 14.19703854 -1.14217659 15.31022453 -1.23022842 C36.34577491 -2.87303107 57.40098965 -3.91870023 78.48380556 -4.70743667 C81.97570131 -4.83846083 85.46739937 -4.97418882 88.95899963 -5.112854 C90.00079547 -5.15410658 90.00079547 -5.15410658 91.06363768 -5.19619253 C100.71202075 -5.58819621 110.3109251 -6.23547787 119.92758157 -7.1052467 C180.1582053 -12.54486952 233.78290311 -9.0621384 281.79084913 30.77789991 C323.23072632 65.92773855 344.62105476 105.38596717 349.22981584 159.62058568 C352.62413552 203.21182373 350.53487253 247.09824574 348.22538775 290.68842852 C347.38372768 306.76581047 346.83385237 322.8352625 346.47169495 338.93035889 C346.44584515 340.07573131 346.41999534 341.22110374 346.39336222 342.40118442 C346.26488287 348.1527352 346.14060648 353.90436877 346.01778209 359.6560427 C345.26710749 394.4386011 344.2163642 429.20603614 342.57136071 463.95829093 C342.44547222 466.6650446 342.32635041 469.37201807 342.20910645 472.07915878 C342.02724908 476.24893174 341.82629045 480.4173256 341.6090861 484.58540335 C341.53304773 486.09277148 341.46296512 487.60045418 341.39941382 489.10840038 C341.3115516 491.15615418 341.20056257 493.20137147 341.08332729 495.2476244 C341.0268444 496.38422278 340.97036151 497.52082117 340.91216701 498.69186193 C339.72962385 504.69772894 336.15969383 508.38182519 331.29225159 511.840271 C326.79138946 514.09070206 320.69335852 513.15014424 315.68922424 513.19036865 C314.17799993 513.20693268 312.66685411 513.23422943 311.15602112 513.2723999 C308.97445665 513.32721308 306.79472464 513.34904458 304.61256409 513.3637085 C303.30561584 513.38352783 301.9986676 513.40334717 300.65211487 513.42376709 C297.29225159 512.840271 297.29225159 512.840271 294.83839417 510.4430542 C293.29225159 507.840271 293.29225159 507.840271 293.23365784 505.67230225 C293.54109924 504.67263428 293.54109924 504.67263428 293.85475159 503.652771 C294.04166565 502.97859131 294.22857971 502.30441162 294.42115784 501.60980225 C295.29225159 499.840271 295.29225159 499.840271 298.29225159 497.840271 C306.87225159 497.510271 315.45225159 497.180271 324.29225159 496.840271 C324.62225159 453.940271 324.95225159 411.040271 325.29225159 366.840271 C216.39225159 366.840271 107.49225159 366.840271 -4.70774841 366.840271 C-4.37774841 409.740271 -4.04774841 452.640271 -3.70774841 496.840271 C15.88084534 496.88925537 35.46943909 496.93823975 55.65162659 496.9887085 C68.02923511 497.02407571 80.4068393 497.05993078 92.78443909 497.0980835 C99.28411311 497.11809226 105.78378749 497.13797683 112.28346252 497.15765381 C113.50544551 497.16136096 113.50544551 497.16136096 114.75211501 497.16514301 C127.91296924 497.20488822 141.07383208 497.23761894 154.23471138 497.26777081 C167.73614478 497.29885857 181.23754155 497.33745646 194.7389338 497.38306105 C203.07346862 497.41097543 211.40797657 497.43299565 219.74254563 497.4475335 C225.45387053 497.45805621 231.16514349 497.47585795 236.87642929 497.49943803 C240.17407824 497.51283632 243.47163999 497.52189608 246.76931763 497.52448463 C250.34133452 497.52779182 253.91309636 497.54322755 257.48506165 497.5617981 C258.53174822 497.55986336 259.57843479 497.55792863 260.65683913 497.55593526 C261.61228692 497.56340076 262.56773471 497.57086625 263.55213547 497.57855797 C264.37688802 497.58083629 265.20164058 497.58311461 266.05138564 497.58546197 C268.55680222 497.87035307 270.1638785 498.50107844 272.29225159 499.840271 C273.26100159 501.8637085 273.26100159 501.8637085 273.79225159 504.215271 C273.98818909 504.98613037 274.18412659 505.75698975 274.38600159 506.5512085 C274.29225159 508.840271 274.29225159 508.840271 272.97592735 510.95159149 C268.69625466 513.96347922 264.36928797 513.39082201 259.25968933 513.34820557 C258.12119392 513.35444553 256.9826985 513.36068549 255.80970323 513.36711454 C251.98027276 513.3831176 248.15147236 513.370411 244.32203674 513.35784912 C241.58243491 513.36106586 238.84286014 513.37024271 236.10327148 513.37908936 C229.42547332 513.3968934 222.7478548 513.39302595 216.07004954 513.38143879 C210.64254929 513.37241061 205.21509944 513.3711778 199.78759384 513.37553406 C198.62951661 513.37645346 198.62951661 513.37645346 197.44804388 513.37739143 C195.87968138 513.37867032 194.31131891 513.37996717 192.74295644 513.38128179 C178.02913847 513.3926935 163.3154201 513.37956545 148.60161845 513.35808033 C135.97663633 513.34021588 123.35180135 513.34330688 110.7268219 513.36175537 C96.06928852 513.38316391 81.41184254 513.39158733 66.75429571 513.37930632 C65.19104411 513.37803211 63.62779249 513.37677463 62.06454086 513.37553406 C61.29537832 513.37491696 60.52621578 513.37429985 59.73374528 513.37366405 C54.31381997 513.37021057 48.89395009 513.3760396 43.47403336 513.38545227 C36.86723006 513.39667379 30.26061685 513.39362943 23.65383531 513.37232929 C20.28284041 513.36181942 16.91242468 513.35984958 13.54139137 513.3709259 C9.88687016 513.38182792 6.23324498 513.36818052 2.57878113 513.34820557 C1.51341208 513.35712845 0.44804303 513.36605134 -0.64960992 513.37524462 C-6.66474742 513.31130817 -10.125879 512.84580722 -14.70774841 508.840271 C-18.92951276 504.04799795 -19.83268109 501.67510631 -19.83917618 495.32437229 C-19.84122881 494.64423717 -19.84328145 493.96410205 -19.84539628 493.26335678 C-19.85109529 490.96171162 -19.84960548 488.66012575 -19.84819031 486.35847473 C-19.85077228 484.70071625 -19.85378496 483.04295839 -19.85719371 481.38520139 C-19.86528659 476.81207615 -19.86705455 472.23896658 -19.86779118 467.66583502 C-19.86963773 462.74074544 -19.87718298 457.81566408 -19.88392639 452.89057922 C-19.89752583 442.11398152 -19.90353675 431.33738753 -19.90793705 420.56078267 C-19.91069639 413.83724275 -19.91493314 407.11370427 -19.91944122 400.39016533 C-19.93163531 381.78963467 -19.94193479 363.18910517 -19.94531631 344.58857059 C-19.94553588 343.3974158 -19.94575545 342.206261 -19.94598167 340.97901061 C-19.94619994 339.78494409 -19.94641822 338.59087758 -19.94664311 337.36062723 C-19.94708659 334.94083726 -19.94753315 332.52104729 -19.94798279 330.10125732 C-19.94820422 328.90094812 -19.94842565 327.70063892 -19.94865379 326.46395671 C-19.95260428 307.00184864 -19.97006533 287.53977796 -19.99334231 268.07768435 C-20.01702504 248.115936 -20.02951674 228.15420643 -20.03068423 208.19244379 C-20.03160266 196.97663904 -20.03739704 185.760883 -20.05550385 174.54509163 C-20.07086326 164.99720738 -20.07604995 155.44938691 -20.06776574 145.90149266 C-20.0638446 141.02624255 -20.06485976 136.15112103 -20.07882309 131.27588654 C-20.09147467 126.81806491 -20.09044226 122.36046966 -20.07823238 117.90264874 C-20.07626011 116.2848979 -20.07942355 114.6671315 -20.08807674 113.0494026 C-20.09905185 110.8599921 -20.09176664 108.67139726 -20.07968521 106.48201084 C-20.0802823 105.26305357 -20.08087939 104.04409629 -20.08149457 102.78820091 C-19.70774841 99.840271 -19.70774841 99.840271 -18.39543986 97.95641226 C-15.4493738 96.00805499 -13.11807041 96.36988176 -9.70774841 96.840271 C-6.86514374 98.84933083 -5.00800421 100.4446847 -4.25481737 103.94549048 C-4.07501193 106.62012881 -4.0657232 109.25201791 -4.10647583 111.93251038 C-4.10219574 112.9552002 -4.09791565 113.97789001 -4.09350586 115.03157043 C-4.08522085 118.47386041 -4.11285887 121.91493765 -4.14012146 125.3571167 C-4.14165287 127.86080226 -4.14098612 130.36448997 -4.13829517 132.86817455 C-4.13727974 138.8997489 -4.15871626 144.93085284 -4.19080182 150.96230946 C-4.22680622 157.93934033 -4.23077575 164.91624099 -4.23472595 171.89337158 C-4.26097618 190.3132304 -4.3307818 208.73300629 -4.39524841 227.152771 C-4.49837341 268.299646 -4.60149841 309.446521 -4.70774841 351.840271 C104.19225159 351.840271 213.09225159 351.840271 325.29225159 351.840271 C325.29225159 275.280271 325.29225159 198.720271 325.29225159 119.840271 C295.26225159 119.840271 265.23225159 119.840271 234.29225159 119.840271 C227.14447578 115.75582768 224.8095501 113.87486803 221.29225159 106.840271 C221.29225159 76.810271 221.29225159 46.780271 221.29225159 15.840271 C147.04225159 16.170271 72.79225159 16.500271 -3.70774841 16.840271 C-4.03774841 34.990271 -4.36774841 53.140271 -4.70774841 71.840271 C-9.70774841 76.840271 -9.70774841 76.840271 -13.33274841 77.340271 C-16.70774841 76.840271 -16.70774841 76.840271 -18.39343262 75.68006897 C-20.2673279 73.05696367 -20.09571044 71.10993351 -20.11180115 67.90350342 C-20.12448532 66.68180954 -20.13716949 65.46011566 -20.15023804 64.20140076 C-20.14818604 62.8661787 -20.14519756 61.53095781 -20.14134216 60.19573975 C-20.14590423 58.82434327 -20.15120988 57.45294909 -20.15722656 56.08155823 C-20.16616385 53.205706 -20.16372953 50.33013134 -20.15379333 47.45428467 C-20.14232878 43.77882987 -20.16247168 40.10433943 -20.19171047 36.42901134 C-20.21011338 33.59528058 -20.20977155 30.76177888 -20.20407295 27.92800331 C-20.20384601 25.91729758 -20.22071817 23.9066133 -20.23788452 21.89598083 C-20.1515293 10.56277363 -20.1515293 10.56277363 -15.70774841 5.840271 C-10.48583489 1.24001385 -6.80368115 0.55257604 0 0 Z " fill="#000000" transform="translate(95.70774841308594,-0.84027099609375)"/>
<path d="M0 0 C1.27875 0.00257812 2.5575 0.00515625 3.875 0.0078125 C5.15375 0.00523438 6.4325 0.00265625 7.75 0 C10.875 0.1328125 10.875 0.1328125 11.875 1.1328125 C12.12250609 4.59331425 12.25934034 8.05308368 12.3984375 11.51953125 C13.00182807 16.09441875 14.134944 19.60837214 17.671875 22.70703125 C19.72679963 23.87833829 21.77902845 25.03621885 23.875 26.1328125 C25.009375 26.7309375 26.14375 27.3290625 27.3125 27.9453125 C32.82067069 29.7813694 37.48613676 29.945026 43 28.0703125 C46.2373802 25.88859976 48.61704899 23.40255873 51.1640625 20.4609375 C52.875 19.1328125 52.875 19.1328125 54.8203125 19.17578125 C57.49000196 20.41926779 59.09785697 22.06681231 61.125 24.1953125 C61.83140625 24.92878906 62.5378125 25.66226563 63.265625 26.41796875 C64.06226563 27.26681641 64.06226563 27.26681641 64.875 28.1328125 C63.40294145 31.56247771 61.44221094 33.70014679 58.8125 36.3203125 C55.60152771 39.94219532 53.57162547 42.55514472 53.44140625 47.46875 C54.03167233 51.09542988 55.1429199 54.45851959 56.4375 57.8828125 C56.6761377 58.52105957 56.91477539 59.15930664 57.16064453 59.81689453 C59.22024707 64.73083055 61.63543885 67.12445111 65.875 70.1328125 C69.34212111 71.28851954 72.4164956 71.46116543 76.0625 71.6953125 C78.310625 71.8396875 80.55875 71.9840625 82.875 72.1328125 C82.875 77.0828125 82.875 82.0328125 82.875 87.1328125 C80.68875 87.2359375 78.5025 87.3390625 76.25 87.4453125 C69.79979386 87.74956751 65.22725851 88.65126318 60.671875 93.45703125 C56.18774013 100.13449295 52.38885104 108.02654542 53.875 116.1328125 C56.70183063 121.14060849 60.71228796 125.21496587 64.875 129.1328125 C63.4845501 132.23723281 61.85928402 134.4984568 59.5 136.9453125 C58.91476562 137.57050781 58.32953125 138.19570312 57.7265625 138.83984375 C55.875 140.1328125 55.875 140.1328125 53.86328125 140.046875 C51.47318554 138.94808837 50.19399101 137.64651845 48.4375 135.6953125 C44.37161368 131.50048687 41.76549197 130.40288278 35.9375 129.5703125 C31.31999562 129.65596604 27.57350567 131.36524209 23.5 133.3828125 C22.89293213 133.68243896 22.28586426 133.98206543 21.66040039 134.29077148 C16.89807269 136.80009808 14.56958548 139.04905605 12.875 144.1328125 C12.56616784 147.77874767 12.36541441 151.42521795 12.15625 155.078125 C11.875 158.1328125 11.875 158.1328125 10.875 159.1328125 C8.54339945 159.23190552 6.20870058 159.26251754 3.875 159.2578125 C2.59625 159.26039063 1.3175 159.26296875 0 159.265625 C-3.125 159.1328125 -3.125 159.1328125 -4.125 158.1328125 C-4.33157741 154.40982843 -4.44470387 150.6921835 -4.55078125 146.96484375 C-5.20846158 142.57583421 -6.24428452 140.48561847 -9.125 137.1328125 C-11.99886533 135.19829428 -11.99886533 135.19829428 -15.1875 133.8203125 C-16.23035156 133.32917969 -17.27320313 132.83804688 -18.34765625 132.33203125 C-23.38517882 130.15689844 -27.67684425 129.1895234 -33.125 130.1328125 C-37.15711237 132.30449407 -40.28496084 135.22277008 -43.375 138.5703125 C-44.24125 139.34375 -44.24125 139.34375 -45.125 140.1328125 C-48.98240623 139.82225861 -50.7899966 137.78456607 -53.375 135.0703125 C-54.08140625 134.33683594 -54.7878125 133.60335937 -55.515625 132.84765625 C-56.04671875 132.28175781 -56.5778125 131.71585938 -57.125 131.1328125 C-55.71282791 127.96248616 -53.98850624 125.72406388 -51.625 123.1953125 C-48.23547637 119.38297927 -46.30739777 116.61127627 -45.92578125 111.42578125 C-46.3233552 104.85411776 -49.54757027 97.27270291 -53.75390625 92.1484375 C-58.27602041 88.29500689 -62.57407774 87.93883503 -68.3125 87.5703125 C-70.560625 87.4259375 -72.80875 87.2815625 -75.125 87.1328125 C-75.125 82.1828125 -75.125 77.2328125 -75.125 72.1328125 C-72.93875 72.0296875 -70.7525 71.9265625 -68.5 71.8203125 C-62.05867011 71.51647618 -57.49643726 70.60955337 -52.92578125 65.8359375 C-48.6964534 59.48735861 -44.73627307 51.10964236 -46.12890625 43.328125 C-47.94632876 39.32266833 -51.06463551 36.42374284 -54.19140625 33.39453125 C-56.125 31.1328125 -56.125 31.1328125 -56.125 27.1328125 C-54.515625 24.95703125 -54.515625 24.95703125 -52.375 22.8203125 C-51.67890625 22.10230469 -50.9828125 21.38429687 -50.265625 20.64453125 C-48.125 19.1328125 -48.125 19.1328125 -46.16015625 19.08984375 C-42.28680455 21.07484356 -39.71962634 24.67714169 -36.85546875 27.8828125 C-33.40134798 30.72912661 -31.59391788 31.17975491 -27.125 31.1328125 C-24.0568191 30.24111233 -21.28980469 28.93521695 -18.4375 27.5078125 C-17.69177734 27.16363281 -16.94605469 26.81945312 -16.17773438 26.46484375 C-11.77063647 24.33402567 -8.82848111 22.36256269 -6.125 18.1328125 C-4.60918343 13.58536278 -4.67911033 8.95281079 -4.40625 4.1875 C-4.03649511 0.17155104 -4.03649511 0.17155104 0 0 Z " fill="#63C8FC" transform="translate(204.125,110.8671875)"/>
<path d="M0 0 C3.63 0 7.26 0 11 0 C11.05607422 1.19496094 11.05607422 1.19496094 11.11328125 2.4140625 C11.40077392 10.75682898 11.40077392 10.75682898 15 18 C21.80022159 22.19710135 28.90080497 25.4284988 37 24 C39.29440902 22.69178433 41.18354116 21.23692654 43.17578125 19.5078125 C45.02707576 17.97762046 46.82069481 16.99103061 49 16 C50.98 17.98 52.96 19.96 55 22 C53.6512925 24.95803481 52.10431451 27.20796367 49.9375 29.625 C46.93560147 32.98653918 45.98616922 34.14249168 46.0625 38.875 C46.84881501 45.08487236 49.36513479 50.92490518 53 56 C56.94311273 58.51122585 60.24121468 59.40495211 64.875 59.6875 C65.84179688 59.75324219 66.80859375 59.81898438 67.8046875 59.88671875 C68.52914062 59.92410156 69.25359375 59.96148437 70 60 C70 63.3 70 66.6 70 70 C69.28714844 70.02578125 68.57429688 70.0515625 67.83984375 70.078125 C59.0837182 70.44580222 59.0837182 70.44580222 52 75 C48.0771641 81.49447277 45.37605716 87.30164642 46 95 C48.35628294 99.36348693 51.40857161 102.6080954 55 106 C53.56036361 109.35915158 51.87583411 111.71624938 49 114 C45.66835433 113.64471384 44.13846112 112.44159954 41.9375 110 C39.00233684 106.76119928 36.9339799 106.10006927 32.5 105.625 C26.01893288 105.69701186 19.49663398 108.74442033 14.734375 113.046875 C11.70142994 116.46235367 11.74592492 119.1308083 11.4375 123.625 C11.35371094 124.81351562 11.26992188 126.00203125 11.18359375 127.2265625 C11.12300781 128.14179688 11.06242187 129.05703125 11 130 C7.37 130 3.74 130 0 130 C-0.05607422 128.67935547 -0.05607422 128.67935547 -0.11328125 127.33203125 C-0.17902344 126.17058594 -0.24476563 125.00914062 -0.3125 123.8125 C-0.37050781 122.66394531 -0.42851562 121.51539063 -0.48828125 120.33203125 C-1.03678787 116.76045758 -1.77894842 114.83134052 -4 112 C-6.08824894 110.64076929 -6.08824894 110.64076929 -8.4375 109.8125 C-9.19933594 109.50957031 -9.96117187 109.20664062 -10.74609375 108.89453125 C-11.48988281 108.59933594 -12.23367188 108.30414063 -13 108 C-13.66644531 107.64421875 -14.33289063 107.2884375 -15.01953125 106.921875 C-18.6475454 105.23309524 -22.1167193 105.13279774 -26 106 C-28.33178875 107.60643443 -30.21288024 109.33412101 -32.17578125 111.37109375 C-34.18321496 113.1635988 -35.32162108 113.80638225 -38 114 C-40.8125 111.8125 -40.8125 111.8125 -43 109 C-42.68784518 105.59404405 -41.08194899 103.50746435 -39 100.875 C-35.39718228 96.28487165 -34.79037483 93.97431733 -35 88 C-35.33 87.01 -35.66 86.02 -36 85 C-34.63671875 83.16796875 -34.63671875 83.16796875 -32.6875 81.1875 C-28.66026242 76.79123268 -27.27404496 73.51207882 -26.625 67.5625 C-27.26140541 61.51664859 -29.93457215 57.85620464 -34.3125 53.9375 C-37 51 -37 51 -37 47.9375 C-36.08470113 45.24880957 -35.06518229 42.63188791 -34 40 C-33.07058594 39.97421875 -32.14117187 39.9484375 -31.18359375 39.921875 C-21.33738095 39.60035489 -21.33738095 39.60035489 -13 35 C-10.22822367 31.55238932 -9.08574859 28.72273809 -8.5625 24.3125 C-8 21 -8 21 -5.5625 18.8125 C-4.716875 18.214375 -3.87125 17.61625 -3 17 C-0.73101022 13.57675062 -0.61718527 10.28642119 -0.375 6.25 C-0.30023438 5.07953125 -0.22546875 3.9090625 -0.1484375 2.703125 C-0.09945312 1.81109375 -0.05046875 0.9190625 0 0 Z " fill="#B4DFFA" transform="translate(310,173)"/>
<path d="M0 0 C7.26 0 14.52 0 22 0 C22 76.56 22 153.12 22 232 C14.74 232 7.48 232 0 232 C0 155.44 0 78.88 0 0 Z " fill="#DEDBEE" transform="translate(399,119)"/>
<path d="M0 0 C7.66058179 5.75442764 13.13178848 12.36900383 15.75 21.75 C17.36246899 33.3723786 15.7660384 44.19677533 9.0625 54 C2.17680518 62.40054769 -6.58568641 67.93641786 -17.48828125 69.09375 C-30.28140476 69.45454314 -39.69165709 65.78931507 -49.0703125 57.0546875 C-57.12592418 48.35138845 -58.99528907 37.77423007 -58.71484375 26.29296875 C-58.09919897 17.21556462 -53.45886867 9.40716834 -46.9375 3.1875 C-32.97229483 -7.93691984 -15.19282697 -10.09075821 0 0 Z " fill="#020304" transform="translate(229.25,159.25)"/>
<path d="M0 0 C1.82144531 -0.00290039 1.82144531 -0.00290039 3.6796875 -0.00585938 C4.94554687 0.01798828 6.21140625 0.04183594 7.515625 0.06640625 C8.76601562 0.05544922 10.01640625 0.04449219 11.3046875 0.03320312 C19.53540608 0.09845724 25.77436868 0.6149293 31.82421875 6.69921875 C32.50677734 7.71628906 32.50677734 7.71628906 33.203125 8.75390625 C33.67621094 9.43710937 34.14929688 10.1203125 34.63671875 10.82421875 C36.93193863 14.49339379 36.93020159 17.03262701 36.953125 21.37890625 C36.96730469 22.590625 36.98148438 23.80234375 36.99609375 25.05078125 C36.765625 28.62890625 36.765625 28.62890625 35.58203125 31.859375 C34.43327851 34.55794907 34.43327851 34.55794907 35.8125 36.5703125 C36.37453125 37.10527344 36.9365625 37.64023437 37.515625 38.19140625 C41.64831111 42.21787846 43.0555571 46.05730937 43.140625 51.81640625 C42.97499684 58.65316881 41.48771393 64.50139982 36.9296875 69.73828125 C29.23474661 76.87305403 21.3545649 77.02785528 11.28808594 77.05444336 C9.13883913 77.0664162 6.99239872 77.11573332 4.84375 77.16601562 C3.47136807 77.17547336 2.09896866 77.1827115 0.7265625 77.1875 C-1.13282959 77.20768188 -1.13282959 77.20768188 -3.02978516 77.22827148 C-6.234375 76.62890625 -6.234375 76.62890625 -8.40231323 74.50062561 C-10.5956917 71.06254972 -10.740702 69.13471648 -10.75195312 65.08203125 C-10.76456177 63.77717773 -10.77717041 62.47232422 -10.79016113 61.12792969 C-10.7830011 59.71158303 -10.77479706 58.29524131 -10.765625 56.87890625 C-10.76832156 55.41829164 -10.77220535 53.95767879 -10.77722168 52.49707031 C-10.78310913 49.44058081 -10.77457881 46.38455989 -10.75585938 43.328125 C-10.7330694 39.41720276 -10.74619665 35.50737857 -10.77014923 31.59649658 C-10.78462811 28.58178487 -10.77999184 25.56733197 -10.76963806 22.5526123 C-10.76697651 21.11096058 -10.77022044 19.66928509 -10.77955627 18.22766113 C-10.78975423 16.21037263 -10.77144528 14.19300135 -10.75195312 12.17578125 C-10.74877075 11.02948242 -10.74558838 9.88318359 -10.74230957 8.70214844 C-9.65681907 2.1344222 -6.35589332 -0.00418518 0 0 Z " fill="#010101" transform="translate(172.234375,395.37109375)"/>
<path d="M0 0 C5.00162614 4.19308948 9.70590671 8.5619141 14.31225586 13.18286133 C15.00578156 13.8746347 15.69930725 14.56640808 16.41384888 15.27914429 C18.68335277 17.54428076 20.94921974 19.81301456 23.21484375 22.08203125 C24.7965305 23.66304396 26.37836564 25.24390823 27.96034241 26.82463074 C31.26270532 30.12552401 34.56326396 33.42820799 37.86254883 36.73217773 C42.10189135 40.97724523 46.345745 45.21777015 50.5909338 49.45699024 C53.85166154 52.71411645 57.11001868 55.97360572 60.36764717 59.23383141 C61.93269917 60.79955235 63.49849948 62.36452566 65.06504631 63.92875099 C67.2436204 66.10480224 69.41899176 68.284004 71.59350586 70.46411133 C72.24641098 71.11499222 72.8993161 71.76587311 73.57200623 72.43647766 C78 76.88573212 78 76.88573212 78 78 C67.97772237 78.0231241 57.95545103 78.04091543 47.9331522 78.05181217 C43.27988814 78.05704085 38.62664226 78.06413823 33.97338867 78.07543945 C29.48655454 78.08626886 24.99973796 78.09227695 20.51289177 78.09487724 C18.79719707 78.0967314 17.08150338 78.10035182 15.36581612 78.10573006 C12.97115087 78.11294121 10.57655904 78.11399091 8.18188477 78.11352539 C7.10726738 78.1189183 7.10726738 78.1189183 6.01094055 78.12442017 C1.11405216 78.11405216 1.11405216 78.11405216 0 77 C-0.09496708 74.59651714 -0.12558862 72.22189018 -0.11352539 69.81811523 C-0.11367142 69.06694427 -0.11381744 68.31577332 -0.1139679 67.5418396 C-0.11326863 65.04739541 -0.10547564 62.55302497 -0.09765625 60.05859375 C-0.09579212 58.33366436 -0.09436819 56.60873443 -0.09336853 54.88380432 C-0.08954297 50.33487497 -0.07971238 45.78597733 -0.06866455 41.23706055 C-0.05845124 36.59879994 -0.05387108 31.96053423 -0.04882812 27.32226562 C-0.03809014 18.21482978 -0.02101327 9.10741752 0 0 Z " fill="#DDDAEC" transform="translate(332,26)"/>
<path d="M0 0 C7.26 0 14.52 0 22 0 C22.02311861 16.93262254 22.04097903 33.86523881 22.05181217 50.7978735 C22.05697519 58.65944391 22.06401801 66.52100435 22.07543945 74.38256836 C22.0853861 81.23225475 22.09185338 88.08193392 22.09408849 94.93162733 C22.09539563 98.56069396 22.09848169 102.18973994 22.10573006 105.81879997 C22.11374356 109.86350304 22.11399115 113.90816989 22.11352539 117.95288086 C22.11712067 119.16488159 22.12071594 120.37688232 22.12442017 121.62561035 C22.1230455 122.72082504 22.12167084 123.81603973 22.12025452 124.94444275 C22.12117631 125.90218566 22.1220981 126.85992857 22.12304783 127.84669399 C22 130 22 130 21 131 C14.07 131 7.14 131 0 131 C0 87.77 0 44.54 0 0 Z " fill="#564C55" transform="translate(399,366)"/>
<path d="M0 0 C6.40287374 4.18649437 10.59494461 10.78483384 13 18 C13.93139041 27.89411448 12.50338143 37.04844928 6.125 44.9375 C0.47673075 50.8845442 -5.7018602 54.18423799 -13.92626953 54.48266602 C-22.57649476 54.55086122 -29.06296865 53.7142326 -36 48 C-42.80034936 41.3000248 -46.0147377 33.98572905 -46.4375 24.5 C-46.2742999 18.94342511 -44.70192353 14.80132752 -42 10 C-41.443125 8.948125 -40.88625 7.89625 -40.3125 6.8125 C-30.26214633 -5.41090311 -13.57203629 -7.49057741 0 0 Z " fill="#030404" transform="translate(332,213)"/>
<path d="M0 0 C3.27776186 0.92778362 5.12903123 2.92477615 7.09765625 5.59375 C8.88365322 9.25598199 10.23457609 13.05157003 11.6015625 16.88671875 C12.00672592 17.98792557 12.41188934 19.08913239 12.82933044 20.22370911 C14.11935541 23.73826667 15.39019035 27.25940069 16.66015625 30.78125 C17.93796249 34.28357331 19.21962449 37.78446787 20.50169373 41.28523254 C21.29650688 43.46000048 22.08809366 45.63595131 22.87586975 47.8132782 C24.90858894 53.42164153 27.02868794 58.95964895 29.38243103 64.4420929 C30.49207808 67.78031404 30.11193184 70.28044974 29.09765625 73.59375 C27.97265625 75.53125 27.97265625 75.53125 26.09765625 76.59375 C22.31602038 77.07504911 20.06759519 77.24037596 16.84765625 75.09375 C13.96883175 70.98114358 12.09765625 66.64595108 12.09765625 61.59375 C2.85765625 61.59375 -6.38234375 61.59375 -15.90234375 61.59375 C-16.89234375 64.89375 -17.88234375 68.19375 -18.90234375 71.59375 C-20.65234375 74.71875 -20.65234375 74.71875 -22.90234375 76.59375 C-26.82813838 77.22468128 -28.94252652 77.1456449 -32.40234375 75.15625 C-34.65600937 71.3062379 -33.74835324 67.79398257 -32.90234375 63.59375 C-31.72461283 59.69388031 -30.27428115 55.92084789 -28.7890625 52.12890625 C-28.37823929 51.05555527 -27.96741608 49.98220428 -27.54414368 48.87632751 C-26.23596841 45.46571941 -24.91310677 42.06102867 -23.58984375 38.65625 C-22.71193035 36.37341594 -21.83496808 34.09021586 -20.95898438 31.80664062 C-16.94344286 21.35888743 -16.94344286 21.35888743 -14.97494507 16.35501099 C-14.25301184 14.49649558 -13.55266319 12.62946681 -12.87295532 10.75509644 C-12.3766713 9.41923996 -12.3766713 9.41923996 -11.87036133 8.05639648 C-11.58622879 7.2677269 -11.30209625 6.47905731 -11.00935364 5.66648865 C-8.47524632 0.92168715 -5.17142846 0.24674808 0 0 Z " fill="#010101" transform="translate(262.90234375,395.40625)"/>
<path d="M0 0 C5.50863019 3.06132474 8.89792531 7.42085061 11.6875 13 C12.48766272 21.19407143 12.87995767 28.47653785 7.54296875 35.1953125 C1.42618033 41.14469408 -4.85069514 43.51057282 -13.328125 43.3984375 C-20.23947692 42.47571774 -25.62252546 38.39811255 -29.9375 33.0625 C-33.63331049 26.82185999 -33.42059463 19.99010379 -32.3125 13 C-29.90092119 6.4102207 -25.10701758 2.30640899 -19.01953125 -0.9609375 C-12.39307448 -3.50442596 -6.41949461 -2.8199579 0 0 Z " fill="#F6F3F3" transform="translate(218.3125,170)"/>
<path d="M0 0 C1.3756311 -0.00717545 1.3756311 -0.00717545 2.77905273 -0.01449585 C4.71567503 -0.01789437 6.65235472 -0.00869521 8.58886719 0.01220703 C11.55273384 0.0389743 14.5128136 0.01245873 17.4765625 -0.01953125 C19.35938336 -0.01622714 21.24220186 -0.00982089 23.125 0 C24.01050537 -0.01012115 24.89601074 -0.02024231 25.80834961 -0.03067017 C31.92319173 0.08577255 31.92319173 0.08577255 35.15625 3.01025391 C36.5625 5.6640625 36.5625 5.6640625 36.5 8.7890625 C35.50770546 11.83209908 35.13697885 12.85022513 32.5625 14.6640625 C29.20703125 14.95703125 29.20703125 14.95703125 25.375 14.8515625 C24.10269531 14.82449219 22.83039063 14.79742187 21.51953125 14.76953125 C20.05580078 14.71732422 20.05580078 14.71732422 18.5625 14.6640625 C18.56916183 15.38180847 18.57582367 16.09955444 18.58268738 16.83905029 C18.64282904 23.60717955 18.68848994 30.3752688 18.71793652 37.14359665 C18.7335844 40.62319093 18.75480607 44.10256418 18.78881836 47.58203125 C18.82768654 51.58335477 18.84221639 55.58444656 18.85546875 59.5859375 C18.87095261 60.83397156 18.88643646 62.08200562 18.90238953 63.36785889 C18.90261612 64.52876038 18.90284271 65.68966187 18.90307617 66.88574219 C18.90973801 67.90722351 18.91639984 68.92870483 18.92326355 69.98114014 C18.50244316 73.11069251 17.82098663 74.47208951 15.5625 76.6640625 C10.09162621 77.4456159 10.09162621 77.4456159 7.5625 76.6640625 C4.85193932 74.4170634 3.68086748 72.55058126 3.21290588 69.04576111 C3.09858272 65.66559132 3.11365388 62.3074199 3.171875 58.92578125 C3.17753479 57.68987747 3.18319458 56.45397369 3.18902588 55.18061829 C3.20759715 51.90714652 3.24348645 48.63447171 3.2878418 45.36126709 C3.32888297 42.01631002 3.34671412 38.67131813 3.3671875 35.32617188 C3.41126568 28.77182481 3.47818766 22.21800881 3.5625 15.6640625 C2.80469238 15.68291504 2.04688477 15.70176758 1.26611328 15.72119141 C-0.22299561 15.74318604 -0.22299561 15.74318604 -1.7421875 15.765625 C-2.72687012 15.78447754 -3.71155273 15.80333008 -4.72607422 15.82275391 C-7.4375 15.6640625 -7.4375 15.6640625 -10.5625 14.0390625 C-12.89506738 11.08447715 -13.51445668 9.43493971 -13.4375 5.6640625 C-10.18997368 -0.42168521 -6.24022738 -0.07132459 0 0 Z " fill="#020202" transform="translate(313.4375,395.3359375)"/>
<path d="M0 0 C4.72403852 1.9512333 7.72471109 5.44942218 10 10 C10.59859607 15.98596069 9.32450067 20.11232352 6 25 C2.86990937 28.0352394 -0.15911831 28.29143784 -4.375 28.5625 C-9.4506944 28.4255042 -12.16365068 27.25677634 -15.6953125 23.640625 C-19.10669398 19.35086386 -19.56842593 15.40004632 -19 10 C-14.45816032 1.42096949 -9.45751547 -1.27972982 0 0 Z " fill="#F6F3F3" transform="translate(320,224)"/>
<path d="M0 0 C2.536875 -0.061875 5.07375 -0.12375 7.6875 -0.1875 C8.47729248 -0.21481201 9.26708496 -0.24212402 10.08081055 -0.27026367 C14.62928046 -0.32374802 17.38608784 0.23089848 21 3 C23 5 23 5 23.4375 8.8125 C23.36572641 12.40117947 23.04023081 12.95024084 20.625 15.9375 C16.33173099 19.31078279 13.14870385 19.12125848 7.875 19.0625 C5.27625 19.041875 2.6775 19.02125 0 19 C0 12.73 0 6.46 0 0 Z " fill="#665963" transform="translate(177,439)"/>
<path d="M0 0 C12.03465347 -0.60781078 12.03465347 -0.60781078 16.375 2.125 C18 5 18 5 18.0625 8.125 C16.82154864 11.48286838 16.07953255 12.25850647 13 14 C9.765625 14.29296875 9.765625 14.29296875 6.25 14.1875 C4.1875 14.125625 2.125 14.06375 0 14 C0 9.38 0 4.76 0 0 Z " fill="#645761" transform="translate(177,410)"/>
<path d="M0 0 C0.66 0 1.32 0 2 0 C3.00605593 2.60197202 4.00502525 5.20629362 5 7.8125 C5.28617187 8.55048828 5.57234375 9.28847656 5.8671875 10.04882812 C6.13789063 10.76103516 6.40859375 11.47324219 6.6875 12.20703125 C7.06455078 13.18893433 7.06455078 13.18893433 7.44921875 14.19067383 C8 16 8 16 8 19 C3.05 19 -1.9 19 -7 19 C-6.02241999 16.20776841 -5.04301077 13.41620228 -4.0625 10.625 C-3.78470703 9.8309375 -3.50691406 9.036875 -3.22070312 8.21875 C-2.95322266 7.45820313 -2.68574219 6.69765625 -2.41015625 5.9140625 C-2.16402588 5.2123291 -1.91789551 4.5105957 -1.66430664 3.78759766 C-1 2 -1 2 0 0 Z " fill="#675964" transform="translate(260,423)"/>
<path d="M0 0 C4.53287116 3.73295272 8.37382288 7.38486548 12 12 C8.37 12 4.74 12 1 12 C0.67 8.04 0.34 4.08 0 0 Z " fill="#BFB7DA" transform="translate(398,92)"/>
</svg>
