<?xml version="1.0" encoding="UTF-8"?>
<svg version="1.1" xmlns="http://www.w3.org/2000/svg" width="1000" height="1000">
<path d="M0 0 C330 0 660 0 1000 0 C1000 330 1000 660 1000 1000 C670 1000 340 1000 0 1000 C0 670 0 340 0 0 Z " fill="#222222" transform="translate(0,0)"/>
<path d="M0 0 C3.12184329 2.27043148 5.69229962 4.70407823 8.1875 7.625 C21.63977851 23.16667497 37.74052273 34.66869846 56 44 C57.11544189 44.57210205 57.11544189 44.57210205 58.25341797 45.15576172 C68.93156529 50.56736198 79.67434216 54.82607532 91.09326172 58.38867188 C93.61544022 59.19731912 96.08700151 60.12158655 98.5625 61.0625 C102.82226504 62.63829278 107.1358307 63.93844822 111.5 65.1875 C171.03943373 82.3607508 171.03943373 82.3607508 180 98 C181.54116951 104.43913289 179.64395911 109.85904422 176.875 115.67578125 C175.85761417 118.37821237 175.55211434 120.14006344 176 123 C179.05494454 126.31991422 183.28809464 127.17806302 187.5 128.375 C207.81306124 134.44761906 207.81306124 134.44761906 214 140 C214.88080599 141.94032624 215.52234794 143.88419963 216.15625 145.91796875 C217.38204197 148.94272394 219.40178465 150.96428454 221.5703125 153.359375 C226.13995885 158.60323146 226.39725499 163.37908355 226 170 C221.60414116 167.95906554 218.8396491 164.9210919 215.5 161.43359375 C201.88511889 148.33534875 184.05482421 142.85236508 165.6484375 142.89453125 C163.64191636 142.88107001 161.63540522 142.86604592 159.62890625 142.84960938 C156.50892191 142.82688036 153.39007486 142.81243955 150.27001953 142.82495117 C131.73608247 142.87933306 118.76177259 140.4848329 105 127 C98.18135839 119.70383138 93.07587367 111.55675937 88 103 C86.6062717 100.76951661 85.21045931 98.54033403 83.8125 96.3125 C81.50955633 92.59030035 79.41207628 88.90268751 77.5625 84.9375 C69.63179862 68.54204327 55.44727954 57.37377943 41.0534668 46.93310547 C32.51138098 40.73270484 24.48218355 34.46004692 17 27 C16.10796875 26.13117188 15.2159375 25.26234375 14.296875 24.3671875 C8.6923856 18.61167892 0 8.62559872 0 0 Z " fill="#F02919" transform="translate(353,341)"/>
<path d="M0 0 C3.22866387 1.52422969 6.1433917 3.35228813 9.125 5.3125 C20.95529333 12.87380599 30.56355914 16.3592014 44.625 16.1875 C46.1409375 16.1865332 46.1409375 16.1865332 47.6875 16.18554688 C52.60171392 16.15652593 57.14957713 15.80892136 62 15 C77.56775186 13.91591238 91.99525349 13.57560872 106 21 C106.97839844 21.50539307 106.97839844 21.50539307 107.9765625 22.02099609 C119.26424304 27.89636456 119.26424304 27.89636456 122 32 C120.35064453 32.03867187 120.35064453 32.03867187 118.66796875 32.078125 C108.1562255 32.43451589 100.14175375 34.16800757 90.53515625 38.59765625 C83.74630018 41.68102299 78.5329101 43.77926656 71 43 C73.95194082 47.36887242 76.86773803 49.8297774 82 51 C85.8695447 51.31486659 89.69269072 51.5001252 93.57421875 51.59375 C97.11915739 52.01413041 98.60908088 52.38250999 101 55 C101.43648973 59.58314214 101.63005705 63.05491442 99 67 C98.67 67 98.34 67 98 67 C97.86979167 64.98177083 97.73958333 62.96354167 97.609375 60.9453125 C97.17080528 58.85049575 97.17080528 58.85049575 95.2265625 57.76171875 C90.15858293 56.02793626 85.40065668 56.42473029 80.5 58.4375 C78.14756405 59.77748278 78.14756405 59.77748278 77 61 C76.49830585 63.83073436 76.49830585 63.83073436 77 67 C79.35426499 69.77122275 79.35426499 69.77122275 82 72 C82.33 72.66 82.66 73.32 83 74 C79.34155285 74.34842354 77.26812701 74.13132751 73.9375 72.5 C70.38653168 69.4778993 67.96435157 66.23291688 66 62 C66 61.01 66 60.02 66 59 C65.38125 59.33 64.7625 59.66 64.125 60 C59.1111061 61.60444605 53.76479837 62.1274887 48.796875 60.1015625 C46.875 59 46.875 59 44 57 C45.32 56.34 46.64 55.68 48 55 C47.31035156 54.59910156 46.62070312 54.19820312 45.91015625 53.78515625 C37.33765042 48.59931939 29.96602705 42.84573568 25 34 C27.60737061 35.25153789 30.08210506 36.64306913 32.5625 38.125 C35.78634549 40.23942607 35.78634549 40.23942607 39 40 C32.70726874 32.8315328 26.15263921 25.99502231 19.39672852 19.26635742 C17.80041159 17.67545257 16.20958085 16.07919948 14.61914062 14.48242188 C13.58625833 13.4501997 12.55306624 12.4182874 11.51953125 11.38671875 C10.60276611 10.47108154 9.68600098 9.55544434 8.74145508 8.61206055 C6.75058226 6.71515537 4.77722873 4.96086127 2.6550293 3.22583008 C1.77886963 2.49130615 0.90270996 1.75678223 0 1 C0 0.67 0 0.34 0 0 Z " fill="#EF2919" transform="translate(443,470)"/>
<path d="M0 0 C5.95719851 3.81871699 12.50786422 9.79748803 14.16015625 16.90234375 C14.91632576 26.51884727 12.98737084 34.16650526 7.16015625 41.90234375 C1.55342514 47.36152931 -3.74682229 49.08573798 -11.40234375 49.27734375 C-17.89321554 49.10633567 -21.54560874 47.97275096 -26.40234375 43.58984375 C-27.20671875 42.70296875 -28.01109375 41.81609375 -28.83984375 40.90234375 C-29.72671875 39.93296875 -30.61359375 38.96359375 -31.52734375 37.96484375 C-36.16988667 31.81661123 -36.80998082 25.41835302 -35.83984375 17.90234375 C-33.2725364 9.68696022 -28.15586219 4.38363016 -21.07421875 -0.25390625 C-14.92883309 -2.5745414 -6.11598468 -2.36395006 0 0 Z " fill="#242424" transform="translate(367.83984375,573.09765625)"/>
<path d="M0 0 C26.35473815 0 26.35473815 0 34.4921875 7.31640625 C39.41439181 12.81244267 40.29375652 19.99000914 40.21875 27.078125 C39.73932617 33.48185754 37.79381567 39.57493938 33 44 C23 49 23 49 0 49 C0 32.83 0 16.66 0 0 Z " fill="#282828" transform="translate(471,572)"/>
<path d="M0 0 C8.36628849 7.05024311 8.36628849 7.05024311 11 10 C11 10.66 11 11.32 11 12 C11.54914063 12.21785156 12.09828125 12.43570312 12.6640625 12.66015625 C15.75462358 14.43283594 17.95155625 16.87394021 20.375 19.4375 C26.75768343 25.99015115 33.68686012 31.52890637 41 37 C41.59683594 37.4522998 42.19367188 37.90459961 42.80859375 38.37060547 C49.82115596 43.68092476 56.96297334 48.699776 64.375 53.4375 C77.83030664 62.04692838 90.52286393 70.8446528 102 82 C102.66257812 82.5775 103.32515625 83.155 104.0078125 83.75 C108.07135136 87.39442947 110.76411649 91.57392108 113.5 96.25 C114.04479004 97.17292847 114.04479004 97.17292847 114.60058594 98.11450195 C115.4860664 99.69804924 116.25236653 101.34689932 117 103 C116.505 104.485 116.505 104.485 116 106 C115.65710938 105.48953125 115.31421875 104.9790625 114.9609375 104.453125 C104.63255019 90.10531603 90.56618895 82.17102176 75.4296875 73.66796875 C57.45592691 63.52899207 39.90083961 51.31995943 25 37 C24.13632812 36.17628906 23.27265625 35.35257812 22.3828125 34.50390625 C12.30045417 24.67585073 3.79013694 13.76418151 0 0 Z " fill="#EA2919" transform="translate(310,332)"/>
<path d="M0 0 C24.65714286 0 24.65714286 0 31.375 6.1875 C33.67462907 10.16762723 33.66576305 13.50609942 33 18 C31.5921532 21.62017749 30.09376438 24.5787931 27 27 C26.34 27 25.68 27 25 27 C26.28921216 29.60540782 27.58125596 32.20934373 28.875 34.8125 C29.23980469 35.55048828 29.60460937 36.28847656 29.98046875 37.04882812 C30.33496094 37.76103516 30.68945312 38.47324219 31.0546875 39.20703125 C31.37937012 39.8616333 31.70405273 40.51623535 32.03857422 41.19067383 C33.09255672 43.24652798 33.09255672 43.24652798 35 46 C35 46.99 35 47.98 35 49 C32.69 49 30.38 49 28 49 C27.75467529 48.45996338 27.50935059 47.91992676 27.2565918 47.36352539 C22.92158136 36.8098657 22.92158136 36.8098657 14.88671875 29.58203125 C11.55683152 29.25484148 11.55683152 29.25484148 7 30 C7 36.6 7 43.2 7 50 C4.69 50 2.38 50 0 50 C0 33.5 0 17 0 0 Z " fill="#F1F1F1" transform="translate(622,572)"/>
<path d="M0 0 C22 0 22 0 29 6 C30.3204023 10.94550678 30.22581835 16.46510016 27.96484375 21.140625 C25.89143206 23.75299692 24.16116297 24.94627901 21 26 C22.90764446 31.19080097 25.59252602 35.90624532 28.25390625 40.73632812 C31 45.79095124 31 45.79095124 31 48 C29.13037109 47.76367188 29.13037109 47.76367188 27 47 C25.85009766 45.15820312 25.85009766 45.15820312 24.9140625 42.78125 C21.57566628 33.69520038 21.57566628 33.69520038 15.16992188 27.00634766 C10.9256072 25.9388447 7.38981234 26.52658887 3 27 C3 34.26 3 41.52 3 49 C2.01 49 1.02 49 0 49 C0 32.83 0 16.66 0 0 Z " fill="#282828" transform="translate(286,573)"/>
<path d="M0 0 C3.54398013 3.01681562 7.07000035 6.04995747 10.54296875 9.1484375 C18.00045453 15.77337013 25.49538916 21.73741531 34 27 C35.36318359 27.87591797 35.36318359 27.87591797 36.75390625 28.76953125 C44.1954183 33.47621331 51.86513313 37.72943894 59.5625 42 C71.37118129 48.56384272 82.51595493 55.43639683 93 64 C93.69996094 64.55300781 94.39992188 65.10601562 95.12109375 65.67578125 C100.17940552 69.83526258 103.64303857 74.39234851 107 80 C106.67 80.66 106.34 81.32 106 82 C105.154375 81.05125 104.30875 80.1025 103.4375 79.125 C93.79057087 69.61179068 81.91876772 63.82146776 69.77148438 58.17895508 C60.15832608 53.68718635 51.02483938 48.57241165 42 43 C41.32501465 42.58395508 40.6500293 42.16791016 39.95458984 41.73925781 C24.35414172 32.00778857 8.14189307 19.99177684 0 3 C0 2.01 0 1.02 0 0 Z " fill="#E72919" transform="translate(321,371)"/>
<path d="M0 0 C2.62430797 1.19226174 4.99967968 2.62244082 7.3984375 4.20703125 C19.2461894 12.01015929 30.46066477 17.67360676 45 18 C41.74897716 13.25892502 37.89367634 10.79129597 33 8 C35 7 35 7 36.890625 7.53125 C39.61269548 8.64892132 42.31089346 9.80484154 45 11 C46.05960937 11.4640625 47.11921875 11.928125 48.2109375 12.40625 C64.22970341 19.88411784 77.6527971 31.48871467 90 44 C86.75544044 43.59443005 84.27730657 42.68617201 81.4375 41.1484375 C76.78310255 38.77869401 72.0087727 37.30933036 67 35.875 C65.72382813 35.49794922 65.72382813 35.49794922 64.421875 35.11328125 C58.51648409 33.38332778 52.58152932 31.84886896 46.59375 30.4296875 C28.84263013 25.72696545 11.16468467 14.5370837 0 0 Z " fill="#EB2919" transform="translate(371,452)"/>
<path d="M0 0 C2.31 0 4.62 0 7 0 C7 6.93 7 13.86 7 21 C9.64 21 12.28 21 15 21 C15.24492188 20.17242188 15.48984375 19.34484375 15.7421875 18.4921875 C17.19733048 14.45213214 19.01469476 10.85416954 21.125 7.125 C21.47820313 6.43664062 21.83140625 5.74828125 22.1953125 5.0390625 C23.33294906 3.04819851 24.28466389 1.52638735 26 0 C28.90657399 -0.61555775 30.99575376 -0.3620339 34 0 C31.02037931 6.33169397 27.41759677 12.05936278 23.51171875 17.8515625 C21.69207236 21.641317 22.01730984 22.98421092 23 27 C24.18189368 29.62938018 24.18189368 29.62938018 25.72265625 32.14453125 C26.26083984 33.06814453 26.79902344 33.99175781 27.35351562 34.94335938 C28.19946289 36.36358398 28.19946289 36.36358398 29.0625 37.8125 C30.17999858 39.71389657 31.29597277 41.6161902 32.41015625 43.51953125 C33.15471069 44.77407104 33.15471069 44.77407104 33.91430664 46.05395508 C35 48 35 48 35 49 C32.36 49 29.72 49 27 49 C26.67837891 48.36908447 26.35675781 47.73816895 26.02539062 47.08813477 C24.54671895 44.22966835 23.02435535 41.39684824 21.5 38.5625 C20.74203125 37.07266602 20.74203125 37.07266602 19.96875 35.55273438 C19.453125 34.60849609 18.9375 33.66425781 18.40625 32.69140625 C17.94541016 31.81685791 17.48457031 30.94230957 17.00976562 30.04125977 C14.53101464 27.10171416 14.53101464 27.10171416 7 27 C7 34.26 7 41.52 7 49 C4.69 49 2.38 49 0 49 C0 32.83 0 16.66 0 0 Z " fill="#F1F1F1" transform="translate(701,572)"/>
<path d="M0 0 C9.24 0 18.48 0 28 0 C28 1.98 28 3.96 28 6 C21.07 6 14.14 6 7 6 C7 10.95 7 15.9 7 21 C12.61 21 18.22 21 24 21 C24 23.31 24 25.62 24 28 C18.39 28 12.78 28 7 28 C7 32.95 7 37.9 7 43 C14.59 43 22.18 43 30 43 C30 44.98 30 46.96 30 49 C20.1 49 10.2 49 0 49 C0 32.83 0 16.66 0 0 Z " fill="#EBEBEB" transform="translate(752,572)"/>
<path d="M0 0 C0.54527344 0.28875 1.09054687 0.5775 1.65234375 0.875 C1.14630383 3.04374252 0.65250562 4.87467627 -0.34765625 6.875 C-5.09765625 6 -5.09765625 6 -7.34765625 4.875 C-9.01111207 4.75417466 -10.67986216 4.6996206 -12.34765625 4.6875 C-13.23453125 4.67332031 -14.12140625 4.65914062 -15.03515625 4.64453125 C-17.54285609 4.64786874 -17.54285609 4.64786874 -19.34765625 6.875 C-20.18211545 10.2461163 -20.18211545 10.2461163 -19.34765625 13.875 C-16.34684248 16.78611553 -12.46801605 18.34324714 -8.73046875 20.1171875 C0.53477514 24.54360965 0.53477514 24.54360965 2.65234375 28.875 C3.4394089 33.86532797 3.18819701 37.69612284 1.08984375 42.3125 C-3.21242533 46.83539827 -7.22838552 48.02670891 -13.28515625 48.25 C-18.88899372 48.07889046 -24.26389632 46.95875993 -28.34765625 42.875 C-27.99410189 40.61225212 -27.37221199 38.92411148 -26.34765625 36.875 C-23.38590502 37.48777612 -21.96706842 38.12872522 -19.34765625 39.875 C-16.70793677 40.22982301 -16.70793677 40.22982301 -13.84765625 40.1875 C-12.88859375 40.20425781 -11.92953125 40.22101562 -10.94140625 40.23828125 C-8.32905339 40.07800971 -8.32905339 40.07800971 -6.515625 38.5546875 C-4.77078065 36.04537957 -5.14979151 33.84297113 -5.34765625 30.875 C-10.4723115 27.91408808 -15.65732047 25.09742541 -20.89453125 22.33984375 C-24.46978386 20.20493972 -26.02120793 18.85434496 -27.34765625 14.875 C-27.83630704 10.14870547 -28.04719862 6.19013965 -25.78515625 1.9375 C-17.55986763 -5.0223596 -9.14566785 -4.50248263 0 0 Z " fill="#EDEDED" transform="translate(554.34765625,574.125)"/>
<path d="M0 0 C0.99 0 1.98 0 3 0 C7.29981517 13.84410186 10.75089907 27.88023693 14 42 C16.37331954 35.0536989 18.47542387 28.05507315 20.5 21 C22.52457613 13.94492685 24.62668046 6.9463011 27 0 C28.32 0.33 29.64 0.66 31 1 C31.20753906 1.7321875 31.41507812 2.464375 31.62890625 3.21875 C33.33364572 9.21030296 35.05406337 15.19540432 36.82421875 21.16796875 C37.14124756 22.24175781 37.45827637 23.31554687 37.78491211 24.421875 C38.42435963 26.58561143 39.06706116 28.74838906 39.71313477 30.91015625 C40.15677368 32.41449219 40.15677368 32.41449219 40.609375 33.94921875 C40.87717773 34.84987061 41.14498047 35.75052246 41.42089844 36.6784668 C42 39 42 39 42 42 C42.66 42 43.32 42 44 42 C44.04898438 41.40832031 44.09796875 40.81664062 44.1484375 40.20703125 C44.22320312 39.41683594 44.29796875 38.62664063 44.375 37.8125 C44.44460938 37.03519531 44.51421875 36.25789062 44.5859375 35.45703125 C45 33 45 33 45.91796875 30.7109375 C47.33251291 27.16691712 48.11016997 23.52563598 48.9375 19.8125 C51.46257042 8.91728873 51.46257042 8.91728873 52.5 5 C52.6959375 4.236875 52.891875 3.47375 53.09375 2.6875 C53.3928125 2.130625 53.691875 1.57375 54 1 C56.05664062 0.39453125 56.05664062 0.39453125 58 0 C57.40067735 2.79278271 56.79565145 5.58413773 56.1875 8.375 C56.02185547 9.14972656 55.85621094 9.92445313 55.68554688 10.72265625 C54.59671759 15.69429187 53.28809681 20.54765815 51.79174805 25.41162109 C50.39937855 29.96354875 49.1146409 34.54660829 47.8125 39.125 C47.53986328 40.08148437 47.26722656 41.03796875 46.98632812 42.0234375 C46.32360434 44.3487841 45.66150362 46.67430606 45 49 C43.35 48.67 41.7 48.34 40 48 C32.46836989 21.24874212 32.46836989 21.24874212 29 8 C24.34758052 21.46753008 20.59108363 35.21746113 17 49 C15.35 49 13.7 49 12 49 C9.57598566 39.94041568 7.1710576 30.87613054 4.79736328 21.80322266 C3.42231981 16.55959473 1.99295355 11.33486222 0.48046875 6.12890625 C0 4 0 4 0 0 Z " fill="#D7D7D7" transform="translate(396,572)"/>
<path d="M0 0 C13.2 0 26.4 0 40 0 C40 1.98 40 3.96 40 6 C34.39 6 28.78 6 23 6 C23 20.52 23 35.04 23 50 C20.69 50 18.38 50 16 50 C16 35.48 16 20.96 16 6 C10.72 6 5.44 6 0 6 C0 4.02 0 2.04 0 0 Z " fill="#EEEEEE" transform="translate(568,572)"/>
<path d="M0 0 C5.95719851 3.81871699 12.50786422 9.79748803 14.16015625 16.90234375 C14.91632576 26.51884727 12.98737084 34.16650526 7.16015625 41.90234375 C1.55342514 47.36152931 -3.74682229 49.08573798 -11.40234375 49.27734375 C-17.89321554 49.10633567 -21.54560874 47.97275096 -26.40234375 43.58984375 C-27.20671875 42.70296875 -28.01109375 41.81609375 -28.83984375 40.90234375 C-29.72671875 39.93296875 -30.61359375 38.96359375 -31.52734375 37.96484375 C-36.16988667 31.81661123 -36.80998082 25.41835302 -35.83984375 17.90234375 C-33.2725364 9.68696022 -28.15586219 4.38363016 -21.07421875 -0.25390625 C-14.92883309 -2.5745414 -6.11598468 -2.36395006 0 0 Z M-26.625 7.84375 C-31.88753802 14.59920661 -32.73987712 20.40892537 -31.83984375 28.90234375 C-29.73021144 35.68533194 -25.97891664 41.20791286 -19.83984375 44.90234375 C-16.96664474 45.90909301 -16.96664474 45.90909301 -13.83984375 45.90234375 C-13.16050781 45.97453125 -12.48117187 46.04671875 -11.78125 46.12109375 C-5.42709584 46.56158971 -0.75258186 44.97789241 4.16015625 40.90234375 C9.33831104 35.07425595 10.99926825 29.52420791 10.54296875 21.796875 C9.57324391 14.46456776 7.94691131 9.79994883 2.07421875 5.09375 C-6.8825618 -0.48138892 -19.28934196 -0.13397877 -26.625 7.84375 Z " fill="#DFDFDF" transform="translate(367.83984375,573.09765625)"/>
<path d="M0 0 C26.35473815 0 26.35473815 0 34.4921875 7.31640625 C39.41439181 12.81244267 40.29375652 19.99000914 40.21875 27.078125 C39.73932617 33.48185754 37.79381567 39.57493938 33 44 C23 49 23 49 0 49 C0 32.83 0 16.66 0 0 Z M3 3 C3 17.52 3 32.04 3 47 C19.79218669 47.64279905 19.79218669 47.64279905 32.4375 39.625 C36.83606479 32.23541115 38.17031665 26.37937311 36.6015625 17.828125 C34.87105938 12.02981585 31.0129543 8.24832415 26 5 C18.36615654 2.10402133 18.36615654 2.10402133 3 3 Z " fill="#D7D7D7" transform="translate(471,572)"/>
<path d="M0 0 C22 0 22 0 29 6 C30.3204023 10.94550678 30.22581835 16.46510016 27.96484375 21.140625 C25.89143206 23.75299692 24.16116297 24.94627901 21 26 C22.90764446 31.19080097 25.59252602 35.90624532 28.25390625 40.73632812 C31 45.79095124 31 45.79095124 31 48 C29.13037109 47.76367188 29.13037109 47.76367188 27 47 C25.85009766 45.15820312 25.85009766 45.15820312 24.9140625 42.78125 C21.57566628 33.69520038 21.57566628 33.69520038 15.16992188 27.00634766 C10.9256072 25.9388447 7.38981234 26.52658887 3 27 C3 34.26 3 41.52 3 49 C2.01 49 1.02 49 0 49 C0 32.83 0 16.66 0 0 Z M3 2 C3 9.26 3 16.52 3 24 C7.0528125 24.1546875 7.0528125 24.1546875 11.1875 24.3125 C12.45049927 24.38078003 12.45049927 24.38078003 13.73901367 24.45043945 C17.99418668 24.5288362 19.53610394 24.37172325 22.98828125 21.60546875 C26.03402014 17.66079333 26.38690612 15.15206647 26.36328125 10.26171875 C25.7918883 6.70433683 23.7487971 5.14540262 21 3 C20.67 2.67 20.34 2.34 20 2 C17.13530675 1.92669669 14.30106326 1.90782169 11.4375 1.9375 C8.653125 1.958125 5.86875 1.97875 3 2 Z " fill="#D9D9D9" transform="translate(286,573)"/>
<path d="M0 0 C2.31 0 4.62 0 7 0 C7 16.5 7 33 7 50 C4.69 50 2.38 50 0 50 C0 33.5 0 17 0 0 Z " fill="#EDEDED" transform="translate(674,572)"/>
<path d="M0 0 C1.83984375 1.30078125 1.83984375 1.30078125 3.0625 2.6875 C3.0625 3.6775 3.0625 4.6675 3.0625 5.6875 C-1.68835324 3.83994596 -1.68835324 3.83994596 -3.6484375 2.640625 C-6.90411783 1.28501749 -9.79792027 1.34757565 -13.3125 1.3125 C-15.24222656 1.26996094 -15.24222656 1.26996094 -17.2109375 1.2265625 C-22.60092483 1.89324856 -25.61331519 4.21618355 -29.1875 8.1875 C-33.79334319 14.76727598 -33.74917203 20.76728974 -32.9375 28.6875 C-31.41539663 34.06087888 -28.95668824 38.37174499 -24.5 41.8125 C-18.74785331 44.86866902 -12.23361995 44.63923906 -5.9375 43.6875 C-3.44811812 42.60678032 -1.52082128 41.44836014 0.609375 39.78125 C2.0625 38.6875 2.0625 38.6875 4.0625 38.6875 C3.71968511 41.40677744 3.37960185 42.43488218 1.19921875 44.171875 C-6.78050884 48.29537059 -14.53873279 49.24864626 -23.25 46.6875 C-30.07671701 43.6502496 -34.5894846 36.86584177 -37.27734375 30.10546875 C-39.24544589 22.89685797 -38.50654877 16.31658719 -35.140625 9.69140625 C-31.96257783 4.39810041 -28.30316173 0.10257656 -22.23828125 -1.86328125 C-15.1218339 -3.25274041 -6.38690539 -3.81838329 0 0 Z " fill="#E8E8E8" transform="translate(261.9375,574.3125)"/>
<path d="M0 0 C13.03275333 -0.60900716 13.03275333 -0.60900716 17.375 2.125 C19.31641332 5.55980818 19.71297058 7.11827131 19 11 C15.84210526 16.57894737 15.84210526 16.57894737 13 18 C8.66396021 18.1393329 4.33919329 18.04254111 0 18 C0 12.06 0 6.12 0 0 Z " fill="#2D2D2D" transform="translate(629,578)"/>
<path d="M0 0 C0.99 0 1.98 0 3 0 C7.29981517 13.84410186 10.75089907 27.88023693 14 42 C16.13187676 35.71096357 18.08868009 29.39405368 19.9375 23.015625 C20.9869309 20.03709318 22.22426621 17.60569632 24 15 C24.33 15 24.66 15 25 15 C24.34887891 22.40994144 22.42228272 29.34692169 20.4375 36.5 C20.10814453 37.70398438 19.77878906 38.90796875 19.43945312 40.1484375 C18.63119406 43.10034018 17.81792254 46.05076314 17 49 C15.35 49 13.7 49 12 49 C9.57598566 39.94041568 7.1710576 30.87613054 4.79736328 21.80322266 C3.42231981 16.55959473 1.99295355 11.33486222 0.48046875 6.12890625 C0 4 0 4 0 0 Z " fill="#DBDBDB" transform="translate(396,572)"/>
<path d="M0 0 C1.3271261 3.9813783 1.06915913 7.85045227 1 12 C1.33 9.69 1.66 7.38 2 5 C2.33 5 2.66 5 3 5 C3.08636719 5.7734375 3.17273438 6.546875 3.26171875 7.34375 C4.40183273 15.79523714 6.38747752 21.38747752 12.4375 27.4375 C15.47132975 29.28739619 17.45643541 29.72741811 21 30 C21.68191406 30.07476563 22.36382812 30.14953125 23.06640625 30.2265625 C29.4234392 30.64667946 34.05712403 29.03461056 39 25 C44.4777605 19.20302269 44.44890598 12.7691434 44.25610352 5.2331543 C44.18771177 3.48802151 44.09628433 1.74381628 44 0 C46.32239816 3.48359724 46.37381383 5.36938302 46.625 9.5 C46.69976562 10.6446875 46.77453125 11.789375 46.8515625 12.96875 C47.15691261 19.2043206 45.65002338 22.03275056 42 27 C36.39326889 32.45918556 31.09302146 34.18339423 23.4375 34.375 C16.94662821 34.20399192 13.29423501 33.07040721 8.4375 28.6875 C7.633125 27.800625 6.82875 26.91375 6 26 C5.113125 25.030625 4.22625 24.06125 3.3125 23.0625 C-1.4252244 16.78821633 -1.5146106 10.62341751 -1 3 C-0.67 2.01 -0.34 1.02 0 0 Z " fill="#E7E7E7" transform="translate(333,588)"/>
<path d="M0 0 C0.33 0 0.66 0 1 0 C1 14.52 1 29.04 1 44 C18.44746149 43.86079886 18.44746149 43.86079886 32 35.1875 C35.62571105 29.47348188 35.47159403 21.56958471 36 15 C36.99 15.33 37.98 15.66 39 16 C39.43069761 24.53419347 38.69205847 31.26197708 34.4375 38.75 C23.93562976 48.44403406 15.63955017 46 0 46 C0 30.82 0 15.64 0 0 Z " fill="#F2F2F2" transform="translate(472,575)"/>
<path d="M0 0 C22 0 22 0 29 6 C29.68359375 8.9921875 29.68359375 8.9921875 29.4375 11.875 C29.34275391 13.32519531 29.34275391 13.32519531 29.24609375 14.8046875 C29.16488281 15.52914062 29.08367187 16.25359375 29 17 C28.34 16.67 27.68 16.34 27 16 C26.58293184 14.07507002 26.17084168 12.14730637 25.85546875 10.203125 C24.85194458 7.17993032 24.85194458 7.17993032 20 3 C14.06 2.67 8.12 2.34 2 2 C2 17.18 2 32.36 2 48 C1.34 48 0.68 48 0 48 C0 32.16 0 16.32 0 0 Z " fill="#F6F6F6" transform="translate(286,573)"/>
<path d="M0 0 C1.83984375 1.30078125 1.83984375 1.30078125 3.0625 2.6875 C3.0625 3.6775 3.0625 4.6675 3.0625 5.6875 C-1.68835324 3.83994596 -1.68835324 3.83994596 -3.6484375 2.640625 C-6.90411783 1.28501749 -9.79792027 1.34757565 -13.3125 1.3125 C-15.24222656 1.26996094 -15.24222656 1.26996094 -17.2109375 1.2265625 C-22.45476046 1.87516953 -25.48081683 4.09839109 -29 7.9375 C-29.639375 8.845 -30.27875 9.7525 -30.9375 10.6875 C-31.37320313 11.2753125 -31.80890625 11.863125 -32.2578125 12.46875 C-35.72074753 17.45537645 -36.78361672 21.64408387 -36.9375 27.6875 C-37.2675 27.6875 -37.5975 27.6875 -37.9375 27.6875 C-38.55892615 18.45241695 -37.23411444 11.69789423 -31.5 4.3125 C-23.88821074 -3.48494266 -9.56999626 -5.72138017 0 0 Z " fill="#DCDCDC" transform="translate(261.9375,574.3125)"/>
<path d="M0 0 C2.32239816 3.48359724 2.37381383 5.36938302 2.625 9.5 C2.69976562 10.6446875 2.77453125 11.789375 2.8515625 12.96875 C3.15743015 19.21488938 1.64000253 22.01894391 -2 27 C-5.99643367 31.10744571 -10.61879479 32.45246386 -16 34 C-16 33.67 -16 33.34 -16 33 C-19.63 32.34 -23.26 31.68 -27 31 C-23.62137851 30.15534463 -22.08530073 29.98769903 -18.8125 30.25 C-13.24140515 30.27753424 -9.29306662 28.50420525 -5 25 C0.4777605 19.20302269 0.44890598 12.7691434 0.25610352 5.2331543 C0.18771177 3.48802151 0.09628433 1.74381628 0 0 Z " fill="#CDCDCD" transform="translate(377,588)"/>
<path d="M0 0 C0.33 0 0.66 0 1 0 C0.34887891 7.40994144 -1.57771728 14.34692169 -3.5625 21.5 C-3.89185547 22.70398438 -4.22121094 23.90796875 -4.56054688 25.1484375 C-5.36880594 28.10034018 -6.18207746 31.05076314 -7 34 C-8.32 34 -9.64 34 -11 34 C-11 32.68 -11 31.36 -11 30 C-10.01 30 -9.02 30 -8 30 C-8.103125 28.845 -8.20625 27.69 -8.3125 26.5 C-8.32805223 21.61659874 -7.13507759 17.36622849 -5.6875 12.75 C-5.47456299 12.06486328 -5.26162598 11.37972656 -5.04223633 10.67382812 C-3.77374474 6.79985009 -2.32349611 3.35833052 0 0 Z " fill="#CACACA" transform="translate(420,587)"/>
<path d="M0 0 C0.66 0.99 1.32 1.98 2 3 C1.67 3.66 1.34 4.32 1 5 C-1 4 -1 4 -2.23046875 2.6796875 C-15.3744458 -9.7969353 -33.71030719 -12.79724241 -51 -13 C-51 -13.33 -51 -13.66 -51 -14 C-31.35418095 -16.00153329 -16.25157076 -11.35922939 0 0 Z " fill="#5B231F" transform="translate(565,498)"/>
<path d="M0 0 C1.32 0.33 2.64 0.66 4 1 C4.99 4.63 5.98 8.26 7 12 C6.01 12 5.02 12 4 12 C3.34 10.68 2.68 9.36 2 8 C1.01 10.97 0.02 13.94 -1 17 C-1.66 16.67 -2.32 16.34 -3 16 C-3.66 17.32 -4.32 18.64 -5 20 C-6.72210342 16.55579316 -4.70437462 12.95407953 -3.625 9.4375 C-3.39039063 8.64408203 -3.15578125 7.85066406 -2.9140625 7.03320312 C-1.14368704 1.14368704 -1.14368704 1.14368704 0 0 Z " fill="#C7C7C7" transform="translate(423,572)"/>
<path d="M0 0 C2.83089822 -0.23590819 4.6880612 -0.13489245 7.3125 1 C9.51249156 3.60739741 9.43306168 5.72490421 9.2734375 9.05859375 C8.95061227 11.35065289 8.28430581 13.07354129 7 15 C6.67 15 6.34 15 6 15 C5.9175 13.72125 5.835 12.4425 5.75 11.125 C5.41596814 7.93666591 5.41596814 7.93666591 3.4375 5.5625 C-0.03171353 4.76191226 -3.45570316 4.35442968 -7 4 C-4 2 -4 2 0 2 C0 1.34 0 0.68 0 0 Z " fill="#D92819" transform="translate(535,522)"/>
<path d="M0 0 C0.33 0 0.66 0 1 0 C1 7.26 1 14.52 1 22 C5.95 22 10.9 22 16 22 C14 24 14 24 10.9609375 24.1953125 C5.98046875 24.09765625 5.98046875 24.09765625 1 24 C1 31.59 1 39.18 1 47 C0.01 46.67 -0.98 46.34 -2 46 C-1.34 46 -0.68 46 0 46 C-0.03552979 45.38817871 -0.07105957 44.77635742 -0.10766602 44.14599609 C-0.93330662 29.33959985 -0.9467635 14.79864172 0 0 Z " fill="#CDCDCD" transform="translate(288,575)"/>
<path d="M0 0 C0.99 0.33 1.98 0.66 3 1 C2.38511719 1.87011719 2.38511719 1.87011719 1.7578125 2.7578125 C-3.10038952 9.80104318 -5.12470316 15.53879719 -6 24 C-6.66 23.67 -7.32 23.34 -8 23 C-8.2752988 15.2916335 -8.04835951 9.06405584 -2.875 3 C-1.93010653 1.98729121 -0.97631329 0.98245363 0 0 Z " fill="#E5E5E5" transform="translate(341,577)"/>
<path d="M0 0 C0.98120464 3.05263664 0.98120464 4.94736336 0 8 C0.66 8 1.32 8 2 8 C1.01 11.63 0.02 15.26 -1 19 C-2.65 18.67 -4.3 18.34 -6 18 C-6 17.01 -6 16.02 -6 15 C-5.34 15 -4.68 15 -4 15 C-4.350625 14.2575 -4.70125 13.515 -5.0625 12.75 C-6.04509293 9.8677274 -6.0326802 8.78823655 -5 6 C-4.67 7.98 -4.34 9.96 -4 12 C-3.34 12 -2.68 12 -2 12 C-1.90912109 11.07767578 -1.90912109 11.07767578 -1.81640625 10.13671875 C-1.73261719 9.32847656 -1.64882813 8.52023437 -1.5625 7.6875 C-1.48128906 6.88699219 -1.40007812 6.08648438 -1.31640625 5.26171875 C-1 3 -1 3 0 0 Z " fill="#D0D0D0" transform="translate(442,602)"/>
<path d="M0 0 C2.29946417 3.44919626 2.80769035 6.1381022 3.625 10.1875 C3.88539063 11.45980469 4.14578125 12.73210938 4.4140625 14.04296875 C4.60742188 15.01878906 4.80078125 15.99460937 5 17 C5.66 16.67 6.32 16.34 7 16 C7 17.32 7 18.64 7 20 C6.01 20 5.02 20 4 20 C3.67 21.32 3.34 22.64 3 24 C0.56907044 15.8390222 -0.40735653 8.50922528 0 0 Z " fill="#D5D5D5" transform="translate(405,597)"/>
<path d="M0 0 C1.3271261 3.9813783 1.06915913 7.85045227 1 12 C1.33 9.69 1.66 7.38 2 5 C2.33 5 2.66 5 3 5 C3.13277344 5.81984375 3.26554687 6.6396875 3.40234375 7.484375 C3.57894531 8.56203125 3.75554687 9.6396875 3.9375 10.75 C4.11152344 11.81734375 4.28554688 12.8846875 4.46484375 13.984375 C4.88704171 16.36347593 5.37202884 18.66915211 6 21 C4.35 20.67 2.7 20.34 1 20 C-1.68159945 13.79880128 -2.14288655 6.42865964 0 0 Z " fill="#B6B6B6" transform="translate(333,588)"/>
<path d="M0 0 C3.95679173 1.31893058 6.67452229 2.46871904 9 6 C9.33546893 9.69015821 9.22931633 13.30545909 9 17 C8.34 16.67 7.68 16.34 7 16 C6.731875 14.7625 6.46375 13.525 6.1875 12.25 C5.23709211 7.93066656 3.25408598 5.99718445 0 3 C0 2.01 0 1.02 0 0 Z " fill="#E9E9E9" transform="translate(306,573)"/>
<path d="M0 0 C0.99 0.33 1.98 0.66 3 1 C3.05449838 2.72880982 3.09301688 4.45812712 3.125 6.1875 C3.14820313 7.15042969 3.17140625 8.11335937 3.1953125 9.10546875 C2.98750265 12.1852108 2.45744551 14.2829741 1 17 C0.01 17.33 -0.98 17.66 -2 18 C-1.34 12.06 -0.68 6.12 0 0 Z " fill="#E9E9E9" transform="translate(508,590)"/>
<path d="M0 0 C2.35716404 2.15454249 3.78966144 4.19719874 5.1875 7.0625 C5.53167969 7.75472656 5.87585938 8.44695313 6.23046875 9.16015625 C7 11 7 11 7 13 C4.42201159 12.63636795 3.30835927 12.40466367 1.69921875 10.29296875 C1.36535156 9.59816406 1.03148437 8.90335938 0.6875 8.1875 C0.34074219 7.50042969 -0.00601562 6.81335938 -0.36328125 6.10546875 C-1.10314333 3.65893095 -0.82973374 2.38213881 0 0 Z " fill="#E1E1E1" transform="translate(310,608)"/>
<path d="M0 0 C3.42946293 1.61674681 6.56263052 3.57597677 9.75 5.625 C11.22726562 6.57246094 11.22726562 6.57246094 12.734375 7.5390625 C13.48203125 8.02117187 14.2296875 8.50328125 15 9 C14.01 10.485 14.01 10.485 13 12 C9.34435261 10.46563424 7.01301377 8.25017578 4.25 5.4375 C3.45078125 4.63183594 2.6515625 3.82617188 1.828125 2.99609375 C0 1 0 1 0 0 Z " fill="#CE281A" transform="translate(371,452)"/>
<path d="M0 0 C1.2065625 0.433125 1.2065625 0.433125 2.4375 0.875 C6.58131067 2.18357179 10.74978663 3.11217765 15 4 C14.67 4.66 14.34 5.32 14 6 C8.1977825 6.36263859 4.36000789 5.25684543 -1 3 C-0.67 2.01 -0.34 1.02 0 0 Z " fill="#DEDEDE" transform="translate(236,616)"/>
<path d="M0 0 C2.32239816 3.48359724 2.37381383 5.36938302 2.625 9.5 C2.69976562 10.6446875 2.77453125 11.789375 2.8515625 12.96875 C3.08041884 17.64223746 2.99406678 19.38216931 0 23 C-0.66 22.67 -1.32 22.34 -2 22 C-1.67257812 21.18273437 -1.34515625 20.36546875 -1.0078125 19.5234375 C0.16951093 15.40736876 0.22478162 11.86955666 0.125 7.625 C0.11146484 6.52091797 0.11146484 6.52091797 0.09765625 5.39453125 C0.07430144 3.5962112 0.03843836 1.79806089 0 0 Z " fill="#BBBBBB" transform="translate(377,588)"/>
<path d="M0 0 C3 2 3 2 3.80078125 4.96875 C3.96964844 6.1340625 4.13851563 7.299375 4.3125 8.5 C4.58513672 10.24796875 4.58513672 10.24796875 4.86328125 12.03125 C4.93095703 13.50078125 4.93095703 13.50078125 5 15 C4.34 15.66 3.68 16.32 3 17 C2.49453964 14.91798472 1.99583165 12.83432933 1.5 10.75 C1.2215625 9.58984375 0.943125 8.4296875 0.65625 7.234375 C0 4 0 4 0 0 Z " fill="#ECECEC" transform="translate(401,589)"/>
<path d="M0 0 C0.33 0.66 0.66 1.32 1 2 C1.66 2 2.32 2 3 2 C1.25 7.75 1.25 7.75 -1 10 C-1.46006346 12.20250992 -1.46006346 12.20250992 -1.625 14.625 C-1.69976562 15.44226563 -1.77453125 16.25953125 -1.8515625 17.1015625 C-1.92503906 18.04128906 -1.92503906 18.04128906 -2 19 C-2.33 19 -2.66 19 -3 19 C-3.35368021 11.87399867 -2.95671348 6.52940894 0 0 Z " fill="#CCCCCC" transform="translate(227,583)"/>
<path d="M0 0 C0.33 0 0.66 0 1 0 C0.85795259 1.58367747 0.71119847 3.16693318 0.5625 4.75 C0.48128906 5.63171875 0.40007812 6.5134375 0.31640625 7.421875 C0.03761535 9.69350452 -0.38790577 11.79851823 -1 14 C-2.32 14 -3.64 14 -5 14 C-5 12.68 -5 11.36 -5 10 C-4.01 10 -3.02 10 -2 10 C-1.855625 8.72125 -1.71125 7.4425 -1.5625 6.125 C-1.29357254 3.74307106 -1.07773654 2.15547309 0 0 Z " fill="#F0F0F0" transform="translate(414,607)"/>
<path d="M0 0 C3.77545388 1.09068668 6.47043472 1.9083091 9 5 C8.01 6.485 8.01 6.485 7 8 C6.46375 7.54625 5.9275 7.0925 5.375 6.625 C2.68301698 4.78311688 0.11479612 3.92028067 -3 3 C-2.01 2.01 -1.02 1.02 0 0 Z " fill="#CECECE" transform="translate(494,573)"/>
<path d="M0 0 C3.42946293 1.61674681 6.56263052 3.57597677 9.75 5.625 C11.22726562 6.57246094 11.22726562 6.57246094 12.734375 7.5390625 C13.48203125 8.02117187 14.2296875 8.50328125 15 9 C14.01 9.99 13.02 10.98 12 12 C9.99698881 10.19073245 7.99751914 8.377813 6 6.5625 C5.42765625 6.04623047 4.8553125 5.52996094 4.265625 4.99804688 C2.82480421 3.6858708 1.41014216 2.34509096 0 1 C0 0.67 0 0.34 0 0 Z " fill="#BE271A" transform="translate(443,470)"/>
<path d="M0 0 C2.53910197 0.38520564 3.72751123 0.70097943 5.484375 2.62890625 C5.90203125 3.26699219 6.3196875 3.90507813 6.75 4.5625 C7.17796875 5.20316406 7.6059375 5.84382812 8.046875 6.50390625 C8.36140625 6.99761719 8.6759375 7.49132812 9 8 C8.01 8.33 7.02 8.66 6 9 C0.42857143 3.85714286 0.42857143 3.85714286 0 0 Z " fill="#E1E1E1" transform="translate(336,608)"/>
<path d="M0 0 C5.44208234 0.34013015 8.93668198 3.70296528 13 7 C12.67 7.99 12.34 8.98 12 10 C10 9 10 9 8.60546875 7.6015625 C6.42637434 5.42777002 3.96015645 3.8174982 1.42578125 2.0859375 C0.95527344 1.72757812 0.48476563 1.36921875 0 1 C0 0.67 0 0.34 0 0 Z " fill="#482220" transform="translate(554,493)"/>
<path d="M0 0 C3.74525799 3.74525799 3.68909949 7.98270909 4 13 C3.34 13 2.68 13 2 13 C-0.24828052 8.50343896 -0.16682272 4.92127034 0 0 Z " fill="#E9E9E9" transform="translate(427,580)"/>
<path d="M0 0 C0 0.99 0 1.98 0 3 C-1.28913487 3.67154933 -2.58140204 4.33708859 -3.875 5 C-4.59429687 5.37125 -5.31359375 5.7425 -6.0546875 6.125 C-8 7 -8 7 -10 7 C-10.33 6.01 -10.66 5.02 -11 4 C-7.67377987 2.57447709 -4.54423143 1.68915611 -1 1 C-0.67 0.67 -0.34 0.34 0 0 Z " fill="#E6E6E6" transform="translate(502,614)"/>
<path d="M0 0 C2.70931419 0.15481795 4.46584039 0.48172081 6.4453125 2.40234375 C7.67679642 3.89771708 8.8429837 5.4462924 10 7 C5.29735282 7 4.3225289 6.14293274 1 3 C0.67 2.01 0.34 1.02 0 0 Z " fill="#E9E9E9" transform="translate(367,575)"/>
<path d="M0 0 C0.99 0.495 0.99 0.495 2 1 C2.62669199 3.16467461 3.15427374 5.35864524 3.625 7.5625 C3.88539063 8.76003906 4.14578125 9.95757813 4.4140625 11.19140625 C4.60742188 12.11824219 4.80078125 13.04507813 5 14 C4.34 14 3.68 14 3 14 C0.96006486 9.07015675 -0.40652968 5.42039575 0 0 Z " fill="#F2F2F2" transform="translate(433,603)"/>
<path d="M0 0 C1.81495662 0.44850658 3.62693134 0.90909571 5.4375 1.375 C6.44683594 1.63023437 7.45617187 1.88546875 8.49609375 2.1484375 C11 3 11 3 12 5 C11.01 6.485 11.01 6.485 10 8 C8.33055479 6.85821872 6.6645052 5.71147095 5 4.5625 C4.071875 3.92441406 3.14375 3.28632813 2.1875 2.62890625 C1.465625 2.09136719 0.74375 1.55382812 0 1 C0 0.67 0 0.34 0 0 Z " fill="#C4271A" transform="translate(404,459)"/>
<path d="M0 0 C3.04316701 1.34257368 4.89180832 3.51820901 7.125 5.9375 C2.73610675 5.27251617 -0.8561485 3.74992323 -4.875 1.9375 C-1.875 -0.0625 -1.875 -0.0625 0 0 Z " fill="#BF271A" transform="translate(453.875,490.0625)"/>
<path d="M0 0 C5.41139241 0.60126582 5.41139241 0.60126582 7.9375 2.3125 C9 4 9 4 8.56640625 6.10546875 C8.37949219 6.73066406 8.19257812 7.35585938 8 8 C6.66372225 6.85760183 5.33104612 5.71098945 4 4.5625 C3.2575 3.92441406 2.515 3.28632813 1.75 2.62890625 C1.1725 2.09136719 0.595 1.55382812 0 1 C0 0.67 0 0.34 0 0 Z " fill="#49231F" transform="translate(557,482)"/>
<path d="M0 0 C0.33 0 0.66 0 1 0 C0.125 7.625 0.125 7.625 -1 11 C-1.66 11 -2.32 11 -3 11 C-3.32434322 6.35108046 -2.776422 3.77593392 0 0 Z " fill="#ECECEC" transform="translate(420,587)"/>
<path d="M0 0 C1.96301592 3.50538557 2.95902388 7.13351728 4 11 C3.01 11 2.02 11 1 11 C-0.20628008 8.66785852 -1.1654738 6.50357861 -2 4 C-1.34 4 -0.68 4 0 4 C0 2.68 0 1.36 0 0 Z " fill="#C1C1C1" transform="translate(426,573)"/>
<path d="M0 0 C1.32 0.66 2.64 1.32 4 2 C3.67 2.66 3.34 3.32 3 4 C-2.28 3.34 -7.56 2.68 -13 2 C-13 1.67 -13 1.34 -13 1 C-11.71802734 1.01740234 -11.71802734 1.01740234 -10.41015625 1.03515625 C-8.75306641 1.04869141 -8.75306641 1.04869141 -7.0625 1.0625 C-5.40927734 1.07990234 -5.40927734 1.07990234 -3.72265625 1.09765625 C-1.08552366 1.31262571 -1.08552366 1.31262571 0 0 Z " fill="#BDBDBD" transform="translate(365,573)"/>
<path d="M0 0 C0.33 0 0.66 0 1 0 C1.0270043 1.45823212 1.04639787 2.91660675 1.0625 4.375 C1.07410156 5.18710937 1.08570313 5.99921875 1.09765625 6.8359375 C1 9 1 9 0 11 C-0.66 11 -1.32 11 -2 11 C-1.85957123 9.35369672 -1.71250671 7.70795821 -1.5625 6.0625 C-1.48128906 5.14597656 -1.40007812 4.22945312 -1.31640625 3.28515625 C-1 1 -1 1 0 0 Z " fill="#EDEDED" transform="translate(444,599)"/>
<path d="M0 0 C1.53166168 4.08443115 0.63081652 7.79455657 0 12 C-0.66 11.67 -1.32 11.34 -2 11 C-2.25 3.375 -2.25 3.375 0 0 Z " fill="#F9F9F9" transform="translate(335,589)"/>
<path d="M0 0 C3.96 0 7.92 0 12 0 C11.67 0.99 11.34 1.98 11 3 C9.35 3 7.7 3 6 3 C6 2.67 6 2.34 6 2 C3.03 1.505 3.03 1.505 0 1 C0 0.67 0 0.34 0 0 Z " fill="#D5D5D5" transform="translate(244,619)"/>
<path d="M0 0 C0.98120464 3.05263664 0.98120464 4.94736336 0 8 C0.66 8 1.32 8 2 8 C1.67 9.65 1.34 11.3 1 13 C0.01 12.34 -0.98 11.68 -2 11 C-1.125 3.375 -1.125 3.375 0 0 Z " fill="#B8B8B8" transform="translate(442,602)"/>
<path d="M0 0 C1.485 0.99 1.485 0.99 3 2 C2.67 4.64 2.34 7.28 2 10 C1.01 9.67 0.02 9.34 -1 9 C-0.67 6.03 -0.34 3.06 0 0 Z " fill="#CCCCCC" transform="translate(447,583)"/>
<path d="M0 0 C2.64 0 5.28 0 8 0 C7.34 1.65 6.68 3.3 6 5 C5.67 4.01 5.34 3.02 5 2 C3.02 2.66 1.04 3.32 -1 4 C-0.67 2.68 -0.34 1.36 0 0 Z " fill="#E1E1E1" transform="translate(727,572)"/>
<path d="M0 0 C1.98 1.65 3.96 3.3 6 5 C5.01 6.32 4.02 7.64 3 9 C2.01 6.03 1.02 3.06 0 0 Z " fill="#D22819" transform="translate(310,332)"/>
<path d="M0 0 C2.1519437 3.22791555 2.20086443 4.28400809 2 8 C1.01 8.33 0.02 8.66 -1 9 C-0.67 6.03 -0.34 3.06 0 0 Z " fill="#D8D8D8" transform="translate(416,595)"/>
<path d="M0 0 C0.99 0 1.98 0 3 0 C3 1.65 3 3.3 3 5 C2.34 5 1.68 5 1 5 C0.67 5.99 0.34 6.98 0 8 C-1.09658936 4.71023192 -0.79953138 3.28696233 0 0 Z " fill="#EDEDED" transform="translate(423,572)"/>
<path d="M0 0 C0.66 0 1.32 0 2 0 C2.66 1.98 3.32 3.96 4 6 C2.68 5.67 1.36 5.34 0 5 C-0.5625 3.0625 -0.5625 3.0625 -1 1 C-0.67 0.67 -0.34 0.34 0 0 Z " fill="#E7E7E7" transform="translate(313,615)"/>
<path d="M0 0 C0.33 0 0.66 0 1 0 C1.33 4.29 1.66 8.58 2 13 C1.01 13.33 0.02 13.66 -1 14 C-0.67 9.38 -0.34 4.76 0 0 Z " fill="#BDBDBD" transform="translate(227,593)"/>
<path d="M0 0 C2.97 0.33 5.94 0.66 9 1 C8.67 1.66 8.34 2.32 8 3 C5.69 3 3.38 3 1 3 C0.67 2.01 0.34 1.02 0 0 Z " fill="#F2F2F2" transform="translate(242,619)"/>
<path d="M0 0 C1.32 0 2.64 0 4 0 C3.67 0.99 3.34 1.98 3 3 C1.02 3.33 -0.96 3.66 -3 4 C-1.75 2 -1.75 2 0 0 Z " fill="#EAEAEA" transform="translate(367,616)"/>
<path d="M0 0 C0.99 0 1.98 0 3 0 C3.6875 1.75 3.6875 1.75 4 4 C2.5625 6.25 2.5625 6.25 1 8 C0.67 5.36 0.34 2.72 0 0 Z " fill="#C5C5C5" transform="translate(396,572)"/>
</svg>
