<svg version="1.1" id="Layer_1" xmlns="http://www.w3.org/2000/svg" xmlns:xlink="http://www.w3.org/1999/xlink" x="0px" y="0px"
	 width="100%" viewBox="0 0 1000 260" enable-background="new 0 0 1000 260" xml:space="preserve">
<path fill="#000000" opacity="1.000000" stroke="none" 
	d="
M662.000000,261.000000 
	C441.333344,261.000000 221.166672,261.000000 1.000000,261.000000 
	C1.000000,174.333328 1.000000,87.666664 1.000000,1.000000 
	C334.333344,1.000000 667.666687,1.000000 1001.000000,1.000000 
	C1001.000000,87.666664 1001.000000,174.333328 1001.000000,261.000000 
	C888.166687,261.000000 775.333313,261.000000 662.000000,261.000000 
M88.305092,85.028549 
	C87.831734,85.671692 87.358368,86.314842 86.174278,87.005653 
	C78.542244,93.097473 75.833717,103.774689 83.489342,108.912399 
	C89.893097,113.209961 109.013412,113.961472 114.980263,107.314171 
	C116.652718,105.450989 118.129829,102.271843 117.814354,99.952347 
	C115.947899,86.229546 100.852257,78.520233 88.305092,85.028549 
M983.979919,149.095688 
	C983.321716,142.093781 983.188965,134.993225 981.896790,128.110336 
	C979.129944,113.372887 970.833557,102.421570 957.785828,94.927933 
	C948.292542,89.475693 938.069763,88.624062 927.456360,88.955292 
	C910.694824,89.478424 897.616333,96.936531 888.062195,110.268822 
	C879.699280,121.938965 876.896851,135.126892 878.895813,149.550217 
	C880.954468,164.404312 887.449890,176.213440 899.523010,185.241821 
	C910.487671,193.441391 922.768799,195.499161 936.018860,195.071732 
	C951.226624,194.581146 964.053955,189.100861 973.772766,177.463303 
	C976.949585,173.659363 978.525391,168.518372 980.908997,163.469193 
	C980.612305,163.368347 980.315552,163.267502 979.224365,163.005341 
	C970.854370,161.322708 962.484314,159.640076 953.866272,157.381622 
	C953.299744,157.587997 952.733154,157.794373 951.873047,158.633499 
	C950.409973,160.372040 949.215881,162.472076 947.441406,163.792053 
	C932.950317,174.571533 914.597534,167.869415 911.162598,150.833344 
	C935.188416,150.833344 959.099609,150.833344 983.530457,150.909073 
	C983.631409,150.612427 983.732422,150.315796 983.979919,149.095688 
M622.000000,104.385696 
	C622.000000,88.970810 622.000000,73.555916 622.000000,58.217049 
	C610.662415,58.217049 600.051331,58.217049 589.244507,58.217049 
	C589.244507,102.826805 589.244507,147.219360 589.244507,191.724243 
	C600.219543,191.724243 610.948303,191.724243 622.143494,191.724243 
	C622.143494,174.387177 622.143494,157.320862 622.143494,140.336731 
	C641.010132,140.336731 659.405701,140.336731 678.265381,140.336731 
	C678.265381,157.736755 678.265381,174.803711 678.265381,191.778183 
	C689.347412,191.778183 699.958801,191.778183 710.750732,191.778183 
	C710.750732,147.163605 710.750732,102.771049 710.750732,58.280556 
	C699.770569,58.280556 689.041809,58.280556 677.846924,58.280556 
	C677.846924,75.622345 677.846924,92.689255 677.846924,109.835327 
	C659.101013,109.835327 640.824646,109.835327 622.222656,109.835327 
	C622.143677,108.247444 622.071838,106.803177 622.000000,104.385696 
M370.000000,161.500000 
	C370.430664,151.889572 369.998169,142.138809 371.531281,132.707596 
	C373.110138,122.994781 382.433594,116.915375 391.195984,118.088577 
	C399.844208,119.246490 405.988403,127.103973 405.996429,137.068283 
	C406.009827,153.724121 406.073212,170.380508 405.944702,187.035355 
	C405.917175,190.601669 406.920654,192.166550 410.741211,192.061783 
	C418.563568,191.847336 426.399872,191.850418 434.222443,192.061005 
	C438.002075,192.162766 439.078369,190.677170 439.056244,187.071854 
	C438.933502,167.085602 439.441711,147.084778 438.841003,127.115822 
	C438.428772,113.412430 433.643188,101.124084 420.841156,94.060158 
	C406.696838,86.255592 392.195892,86.905266 377.864746,94.036911 
	C375.508850,95.209290 373.150604,96.377029 369.998413,97.941498 
	C369.998413,82.122887 369.901917,67.650742 370.063507,53.181473 
	C370.106110,49.368198 369.033295,47.788628 364.974823,47.925385 
	C357.155426,48.188877 349.319672,48.086250 341.493347,47.963974 
	C338.400024,47.915649 336.958832,48.852226 336.963684,52.211697 
	C337.028839,97.348915 337.026215,142.486298 336.964386,187.623520 
	C336.959991,190.824326 338.077881,192.094269 341.328644,192.038666 
	C349.321106,191.901901 357.321686,191.843216 365.310486,192.062790 
	C369.191254,192.169479 370.126251,190.494324 370.052704,186.982941 
	C369.881866,178.825165 369.999359,170.661362 370.000000,161.500000 
M528.002014,89.074120 
	C523.837402,89.049416 519.671936,88.955612 515.508423,89.012032 
	C497.916016,89.250412 484.055298,96.775856 474.301849,111.237854 
	C464.050781,126.437729 462.385040,143.229584 468.118225,160.369080 
	C472.532288,173.565216 481.188995,183.608978 493.905640,190.032288 
	C503.849426,195.055008 514.398193,195.651291 525.067688,194.921570 
	C543.459900,193.663666 557.681763,185.377884 566.459778,168.742920 
	C568.249512,165.351212 567.382629,162.926285 563.433044,162.087708 
	C556.933899,160.707840 550.406189,159.459198 543.921692,158.015289 
	C541.098450,157.386642 538.987427,157.756027 537.114990,160.285095 
	C533.371460,165.341599 528.170776,167.917572 521.919312,168.846039 
	C510.788330,170.499252 498.836060,161.492920 499.046692,151.000000 
	C501.493927,151.000000 503.964844,151.000046 506.435730,150.999969 
	C526.261597,150.999390 546.087402,151.010284 565.913269,150.982407 
	C568.163574,150.979248 570.884155,151.531662 570.962219,147.880783 
	C571.225647,135.553391 569.458252,123.611977 563.164062,112.814301 
	C555.485229,99.641182 543.566284,92.345215 528.002014,89.074120 
M324.000000,79.428246 
	C323.999298,73.929893 323.842468,68.425552 324.053192,62.935310 
	C324.191772,59.324131 323.003082,57.930164 319.226288,57.940697 
	C282.403931,58.043381 245.581085,58.028275 208.758545,57.958305 
	C205.470215,57.952057 203.848053,58.814327 203.948746,62.449978 
	C204.142441,69.442566 204.134262,76.447769 203.949722,83.440872 
	C203.856873,86.959496 205.238953,88.093643 208.649857,88.048706 
	C219.311569,87.908264 229.985123,88.254715 240.636078,87.888756 
	C245.709412,87.714424 247.148743,89.268402 247.111557,94.346558 
	C246.887131,125.002708 247.071533,155.661682 246.918655,186.318710 
	C246.897293,190.602966 248.015579,192.303101 252.529617,192.087296 
	C259.511627,191.753525 266.521332,192.008347 273.519318,191.997330 
	C279.983917,191.987152 279.996643,191.977753 279.997772,185.274994 
	C280.002869,154.783813 280.091888,124.292076 279.903503,93.802063 
	C279.874603,89.124786 281.381012,87.784317 285.907196,87.911171 
	C296.062927,88.195801 306.232147,88.001907 316.395874,87.999413 
	C323.979675,87.997559 323.979675,87.995171 324.000000,79.428246 
M881.055847,97.717598 
	C881.937012,95.575928 882.818176,93.434250 883.819580,91.000290 
	C872.881958,91.000290 862.559143,91.037041 852.236938,90.973083 
	C849.815796,90.958084 848.752625,91.558022 847.771118,94.225021 
	C841.750183,110.584610 835.336487,126.800591 828.949280,143.023315 
	C828.120361,145.128738 826.691223,146.997864 825.540161,148.976471 
	C824.362488,146.852203 822.932983,144.827530 822.047302,142.587799 
	C815.277466,125.467552 808.613525,108.305450 802.014465,91.406876 
	C790.152344,91.406876 778.651367,91.406876 767.006287,91.406876 
	C780.965271,125.187126 794.757751,158.564407 808.510620,191.845703 
	C820.069763,191.845703 831.371643,191.845703 842.434753,191.845703 
	C855.349121,160.588318 868.174561,129.546234 881.055847,97.717598 
M761.000000,157.500000 
	C761.000000,135.429871 761.000000,113.359749 761.000000,91.307892 
	C749.694763,91.307892 738.975037,91.307892 728.291077,91.307892 
	C728.291077,124.980011 728.291077,158.343399 728.291077,191.692368 
	C739.304688,191.692368 750.024414,191.692368 761.000000,191.692368 
	C761.000000,180.424408 761.000000,169.462204 761.000000,157.500000 
M168.492569,103.996971 
	C168.355072,104.861534 168.442429,105.849617 168.045700,106.571777 
	C163.501740,114.843582 158.882645,123.074104 154.287003,131.317535 
	C152.744614,134.084183 152.033081,136.857422 155.167130,138.984940 
	C158.431610,141.201004 160.442398,139.831909 162.176178,136.586044 
	C167.063293,127.436661 171.912048,118.242493 177.372894,109.436165 
	C179.477554,106.042137 179.388626,103.311333 177.690674,100.350693 
	C173.337372,92.760048 168.756104,85.300613 164.329102,77.751701 
	C156.380005,64.196899 148.389572,50.664654 140.636703,36.998024 
	C139.262436,34.575497 137.792572,33.937954 135.200577,33.947186 
	C110.372581,34.035606 85.543633,33.936363 60.716888,34.133640 
	C58.931675,34.147823 56.414261,35.623894 55.497204,37.168350 
	C42.840622,58.483883 30.335966,79.891205 18.044125,101.418800 
	C17.041403,103.174934 17.000732,106.451004 17.977783,108.204796 
	C23.177200,117.537659 28.783463,126.647400 34.386524,135.749649 
	C35.995693,138.363754 38.128086,141.461533 41.691269,139.540756 
	C45.577774,137.445663 44.165485,134.026642 42.489388,130.961746 
	C42.259506,130.541382 42.142128,130.056061 41.891712,129.650848 
	C37.373142,122.338989 32.756626,115.085228 28.393932,107.681801 
	C27.624243,106.375656 27.227879,104.131844 27.823404,102.870934 
	C29.754751,98.781715 32.200531,94.932396 34.496288,91.018906 
	C43.840443,75.090218 53.202496,59.172035 62.704632,43.000343 
	C85.292671,43.000343 108.114807,42.965546 130.936020,43.094326 
	C132.189438,43.101398 133.936218,44.163177 134.603149,45.253887 
	C138.912521,52.301388 143.021881,59.472603 147.127762,66.642792 
	C154.130310,78.871506 161.082001,91.129333 168.492569,103.996971 
M170.626236,182.879303 
	C172.399063,174.740692 168.279617,168.075974 164.245316,161.993469 
	C153.280106,145.461243 137.607208,134.529419 119.444450,127.040474 
	C115.955376,125.601837 112.247322,124.694298 107.510979,123.180908 
	C108.227676,125.964798 108.466576,127.503349 109.013947,128.922958 
	C113.656372,140.963150 118.413658,152.959305 123.014999,165.015015 
	C125.824585,172.376266 127.527359,180.322906 131.346695,187.093018 
	C135.743256,194.886307 142.409760,200.182587 152.739716,199.159103 
	C161.177032,198.323135 169.061554,191.976501 170.626236,182.879303 
M68.942856,175.288162 
	C72.977455,165.090378 76.967529,154.874664 81.062416,144.701157 
	C83.757431,138.005539 86.603516,131.370743 89.712257,123.916687 
	C87.548447,124.165276 86.190643,124.021965 85.098961,124.494072 
	C76.386536,128.261810 67.304230,131.421341 59.140247,136.155441 
	C44.983910,144.364365 33.960457,155.871628 26.966612,170.966080 
	C22.444113,180.726715 26.901754,190.574799 32.420788,194.700897 
	C41.111305,201.198044 52.482639,200.936096 58.923088,193.233490 
	C63.074223,188.268829 65.396080,181.774643 68.942856,175.288162 
M738.639404,44.836781 
	C732.936890,45.939541 729.101624,49.839161 727.288391,54.745041 
	C723.396362,65.275597 726.480042,77.360260 740.460327,80.236328 
	C748.692261,81.929840 754.791565,79.274338 759.973328,73.435570 
	C763.709900,69.225235 764.340454,59.304737 761.406677,53.913490 
	C756.545593,44.980415 748.678589,42.799488 738.639404,44.836781 
M73.042480,212.278320 
	C80.328056,225.850555 94.218857,230.554718 106.352669,226.802322 
	C115.408157,224.001907 126.571709,210.686935 124.498657,203.198547 
	C106.426247,203.198547 88.325493,203.198547 69.372086,203.198547 
	C70.689941,206.280258 71.809341,208.897903 73.042480,212.278320 
M102.749992,182.999161 
	C96.679741,182.666107 90.612946,182.168854 84.538368,182.040802 
	C76.624329,181.874008 75.484390,183.051163 74.183319,191.769806 
	C89.738777,191.769806 105.260292,191.769806 120.807701,191.769806 
	C119.691193,183.490860 119.170677,183.000443 111.674232,183.000015 
	C109.017891,182.999863 106.361542,182.999939 102.749992,182.999161 
M107.311707,171.000000 
	C109.183868,171.000000 111.056023,171.000000 113.520813,171.000000 
	C112.257431,167.708023 111.507957,165.247650 110.352890,162.995239 
	C109.891144,162.094803 108.547356,161.110687 107.584236,161.088974 
	C100.480217,160.928848 93.370926,161.002365 86.121368,161.002365 
	C84.939621,164.349655 83.853653,167.425644 82.591736,171.000000 
	C91.114708,171.000000 98.736076,171.000000 107.311707,171.000000 
M122.995461,66.234268 
	C123.247978,63.616375 123.016006,60.603554 119.905556,60.668995 
	C117.899887,60.711189 115.260010,62.554504 114.106773,64.359039 
	C111.870010,67.859062 110.569252,71.944473 108.711548,75.703751 
	C107.326431,78.506668 107.512459,81.148178 110.246086,82.531799 
	C113.052788,83.952400 115.630745,83.062759 117.053543,79.808838 
	C118.930405,75.516472 120.984077,71.301407 122.995461,66.234268 
M74.436829,61.111652 
	C74.012566,61.604656 73.353508,62.035114 73.202766,62.600986 
	C72.330956,65.873611 78.099472,80.922195 81.027794,82.368027 
	C82.342789,83.017288 84.418587,83.149269 85.675667,82.539635 
	C86.543129,82.118950 87.237946,79.836197 86.907379,78.708893 
	C85.381798,73.506409 83.767448,68.284042 81.559425,63.348640 
	C80.584839,61.170227 78.284836,59.209007 74.436829,61.111652 
M98.927338,134.646423 
	C98.189995,135.000092 97.038780,135.166641 96.780884,135.737076 
	C94.749329,140.230698 92.888435,144.801483 90.815163,149.728333 
	C95.733322,149.728333 100.225090,149.728333 105.219940,149.728333 
	C103.080261,144.756866 101.069931,140.085953 98.927338,134.646423 
z"/>
<path fill="#F2D130" opacity="1.000000" stroke="none" 
	d="
M622.000000,104.872307 
	C622.071838,106.803177 622.143677,108.247444 622.222656,109.835327 
	C640.824646,109.835327 659.101013,109.835327 677.846924,109.835327 
	C677.846924,92.689255 677.846924,75.622345 677.846924,58.280556 
	C689.041809,58.280556 699.770569,58.280556 710.750732,58.280556 
	C710.750732,102.771049 710.750732,147.163605 710.750732,191.778183 
	C699.958801,191.778183 689.347412,191.778183 678.265381,191.778183 
	C678.265381,174.803711 678.265381,157.736755 678.265381,140.336731 
	C659.405701,140.336731 641.010132,140.336731 622.143494,140.336731 
	C622.143494,157.320862 622.143494,174.387177 622.143494,191.724243 
	C610.948303,191.724243 600.219543,191.724243 589.244507,191.724243 
	C589.244507,147.219360 589.244507,102.826805 589.244507,58.217049 
	C600.051331,58.217049 610.662415,58.217049 622.000000,58.217049 
	C622.000000,73.555916 622.000000,88.970810 622.000000,104.872307 
z"/>
<path fill="#131632" opacity="1.000000" stroke="none" 
	d="
M370.000000,162.000000 
	C369.999359,170.661362 369.881866,178.825165 370.052704,186.982941 
	C370.126251,190.494324 369.191254,192.169479 365.310486,192.062790 
	C357.321686,191.843216 349.321106,191.901901 341.328644,192.038666 
	C338.077881,192.094269 336.959991,190.824326 336.964386,187.623520 
	C337.026215,142.486298 337.028839,97.348915 336.963684,52.211697 
	C336.958832,48.852226 338.400024,47.915649 341.493347,47.963974 
	C349.319672,48.086250 357.155426,48.188877 364.974823,47.925385 
	C369.033295,47.788628 370.106110,49.368198 370.063507,53.181473 
	C369.901917,67.650742 369.998413,82.122887 369.998413,97.941498 
	C373.150604,96.377029 375.508850,95.209290 377.864746,94.036911 
	C392.195892,86.905266 406.696838,86.255592 420.841156,94.060158 
	C433.643188,101.124084 438.428772,113.412430 438.841003,127.115822 
	C439.441711,147.084778 438.933502,167.085602 439.056244,187.071854 
	C439.078369,190.677170 438.002075,192.162766 434.222443,192.061005 
	C426.399872,191.850418 418.563568,191.847336 410.741211,192.061783 
	C406.920654,192.166550 405.917175,190.601669 405.944702,187.035355 
	C406.073212,170.380508 406.009827,153.724121 405.996429,137.068283 
	C405.988403,127.103973 399.844208,119.246490 391.195984,118.088577 
	C382.433594,116.915375 373.110138,122.994781 371.531281,132.707596 
	C369.998169,142.138809 370.430664,151.889572 370.000000,162.000000 
z"/>
<path fill="#131632" opacity="1.000000" stroke="none" 
	d="
M528.442871,89.135544 
	C543.566284,92.345215 555.485229,99.641182 563.164062,112.814301 
	C569.458252,123.611977 571.225647,135.553391 570.962219,147.880783 
	C570.884155,151.531662 568.163574,150.979248 565.913269,150.982407 
	C546.087402,151.010284 526.261597,150.999390 506.435730,150.999969 
	C503.964844,151.000046 501.493927,151.000000 499.046692,151.000000 
	C498.836060,161.492920 510.788330,170.499252 521.919312,168.846039 
	C528.170776,167.917572 533.371460,165.341599 537.114990,160.285095 
	C538.987427,157.756027 541.098450,157.386642 543.921692,158.015289 
	C550.406189,159.459198 556.933899,160.707840 563.433044,162.087708 
	C567.382629,162.926285 568.249512,165.351212 566.459778,168.742920 
	C557.681763,185.377884 543.459900,193.663666 525.067688,194.921570 
	C514.398193,195.651291 503.849426,195.055008 493.905640,190.032288 
	C481.188995,183.608978 472.532288,173.565216 468.118225,160.369080 
	C462.385040,143.229584 464.050781,126.437729 474.301849,111.237854 
	C484.055298,96.775856 497.916016,89.250412 515.508423,89.012032 
	C519.671936,88.955612 523.837402,89.049416 528.442871,89.135544 
M507.603149,130.000000 
	C516.090637,129.997726 524.578186,129.996017 533.065674,129.992905 
	C535.874390,129.991882 537.833130,129.375290 536.242615,125.903351 
	C533.566711,120.062294 524.488770,114.509079 518.252930,115.224670 
	C509.708557,116.205170 501.088837,121.161369 499.393494,129.602310 
	C501.866638,129.737915 504.256836,129.868958 507.603149,130.000000 
z"/>
<path fill="#F2D130" opacity="1.000000" stroke="none" 
	d="
M954.114319,157.957428 
	C962.484314,159.640076 970.854370,161.322708 979.737061,163.242188 
	C980.419861,163.676956 980.614380,163.846893 980.833374,163.988831 
	C978.525391,168.518372 976.949585,173.659363 973.772766,177.463303 
	C964.053955,189.100861 951.226624,194.581146 936.018860,195.071732 
	C922.768799,195.499161 910.487671,193.441391 899.523010,185.241821 
	C887.449890,176.213440 880.954468,164.404312 878.895813,149.550217 
	C876.896851,135.126892 879.699280,121.938965 888.062195,110.268822 
	C897.616333,96.936531 910.694824,89.478424 927.456360,88.955292 
	C938.069763,88.624062 948.292542,89.475693 957.785828,94.927933 
	C970.833557,102.421570 979.129944,113.372887 981.896790,128.110336 
	C983.188965,134.993225 983.321716,142.093781 983.750427,149.672836 
	C983.322876,150.419998 983.152832,150.614441 983.010803,150.833344 
	C959.099609,150.833344 935.188416,150.833344 911.162598,150.833344 
	C914.597534,167.869415 932.950317,174.571533 947.441406,163.792053 
	C949.215881,162.472076 950.409973,160.372040 952.344604,158.314514 
	C953.248840,157.982834 953.681580,157.970123 954.114319,157.957428 
M941.391174,117.865898 
	C927.983032,112.611870 915.262207,117.827026 912.355957,129.812347 
	C925.057739,129.812347 937.747070,129.812347 950.545837,129.812347 
	C949.503235,124.448921 946.001953,121.109192 941.391174,117.865898 
z"/>
<path fill="#131632" opacity="1.000000" stroke="none" 
	d="
M324.000000,79.913620 
	C323.979675,87.995171 323.979675,87.997559 316.395874,87.999413 
	C306.232147,88.001907 296.062927,88.195801 285.907196,87.911171 
	C281.381012,87.784317 279.874603,89.124786 279.903503,93.802063 
	C280.091888,124.292076 280.002869,154.783813 279.997772,185.274994 
	C279.996643,191.977753 279.983917,191.987152 273.519318,191.997330 
	C266.521332,192.008347 259.511627,191.753525 252.529617,192.087296 
	C248.015579,192.303101 246.897293,190.602966 246.918655,186.318710 
	C247.071533,155.661682 246.887131,125.002708 247.111557,94.346558 
	C247.148743,89.268402 245.709412,87.714424 240.636078,87.888756 
	C229.985123,88.254715 219.311569,87.908264 208.649857,88.048706 
	C205.238953,88.093643 203.856873,86.959496 203.949722,83.440872 
	C204.134262,76.447769 204.142441,69.442566 203.948746,62.449978 
	C203.848053,58.814327 205.470215,57.952057 208.758545,57.958305 
	C245.581085,58.028275 282.403931,58.043381 319.226288,57.940697 
	C323.003082,57.930164 324.191772,59.324131 324.053192,62.935310 
	C323.842468,68.425552 323.999298,73.929893 324.000000,79.913620 
z"/>
<path fill="#F2D130" opacity="1.000000" stroke="none" 
	d="
M881.027893,98.110878 
	C868.174561,129.546234 855.349121,160.588318 842.434753,191.845703 
	C831.371643,191.845703 820.069763,191.845703 808.510620,191.845703 
	C794.757751,158.564407 780.965271,125.187126 767.006287,91.406876 
	C778.651367,91.406876 790.152344,91.406876 802.014465,91.406876 
	C808.613525,108.305450 815.277466,125.467552 822.047302,142.587799 
	C822.932983,144.827530 824.362488,146.852203 825.540161,148.976456 
	C826.691223,146.997864 828.120361,145.128738 828.949280,143.023315 
	C835.336487,126.800591 841.750183,110.584610 847.771118,94.225021 
	C848.752625,91.558022 849.815796,90.958084 852.236938,90.973083 
	C862.559143,91.037041 872.881958,91.000290 883.819580,91.000290 
	C882.818176,93.434250 881.937012,95.575928 881.027893,98.110878 
z"/>
<path fill="#F2D130" opacity="1.000000" stroke="none" 
	d="
M761.000000,158.000000 
	C761.000000,169.462204 761.000000,180.424408 761.000000,191.692368 
	C750.024414,191.692368 739.304688,191.692368 728.291077,191.692368 
	C728.291077,158.343399 728.291077,124.980011 728.291077,91.307892 
	C738.975037,91.307892 749.694763,91.307892 761.000000,91.307892 
	C761.000000,113.359749 761.000000,135.429871 761.000000,158.000000 
z"/>
<path fill="#F2D130" opacity="1.000000" stroke="none" 
	d="
M168.273804,103.685951 
	C161.082001,91.129333 154.130310,78.871506 147.127762,66.642792 
	C143.021881,59.472603 138.912521,52.301388 134.603149,45.253887 
	C133.936218,44.163177 132.189438,43.101398 130.936020,43.094326 
	C108.114807,42.965546 85.292671,43.000343 62.704632,43.000343 
	C53.202496,59.172035 43.840443,75.090218 34.496288,91.018906 
	C32.200531,94.932396 29.754751,98.781715 27.823404,102.870934 
	C27.227879,104.131844 27.624243,106.375656 28.393932,107.681801 
	C32.756626,115.085228 37.373142,122.338989 41.891712,129.650848 
	C42.142128,130.056061 42.259506,130.541382 42.489388,130.961746 
	C44.165485,134.026642 45.577774,137.445663 41.691269,139.540756 
	C38.128086,141.461533 35.995693,138.363754 34.386524,135.749649 
	C28.783463,126.647400 23.177200,117.537659 17.977783,108.204796 
	C17.000732,106.451004 17.041403,103.174934 18.044125,101.418800 
	C30.335966,79.891205 42.840622,58.483883 55.497204,37.168350 
	C56.414261,35.623894 58.931675,34.147823 60.716888,34.133640 
	C85.543633,33.936363 110.372581,34.035606 135.200577,33.947186 
	C137.792572,33.937954 139.262436,34.575497 140.636703,36.998024 
	C148.389572,50.664654 156.380005,64.196899 164.329102,77.751701 
	C168.756104,85.300613 173.337372,92.760048 177.690674,100.350693 
	C179.388626,103.311333 179.477554,106.042137 177.372894,109.436165 
	C171.912048,118.242493 167.063293,127.436661 162.176178,136.586044 
	C160.442398,139.831909 158.431610,141.201004 155.167130,138.984940 
	C152.033081,136.857422 152.744614,134.084183 154.287003,131.317535 
	C158.882645,123.074104 163.501740,114.843582 168.045700,106.571777 
	C168.442429,105.849617 168.355072,104.861534 168.273804,103.685951 
z"/>
<path fill="#F2D130" opacity="1.000000" stroke="none" 
	d="
M170.355103,183.206482 
	C169.061554,191.976501 161.177032,198.323135 152.739716,199.159103 
	C142.409760,200.182587 135.743256,194.886307 131.346695,187.093018 
	C127.527359,180.322906 125.824585,172.376266 123.014999,165.015015 
	C118.413658,152.959305 113.656372,140.963150 109.013947,128.922958 
	C108.466576,127.503349 108.227676,125.964798 107.510979,123.180908 
	C112.247322,124.694298 115.955376,125.601837 119.444450,127.040474 
	C137.607208,134.529419 153.280106,145.461243 164.245316,161.993469 
	C168.279617,168.075974 172.399063,174.740692 170.355103,183.206482 
z"/>
<path fill="#F2D130" opacity="1.000000" stroke="none" 
	d="
M68.740318,175.627060 
	C65.396080,181.774643 63.074223,188.268829 58.923088,193.233490 
	C52.482639,200.936096 41.111305,201.198044 32.420788,194.700897 
	C26.901754,190.574799 22.444113,180.726715 26.966612,170.966080 
	C33.960457,155.871628 44.983910,144.364365 59.140247,136.155441 
	C67.304230,131.421341 76.386536,128.261810 85.098961,124.494072 
	C86.190643,124.021965 87.548447,124.165276 89.712257,123.916687 
	C86.603516,131.370743 83.757431,138.005539 81.062416,144.701157 
	C76.967529,154.874664 72.977455,165.090378 68.740318,175.627060 
z"/>
<path fill="#F2D130" opacity="1.000000" stroke="none" 
	d="
M738.947693,44.545525 
	C748.678589,42.799488 756.545593,44.980415 761.406677,53.913490 
	C764.340454,59.304737 763.709900,69.225235 759.973328,73.435570 
	C754.791565,79.274338 748.692261,81.929840 740.460327,80.236328 
	C726.480042,77.360260 723.396362,65.275597 727.288391,54.745041 
	C729.101624,49.839161 732.936890,45.939541 738.947693,44.545525 
z"/>
<path fill="#F2D130" opacity="1.000000" stroke="none" 
	d="
M72.985611,211.896927 
	C71.809341,208.897903 70.689941,206.280258 69.372086,203.198547 
	C88.325493,203.198547 106.426247,203.198547 124.498657,203.198547 
	C126.571709,210.686935 115.408157,224.001907 106.352669,226.802322 
	C94.218857,230.554718 80.328056,225.850555 72.985611,211.896927 
z"/>
<path fill="#F2D130" opacity="1.000000" stroke="none" 
	d="
M89.000183,85.166664 
	C100.852257,78.520233 115.947899,86.229546 117.814354,99.952347 
	C118.129829,102.271843 116.652718,105.450989 114.980263,107.314171 
	C109.013412,113.961472 89.893097,113.209961 83.489342,108.912399 
	C75.833717,103.774689 78.542244,93.097473 86.825218,86.924820 
	C87.984169,86.284882 88.492180,85.725777 89.000183,85.166664 
z"/>
<path fill="#F2D130" opacity="1.000000" stroke="none" 
	d="
M103.227600,182.999542 
	C106.361542,182.999939 109.017891,182.999863 111.674232,183.000015 
	C119.170677,183.000443 119.691193,183.490860 120.807701,191.769806 
	C105.260292,191.769806 89.738777,191.769806 74.183319,191.769806 
	C75.484390,183.051163 76.624329,181.874008 84.538368,182.040802 
	C90.612946,182.168854 96.679741,182.666107 103.227600,182.999542 
z"/>
<path fill="#F2D130" opacity="1.000000" stroke="none" 
	d="
M106.834579,171.000000 
	C98.736076,171.000000 91.114708,171.000000 82.591736,171.000000 
	C83.853653,167.425644 84.939621,164.349655 86.121368,161.002365 
	C93.370926,161.002365 100.480217,160.928848 107.584236,161.088974 
	C108.547356,161.110687 109.891144,162.094803 110.352890,162.995239 
	C111.507957,165.247650 112.257431,167.708023 113.520813,171.000000 
	C111.056023,171.000000 109.183868,171.000000 106.834579,171.000000 
z"/>
<path fill="#F2D130" opacity="1.000000" stroke="none" 
	d="
M122.978600,66.643692 
	C120.984077,71.301407 118.930405,75.516472 117.053543,79.808838 
	C115.630745,83.062759 113.052788,83.952400 110.246086,82.531799 
	C107.512459,81.148178 107.326431,78.506668 108.711548,75.703751 
	C110.569252,71.944473 111.870010,67.859062 114.106773,64.359039 
	C115.260010,62.554504 117.899887,60.711189 119.905556,60.668995 
	C123.016006,60.603554 123.247978,63.616375 122.978600,66.643692 
z"/>
<path fill="#F2D130" opacity="1.000000" stroke="none" 
	d="
M74.827637,61.038307 
	C78.284836,59.209007 80.584839,61.170227 81.559425,63.348640 
	C83.767448,68.284042 85.381798,73.506409 86.907379,78.708893 
	C87.237946,79.836197 86.543129,82.118950 85.675667,82.539635 
	C84.418587,83.149269 82.342789,83.017288 81.027794,82.368027 
	C78.099472,80.922195 72.330956,65.873611 73.202766,62.600986 
	C73.353508,62.035114 74.012566,61.604656 74.827637,61.038307 
z"/>
<path fill="#F2D130" opacity="1.000000" stroke="none" 
	d="
M98.993469,135.030731 
	C101.069931,140.085953 103.080261,144.756866 105.219940,149.728333 
	C100.225090,149.728333 95.733322,149.728333 90.815163,149.728333 
	C92.888435,144.801483 94.749329,140.230698 96.780884,135.737076 
	C97.038780,135.166641 98.189995,135.000092 98.993469,135.030731 
z"/>
<path fill="#F2D130" opacity="1.000000" stroke="none" 
	d="
M88.652634,85.097610 
	C88.492180,85.725777 87.984169,86.284882 87.180580,86.900986 
	C87.358368,86.314842 87.831734,85.671692 88.652634,85.097610 
z"/>
<path fill="#F2D130" opacity="1.000000" stroke="none" 
	d="
M953.990295,157.669525 
	C953.681580,157.970123 953.248840,157.982834 952.491333,157.998138 
	C952.733154,157.794373 953.299744,157.587997 953.990295,157.669525 
z"/>
<path fill="#F2D130" opacity="1.000000" stroke="none" 
	d="
M983.270630,150.871216 
	C983.152832,150.614441 983.322876,150.419998 983.677124,150.134567 
	C983.732422,150.315796 983.631409,150.612427 983.270630,150.871216 
z"/>
<path fill="#F2D130" opacity="1.000000" stroke="none" 
	d="
M980.871216,163.729004 
	C980.614380,163.846893 980.419861,163.676956 980.134338,163.322845 
	C980.315552,163.267502 980.612305,163.368347 980.871216,163.729004 
z"/>
<path fill="#000000" opacity="1.000000" stroke="none" 
	d="
M507.125092,130.000000 
	C504.256836,129.868958 501.866638,129.737915 499.393494,129.602310 
	C501.088837,121.161369 509.708557,116.205170 518.252930,115.224670 
	C524.488770,114.509079 533.566711,120.062294 536.242615,125.903351 
	C537.833130,129.375290 535.874390,129.991882 533.065674,129.992905 
	C524.578186,129.996017 516.090637,129.997726 507.125092,130.000000 
z"/>
<path fill="#000000" opacity="1.000000" stroke="none" 
	d="
M941.768188,117.944702 
	C946.001953,121.109192 949.503235,124.448921 950.545837,129.812347 
	C937.747070,129.812347 925.057739,129.812347 912.355957,129.812347 
	C915.262207,117.827026 927.983032,112.611870 941.768188,117.944702 
z"/>
</svg>