<?xml version="1.0" standalone="no"?>
<!DOCTYPE svg PUBLIC "-//W3C//DTD SVG 20010904//EN"
 "http://www.w3.org/TR/2001/REC-SVG-20010904/DTD/svg10.dtd">
<svg version="1.0" xmlns="http://www.w3.org/2000/svg"
 width="800.000000pt" height="600.000000pt" viewBox="0 0 800.000000 600.000000"
 preserveAspectRatio="xMidYMid meet">

<g transform="translate(0.000000,600.000000) scale(0.100000,-0.100000)"
fill="#000000" stroke="none">
<path d="M0 3000 l0 -3000 4000 0 4000 0 0 3000 0 3000 -4000 0 -4000 0 0
-3000z m3403 272 c-2 -298 -7 -528 -12 -531 -5 -3 -47 -5 -94 -3 l-85 3 -33
47 c-18 26 -38 52 -44 59 -5 6 -20 27 -33 45 -13 18 -60 83 -105 143 -45 61
-136 184 -202 275 l-120 164 -5 -369 -5 -369 -90 3 c-49 1 -92 4 -95 6 -3 2
-4 240 -2 529 l2 526 99 0 100 0 23 -32 c12 -18 28 -40 35 -48 18 -22 392
-526 433 -584 l35 -48 3 353 c1 194 6 355 11 358 5 4 49 5 97 3 l89 -3 -2
-527z m-1830 510 c54 -13 157 -61 157 -74 0 -4 12 -8 26 -8 27 0 113 -52 127
-76 4 -8 12 -14 17 -14 31 0 168 -172 195 -245 10 -27 21 -52 24 -55 10 -8 33
-63 37 -90 3 -14 9 -49 14 -79 23 -128 5 -350 -30 -383 -11 -10 -17 -24 -14
-32 13 -34 -100 -222 -178 -295 -64 -59 -96 -75 -117 -59 -13 10 -14 10 -3 -2
18 -21 15 -50 -5 -50 -10 0 -33 -9 -51 -20 -18 -11 -42 -20 -53 -20 -11 0 -17
-4 -14 -10 3 -5 -1 -10 -9 -10 -9 0 -16 -4 -16 -9 0 -5 -21 -12 -47 -16 -27
-4 -56 -11 -66 -17 -12 -6 -29 -6 -49 1 -25 9 -33 8 -42 -5 -13 -17 -88 -16
-231 4 -91 13 -111 20 -230 78 -107 53 -206 135 -274 229 -51 69 -111 199
-123 265 -6 30 -14 63 -19 72 -5 10 -7 39 -4 65 4 36 2 42 -4 23 -8 -23 -9
-23 -10 10 -1 54 11 140 19 135 12 -7 23 -75 21 -122 -2 -37 8 -94 41 -220 6
-24 14 -40 19 -37 5 3 9 -2 9 -10 0 -8 6 -21 14 -28 7 -8 17 -25 21 -38 10
-31 60 -97 100 -130 16 -14 41 -35 55 -47 76 -68 171 -115 290 -143 81 -19
112 -21 205 -16 98 5 212 29 231 49 4 4 17 7 30 7 12 0 24 6 27 13 3 9 9 9 25
0 18 -11 20 -10 16 2 -4 8 -1 15 6 15 6 0 8 4 5 10 -3 6 1 7 9 4 10 -4 16 -1
16 9 0 16 27 32 49 28 9 -2 12 3 8 13 -5 11 3 20 26 29 18 8 39 27 47 43 8 16
23 38 32 48 10 11 18 25 18 30 0 6 10 22 23 36 25 28 59 94 77 155 7 22 17 49
22 60 5 12 10 79 10 150 1 112 -2 138 -20 185 -12 30 -22 63 -22 73 0 10 -7
32 -16 50 -12 21 -13 32 -5 35 14 5 14 29 -1 38 -8 5 -9 2 -5 -9 4 -11 1 -17
-9 -17 -8 0 -27 21 -42 47 -56 96 -197 225 -273 248 -13 4 -49 19 -79 33 -48
22 -74 26 -205 32 -150 7 -195 17 -195 45 0 10 11 15 34 15 19 0 38 5 41 11 9
13 249 6 318 -9z m-679 -37 c22 -16 56 -88 56 -116 0 -28 -29 -68 -61 -85 -32
-16 -89 -19 -89 -4 0 5 -11 12 -25 16 -27 7 -34 22 -36 79 -3 59 7 79 49 103
43 25 79 27 106 7z m613 -175 c37 -6 90 -25 132 -48 81 -43 189 -125 198 -150
3 -9 13 -25 21 -34 14 -16 13 -18 -4 -19 -14 0 -13 -3 7 -10 56 -21 114 -203
107 -339 -5 -84 -46 -231 -72 -255 -6 -6 -15 -18 -21 -26 -38 -60 -64 -89
-107 -119 -26 -19 -66 -52 -88 -72 -24 -22 -47 -35 -55 -31 -9 3 -21 1 -28 -5
-49 -41 -198 -54 -322 -27 -74 16 -160 44 -136 45 11 0 10 5 -5 21 -12 13 -27
19 -42 16 -14 -3 -37 4 -56 16 -38 26 -89 84 -89 101 0 7 -12 21 -27 31 -26
17 -56 74 -91 167 -18 50 -36 204 -21 178 5 -8 12 -43 15 -77 5 -45 19 -88 55
-160 42 -85 57 -105 113 -150 35 -29 68 -53 72 -53 5 0 27 -13 50 -29 42 -29
85 -47 100 -43 5 2 34 -2 65 -7 91 -15 190 -22 167 -12 -19 9 -18 10 5 11 14
0 36 7 50 15 14 8 40 14 58 15 17 0 32 5 32 10 0 15 61 50 86 50 12 0 25 10
31 23 6 12 28 42 49 67 42 48 63 87 96 184 18 49 22 84 22 181 l0 120 -44 80
c-25 44 -45 86 -46 93 -2 29 -5 33 -14 27 -6 -4 -23 6 -38 22 -16 15 -47 44
-71 63 -23 19 -51 42 -61 52 -10 9 -35 16 -56 16 -21 0 -40 5 -42 11 -2 6 -7
9 -10 7 -15 -8 -206 30 -210 42 -5 15 134 17 225 2z m-361 -76 c41 -43 42 -53
8 -93 -20 -24 -34 -31 -62 -31 -78 1 -109 76 -57 133 36 38 70 35 111 -9z
m3581 5 c54 -18 146 -76 141 -87 -18 -41 -63 -112 -71 -112 -5 0 -20 9 -34 20
-65 51 -190 74 -264 48 -41 -14 -58 -34 -59 -70 0 -39 26 -52 168 -87 195 -48
271 -103 286 -206 29 -190 -179 -322 -424 -270 -80 16 -157 50 -204 89 l-28
24 35 55 c42 66 51 72 71 52 18 -19 98 -58 149 -75 22 -7 68 -10 103 -8 78 5
117 30 122 77 6 57 -10 67 -183 111 -136 35 -171 50 -213 90 -42 40 -52 67
-52 145 0 54 4 69 33 111 75 110 257 150 424 93z m565 21 c71 -10 153 -44 202
-84 l30 -23 -32 -47 c-17 -27 -33 -53 -35 -59 -3 -9 -11 -8 -28 2 -96 58 -114
65 -188 69 -67 3 -80 1 -111 -20 -26 -17 -36 -32 -38 -55 -4 -43 17 -55 161
-91 149 -38 223 -74 259 -127 23 -34 27 -50 28 -113 0 -40 -5 -83 -11 -95 -24
-47 -94 -107 -147 -127 -72 -27 -231 -28 -318 -1 -53 16 -174 82 -174 96 0 9
70 114 81 121 6 4 15 0 20 -8 4 -8 40 -29 78 -47 113 -52 229 -54 277 -6 29
29 32 75 7 97 -20 18 -124 52 -193 63 -52 9 -155 54 -186 81 -35 32 -54 80
-56 142 -1 47 4 68 24 103 14 24 34 52 45 61 39 36 130 66 228 77 6 0 40 -4
77 -9z m1542 -20 c55 -19 129 -61 141 -81 4 -6 -1 -23 -11 -37 -11 -15 -26
-39 -33 -54 -17 -33 -24 -34 -61 -8 -62 44 -121 62 -197 58 -59 -3 -76 -8 -97
-27 -33 -31 -35 -75 -3 -95 12 -8 78 -28 146 -45 188 -46 237 -77 271 -168 29
-77 15 -161 -37 -218 -59 -67 -146 -99 -268 -99 -111 0 -195 23 -276 75 -66
43 -67 45 -12 121 l35 48 41 -28 c62 -41 110 -60 166 -68 111 -14 191 21 191
84 0 50 -28 64 -204 107 -186 46 -246 101 -246 228 0 56 4 71 33 113 37 56
110 101 185 114 64 12 171 3 236 -20z m-2802 -12 c73 -34 133 -97 172 -178 27
-57 31 -76 31 -153 l0 -89 -287 2 c-168 0 -289 -3 -292 -9 -9 -14 21 -76 55
-115 35 -40 119 -76 178 -76 51 0 153 32 187 59 15 11 30 21 34 21 10 0 80
-94 80 -108 0 -18 -92 -72 -160 -93 -77 -24 -216 -29 -275 -10 -118 38 -207
111 -253 209 -25 52 -27 68 -27 177 0 113 2 124 29 180 47 95 127 163 246 209
8 3 62 4 120 3 90 -2 113 -6 162 -29z m1725 26 c22 -4 22 -6 25 -272 3 -292 8
-315 64 -340 58 -27 108 -26 170 2 111 51 104 30 104 337 l0 267 23 6 c41 11
134 7 145 -7 7 -9 10 -134 9 -387 l-2 -375 -78 -5 c-42 -3 -82 -3 -87 -2 -6 2
-10 21 -10 43 0 45 -2 46 -38 20 -170 -119 -383 -99 -450 43 -23 48 -24 59
-26 350 -2 166 1 306 5 311 8 11 109 17 146 9z m-5066 -40 c7 -8 29 -24 48
-35 46 -25 75 -42 81 -50 3 -3 26 -18 53 -33 26 -15 47 -32 47 -37 0 -5 10 -9
22 -9 25 0 100 -49 93 -60 -3 -5 19 -20 47 -34 29 -14 73 -41 97 -58 54 -41
142 -120 138 -124 -3 -3 -90 38 -117 56 -8 5 -32 21 -53 35 -21 14 -42 25 -47
25 -6 0 -9 3 -9 8 6 33 -2 42 -40 42 -30 0 -40 4 -44 20 -3 11 -17 24 -31 30
-28 10 -34 25 -13 34 6 3 0 3 -15 0 -16 -4 -28 -2 -28 4 0 5 -14 15 -30 22
-17 7 -34 18 -38 24 -8 13 -118 96 -127 96 -10 0 -65 44 -65 52 0 13 17 9 31
-8z m869 -89 c30 -17 57 -32 60 -35 3 -3 25 -20 50 -39 91 -69 130 -167 131
-323 0 -58 -4 -105 -10 -111 -6 -6 -11 -19 -11 -29 0 -10 -4 -18 -10 -18 -5 0
-10 -5 -10 -11 0 -19 -84 -139 -97 -139 -8 0 -16 -7 -20 -16 -3 -8 -23 -22
-44 -31 -22 -8 -39 -18 -39 -22 0 -18 -121 -33 -206 -26 -76 7 -100 13 -161
46 -64 34 -151 111 -162 143 -2 6 -12 22 -22 36 -22 32 -49 136 -48 181 1 26
4 20 13 -26 13 -65 16 -74 53 -153 17 -36 44 -68 84 -102 33 -28 63 -50 67
-50 4 0 39 -9 77 -20 39 -11 99 -19 135 -20 57 0 74 5 138 40 146 80 218 197
216 355 -1 126 -5 139 -62 210 -29 36 -49 71 -46 77 4 7 2 8 -4 4 -8 -5 -12 0
-12 12 0 19 -20 30 -65 37 -11 1 -45 12 -75 24 -40 16 -66 20 -97 15 -24 -3
-55 -3 -70 1 -54 13 0 26 97 23 83 -3 102 -8 150 -33z m-817 -93 c19 -31 19
-34 2 -52 -20 -22 -65 -26 -97 -9 -16 9 -19 17 -14 41 13 65 77 76 109 20z
m2397 -832 c0 -148 -3 -189 -13 -193 -34 -13 -38 7 -38 191 0 100 2 186 5 191
3 5 15 7 26 4 19 -5 20 -14 20 -193z m1680 0 c0 -164 -2 -189 -16 -194 -9 -4
-23 -1 -31 6 -21 17 -15 364 6 377 37 23 41 5 41 -189z m-452 127 c3 -51 5
-58 20 -51 9 4 38 9 65 12 43 4 50 1 81 -30 86 -86 37 -248 -75 -248 -22 0
-50 5 -61 11 -16 8 -22 8 -28 -2 -5 -7 -18 -13 -29 -14 -21 -2 -21 2 -21 192
l0 194 23 -3 c19 -3 22 -10 25 -61z m330 21 c3 -24 0 -28 -23 -28 -27 0 -41
20 -31 46 10 27 51 13 54 -18z m250 0 c3 -24 0 -28 -23 -28 -27 0 -41 20 -31
46 10 27 51 13 54 -18z m138 -18 l0 -35 51 -1 c27 -1 55 -4 60 -7 6 -4 21 -35
34 -69 13 -35 31 -79 40 -98 l17 -35 10 25 c62 161 90 206 115 181 11 -11
-116 -325 -145 -357 -22 -25 -67 -37 -85 -22 -17 13 -5 36 20 40 11 2 29 17
39 34 l18 31 -53 127 c-56 131 -67 151 -67 123 0 -12 -8 -17 -25 -17 l-26 0 3
-97 c3 -97 3 -98 28 -98 18 0 25 -5 25 -20 0 -16 -8 -21 -41 -23 -25 -2 -45 2
-52 11 -6 7 -13 59 -14 118 -3 99 -4 104 -25 107 -15 2 -23 10 -23 22 0 12 8
20 23 22 14 2 22 10 23 23 3 54 4 56 27 53 18 -2 22 -10 23 -38z m-2535 -142
c23 -59 45 -106 48 -103 4 2 22 47 41 100 35 96 60 129 83 106 14 -14 -91
-279 -113 -284 -34 -7 -48 7 -73 76 -14 40 -38 100 -52 135 -28 67 -27 78 4
78 16 0 28 -20 62 -108z m263 106 c13 -5 16 -24 16 -109 0 -81 3 -107 16 -119
20 -20 47 -20 84 -1 l30 16 0 103 c0 78 3 105 13 109 32 12 38 -9 40 -146 l2
-137 -28 0 c-16 0 -26 4 -22 10 8 13 -1 13 -57 -5 -54 -16 -101 -6 -118 25
-11 21 -14 243 -3 253 8 8 8 8 27 1z m440 0 c9 -3 16 -13 16 -21 0 -13 3 -13
25 1 13 9 45 16 70 16 65 0 82 -21 89 -112 10 -140 0 -187 -37 -172 -14 5 -17
22 -17 108 0 55 -4 106 -8 113 -13 21 -58 25 -91 9 l-31 -17 0 -98 c0 -74 -4
-102 -15 -111 -8 -6 -19 -9 -25 -5 -11 7 -15 277 -3 288 8 8 8 8 27 1z m467
-18 c35 -15 79 -126 56 -144 -6 -5 -56 -9 -110 -8 -107 1 -116 -5 -72 -49 29
-29 88 -34 123 -9 24 16 42 12 42 -11 0 -22 -54 -45 -105 -45 -119 0 -178 100
-122 210 34 68 107 89 188 56z m162 3 c5 -20 7 -20 29 -5 12 9 33 16 46 16 35
0 27 -44 -9 -48 -50 -6 -62 -32 -60 -130 2 -70 -1 -92 -14 -102 -12 -10 -18
-10 -30 0 -22 18 -17 266 5 280 22 14 27 12 33 -11z m1067 -129 c0 -144 -4
-158 -42 -138 -16 8 -18 25 -18 136 0 133 6 154 41 145 18 -5 19 -16 19 -143z
m1119 121 c24 -13 28 -39 7 -47 -8 -3 -26 2 -40 11 -51 33 -121 -3 -126 -66
-4 -49 0 -69 21 -88 31 -29 65 -34 105 -15 38 18 62 9 51 -20 -15 -39 -114
-50 -166 -20 -35 21 -71 85 -71 128 0 37 35 103 63 117 51 28 103 28 156 0z
m431 7 c0 -6 8 -7 18 -3 79 33 142 19 161 -35 6 -18 11 -75 11 -126 0 -79 -3
-95 -17 -102 -37 -19 -43 -5 -43 103 0 135 -15 154 -95 121 l-35 -15 0 -100
c0 -89 -2 -101 -19 -111 -14 -7 -22 -7 -27 1 -11 19 -10 278 1 282 16 6 45 -4
45 -15z m307 3 c4 -17 7 -18 31 -5 42 22 108 18 132 -8 18 -19 20 -35 20 -139
0 -65 -4 -120 -9 -123 -5 -4 -16 -3 -25 0 -13 5 -16 24 -16 109 0 81 -3 107
-16 119 -20 20 -47 20 -84 1 l-30 -16 0 -103 c0 -87 -3 -105 -16 -110 -38 -15
-45 11 -43 146 2 105 6 131 18 138 24 14 32 12 38 -9z m474 -27 c30 -29 54
-103 38 -119 -5 -5 -54 -10 -109 -9 -110 0 -120 -7 -75 -51 28 -29 68 -32 120
-11 18 8 36 12 39 8 26 -25 -30 -62 -94 -62 -121 0 -187 107 -129 209 46 82
144 99 210 35z m-3060 10 c22 -23 24 -35 27 -138 3 -102 2 -114 -14 -120 -12
-5 -23 -1 -31 10 -9 12 -16 14 -25 7 -23 -18 -72 -22 -105 -8 -102 43 -67 165
48 165 26 0 51 -4 54 -10 14 -23 27 -9 21 23 -11 56 -60 73 -117 40 -23 -14
-31 -15 -41 -4 -11 10 -8 17 15 37 23 19 39 24 86 24 49 0 61 -4 82 -26z m479
-113 c0 -145 -5 -160 -45 -144 -13 4 -16 28 -14 144 l1 139 29 0 29 0 0 -139z
m1068 123 c23 -16 29 -39 12 -49 -5 -3 -20 1 -32 9 -12 9 -35 16 -50 16 -25 0
-58 -22 -58 -39 0 -5 28 -18 63 -31 72 -26 86 -36 98 -68 11 -27 -11 -76 -40
-92 -26 -13 -104 -13 -135 1 -29 14 -38 30 -25 50 7 12 13 11 38 -4 36 -21 85
-22 105 -1 21 21 5 52 -32 60 -52 11 -60 15 -86 35 -36 28 -36 80 0 108 33 26
109 28 142 5z m576 -15 c26 -30 27 -35 24 -142 -3 -113 -11 -133 -40 -103 -13
12 -21 13 -53 2 -72 -25 -139 14 -139 80 0 54 41 87 103 82 25 -3 53 -6 61 -9
11 -3 14 3 13 26 -4 55 -59 71 -118 35 -30 -18 -33 -19 -39 -4 -14 36 32 62
111 63 45 1 54 -2 77 -30z m1086 15 c0 -14 2 -14 22 0 12 9 33 16 46 16 19 0
23 -5 20 -22 -2 -14 -11 -24 -23 -26 -11 -2 -30 -8 -42 -14 -22 -11 -23 -18
-23 -114 0 -85 -3 -103 -16 -108 -36 -14 -42 9 -38 147 2 72 4 133 4 135 0 1
11 2 25 2 16 0 25 -6 25 -16z"/>
<path d="M1378 3553 c7 -3 16 -2 19 1 4 3 -2 6 -13 5 -11 0 -14 -3 -6 -6z"/>
<path d="M3788 3369 c-20 -6 -51 -24 -68 -41 -31 -29 -77 -115 -67 -124 3 -3
96 -5 208 -5 141 0 205 3 207 11 6 16 -18 71 -42 98 -49 56 -158 83 -238 61z"/>
<path d="M4398 2494 c-26 -14 -28 -19 -28 -83 0 -80 10 -93 70 -95 44 -1 77
24 80 59 6 55 -1 87 -25 110 -27 28 -57 31 -97 9z"/>
<path d="M3595 2485 c-45 -44 -35 -55 55 -55 65 0 80 3 80 15 0 27 -47 65 -80
65 -19 0 -40 -9 -55 -25z"/>
<path d="M7135 2485 c-45 -44 -35 -55 55 -55 65 0 80 3 80 15 0 27 -47 65 -80
65 -19 0 -40 -9 -55 -25z"/>
<path d="M4100 2397 c-17 -9 -26 -22 -28 -44 -3 -27 1 -32 28 -42 40 -14 100
8 100 37 0 44 -55 71 -100 49z"/>
<path d="M6204 2387 c-31 -27 -28 -47 10 -72 21 -14 31 -15 60 -5 56 18 58 70
4 89 -42 15 -43 14 -74 -12z"/>
</g>
</svg>
