<?xml version="1.0" standalone="no"?>
<!DOCTYPE svg PUBLIC "-//W3C//DTD SVG 20010904//EN"
 "http://www.w3.org/TR/2001/REC-SVG-20010904/DTD/svg10.dtd">
<svg version="1.0" xmlns="http://www.w3.org/2000/svg"
 width="752.000000pt" height="564.000000pt" viewBox="0 0 752.000000 564.000000"
 preserveAspectRatio="xMidYMid meet">

<g transform="translate(0.000000,564.000000) scale(0.100000,-0.100000)"
fill="#000000" stroke="none">
<path d="M0 2820 l0 -2820 3760 0 3760 0 0 2820 0 2820 -3760 0 -3760 0 0
-2820z m1468 737 c11 -10 26 -15 36 -11 23 9 151 -47 134 -59 -9 -6 -6 -7 9
-4 29 6 104 -43 188 -125 71 -68 141 -171 129 -189 -4 -7 -3 -9 3 -6 15 9 57
-92 79 -188 10 -46 17 -234 9 -253 -5 -9 -9 -33 -11 -52 -5 -47 -24 -100 -35
-100 -6 0 -8 -4 -5 -9 3 -5 1 -23 -5 -41 -9 -24 -14 -29 -21 -18 -7 9 -8 8 -4
-6 7 -20 -25 -78 -90 -159 -89 -115 -240 -209 -404 -254 -86 -24 -269 -23
-360 1 -63 17 -229 89 -240 104 -3 5 -26 23 -52 42 -27 18 -48 35 -48 37 0 2
5 1 10 -2 6 -3 10 -1 10 4 0 6 -6 11 -12 11 -32 1 -125 110 -112 131 4 7 3 9
-3 6 -6 -4 -20 9 -32 29 -12 19 -16 32 -9 28 7 -4 3 6 -8 22 -54 77 -93 268
-79 379 6 51 9 57 19 42 7 -9 15 -14 18 -12 3 3 8 -39 11 -92 6 -105 23 -181
56 -253 24 -52 79 -151 88 -159 3 -4 3 -1 -1 6 -3 7 22 -16 56 -50 34 -34 61
-66 60 -70 -1 -5 2 -5 8 -2 6 4 19 0 28 -8 35 -30 160 -87 190 -87 12 0 23 -3
25 -7 3 -5 55 -10 115 -11 103 -3 199 7 247 27 103 43 168 80 216 121 31 27
59 47 63 45 3 -3 4 -2 2 1 -5 6 -4 8 42 64 33 41 92 147 92 167 0 8 4 11 10 8
5 -3 9 2 8 12 -3 36 2 64 11 59 10 -6 8 268 -2 314 -3 14 -12 46 -22 73 -9 26
-13 52 -10 57 4 6 -1 7 -11 3 -13 -5 -15 -2 -9 18 4 13 4 21 0 17 -4 -4 -25
18 -45 50 -73 110 -204 210 -330 252 -41 14 -79 31 -83 38 -4 6 -18 12 -30 11
-21 -1 -20 -2 3 -9 22 -7 -143 -3 -197 4 -12 2 -20 -1 -17 -5 13 -22 -26 -6
-49 20 -25 28 -25 30 -7 36 11 4 24 3 30 0 5 -3 10 -2 10 4 0 14 51 19 187 17
100 -2 125 -5 141 -19z m1116 -79 c38 -51 151 -203 250 -337 l181 -245 3 337
2 337 90 0 90 0 0 -500 0 -501 -87 3 -88 3 -246 333 c-135 184 -250 341 -256
350 -9 13 -12 -69 -12 -335 l-1 -353 -90 0 -90 0 0 500 0 500 93 0 93 0 68
-92z m-1794 51 c-12 -8 -9 -9 12 -5 62 14 109 -50 94 -128 -6 -31 -11 -36 -34
-37 -15 0 -21 -3 -14 -6 28 -11 -10 -33 -58 -33 -42 0 -52 4 -79 35 -50 58
-35 134 33 168 38 19 70 23 46 6z m617 -163 c77 -17 163 -52 163 -67 0 -6 5
-7 10 -4 15 9 112 -74 103 -88 -3 -7 -2 -9 2 -4 12 10 75 -53 75 -76 0 -10 4
-16 8 -13 20 12 91 -187 78 -219 -3 -8 -1 -15 4 -15 6 0 10 -27 10 -60 0 -33
-3 -60 -7 -60 -5 0 -8 -16 -9 -35 -1 -37 -23 -115 -33 -115 -4 0 -7 -9 -8 -19
-2 -25 -56 -107 -61 -92 -2 6 -8 8 -14 5 -6 -4 -5 -10 3 -15 11 -6 3 -19 -31
-54 -66 -67 -134 -108 -170 -103 -32 5 -43 -8 -12 -14 9 -2 -15 -13 -53 -26
-54 -17 -95 -22 -170 -22 -73 0 -96 3 -85 11 12 8 11 9 -5 5 -54 -15 -204 57
-286 138 -81 79 -121 141 -112 174 4 16 2 23 -4 19 -19 -12 -45 63 -50 143 -5
64 -3 77 9 77 12 0 17 -17 21 -66 6 -61 39 -162 64 -193 6 -7 14 -22 18 -33
13 -37 173 -162 219 -171 12 -2 35 -9 51 -16 38 -16 243 -17 276 -2 13 7 42
20 64 30 39 17 90 51 129 86 10 10 24 15 29 11 6 -4 7 -1 2 7 -4 7 -3 15 4 19
6 4 31 42 55 85 31 55 48 98 56 147 13 77 5 212 -15 244 -7 11 -16 35 -20 53
-4 17 -10 32 -15 32 -5 0 -11 8 -14 18 -3 9 -17 30 -31 46 -13 16 -22 33 -19
38 3 4 0 7 -8 6 -7 -2 -12 3 -10 10 1 8 -2 11 -7 8 -8 -5 -53 24 -76 50 -5 6
-26 17 -45 23 -19 7 -44 17 -55 21 -49 19 -107 30 -162 30 -56 0 -61 2 -65 24
-4 21 -1 26 21 29 56 9 113 6 178 -7z m-849 -41 c20 -14 33 -25 29 -25 -5 0
-25 11 -45 25 -20 14 -33 25 -29 25 5 0 25 -11 45 -25z m502 -10 c16 -8 34
-25 41 -36 14 -27 4 -82 -19 -103 -23 -20 -82 -33 -82 -17 0 6 -3 10 -7 9 -5
-1 -19 4 -31 11 -18 10 -22 18 -18 36 3 13 2 26 -4 30 -15 9 3 44 35 65 36 24
47 24 85 5z m2680 -21 c101 -30 163 -84 210 -186 26 -55 32 -81 33 -145 l2
-78 -277 -3 c-181 -1 -278 -6 -278 -13 0 -17 37 -83 61 -108 71 -75 240 -81
337 -12 17 11 34 21 39 21 4 0 22 -22 40 -49 l32 -49 -22 -20 c-37 -35 -133
-73 -209 -84 -185 -25 -343 54 -416 210 -24 50 -27 70 -27 157 0 89 3 107 28
160 79 169 267 253 447 199z m691 -4 c69 -21 139 -63 139 -83 0 -7 -14 -34
-31 -60 -28 -45 -32 -48 -47 -33 -10 8 -44 27 -76 42 -49 22 -68 26 -126 22
-80 -4 -120 -31 -120 -79 0 -37 25 -50 167 -84 138 -33 207 -71 240 -134 38
-73 26 -170 -30 -229 -110 -118 -385 -117 -532 2 l-29 24 37 55 36 56 58 -35
c71 -43 111 -54 191 -54 93 0 132 25 132 85 0 37 -42 62 -143 85 -172 39 -231
70 -267 140 -39 77 -14 183 57 237 82 63 224 81 344 43z m639 -8 c31 -12 70
-34 87 -49 l31 -28 -34 -52 -34 -53 -40 29 c-52 38 -116 54 -190 49 -66 -5
-110 -34 -110 -73 0 -37 34 -56 156 -86 174 -44 227 -75 259 -152 31 -75 15
-157 -44 -220 -105 -114 -381 -111 -526 7 l-29 24 37 56 38 57 31 -22 c60 -43
139 -69 211 -69 99 0 137 24 137 85 0 38 -43 62 -161 89 -165 39 -222 72 -254
149 -46 110 16 222 148 269 70 25 209 20 287 -10z m1331 12 c56 -17 110 -43
143 -68 18 -14 17 -17 -14 -68 -18 -29 -34 -55 -36 -57 -1 -1 -18 9 -37 23
-103 79 -282 73 -303 -10 -11 -43 20 -62 151 -95 196 -50 263 -98 273 -199 7
-74 -5 -113 -48 -162 -68 -78 -193 -111 -329 -89 -64 10 -166 54 -210 89 l-23
19 37 56 c21 32 40 57 42 57 3 0 18 -11 34 -24 95 -80 300 -89 340 -15 28 53
-21 96 -136 119 -217 43 -285 96 -285 221 0 72 23 120 74 160 72 56 218 75
327 43z m-5726 -40 c14 -9 22 -21 18 -27 -3 -6 -1 -7 5 -3 14 8 80 -25 106
-53 11 -12 23 -21 28 -21 5 0 34 -16 64 -35 30 -19 59 -35 64 -35 5 0 12 -5
16 -12 5 -7 3 -8 -6 -3 -9 6 -11 4 -6 -4 5 -7 13 -10 20 -8 15 6 93 -43 151
-94 124 -110 144 -129 136 -129 -5 0 -16 7 -24 15 -8 8 -17 12 -20 9 -7 -7
-59 26 -70 44 -5 7 -17 10 -26 7 -10 -3 -24 1 -31 10 -7 8 -16 15 -21 15 -14
0 -130 83 -158 113 -14 16 -40 36 -57 45 -57 31 -273 196 -267 205 3 4 16 1
29 -7 13 -9 35 -23 49 -32z m4755 -186 c0 -128 5 -249 10 -269 15 -53 50 -81
110 -87 58 -5 124 16 170 55 l30 25 0 254 0 254 80 0 80 0 0 -365 0 -366 -77
3 -78 3 -3 43 -3 43 -35 -26 c-80 -61 -183 -85 -281 -65 -46 10 -66 21 -99 54
-25 24 -46 58 -53 81 -7 25 -11 145 -11 318 l0 277 80 0 80 0 0 -232z m-4045
147 c80 -13 201 -84 191 -112 -4 -8 -1 -11 5 -7 21 13 76 -65 70 -99 -1 -5 3
-6 8 -3 15 9 44 -91 37 -127 -4 -23 -3 -28 4 -17 8 12 10 10 10 -11 0 -54 -13
-118 -23 -112 -6 3 -7 1 -3 -6 9 -13 -11 -78 -26 -87 -7 -4 -8 -2 -4 4 4 7 2
12 -4 12 -6 0 -9 -8 -6 -18 9 -26 -29 -83 -51 -76 -13 4 -14 3 -5 -3 10 -7 2
-19 -32 -47 -26 -21 -51 -34 -57 -30 -7 4 -9 3 -5 -4 4 -6 -19 -19 -60 -32
-131 -44 -295 -12 -398 76 -43 38 -96 112 -96 136 0 10 -5 18 -12 18 -6 0 -9
3 -6 6 4 3 0 21 -8 39 -15 37 -19 135 -5 135 4 0 11 -27 14 -59 3 -33 17 -85
31 -116 14 -32 23 -62 20 -67 -4 -6 -1 -9 5 -7 7 3 31 -13 54 -34 23 -22 68
-52 99 -67 53 -26 65 -28 150 -24 113 4 128 6 128 15 0 4 16 13 35 19 36 12
135 105 135 126 0 6 6 17 14 23 22 18 47 139 44 208 -2 33 -6 59 -9 57 -3 -2
-14 23 -25 56 -10 32 -20 57 -22 56 -1 -2 -26 21 -54 50 -29 29 -56 50 -60 48
-4 -3 -8 0 -8 5 0 6 -3 10 -7 9 -5 -1 -17 3 -29 9 -30 17 -150 36 -179 29 -20
-5 -25 -3 -25 13 0 29 52 34 165 16z m-705 -90 c0 -8 7 -15 15 -15 20 0 20
-63 1 -79 -13 -11 -75 -9 -96 4 -15 9 -12 71 5 85 8 6 20 8 26 4 8 -4 9 -3 5
4 -5 8 2 12 18 12 16 0 26 -6 26 -15z m2268 -812 c-3 -176 -3 -178 -25 -181
l-23 -3 0 180 0 181 25 0 25 0 -2 -177z m1152 111 l0 -65 26 20 c51 40 129 19
158 -43 57 -120 -41 -247 -148 -191 -35 18 -36 18 -36 0 0 -8 -9 -15 -20 -15
-19 0 -20 7 -20 180 0 173 1 180 20 180 18 0 20 -7 20 -66z m425 -114 c0 -174
0 -175 -22 -178 l-23 -3 0 181 0 181 23 -3 c22 -3 22 -4 22 -178z m-108 154
c3 -8 -2 -23 -11 -32 -14 -15 -18 -15 -31 -1 -9 9 -13 23 -9 32 8 21 43 22 51
1z m231 -8 c5 -24 -10 -38 -31 -30 -17 6 -23 35 -10 48 12 12 38 1 41 -18z
m132 -21 c0 -31 3 -35 25 -35 18 0 25 -5 25 -20 0 -15 -7 -20 -25 -20 l-26 0
3 -92 c3 -92 3 -93 28 -93 15 0 26 -7 28 -17 4 -23 -41 -34 -74 -19 -23 10
-24 14 -24 116 l0 105 -25 0 c-18 0 -25 5 -25 20 0 15 7 20 25 20 22 0 25 4
25 35 0 28 4 35 20 35 16 0 20 -7 20 -35z m-2383 -135 c21 -55 40 -100 43
-100 3 0 23 45 45 100 34 86 43 100 62 100 13 0 23 -2 23 -4 0 -2 -24 -61 -53
-132 -47 -113 -57 -129 -77 -129 -20 0 -30 16 -76 130 -30 72 -54 131 -54 133
0 1 11 2 24 2 22 0 29 -11 63 -100z m260 -3 c1 -60 6 -103 13 -112 16 -19 53
-19 90 0 l30 16 0 99 c0 93 1 100 20 100 19 0 20 -7 20 -135 0 -128 -1 -135
-20 -135 -13 0 -20 7 -20 20 0 19 -1 19 -35 -2 -27 -15 -45 -19 -73 -15 -62
10 -72 33 -72 159 0 108 0 109 23 106 21 -3 22 -8 24 -101z m413 81 c0 -20 1
-20 19 -4 32 29 91 32 124 6 27 -21 27 -23 27 -136 0 -107 -1 -114 -20 -114
-19 0 -20 7 -20 99 0 117 -11 137 -68 128 -58 -10 -62 -19 -62 -129 0 -95 -1
-99 -21 -96 -19 3 -21 11 -25 98 -6 123 1 170 27 170 13 0 19 -7 19 -22z m442
-16 c27 -26 53 -96 42 -113 -2 -4 -49 -5 -104 -3 -111 4 -123 -4 -75 -51 28
-29 88 -34 122 -10 18 13 22 13 33 0 18 -22 -33 -50 -95 -50 -89 0 -148 71
-130 156 8 34 49 87 79 100 38 16 97 3 128 -29z m138 17 l0 -20 29 20 c39 28
63 27 59 -1 -2 -16 -11 -24 -28 -26 -51 -7 -60 -27 -60 -129 0 -86 -1 -93 -20
-93 -19 0 -20 7 -20 135 0 128 1 135 20 135 14 0 20 -7 20 -21z m311 -8 c28
-29 29 -32 29 -135 0 -99 -1 -106 -20 -106 -11 0 -20 7 -20 15 0 14 -4 14 -32
-1 -34 -18 -89 -14 -115 8 -47 39 -30 120 30 136 37 10 84 6 93 -9 10 -18 24
-9 24 16 0 55 -69 83 -119 49 -29 -21 -52 -4 -30 22 18 22 47 33 92 33 30 1
45 -6 68 -28z m449 -106 c0 -128 -1 -135 -20 -135 -19 0 -20 7 -20 135 0 128
1 135 20 135 19 0 20 -7 20 -135z m240 0 l0 -135 -25 0 -25 0 0 135 0 135 25
0 25 0 0 -135z m276 36 c21 -55 41 -98 44 -96 3 2 23 47 44 99 35 85 42 96 64
96 15 0 22 -4 19 -12 -103 -243 -140 -323 -155 -334 -9 -7 -31 -14 -49 -14
-26 0 -30 3 -26 20 3 13 14 20 28 20 16 0 26 9 35 29 14 35 9 52 -51 193 -21
50 -39 93 -39 95 0 2 11 3 24 3 20 0 28 -13 62 -99z m484 86 c28 -14 40 -47
16 -47 -8 0 -18 5 -21 10 -10 16 -81 12 -95 -5 -18 -21 2 -42 54 -56 65 -17
86 -35 86 -73 0 -47 -27 -76 -76 -83 -65 -8 -143 38 -104 62 5 3 20 -1 32 -9
28 -20 82 -21 98 -1 22 27 7 49 -45 63 -94 26 -121 79 -64 126 34 29 78 34
119 13z m289 -8 c31 -18 32 -22 18 -36 -14 -14 -17 -14 -38 1 -43 30 -92 19
-114 -25 -48 -92 34 -189 113 -133 12 8 27 12 32 9 19 -12 10 -35 -22 -51 -92
-47 -202 44 -179 148 22 95 111 136 190 87z m240 6 c38 -19 41 -30 41 -151 0
-97 -1 -104 -20 -104 -11 0 -20 7 -20 15 0 14 -3 14 -30 0 -36 -19 -63 -19
-99 0 -66 34 -50 126 25 149 12 4 40 0 63 -8 l41 -14 0 26 c0 55 -63 80 -115
46 -24 -15 -45 -12 -45 7 0 17 64 49 98 49 18 0 46 -7 61 -15z m163 -8 c-3
-16 0 -16 30 3 46 28 93 26 123 -5 24 -23 25 -31 25 -135 0 -103 -1 -110 -20
-110 -19 0 -20 7 -20 93 0 68 -4 99 -16 115 -19 28 -63 29 -98 1 -25 -19 -26
-25 -26 -115 0 -87 -1 -94 -20 -94 -19 0 -20 7 -20 136 0 135 0 135 23 132 15
-2 21 -9 19 -21z m298 9 c0 -13 4 -13 35 0 47 19 78 18 109 -7 25 -20 26 -23
26 -135 0 -107 -1 -114 -20 -114 -19 0 -20 7 -20 99 0 117 -11 137 -68 128
-58 -10 -62 -19 -62 -128 0 -99 0 -99 -25 -99 l-25 0 0 135 0 135 25 0 c15 0
25 -6 25 -14z m410 1 c33 -17 70 -74 70 -108 l0 -29 -100 0 c-111 0 -122 -8
-75 -55 28 -29 75 -33 118 -10 25 13 29 13 34 -2 8 -20 -19 -41 -66 -49 -51
-10 -111 14 -138 55 -73 108 44 255 157 198z m170 -8 l0 -20 26 20 c35 28 56
27 52 -1 -2 -13 -11 -24 -23 -26 -46 -9 -55 -29 -55 -129 0 -86 -1 -93 -20
-93 -19 0 -20 7 -20 135 0 128 1 135 20 135 14 0 20 -7 20 -21z"/>
<path d="M1810 2435 c-7 -9 -11 -18 -8 -20 3 -3 11 1 18 10 7 9 11 18 8 20 -3
3 -11 -1 -18 -10z"/>
<path d="M740 3339 c0 -5 5 -7 10 -4 6 3 10 8 10 11 0 2 -4 4 -10 4 -5 0 -10
-5 -10 -11z"/>
<path d="M3550 3164 c-46 -20 -88 -61 -106 -103 -27 -63 -34 -61 187 -61 l202
0 -7 32 c-22 111 -166 180 -276 132z"/>
<path d="M750 3180 c0 -5 5 -10 11 -10 5 0 7 5 4 10 -3 6 -8 10 -11 10 -2 0
-4 -4 -4 -10z"/>
<path d="M835 3120 c-4 -6 3 -10 14 -10 25 0 27 6 6 13 -8 4 -17 2 -20 -3z"/>
<path d="M1258 3203 c18 -2 45 -2 60 0 15 2 0 4 -33 4 -33 0 -45 -2 -27 -4z"/>
<path d="M1363 3203 c9 -2 15 -9 12 -14 -4 -5 4 -9 16 -9 22 0 22 0 3 15 -10
8 -26 14 -34 14 -10 -1 -10 -3 3 -6z"/>
<path d="M1606 3055 c-9 -26 -7 -32 5 -12 6 10 9 21 6 23 -2 3 -7 -2 -11 -11z"/>
<path d="M990 2583 c0 -6 8 -17 18 -24 16 -13 16 -13 2 6 -8 11 -16 22 -17 24
-2 2 -3 0 -3 -6z"/>
<path d="M1066 2505 c4 -8 11 -15 16 -15 6 0 5 6 -2 15 -7 8 -14 15 -16 15 -2
0 -1 -7 2 -15z"/>
<path d="M1205 2460 c-3 -5 -1 -10 4 -10 6 0 11 5 11 10 0 6 -2 10 -4 10 -3 0
-8 -4 -11 -10z"/>
<path d="M4126 2339 c-22 -18 -26 -28 -26 -74 0 -59 14 -81 58 -92 84 -21 136
111 65 167 -33 26 -63 25 -97 -1z"/>
<path d="M3371 2334 c-37 -47 -29 -54 59 -54 90 0 100 11 55 55 -34 35 -86 34
-114 -1z"/>
<path d="M3832 2248 c-20 -20 -14 -56 12 -73 24 -16 68 -13 94 8 19 15 14 55
-7 67 -27 14 -84 13 -99 -2z"/>
<path d="M5826 2244 c-34 -33 -6 -78 47 -78 42 0 67 18 67 50 0 41 -81 61
-114 28z"/>
<path d="M6701 2334 c-37 -47 -29 -54 59 -54 44 0 80 2 80 5 0 16 -31 63 -45
69 -37 14 -74 6 -94 -20z"/>
</g>
</svg>
