<?xml version="1.0" standalone="no"?>
<!DOCTYPE svg PUBLIC "-//W3C//DTD SVG 20010904//EN"
 "http://www.w3.org/TR/2001/REC-SVG-20010904/DTD/svg10.dtd">
<svg version="1.0" xmlns="http://www.w3.org/2000/svg"
 width="300.000000pt" height="144.000000pt" viewBox="0 0 300.000000 144.000000"
 preserveAspectRatio="xMidYMid meet">
<metadata>
Created by potrace 1.10, written by Peter Selinger 2001-2011
</metadata>
<g transform="translate(0.000000,144.000000) scale(0.100000,-0.100000)"
fill="#000000" stroke="none">
<path d="M5 720 c0 -399 1 -562 2 -363 2 200 2 526 0 725 -1 200 -2 37 -2
-362z"/>
<path d="M28 1233 c-3 -258 -3 -773 0 -1035 l2 -198 1485 0 1485 0 0 720 0
720 -1485 0 -1485 0 -2 -207z m597 -198 c17 -4 37 -13 45 -20 8 -7 25 -16 37
-19 27 -8 98 -87 123 -136 30 -58 42 -147 29 -214 -19 -102 -88 -193 -184
-243 -43 -23 -63 -27 -145 -27 -82 -1 -102 2 -145 24 -105 52 -184 167 -193
278 -5 53 12 107 30 96 4 -3 3 6 -3 20 -10 20 -9 30 4 49 15 23 14 26 -14 53
-16 15 -29 33 -28 38 0 6 3 5 6 -1 7 -20 23 -15 16 5 -5 14 -3 15 8 5 22 -22
39 -15 39 15 0 37 34 73 65 69 33 -4 65 -36 65 -64 0 -19 5 -23 28 -23 28 0
54 -20 65 -50 5 -13 5 -13 6 0 0 8 -3 22 -9 30 -5 9 -5 19 2 27 8 9 4 15 -16
23 -55 21 -41 66 22 73 45 5 106 1 147 -8z m422 -3 c13 -8 143 -181 150 -200
3 -7 13 -17 23 -22 15 -8 17 0 16 101 -1 119 3 129 54 129 43 0 50 -17 50
-119 l0 -95 44 47 c67 70 153 77 226 18 l38 -31 31 29 c32 30 89 44 149 36 39
-5 72 -22 72 -35 0 -16 19 -11 41 9 45 42 187 34 220 -13 4 -5 12 1 18 13 13
24 71 30 89 9 5 -7 10 -44 10 -83 1 -157 -3 -145 40 -145 21 0 43 5 50 12 8 8
12 48 12 114 0 71 4 105 13 112 19 16 70 0 83 -26 11 -22 11 -22 29 -2 39 43
154 50 204 12 34 -25 35 -34 11 -65 -20 -26 -23 -26 -50 -12 -33 17 -76 20
-85 6 -7 -12 7 -21 39 -27 78 -14 126 -55 126 -109 0 -68 -56 -115 -136 -115
-45 0 -105 17 -117 34 -5 7 -12 5 -21 -7 -11 -14 -26 -18 -67 -16 -30 1 -71
-2 -91 -6 -51 -10 -85 0 -118 37 l-29 31 -11 -25 c-14 -29 -64 -48 -129 -48
-22 0 -41 -4 -41 -9 0 -8 32 -39 34 -33 3 10 36 -12 36 -24 0 -20 13 -17 28 6
7 11 18 20 25 20 9 0 9 -2 0 -8 -7 -4 -19 -26 -27 -47 l-14 -40 -18 43 c-9 23
-21 42 -26 42 -12 0 -10 -13 13 -65 l21 -48 -23 -19 -24 -19 24 3 c27 3 30 8
66 92 14 33 28 57 31 53 3 -3 -6 -30 -20 -61 -14 -31 -26 -61 -26 -66 0 -5
-11 -17 -25 -26 -20 -13 -28 -14 -39 -4 -8 6 -12 19 -9 27 5 13 2 15 -11 10
-10 -4 -23 -4 -29 0 -17 11 -190 12 -203 2 -12 -10 -63 -7 -82 5 -7 4 -17 4
-24 0 -15 -10 -56 -10 -85 0 -26 8 -40 43 -24 59 16 16 14 27 -3 21 -8 -3 -16
-22 -18 -42 -3 -35 -5 -37 -38 -39 -19 -1 -50 -5 -69 -9 -26 -5 -36 -3 -43 10
-7 13 -13 14 -30 5 -24 -13 -42 0 -43 34 -2 35 -19 31 -25 -5 -5 -32 -6 -33
-55 -34 -27 0 -52 -2 -55 -3 -3 -1 -22 -4 -43 -6 -34 -4 -40 -1 -57 28 -11 18
-20 26 -20 20 0 -15 -36 -53 -49 -53 -10 0 -39 57 -51 102 -11 37 11 49 41 22
20 -18 21 -18 34 -1 7 10 25 17 44 17 24 0 34 -6 41 -25 5 -14 7 -32 4 -40 -4
-8 -2 -15 3 -15 5 0 14 17 19 38 7 27 15 38 32 40 12 2 22 10 22 17 0 25 22
28 40 5 14 -18 23 -21 49 -15 22 5 39 2 56 -9 22 -15 27 -15 48 -1 24 15 60
13 82 -5 8 -7 16 -7 19 -2 8 13 55 21 61 11 3 -4 19 -3 35 2 20 7 35 7 49 0
29 -16 41 -14 41 7 0 10 5 23 11 29 7 7 3 16 -16 31 -26 21 -27 21 -58 2 -73
-45 -178 -33 -235 26 -18 19 -35 34 -37 34 -2 0 -5 -17 -7 -37 -3 -36 -5 -38
-43 -41 -22 -2 -47 3 -56 10 -9 7 -51 62 -95 123 l-79 110 -6 -35 c-3 -19 -4
-69 -2 -111 4 -89 -5 -102 -64 -97 l-38 3 -3 209 c-2 145 1 213 9 222 12 15
66 19 86 6z m1781 -80 c-2 -14 -14 -32 -28 -40 l-25 -16 23 23 c23 22 29 55
13 66 -5 3 -17 -2 -25 -11 -9 -8 -16 -10 -16 -4 0 6 6 13 14 16 9 3 12 13 9
22 -4 11 2 7 16 -8 13 -14 21 -34 19 -48z m-63 50 c-13 -9 -3 -68 10 -63 6 2
15 11 22 20 7 9 13 11 13 5 0 -16 -22 -34 -43 -34 -17 0 -18 -2 -6 -17 13 -17
13 -17 -11 -2 -14 9 -26 26 -28 37 -4 29 15 62 36 62 10 0 13 -3 7 -8z m-463
-470 c2 6 17 10 33 9 17 0 42 -1 58 -1 15 0 41 0 57 0 17 0 42 0 58 0 15 0 45
0 67 0 22 0 47 -1 55 -1 8 0 32 2 54 4 23 2 43 -2 52 -10 11 -11 18 -12 36 -2
25 14 76 13 95 -2 7 -6 12 -6 15 1 5 16 45 20 64 5 18 -13 18 -14 -1 -35 -11
-12 -19 -32 -17 -45 4 -26 -11 -39 -48 -42 -14 -1 -37 -4 -52 -8 -15 -4 -36
-4 -45 1 -10 4 -31 8 -48 9 -27 0 -30 3 -33 38 -4 44 -21 51 -20 7 1 -34 -19
-63 -36 -52 -6 4 -22 7 -36 7 -22 0 -25 5 -28 38 -2 20 -7 37 -12 37 -5 0 -10
-17 -12 -37 -3 -36 -5 -38 -39 -39 -20 -1 -48 -4 -63 -8 -17 -4 -34 -2 -42 5
-11 9 -21 8 -44 -1 -25 -11 -36 -10 -56 1 -20 10 -29 11 -44 1 -26 -16 -52
-15 -76 2 -16 12 -17 18 -7 34 9 15 8 22 -4 34 -12 13 -13 19 -2 36 17 27 45
32 86 16 22 -9 33 -9 35 -2z"/>
<path d="M480 1024 c-48 -9 -53 -13 -38 -26 7 -8 40 -13 74 -14 150 -1 266
-118 267 -269 2 -254 -311 -373 -479 -182 -42 47 -64 102 -69 170 -1 21 -8 44
-15 50 -10 10 -11 -3 -8 -60 7 -91 42 -167 105 -222 159 -140 410 -89 498 102
37 79 41 143 15 228 -18 61 -30 81 -78 129 -40 40 -72 62 -107 73 -56 19 -127
28 -165 21z"/>
<path d="M288 999 c-21 -12 -24 -59 -6 -77 7 -7 21 -12 33 -12 12 0 26 5 33
12 19 19 15 66 -7 78 -24 12 -31 12 -53 -1z"/>
<path d="M498 963 c6 -2 18 -2 25 0 6 3 1 5 -13 5 -14 0 -19 -2 -12 -5z"/>
<path d="M482 928 c3 -7 28 -16 56 -19 28 -4 67 -17 87 -29 40 -25 80 -88 90
-141 15 -79 -39 -174 -120 -210 -116 -53 -259 24 -280 152 -4 21 -11 39 -17
39 -17 0 2 -82 31 -130 33 -55 105 -105 163 -114 56 -8 134 12 181 48 20 15
47 51 62 79 79 159 -34 337 -214 337 -30 0 -41 -4 -39 -12z"/>
<path d="M216 911 c31 -29 223 -165 256 -182 55 -28 57 -18 6 23 -73 59 -309
202 -262 159z"/>
<path d="M380 905 c-15 -19 -4 -52 21 -60 38 -12 65 35 37 63 -16 16 -43 15
-58 -3z"/>
<path d="M327 891 c-17 -6 -16 -8 7 -19 21 -9 26 -9 26 3 0 19 -11 24 -33 16z"/>
<path d="M490 865 c0 -8 6 -12 14 -9 25 9 91 -15 118 -43 102 -108 -3 -286
-143 -244 -46 14 -96 69 -105 116 -3 19 -10 35 -14 35 -13 0 7 -81 27 -109 35
-47 81 -71 135 -71 106 0 173 67 173 171 -1 49 -5 64 -31 96 -17 21 -46 46
-65 55 -43 22 -109 24 -109 3z"/>
<path d="M447 837 c-13 -20 -11 -24 36 -67 48 -45 56 -70 21 -70 -23 0 -115
50 -152 81 -36 32 -52 36 -52 15 0 -13 -35 -32 -51 -29 -11 3 11 -120 30 -161
10 -22 29 -50 42 -61 24 -20 24 -20 9 0 -46 60 -67 169 -35 181 8 4 21 1 29
-5 10 -9 16 -8 26 4 16 19 40 2 40 -29 0 -29 36 -86 55 -86 8 0 15 -4 15 -10
0 -17 64 -22 100 -6 45 18 70 46 79 88 16 72 -32 141 -107 153 -20 3 -44 10
-54 15 -12 7 -20 3 -31 -13z"/>
<path d="M233 824 c-3 -8 1 -22 9 -30 13 -14 17 -14 31 1 9 8 14 22 11 30 -8
20 -43 19 -51 -1z"/>
<path d="M960 810 l0 -210 40 0 40 0 0 151 0 151 38 -55 c20 -30 69 -98 107
-150 67 -92 72 -97 107 -97 l38 0 0 210 -1 210 -39 0 -39 0 -3 -139 -3 -139
-100 138 -100 139 -42 0 -43 1 0 -210z"/>
<path d="M1450 903 c-32 -11 -81 -69 -91 -106 -19 -71 15 -152 75 -181 44 -21
118 -21 162 0 37 18 40 25 23 52 -11 18 -13 18 -47 0 -20 -10 -45 -18 -55 -18
-30 0 -72 27 -85 54 l-12 26 121 0 121 0 -7 38 c-17 95 -66 142 -145 141 -25
0 -52 -3 -60 -6z m99 -58 c26 -13 41 -33 41 -56 0 -5 -38 -9 -84 -9 -80 0 -84
1 -79 20 7 26 50 60 75 60 10 0 32 -7 47 -15z"/>
<path d="M1473 832 c-6 -4 -13 -13 -15 -21 -2 -10 10 -14 45 -15 54 -1 70 10
42 31 -21 14 -53 17 -72 5z"/>
<path d="M1709 895 c-33 -18 -52 -66 -39 -100 12 -31 43 -51 105 -66 75 -18
89 -33 59 -63 -21 -22 -62 -20 -109 4 -22 11 -40 20 -41 20 -1 0 -9 -11 -18
-25 -16 -24 -16 -25 26 -46 33 -17 54 -20 106 -17 55 4 68 8 88 32 56 64 15
134 -92 156 -58 12 -75 30 -54 55 17 21 69 19 106 -4 l32 -19 11 24 c14 32 16
29 -23 48 -42 20 -122 20 -157 1z"/>
<path d="M1974 900 c-49 -19 -69 -85 -39 -127 15 -21 38 -31 123 -53 31 -8 42
-16 42 -30 0 -41 -63 -52 -123 -21 -37 19 -37 19 -52 -2 -17 -25 -14 -30 29
-51 39 -18 124 -21 159 -5 35 16 60 63 52 100 -8 36 -47 63 -116 79 -60 15
-76 31 -53 55 21 21 86 15 113 -9 17 -16 19 -15 35 9 16 25 16 25 -16 45 -35
21 -114 26 -154 10z"/>
<path d="M2190 790 c0 -125 11 -171 45 -184 35 -13 102 -6 128 14 14 11 28 20
32 20 3 0 3 -9 0 -20 -6 -17 -2 -20 29 -20 l36 0 0 155 0 155 -35 0 -35 0 0
-111 c0 -126 -6 -138 -70 -139 -55 0 -60 11 -60 137 l0 113 -35 0 -35 0 0
-120z"/>
<path d="M2519 881 c-52 -53 -27 -127 49 -146 92 -22 102 -26 102 -45 0 -41
-63 -52 -123 -21 -37 19 -37 19 -52 -2 -8 -11 -12 -23 -10 -27 12 -19 78 -40
125 -40 63 0 103 20 119 58 26 63 -12 109 -110 132 -59 14 -76 31 -54 54 22
22 77 20 108 -4 l25 -20 16 25 c16 24 16 26 -16 45 -23 14 -51 20 -91 20 -51
0 -62 -4 -88 -29z"/>
<path d="M1760 825 c0 -9 14 -16 38 -20 20 -4 45 -9 55 -12 23 -6 67 -54 67
-73 0 -18 56 -39 118 -46 68 -7 52 18 -30 46 -67 23 -75 28 -93 68 -16 32 -24
39 -32 31 -9 -9 -20 -8 -46 5 -43 20 -77 21 -77 1z"/>
<path d="M2015 831 c-9 -15 25 -31 64 -31 10 0 35 -11 55 -25 20 -13 36 -23
37 -22 6 12 6 87 1 87 -4 0 -17 -7 -29 -15 -14 -10 -24 -12 -28 -5 -4 6 -11 8
-16 5 -5 -4 -9 -1 -9 4 0 14 -67 15 -75 2z"/>
<path d="M2474 737 c3 -12 5 -31 5 -42 1 -17 2 -18 17 -4 14 15 19 14 52 -2
40 -21 69 -24 92 -9 12 7 7 12 -22 25 -21 8 -46 15 -55 15 -10 0 -30 8 -43 17
-36 25 -50 25 -46 0z"/>
<path d="M1664 733 c-8 -13 -28 -15 -112 -14 -105 2 -121 -4 -80 -33 28 -20
65 -20 102 -1 27 14 31 14 51 -5 l22 -21 17 25 16 25 42 -19 c49 -22 84 -25
94 -9 9 15 -12 26 -61 35 -22 3 -49 13 -60 20 -18 11 -22 11 -31 -3z"/>
<path d="M1869 599 c-23 -19 -42 -26 -59 -23 -110 19 -120 12 -120 -82 l0 -72
42 2 c34 1 45 6 57 27 13 24 13 29 -3 54 -14 21 -24 26 -47 23 -25 -4 -29 -1
-29 19 0 24 0 24 57 -5 30 -16 44 -15 37 2 -3 8 0 17 6 21 6 3 9 1 8 -6 -2 -6
3 -14 10 -16 6 -3 12 2 12 11 0 9 7 17 15 17 59 5 82 4 93 -4 8 -7 16 -7 23 0
6 6 -4 18 -29 35 l-39 25 -34 -28z m-101 -127 c3 -31 2 -33 -25 -30 -17 2 -29
10 -31 21 -6 30 6 49 30 45 18 -2 24 -11 26 -36z"/>
<path d="M1730 476 c0 -9 7 -16 16 -16 9 0 14 5 12 12 -6 18 -28 21 -28 4z"/>
<path d="M1210 495 c0 -43 4 -75 10 -75 6 0 10 32 10 75 0 43 -4 75 -10 75 -6
0 -10 -32 -10 -75z"/>
<path d="M1870 495 c0 -43 4 -75 10 -75 6 0 10 32 10 75 0 43 -4 75 -10 75 -6
0 -10 -32 -10 -75z"/>
<path d="M1917 564 c-8 -8 1 -24 14 -24 5 0 9 7 9 15 0 15 -12 20 -23 9z"/>
<path d="M1970 546 c0 -8 -6 -17 -12 -19 -10 -4 -10 -8 -1 -14 6 -4 13 -26 15
-48 2 -33 7 -41 26 -43 12 -2 22 2 22 8 0 6 4 9 9 6 5 -4 7 3 4 14 -3 11 -10
23 -15 26 -6 4 -8 -2 -3 -15 5 -15 2 -21 -9 -21 -20 0 -23 65 -3 74 10 5 10 7
0 12 -7 3 -13 12 -13 20 0 8 -4 14 -10 14 -5 0 -10 -6 -10 -14z"/>
<path d="M984 478 c13 -29 28 -54 34 -56 10 -3 29 32 46 86 13 40 -12 23 -29
-20 l-17 -43 -16 43 c-9 23 -22 42 -29 42 -8 0 -5 -16 11 -52z"/>
<path d="M1092 478 l3 -53 43 -1 42 -2 0 54 c0 64 -17 73 -22 12 -2 -36 -7
-44 -25 -46 -21 -3 -23 1 -23 42 0 26 -5 46 -11 46 -6 0 -9 -21 -7 -52z"/>
<path d="M1260 474 c0 -30 5 -54 10 -54 6 0 10 20 10 45 0 41 2 45 25 45 23 0
25 -4 25 -45 0 -25 5 -45 11 -45 6 0 9 21 7 53 l-3 52 -42 1 -43 2 0 -54z"/>
<path d="M1383 504 c-15 -24 -15 -29 -2 -53 11 -20 22 -26 49 -26 19 0 35 6
38 13 3 11 0 12 -16 3 -23 -12 -48 -6 -56 15 -4 11 5 14 39 14 46 0 53 7 35
41 -16 29 -65 25 -87 -7z m77 -14 c0 -6 -16 -10 -35 -10 -40 0 -41 2 -19 24
12 12 20 13 35 6 10 -6 19 -15 19 -20z"/>
<path d="M1500 473 c0 -36 4 -53 13 -53 9 0 11 12 9 41 -4 34 -1 41 17 46 31
8 25 22 -9 21 -29 -1 -30 -2 -30 -55z"/>
<path d="M1587 524 c-14 -15 -6 -20 23 -16 22 3 30 0 30 -10 0 -10 -7 -14 -23
-11 -29 6 -51 -19 -42 -47 5 -16 15 -20 46 -20 l40 0 -3 53 c-3 50 -4 52 -33
55 -17 2 -34 0 -38 -4z m51 -73 c-2 -9 -11 -17 -21 -19 -21 -4 -35 27 -17 38
19 12 42 0 38 -19z"/>
<path d="M1820 475 c0 -30 5 -55 10 -55 6 0 10 25 10 55 0 30 -4 55 -10 55 -5
0 -10 -25 -10 -55z"/>
<path d="M1920 475 c0 -30 5 -55 10 -55 6 0 10 25 10 55 0 30 -4 55 -10 55 -5
0 -10 -25 -10 -55z"/>
<path d="M2737 983 c-10 -9 -9 -41 1 -47 5 -3 9 8 9 24 0 33 -1 33 -10 23z"/>
<path d="M2197 524 c-18 -18 -5 -43 28 -54 19 -6 35 -15 35 -20 0 -15 -31 -20
-52 -9 -16 9 -19 8 -16 -3 7 -20 62 -22 79 -2 12 14 10 19 -10 35 -13 11 -29
19 -37 19 -8 0 -14 4 -14 9 0 15 23 19 44 9 14 -8 17 -7 14 4 -5 14 -59 24
-71 12z"/>
<path d="M2303 504 c-15 -24 -15 -29 -2 -53 11 -20 23 -26 47 -26 18 0 31 4
30 10 -2 5 -15 8 -30 6 -20 -2 -28 3 -33 19 -10 31 16 55 50 46 33 -8 24 -25
-10 -18 -18 3 -25 0 -25 -11 0 -21 12 -27 38 -21 47 13 32 74 -18 74 -21 0
-35 -8 -47 -26z"/>
<path d="M2417 523 c-14 -13 -6 -18 25 -18 17 0 33 -6 35 -12 3 -9 -4 -11 -24
-7 -20 4 -33 1 -43 -11 -22 -26 0 -50 47 -51 l39 -2 -2 44 c-1 24 -5 48 -9 54
-7 11 -58 14 -68 3z m52 -79 c-13 -16 -19 -17 -38 -5 -12 8 -12 12 -2 25 10
12 18 13 33 5 15 -8 17 -13 7 -25z"/>
<path d="M2520 473 c0 -38 4 -53 13 -53 10 0 13 13 13 43 -1 38 1 42 24 42 23
0 25 -4 24 -42 0 -30 3 -43 13 -43 17 0 18 84 1 98 -7 6 -30 10 -50 9 l-38 -1
0 -53z"/>
<path d="M2645 473 c0 -37 4 -53 13 -53 10 0 13 12 10 43 -3 39 -1 42 25 45
26 3 27 2 27 -42 0 -25 5 -46 10 -46 12 0 13 79 2 97 -4 7 -25 11 -47 11 l-40
-2 0 -53z"/>
<path d="M2777 512 c-22 -25 -21 -55 2 -76 22 -20 72 -18 79 2 3 11 0 12 -16
3 -23 -12 -48 -6 -56 15 -4 11 5 14 39 14 49 0 58 15 27 43 -24 22 -55 21 -75
-1z m73 -22 c0 -6 -16 -10 -35 -10 -38 0 -46 13 -18 29 19 10 53 -2 53 -19z"/>
<path d="M2890 473 c0 -29 5 -53 10 -53 6 0 10 18 10 41 0 32 4 42 20 46 30 8
24 22 -10 21 -29 -1 -30 -2 -30 -55z"/>
</g>
</svg>
