<?xml version="1.0" standalone="no"?>
<!DOCTYPE svg PUBLIC "-//W3C//DTD SVG 20010904//EN"
 "http://www.w3.org/TR/2001/REC-SVG-20010904/DTD/svg10.dtd">
<svg version="1.0" xmlns="http://www.w3.org/2000/svg"
 width="300.000000pt" height="144.000000pt" viewBox="0 0 300.000000 144.000000"
 preserveAspectRatio="xMidYMid meet">
<metadata>
Created by potrace 1.10, written by Peter Selinger 2001-2011
</metadata>
<g transform="translate(0.000000,144.000000) scale(0.100000,-0.100000)"
fill="#000000" stroke="none">
<path d="M10 720 c0 -396 4 -720 8 -720 4 0 8 324 8 720 0 396 -4 720 -8 720
-4 0 -8 -324 -8 -720z"/>
<path d="M478 1043 c-63 -7 -77 -52 -22 -73 20 -8 24 -14 16 -23 -7 -8 -7 -18
-2 -27 6 -8 9 -22 9 -30 -1 -13 -1 -13 -6 0 -11 30 -37 50 -65 50 -23 0 -28 4
-28 23 0 28 -32 60 -65 64 -31 4 -65 -32 -65 -69 0 -30 -17 -37 -39 -15 -11
10 -13 9 -8 -5 7 -20 -9 -25 -16 -5 -3 6 -6 7 -6 1 -1 -5 12 -23 28 -38 28
-27 29 -30 14 -53 -13 -19 -14 -29 -4 -49 6 -14 7 -23 3 -20 -18 11 -35 -43
-30 -96 9 -111 88 -226 193 -278 43 -22 63 -25 145 -24 82 0 102 4 145 27 96
50 165 141 184 243 13 67 1 156 -29 214 -25 49 -96 128 -123 136 -12 3 -29 12
-37 19 -28 23 -118 36 -192 28z m167 -40 c35 -11 67 -33 107 -73 48 -48 60
-68 78 -129 26 -85 22 -149 -15 -228 -88 -191 -339 -242 -498 -102 -63 55 -98
131 -105 222 -3 57 -2 70 8 60 7 -6 14 -29 15 -50 5 -68 27 -123 69 -170 134
-152 374 -114 457 72 79 176 -51 378 -245 379 -59 1 -105 20 -74 31 53 17 127
13 203 -12z m-304 -3 c22 -12 26 -59 7 -78 -7 -7 -21 -12 -33 -12 -29 0 -45
19 -45 52 0 39 34 57 71 38z m182 -37 c-7 -2 -19 -2 -25 0 -7 3 -2 5 12 5 14
0 19 -2 13 -5z m78 -35 c52 -15 113 -68 138 -121 44 -92 14 -222 -66 -283 -47
-36 -125 -56 -181 -48 -58 9 -130 59 -163 114 -29 48 -48 130 -31 130 6 0 13
-18 17 -39 21 -128 164 -205 280 -152 81 36 135 131 120 210 -10 53 -50 116
-90 141 -20 12 -59 25 -87 29 -65 8 -78 31 -17 31 23 0 59 -5 80 -12z m-273
-74 c112 -70 196 -133 189 -141 -9 -9 -85 37 -188 113 -116 85 -127 94 -115
94 4 0 56 -30 114 -66z m110 54 c28 -28 1 -75 -37 -63 -11 3 -23 15 -26 26
-12 38 35 65 63 37z m-78 -33 c0 -12 -5 -12 -26 -3 -23 11 -24 13 -7 19 22 8
33 3 33 -16z m239 -13 c19 -9 48 -34 65 -55 61 -76 31 -209 -57 -250 -105 -50
-226 10 -247 122 -4 23 -4 41 0 41 4 0 11 -16 14 -35 16 -81 103 -137 182
-116 141 38 141 244 1 282 -22 6 -45 8 -53 5 -8 -3 -14 1 -14 9 0 21 66 19
109 -3z m-67 -27 c75 -12 123 -81 107 -153 -9 -42 -34 -70 -79 -88 -36 -16
-100 -11 -100 6 0 6 -7 10 -15 10 -19 0 -55 57 -55 86 0 31 -24 48 -40 29 -10
-12 -16 -13 -26 -4 -8 6 -21 9 -29 5 -32 -12 -11 -121 35 -181 15 -20 15 -20
-9 0 -13 11 -32 39 -42 61 -19 41 -41 164 -30 161 16 -3 51 16 51 29 0 21 16
17 52 -15 37 -31 129 -81 152 -81 35 0 27 25 -21 70 -47 43 -49 47 -36 67 11
16 19 20 31 13 10 -5 34 -12 54 -15z m-248 -10 c3 -8 -2 -22 -11 -30 -14 -15
-18 -15 -31 -1 -8 8 -12 22 -9 30 8 20 43 21 51 1z"/>
<path d="M961 1026 c-8 -9 -11 -77 -9 -222 l3 -209 38 -3 c59 -5 68 8 64 97
-2 42 -1 92 2 111 l6 35 79 -110 c44 -61 86 -116 95 -123 9 -7 34 -12 56 -10
38 3 40 5 43 41 2 20 5 37 7 37 2 0 19 -15 37 -34 57 -59 162 -71 235 -26 31
19 32 19 58 -2 19 -15 23 -24 16 -31 -6 -6 -11 -19 -11 -29 0 -21 -12 -23 -41
-7 -14 7 -29 7 -49 0 -16 -5 -32 -6 -35 -2 -6 10 -53 2 -61 -11 -3 -5 -11 -5
-19 2 -22 18 -58 20 -82 5 -21 -14 -26 -14 -48 1 -17 11 -34 14 -56 9 -26 -6
-35 -3 -49 15 -18 23 -40 20 -40 -5 0 -7 -10 -15 -22 -17 -17 -2 -25 -13 -32
-40 -5 -21 -14 -38 -19 -38 -5 0 -7 7 -3 15 3 8 1 26 -4 40 -7 19 -17 25 -41
25 -19 0 -37 -7 -44 -17 -13 -17 -14 -17 -34 1 -30 27 -52 15 -41 -22 12 -45
41 -102 51 -102 13 0 49 38 49 53 0 6 9 -2 20 -20 17 -29 23 -32 57 -28 21 2
40 5 43 6 3 1 28 3 55 3 49 1 50 2 55 34 6 36 23 40 25 5 1 -34 19 -47 43 -34
17 9 23 8 30 -5 7 -13 17 -15 43 -10 19 4 50 8 69 9 33 2 35 4 38 39 2 20 10
39 18 42 17 6 19 -5 3 -21 -16 -16 -2 -51 24 -59 29 -10 70 -10 85 0 7 4 17 4
24 0 19 -12 70 -15 82 -5 13 10 186 9 203 -2 6 -4 19 -4 29 0 13 5 16 3 11
-10 -3 -8 1 -21 9 -27 11 -10 19 -9 39 4 14 9 25 21 25 26 0 5 12 35 26 66 14
31 23 58 20 61 -3 4 -17 -20 -31 -53 -36 -84 -39 -89 -66 -92 l-24 -3 24 19
23 19 -21 48 c-23 52 -25 65 -13 65 5 0 17 -19 26 -42 l18 -43 14 40 c8 21 20
43 27 47 9 6 9 8 0 8 -7 0 -18 -9 -25 -20 -15 -23 -28 -26 -28 -6 0 12 -33 34
-36 24 -2 -6 -34 25 -34 33 0 5 19 9 41 9 65 0 115 19 129 48 l11 25 29 -31
c33 -37 67 -47 118 -37 20 4 61 7 91 6 41 -2 56 2 67 16 9 12 16 14 21 7 12
-17 72 -34 117 -34 80 0 136 47 136 115 0 54 -48 95 -126 109 -32 6 -46 15
-39 27 9 14 52 11 85 -6 27 -14 30 -14 50 12 24 31 23 40 -11 65 -50 38 -165
31 -204 -12 -18 -20 -18 -20 -29 2 -13 26 -64 42 -83 26 -9 -7 -13 -41 -13
-112 0 -66 -4 -106 -12 -114 -7 -7 -29 -12 -50 -12 -43 0 -39 -12 -40 145 0
39 -5 76 -10 83 -18 21 -76 15 -89 -9 -6 -12 -14 -18 -18 -13 -33 47 -175 55
-220 13 -22 -20 -41 -25 -41 -9 0 13 -33 30 -72 35 -60 8 -117 -6 -149 -36
l-31 -29 -38 31 c-73 59 -159 52 -226 -18 l-44 -47 0 95 c0 102 -7 119 -50
119 -51 0 -55 -10 -54 -129 1 -101 -1 -109 -16 -101 -10 5 -20 15 -23 22 -7
19 -137 192 -150 200 -20 13 -74 9 -86 -6z m184 -146 l100 -138 3 139 3 139
39 0 39 0 1 -210 0 -210 -38 0 c-35 0 -40 5 -107 97 -38 52 -87 120 -107 150
l-38 55 0 -151 0 -151 -40 0 -40 0 0 210 0 210 43 -1 42 0 100 -139z m441 11
c33 -20 58 -65 69 -123 l7 -38 -121 0 -121 0 12 -26 c13 -27 55 -54 85 -54 10
0 35 8 55 18 34 18 36 18 47 0 17 -27 14 -34 -23 -52 -44 -21 -118 -21 -162 0
-60 29 -94 110 -75 181 10 37 59 95 91 106 34 12 106 6 136 -12z m280 3 c39
-19 37 -16 23 -48 l-11 -24 -32 19 c-37 23 -89 25 -106 4 -21 -25 -4 -43 54
-55 107 -22 148 -92 92 -156 -20 -24 -33 -28 -88 -32 -52 -3 -73 0 -106 17
-42 21 -42 22 -26 46 9 14 17 25 18 25 1 0 19 -9 41 -20 47 -24 88 -26 109 -4
30 30 16 45 -59 63 -62 15 -93 35 -105 66 -13 34 6 82 39 100 35 19 115 19
157 -1z m262 -4 c32 -20 32 -20 16 -45 -16 -24 -18 -25 -35 -9 -27 24 -92 30
-113 9 -23 -24 -7 -40 53 -55 69 -16 108 -43 116 -79 8 -37 -17 -84 -52 -100
-35 -16 -120 -13 -159 5 -43 21 -46 26 -29 51 15 21 15 21 52 2 60 -31 123
-20 123 21 0 14 -11 22 -42 30 -85 22 -108 32 -123 53 -30 42 -10 108 39 127
40 16 119 11 154 -10z m132 -93 c0 -126 5 -137 60 -137 64 1 70 13 70 139 l0
111 35 0 35 0 0 -155 0 -155 -36 0 c-31 0 -35 3 -29 20 3 11 3 20 0 20 -4 0
-18 -9 -32 -20 -26 -20 -93 -27 -128 -14 -34 13 -45 59 -45 184 l0 120 35 0
35 0 0 -113z m438 93 c32 -19 32 -21 16 -45 l-16 -25 -25 20 c-31 24 -86 26
-108 4 -22 -23 -5 -40 54 -54 98 -23 136 -69 110 -132 -16 -38 -56 -58 -119
-58 -47 0 -113 21 -125 40 -2 4 2 16 10 27 15 21 15 21 52 2 60 -31 123 -20
123 21 0 19 -10 23 -102 45 -76 19 -101 93 -49 146 26 25 37 29 88 29 40 0 68
-6 91 -20z m-861 -66 c26 -13 37 -14 46 -5 8 8 16 1 32 -31 18 -40 26 -45 93
-68 82 -28 98 -53 30 -46 -62 7 -118 28 -118 46 0 19 -44 67 -67 73 -10 3 -35
8 -55 12 -24 4 -38 11 -38 20 0 20 34 19 77 -1z m253 5 c0 -5 4 -8 9 -4 5 3
12 1 16 -5 4 -7 14 -5 28 5 12 8 25 15 29 15 5 0 5 -75 -1 -87 -1 -1 -17 9
-37 22 -20 14 -45 25 -55 25 -39 0 -73 16 -64 31 8 13 75 12 75 -2z m430 -92
c13 -9 33 -17 43 -17 9 0 34 -7 55 -15 29 -13 34 -18 22 -25 -23 -15 -52 -12
-92 9 -33 16 -38 17 -52 2 -15 -14 -16 -13 -17 4 0 11 -2 30 -5 42 -4 25 10
25 46 0z m-765 -21 c49 -9 70 -20 61 -35 -10 -16 -45 -13 -94 9 l-42 19 -16
-25 -17 -25 -22 21 c-20 19 -24 19 -51 5 -37 -19 -74 -19 -102 1 -41 29 -25
35 80 33 84 -1 104 1 112 14 9 14 13 14 31 3 11 -7 38 -17 60 -20z m216 -149
c-7 -7 -15 -7 -23 0 -11 8 -34 9 -93 4 -8 0 -15 -8 -15 -17 0 -9 -6 -14 -12
-11 -7 2 -12 10 -10 16 1 7 -2 9 -8 6 -6 -4 -9 -13 -6 -21 7 -17 -7 -18 -37
-2 -57 29 -57 29 -57 5 0 -20 4 -23 29 -19 23 3 33 -2 47 -23 16 -25 16 -30 3
-54 -12 -21 -23 -26 -57 -27 l-42 -2 0 72 c0 94 10 101 120 82 17 -3 36 4 59
23 l34 28 39 -25 c25 -17 35 -29 29 -35z m-741 -72 c0 -43 -4 -75 -10 -75 -6
0 -10 32 -10 75 0 43 4 75 10 75 6 0 10 -32 10 -75z m660 0 c0 -43 -4 -75 -10
-75 -6 0 -10 32 -10 75 0 43 4 75 10 75 6 0 10 -32 10 -75z m50 60 c0 -8 -4
-15 -9 -15 -13 0 -22 16 -14 24 11 11 23 6 23 -9z m50 -9 c0 -8 6 -17 13 -20
10 -5 10 -7 0 -12 -20 -9 -17 -74 3 -74 11 0 14 6 9 21 -5 13 -3 19 3 15 5 -3
12 -15 15 -26 3 -11 1 -18 -4 -14 -5 3 -9 0 -9 -6 0 -6 -10 -10 -22 -8 -19 2
-24 10 -26 43 -2 22 -9 44 -15 48 -9 6 -9 10 1 14 6 2 12 11 12 19 0 8 5 14
10 14 6 0 10 -6 10 -14z m-988 -58 l16 -43 17 43 c17 43 42 60 29 20 -17 -54
-36 -89 -46 -86 -17 6 -59 108 -45 108 7 0 20 -19 29 -42z m108 -4 c0 -41 2
-45 23 -42 18 2 23 10 25 46 5 61 22 52 22 -12 l0 -54 -42 2 -43 1 -3 53 c-2
31 1 52 7 52 6 0 11 -20 11 -46z m238 -11 c2 -32 -1 -53 -7 -53 -6 0 -11 20
-11 45 0 41 -2 45 -25 45 -23 0 -25 -4 -25 -45 0 -25 -4 -45 -10 -45 -5 0 -10
24 -10 54 l0 54 43 -2 42 -1 3 -52z m122 38 c18 -34 11 -41 -35 -41 -34 0 -43
-3 -39 -14 8 -21 33 -27 56 -15 16 9 19 8 16 -3 -3 -7 -19 -13 -38 -13 -27 0
-38 6 -49 26 -13 24 -13 29 2 53 22 32 71 36 87 7z m90 9 c0 -4 -10 -10 -21
-13 -18 -5 -21 -12 -17 -46 2 -29 0 -41 -9 -41 -9 0 -13 17 -13 53 0 53 1 54
30 55 17 0 30 -3 30 -8z m98 -47 l3 -53 -40 0 c-31 0 -41 4 -46 20 -9 28 13
53 42 47 16 -3 23 1 23 11 0 10 -8 13 -30 10 -16 -3 -30 -2 -30 2 0 14 16 21
45 18 29 -3 30 -5 33 -55z m182 2 c0 -30 -4 -55 -10 -55 -5 0 -10 25 -10 55 0
30 5 55 10 55 6 0 10 -25 10 -55z m100 0 c0 -30 -4 -55 -10 -55 -5 0 -10 25
-10 55 0 30 5 55 10 55 6 0 10 -25 10 -55z"/>
<path d="M1458 840 c-14 -11 -28 -29 -31 -40 -5 -19 -1 -20 79 -20 46 0 84 4
84 9 0 23 -15 43 -41 56 -38 20 -61 19 -91 -5z m87 -13 c28 -21 12 -32 -42
-31 -35 1 -47 5 -45 15 8 30 55 39 87 16z"/>
<path d="M1714 496 c-11 -29 1 -51 29 -54 27 -3 28 -1 25 30 -2 25 -8 34 -26
36 -13 2 -24 -3 -28 -12z m44 -24 c2 -7 -3 -12 -12 -12 -9 0 -16 7 -16 16 0
17 22 14 28 -4z"/>
<path d="M1406 504 c-22 -22 -21 -24 19 -24 39 0 46 14 16 30 -15 7 -23 6 -35
-6z"/>
<path d="M1600 470 c-18 -11 -4 -42 17 -38 10 2 19 10 21 19 4 19 -19 31 -38
19z"/>
<path d="M2793 1008 c3 -9 0 -19 -9 -22 -8 -3 -14 -10 -14 -16 0 -6 7 -4 16 4
8 9 20 14 25 11 16 -11 10 -44 -13 -66 l-23 -23 25 16 c33 20 37 57 9 88 -14
15 -20 19 -16 8z"/>
<path d="M2730 989 c-16 -29 -9 -59 20 -78 24 -15 24 -15 11 2 -12 15 -11 17
6 17 21 0 43 18 43 34 0 6 -6 4 -13 -5 -7 -9 -16 -18 -22 -20 -13 -5 -23 54
-10 63 6 5 3 8 -7 8 -10 0 -22 -9 -28 -21z m17 -29 c0 -16 -4 -27 -9 -24 -10
6 -11 38 -1 47 9 10 10 10 10 -23z"/>
<path d="M2215 543 c-12 -2 -27 -13 -34 -25 -11 -17 -10 -23 2 -36 12 -12 13
-19 4 -34 -22 -36 40 -63 83 -36 15 10 24 9 44 -1 20 -11 31 -12 56 -1 23 9
33 10 44 1 8 -7 25 -9 42 -5 15 4 43 7 63 8 34 1 36 3 39 39 2 20 7 37 12 37
5 0 10 -17 12 -37 3 -33 6 -38 28 -38 14 0 30 -3 36 -7 17 -11 37 18 36 52 -1
44 16 37 20 -7 3 -35 6 -38 33 -38 17 -1 38 -5 48 -9 9 -5 30 -5 45 -1 15 4
38 7 52 8 37 3 52 16 48 42 -2 13 6 33 17 45 19 21 19 22 1 35 -19 15 -59 11
-64 -5 -3 -7 -8 -7 -15 -1 -19 15 -70 16 -95 2 -18 -10 -25 -9 -36 2 -9 8 -29
12 -52 10 -22 -2 -46 -4 -54 -4 -8 0 -33 1 -55 1 -22 0 -52 0 -67 0 -16 0 -41
0 -58 0 -16 0 -42 0 -57 0 -16 0 -41 1 -58 1 -16 1 -31 -3 -33 -9 -2 -7 -13
-7 -35 2 -18 7 -41 11 -52 9z m53 -31 c3 -11 0 -12 -14 -4 -21 10 -44 6 -44
-9 0 -5 6 -9 14 -9 8 0 24 -8 37 -19 20 -16 22 -21 10 -35 -17 -20 -72 -18
-79 2 -3 11 0 12 16 3 21 -11 52 -6 52 9 0 5 -16 14 -35 20 -33 11 -46 36 -28
54 12 12 66 2 71 -12z m122 -1 c13 -25 4 -48 -22 -55 -26 -6 -38 0 -38 21 0
11 7 14 25 11 34 -7 43 10 10 18 -34 9 -60 -15 -50 -46 5 -16 13 -21 33 -19
15 2 28 -1 30 -6 1 -6 -12 -10 -30 -10 -24 0 -36 6 -47 26 -13 24 -13 29 2 53
22 32 71 36 87 7z m95 9 c4 -6 8 -30 9 -54 l2 -44 -39 2 c-47 1 -69 25 -47 51
10 12 23 15 43 11 20 -4 27 -2 24 7 -2 6 -18 12 -35 12 -31 0 -39 5 -25 18 10
11 61 8 68 -3z m123 -2 c17 -14 16 -98 -1 -98 -10 0 -13 13 -13 43 1 38 -1 42
-24 42 -23 0 -25 -4 -24 -42 0 -30 -3 -43 -13 -43 -9 0 -13 15 -13 53 l0 53
38 1 c20 1 43 -3 50 -9z m124 -1 c11 -18 10 -97 -2 -97 -5 0 -10 21 -10 46 0
44 -1 45 -27 42 -26 -3 -28 -6 -25 -45 3 -31 0 -43 -10 -43 -9 0 -13 16 -13
53 l0 53 40 2 c22 0 43 -4 47 -11z m120 -4 c31 -28 22 -43 -27 -43 -34 0 -43
-3 -39 -14 8 -21 33 -27 56 -15 16 9 19 8 16 -3 -7 -20 -57 -22 -79 -2 -23 21
-24 51 -2 76 20 22 51 23 75 1z m98 7 c0 -4 -9 -10 -20 -13 -16 -4 -20 -14
-20 -46 0 -23 -4 -41 -10 -41 -5 0 -10 24 -10 53 0 53 1 54 30 55 17 0 30 -3
30 -8z"/>
<path d="M2429 464 c-10 -13 -10 -17 2 -25 19 -12 25 -11 38 5 10 12 8 17 -7
25 -15 8 -23 7 -33 -5z"/>
<path d="M2797 509 c-28 -16 -20 -29 18 -29 38 0 46 13 17 29 -11 6 -24 6 -35
0z"/>
</g>
</svg>
