<?xml version="1.0" encoding="UTF-8"?>
<!DOCTYPE svg PUBLIC "-//W3C//DTD SVG 1.1//EN" "http://www.w3.org/Graphics/SVG/1.1/DTD/svg11.dtd">
<svg xmlns="http://www.w3.org/2000/svg" version="1.1" width="1280px" height="615px" style="shape-rendering:geometricPrecision; text-rendering:geometricPrecision; image-rendering:optimizeQuality; fill-rule:evenodd; clip-rule:evenodd" xmlns:xlink="http://www.w3.org/1999/xlink">
<g><path style="opacity:1" fill="#7c7c7c" d="M -0.5,-0.5 C 0.833333,-0.5 2.16667,-0.5 3.5,-0.5C 3.5,7.16667 3.5,14.8333 3.5,22.5C 3.5,64.8333 3.5,107.167 3.5,149.5C 3.5,246.167 3.5,342.833 3.5,439.5C 3.5,474.833 3.5,510.167 3.5,545.5C 3.5,568.5 3.5,591.5 3.5,614.5C 2.16667,614.5 0.833333,614.5 -0.5,614.5C -0.5,409.5 -0.5,204.5 -0.5,-0.5 Z"/></g>
<g><path style="opacity:1" fill="#171717" d="M 3.5,-0.5 C 428.833,-0.5 854.167,-0.5 1279.5,-0.5C 1279.5,7.16667 1279.5,14.8333 1279.5,22.5C 857.167,22.5 434.833,22.5 12.5,22.5C 11.8333,47.8333 11.1667,47.8333 10.5,22.5C 8.16667,22.5 5.83333,22.5 3.5,22.5C 3.5,14.8333 3.5,7.16667 3.5,-0.5 Z"/></g>
<g><path style="opacity:1" fill="#1b1b1b" d="M 3.5,22.5 C 5.83333,22.5 8.16667,22.5 10.5,22.5C 11.1667,47.8333 11.8333,47.8333 12.5,22.5C 434.833,22.5 857.167,22.5 1279.5,22.5C 1279.5,64.8333 1279.5,107.167 1279.5,149.5C 857.167,149.5 434.833,149.5 12.5,149.5C 12.6666,130.164 12.5,110.83 12,91.5C 11.7266,93.1012 11.2266,94.6012 10.5,96C 10.5273,113.625 10.5273,131.458 10.5,149.5C 8.16667,149.5 5.83333,149.5 3.5,149.5C 3.5,107.167 3.5,64.8333 3.5,22.5 Z"/></g>
<g><path style="opacity:1" fill="#1f1f1f" d="M 12.5,149.5 C 434.833,149.5 857.167,149.5 1279.5,149.5C 1279.5,150.167 1279.5,150.833 1279.5,151.5C 856.832,152.166 434.499,151.499 12.5,149.5 Z"/></g>
<g><path style="opacity:1" fill="#222222" d="M 12.5,149.5 C 434.499,151.499 856.832,152.166 1279.5,151.5C 1279.5,188.167 1279.5,224.833 1279.5,261.5C 1237.17,261.667 1194.83,261.5 1152.5,261C 1153.25,260.329 1153.59,259.496 1153.5,258.5C 1155.34,253.472 1157.84,248.805 1161,244.5C 1161.68,243.216 1161.52,242.049 1160.5,241C 1139.01,225.166 1115.35,220.833 1089.5,228C 1074.93,233.39 1065.93,243.557 1062.5,258.5C 1061.6,259.209 1061.26,260.209 1061.5,261.5C 1057.83,261.5 1054.17,261.5 1050.5,261.5C 1050.33,260.178 1050.66,259.011 1051.5,258C 1050.84,248.068 1050.18,238.235 1049.5,228.5C 1040.17,227.167 1030.83,227.167 1021.5,228.5C 1019.76,239.281 1019.09,250.281 1019.5,261.5C 1000.83,261.5 982.167,261.5 963.5,261.5C 963.828,250.321 963.495,239.321 962.5,228.5C 953.676,227.343 944.676,227.176 935.5,228C 934.62,229.356 934.286,230.856 934.5,232.5C 933.82,240.902 933.154,249.402 932.5,258C 932.833,259 933.167,260 933.5,261C 925.5,261.667 917.5,261.667 909.5,261C 910.337,259.989 910.67,258.822 910.5,257.5C 912.907,253.115 915.407,248.782 918,244.5C 918.684,243.216 918.517,242.049 917.5,241C 891.167,221.96 863.5,219.626 834.5,234C 826.272,240.352 821.272,248.519 819.5,258.5C 818.596,259.209 818.263,260.209 818.5,261.5C 812.167,261.5 805.833,261.5 799.5,261.5C 802.136,255.565 805.302,249.898 809,244.5C 809.749,243.365 809.583,242.365 808.5,241.5C 782.31,221.969 754.643,219.469 725.5,234C 716.119,240.866 710.785,250.033 709.5,261.5C 705.587,261.813 701.921,261.147 698.5,259.5C 686.997,236.731 668.331,225.065 642.5,224.5C 615.602,225.442 595.935,237.775 583.5,261.5C 577.5,261.5 571.5,261.5 565.5,261.5C 565.831,233.995 565.498,206.662 564.5,179.5C 554.167,179.5 543.833,179.5 533.5,179.5C 532.502,206.662 532.169,233.995 532.5,261.5C 522.642,262.053 512.976,261.387 503.5,259.5C 483.504,233.491 463.838,207.158 444.5,180.5C 433.52,179.501 422.52,179.168 411.5,179.5C 410.502,206.662 410.169,233.995 410.5,261.5C 390.833,261.5 371.167,261.5 351.5,261.5C 331.212,216.559 296.879,188.892 248.5,178.5C 244.119,176.789 239.453,176.123 234.5,176.5C 217.729,175.409 201.396,177.409 185.5,182.5C 184.479,183.002 184.312,183.668 185,184.5C 188.547,188.91 192.714,192.243 197.5,194.5C 208.135,193.596 218.802,193.263 229.5,193.5C 230.5,193.5 231.5,193.5 232.5,193.5C 235.974,194.525 239.64,195.192 243.5,195.5C 279.242,204.851 305.576,225.851 322.5,258.5C 322.5,259.5 322.5,260.5 322.5,261.5C 318.833,261.5 315.167,261.5 311.5,261.5C 298.209,241.205 280.209,226.872 257.5,218.5C 254.916,216.528 251.916,215.528 248.5,215.5C 243.562,213.053 238.228,212.053 232.5,212.5C 223.472,212.32 214.472,212.653 205.5,213.5C 205.216,215.415 205.549,217.081 206.5,218.5C 206.5,219.167 206.5,219.833 206.5,220.5C 206.5,222.167 206.5,223.833 206.5,225.5C 216.188,225.38 225.854,225.713 235.5,226.5C 252.222,230.028 266.889,237.528 279.5,249C 283.121,252.441 286.121,256.274 288.5,260.5C 285.038,261.482 281.371,261.815 277.5,261.5C 266.073,250.704 252.74,243.704 237.5,240.5C 233.44,238.983 229.107,238.316 224.5,238.5C 221.314,238.502 218.314,238.835 215.5,239.5C 212.848,239.41 210.515,240.076 208.5,241.5C 208.5,242.167 208.5,242.833 208.5,243.5C 207.539,245.265 207.205,247.265 207.5,249.5C 215.5,249.5 223.5,249.5 231.5,249.5C 241.155,250.999 249.822,254.666 257.5,260.5C 224.338,261.498 191.004,261.832 157.5,261.5C 132.888,246.586 108.222,231.586 83.5,216.5C 82.4063,217.868 82.7397,219.035 84.5,220C 101.352,232.697 118.019,245.53 134.5,258.5C 134.577,259.75 135.244,260.583 136.5,261C 131.177,261.499 125.844,261.666 120.5,261.5C 112.742,252.195 105.076,252.195 97.5,261.5C 69.1667,261.5 40.8333,261.5 12.5,261.5C 12.6666,232.498 12.5,203.498 12,174.5C 10.8827,210.651 10.3827,246.817 10.5,283C 10.6667,314.5 10.8333,346 11,377.5C 11.3333,383.167 11.6667,388.833 12,394.5C 12.4999,379.17 12.6666,363.837 12.5,348.5C 39.5741,348.176 66.5741,348.509 93.5,349.5C 93.9321,350.71 94.5987,351.71 95.5,352.5C 108.164,391.824 133.164,420.158 170.5,437.5C 117.833,437.5 65.1667,437.5 12.5,437.5C 12.6665,447.839 12.4998,458.172 12,468.5C 10.9721,458.859 10.4721,449.192 10.5,439.5C 8.16667,439.5 5.83333,439.5 3.5,439.5C 3.5,342.833 3.5,246.167 3.5,149.5C 5.83333,149.5 8.16667,149.5 10.5,149.5C 10.5273,131.458 10.5273,113.625 10.5,96C 11.2266,94.6012 11.7266,93.1012 12,91.5C 12.5,110.83 12.6666,130.164 12.5,149.5 Z"/></g>
<g><path style="opacity:1" fill="#1f4246" d="M 234.5,176.5 C 239.453,176.123 244.119,176.789 248.5,178.5C 243.63,178.31 238.964,177.644 234.5,176.5 Z"/></g>
<g><path style="opacity:1" fill="#0ea3b1" d="M 234.5,176.5 C 238.964,177.644 243.63,178.31 248.5,178.5C 296.879,188.892 331.212,216.559 351.5,261.5C 353.44,265.987 354.773,270.654 355.5,275.5C 359.321,290.919 360.988,306.586 360.5,322.5C 360.599,325.237 360.265,327.904 359.5,330.5C 358.215,333.589 357.549,336.922 357.5,340.5C 356.833,343.833 356.167,347.167 355.5,350.5C 341.614,393.718 313.614,423.718 271.5,440.5C 263.279,443.24 254.945,445.24 246.5,446.5C 230.111,448.036 213.778,447.702 197.5,445.5C 196.833,445.5 196.167,445.5 195.5,445.5C 193.485,444.076 191.152,443.41 188.5,443.5C 182.301,442.066 176.301,440.066 170.5,437.5C 133.164,420.158 108.164,391.824 95.5,352.5C 94.3316,347.676 92.9983,343.009 91.5,338.5C 91.473,332.949 90.8063,327.616 89.5,322.5C 89.5,312.167 89.5,301.833 89.5,291.5C 90.552,291.351 91.552,291.517 92.5,292C 94.0948,294.102 96.0948,295.602 98.5,296.5C 99.1432,306.265 99.8098,315.932 100.5,325.5C 101.231,333.942 103.231,341.942 106.5,349.5C 117.395,379.569 137.062,402.069 165.5,417C 168.758,418.467 172.092,419.633 175.5,420.5C 177.102,422.074 179.102,422.741 181.5,422.5C 182.167,422.833 182.833,423.167 183.5,423.5C 185.515,424.924 187.848,425.59 190.5,425.5C 192.565,425.517 194.565,425.85 196.5,426.5C 197.609,427.29 198.942,427.79 200.5,428C 213.538,428.853 226.538,428.52 239.5,427C 240.056,426.617 240.389,426.117 240.5,425.5C 243.187,425.664 245.854,425.497 248.5,425C 252.848,423.621 256.848,421.787 260.5,419.5C 291.139,406.862 312.805,385.195 325.5,354.5C 327.161,349.926 328.828,345.259 330.5,340.5C 331.927,338.852 332.76,336.852 333,334.5C 333.912,329.536 334.412,324.536 334.5,319.5C 334.5,313.167 334.5,306.833 334.5,300.5C 334.638,295.586 333.972,290.919 332.5,286.5C 332.59,283.848 331.924,281.515 330.5,279.5C 330.741,277.102 330.074,275.102 328.5,273.5C 327.295,268.104 325.295,263.104 322.5,258.5C 305.576,225.851 279.242,204.851 243.5,195.5C 240.155,193.783 236.489,193.116 232.5,193.5C 231.5,193.5 230.5,193.5 229.5,193.5C 220.009,192.342 210.342,192.175 200.5,193C 199.263,193.232 198.263,193.732 197.5,194.5C 192.714,192.243 188.547,188.91 185,184.5C 184.312,183.668 184.479,183.002 185.5,182.5C 201.396,177.409 217.729,175.409 234.5,176.5 Z"/></g>
<g><path style="opacity:1" fill="#425363" d="M 411.5,179.5 C 422.52,179.168 433.52,179.501 444.5,180.5C 463.838,207.158 483.504,233.491 503.5,259.5C 512.824,273.461 522.658,287.128 533,300.5C 533.5,260.168 533.667,219.835 533.5,179.5C 543.833,179.5 554.167,179.5 564.5,179.5C 564.5,238.167 564.5,296.833 564.5,355.5C 554.5,355.5 544.5,355.5 534.5,355.5C 533.728,354.306 532.728,353.306 531.5,352.5C 502.5,312.5 473.5,272.5 444.5,232.5C 444.5,232.167 444.5,231.833 444.5,231.5C 443.791,230.596 442.791,230.263 441.5,230.5C 441.5,272.167 441.5,313.833 441.5,355.5C 431.5,355.5 421.5,355.5 411.5,355.5C 411.5,296.833 411.5,238.167 411.5,179.5 Z"/></g>
<g><path style="opacity:1" fill="#0ea3b1" d="M 150.5,192.5 C 150.427,194.027 151.094,195.027 152.5,195.5C 156.863,215.309 148.863,225.142 128.5,225C 114.909,218.226 110.743,207.726 116,193.5C 127.219,180.677 138.719,180.344 150.5,192.5 Z"/></g>
<g><path style="opacity:1" fill="#1d4346" d="M 229.5,193.5 C 218.802,193.263 208.135,193.596 197.5,194.5C 198.263,193.732 199.263,193.232 200.5,193C 210.342,192.175 220.009,192.342 229.5,193.5 Z"/></g>
<g><path style="opacity:1" fill="#187078" d="M 232.5,193.5 C 236.489,193.116 240.155,193.783 243.5,195.5C 239.64,195.192 235.974,194.525 232.5,193.5 Z"/></g>
<g><path style="opacity:1" fill="#1a6067" d="M 150.5,192.5 C 151.906,192.973 152.573,193.973 152.5,195.5C 151.094,195.027 150.427,194.027 150.5,192.5 Z"/></g>
<g><path style="opacity:1" fill="#196b73" d="M 232.5,212.5 C 232.5,212.833 232.5,213.167 232.5,213.5C 224.114,213.213 215.781,213.713 207.5,215C 206.663,216.011 206.33,217.178 206.5,218.5C 205.549,217.081 205.216,215.415 205.5,213.5C 214.472,212.653 223.472,212.32 232.5,212.5 Z"/></g>
<g><path style="opacity:1" fill="#3d4b58" d="M 1177.5,186.5 C 1197.41,186.227 1204.57,195.561 1199,214.5C 1192.33,222.167 1184.16,224.334 1174.5,221C 1164.75,213.437 1162.92,204.271 1169,193.5C 1171.44,190.546 1174.27,188.213 1177.5,186.5 Z"/></g>
<g><path style="opacity:1" fill="#242526" d="M 1179.5,189.5 C 1196.2,189.926 1201.7,197.926 1196,213.5C 1191.03,219.115 1184.86,220.948 1177.5,219C 1168.23,213.176 1166.06,205.343 1171,195.5C 1173.32,192.605 1176.16,190.605 1179.5,189.5 Z"/></g>
<g><path style="opacity:1" fill="#3e4d5b" d="M 1176.5,194.5 C 1180.51,194.334 1184.51,194.501 1188.5,195C 1192.57,199.384 1192.24,203.551 1187.5,207.5C 1189.39,209.952 1190.73,212.619 1191.5,215.5C 1190.18,215.67 1189.01,215.337 1188,214.5C 1186.37,212.083 1184.87,209.583 1183.5,207C 1182.21,206.51 1180.87,206.343 1179.5,206.5C 1179.5,209.5 1179.5,212.5 1179.5,215.5C 1178.5,215.5 1177.5,215.5 1176.5,215.5C 1176.5,208.5 1176.5,201.5 1176.5,194.5 Z"/></g>
<g><path style="opacity:1" fill="#252628" d="M 1179.5,196.5 C 1181.86,196.337 1184.19,196.503 1186.5,197C 1189.17,199.333 1189.17,201.667 1186.5,204C 1184.19,204.497 1181.86,204.663 1179.5,204.5C 1179.5,201.833 1179.5,199.167 1179.5,196.5 Z"/></g>
<g><path style="opacity:1" fill="#0fa2b1" d="M 232.5,213.5 C 237.833,214.167 243.167,214.833 248.5,215.5C 251.215,217.072 254.215,218.072 257.5,218.5C 280.209,226.872 298.209,241.205 311.5,261.5C 315.069,268.862 318.069,276.529 320.5,284.5C 320.41,287.152 321.076,289.485 322.5,291.5C 326.579,312.112 324.579,332.112 316.5,351.5C 298.591,389.375 268.591,409.375 226.5,411.5C 183.16,411.328 152.16,391.661 133.5,352.5C 129.405,342.209 126.738,331.543 125.5,320.5C 124.911,316.029 125.577,312.029 127.5,308.5C 129.167,308.5 130.833,308.5 132.5,308.5C 132.749,323.047 136.082,336.714 142.5,349.5C 152.926,370.595 169.26,384.928 191.5,392.5C 193.102,394.074 195.102,394.741 197.5,394.5C 198.919,395.451 200.585,395.784 202.5,395.5C 207.925,396.984 213.591,397.651 219.5,397.5C 223.349,397.499 227.016,397.165 230.5,396.5C 231.167,396.5 231.833,396.5 232.5,396.5C 235.228,396.829 237.562,396.163 239.5,394.5C 241.527,394.662 243.527,394.495 245.5,394C 246.056,393.617 246.389,393.117 246.5,392.5C 277.602,381.057 296.602,359.057 303.5,326.5C 304.268,325.737 304.768,324.737 305,323.5C 305.824,314.324 305.657,305.324 304.5,296.5C 304.59,293.848 303.924,291.515 302.5,289.5C 300.299,279.801 296.465,270.801 291,262.5C 290.292,261.619 289.458,260.953 288.5,260.5C 286.121,256.274 283.121,252.441 279.5,249C 266.889,237.528 252.222,230.028 235.5,226.5C 233.708,225.691 231.708,225.191 229.5,225C 222.174,224.5 214.841,224.334 207.5,224.5C 207.768,222.901 207.434,221.568 206.5,220.5C 206.5,219.833 206.5,219.167 206.5,218.5C 206.33,217.178 206.663,216.011 207.5,215C 215.781,213.713 224.114,213.213 232.5,213.5 Z"/></g>
<g><path style="opacity:1" fill="#1f4b50" d="M 232.5,213.5 C 232.5,213.167 232.5,212.833 232.5,212.5C 238.228,212.053 243.562,213.053 248.5,215.5C 243.167,214.833 237.833,214.167 232.5,213.5 Z"/></g>
<g><path style="opacity:1" fill="#1b626a" d="M 248.5,215.5 C 251.916,215.528 254.916,216.528 257.5,218.5C 254.215,218.072 251.215,217.072 248.5,215.5 Z"/></g>
<g><path style="opacity:1" fill="#0fa1b0" d="M 170.5,221.5 C 179.853,219.779 186.687,223.112 191,231.5C 193.151,247.344 186.318,254.844 170.5,254C 160.586,249.007 157.086,241.173 160,230.5C 162.489,226.168 165.989,223.168 170.5,221.5 Z"/></g>
<g><path style="opacity:1" fill="#109eac" d="M 157.5,261.5 C 181.068,274.712 202.401,291.045 221.5,310.5C 220.833,310.833 220.167,311.167 219.5,311.5C 206.133,306.649 193.466,300.483 181.5,293C 165.955,281.282 150.289,269.782 134.5,258.5C 118.019,245.53 101.352,232.697 84.5,220C 82.7397,219.035 82.4063,217.868 83.5,216.5C 108.222,231.586 132.888,246.586 157.5,261.5 Z"/></g>
<g><path style="opacity:1" fill="#204347" d="M 206.5,220.5 C 207.434,221.568 207.768,222.901 207.5,224.5C 214.841,224.334 222.174,224.5 229.5,225C 231.708,225.191 233.708,225.691 235.5,226.5C 225.854,225.713 216.188,225.38 206.5,225.5C 206.5,223.833 206.5,222.167 206.5,220.5 Z"/></g>
<g><path style="opacity:1" fill="#425363" d="M 698.5,259.5 C 700.595,262.876 701.929,266.542 702.5,270.5C 703.986,280.432 704.653,290.432 704.5,300.5C 671.833,300.5 639.167,300.5 606.5,300.5C 606.263,301.791 606.596,302.791 607.5,303.5C 612.26,324.262 625.26,335.262 646.5,336.5C 652.207,335.988 657.874,335.154 663.5,334C 671.121,331.028 678.121,327.361 684.5,323C 688.624,328.746 692.624,334.58 696.5,340.5C 692.317,344.084 687.984,347.418 683.5,350.5C 657.549,362.779 631.882,362.446 606.5,349.5C 591.167,337.956 581.667,322.622 578,303.5C 577.333,295.5 577.333,287.5 578,279.5C 579.649,273.402 581.482,267.402 583.5,261.5C 595.935,237.775 615.602,225.442 642.5,224.5C 668.331,225.065 686.997,236.731 698.5,259.5 Z"/></g>
<g><path style="opacity:1" fill="#425362" d="M 799.5,261.5 C 795.826,260.018 792.493,257.852 789.5,255C 777.027,247.609 763.694,245.275 749.5,248C 736.511,253.01 734.177,260.843 742.5,271.5C 758.191,275.897 773.857,280.397 789.5,285C 809.178,292.522 817.345,306.689 814,327.5C 810.94,336.967 805.44,344.634 797.5,350.5C 770.176,363.009 743.176,362.343 716.5,348.5C 712.947,345.558 709.614,342.392 706.5,339C 710.037,332.092 714.203,325.592 719,319.5C 735.116,334.426 753.949,339.592 775.5,335C 784.474,331.392 788.308,324.892 787,315.5C 783.94,312.386 780.44,309.886 776.5,308C 763.244,304.353 749.91,301.019 736.5,298C 719.232,291.905 710.232,279.738 709.5,261.5C 710.785,250.033 716.119,240.866 725.5,234C 754.643,219.469 782.31,221.969 808.5,241.5C 809.583,242.365 809.749,243.365 809,244.5C 805.302,249.898 802.136,255.565 799.5,261.5 Z"/></g>
<g><path style="opacity:1" fill="#425362" d="M 910.5,257.5 C 909.579,258.981 908.412,260.314 907,261.5C 893.008,249.282 876.841,244.782 858.5,248C 849.218,250.92 845.385,257.087 847,266.5C 848.046,268.09 849.213,269.59 850.5,271C 867.443,276.153 884.443,281.153 901.5,286C 925.396,299.198 930.23,317.698 916,341.5C 912.938,344.732 909.771,347.732 906.5,350.5C 881.16,362.466 855.827,362.466 830.5,350.5C 824.509,348.015 819.509,344.182 815.5,339C 819.257,332.242 823.423,325.742 828,319.5C 844.202,334.18 863.035,339.347 884.5,335C 893.474,331.392 897.308,324.892 896,315.5C 892.057,311.779 887.557,308.945 882.5,307C 870.178,304.005 857.844,301.005 845.5,298C 826.661,291.641 817.995,278.474 819.5,258.5C 821.272,248.519 826.272,240.352 834.5,234C 863.5,219.626 891.167,221.96 917.5,241C 918.517,242.049 918.684,243.216 918,244.5C 915.407,248.782 912.907,253.115 910.5,257.5 Z"/></g>
<g><path style="opacity:1" fill="#425362" d="M 1153.5,258.5 C 1152.15,259.483 1151.15,260.816 1150.5,262.5C 1136.58,249.543 1120.25,244.71 1101.5,248C 1089.75,252.609 1087.09,260.109 1093.5,270.5C 1106.81,275.413 1120.48,279.246 1134.5,282C 1165.74,292.401 1173.91,312.235 1159,341.5C 1154.7,346.364 1149.87,350.364 1144.5,353.5C 1120.38,362.31 1096.71,361.31 1073.5,350.5C 1067.85,347.658 1062.85,343.824 1058.5,339C 1062.47,332.222 1066.8,325.722 1071.5,319.5C 1089.62,336.464 1110.29,340.631 1133.5,332C 1142.71,321.699 1141.04,313.699 1128.5,308C 1118.88,305.343 1109.21,303.01 1099.5,301C 1091.11,298.43 1083.11,295.097 1075.5,291C 1065.2,282.568 1060.87,271.735 1062.5,258.5C 1065.93,243.557 1074.93,233.39 1089.5,228C 1115.35,220.833 1139.01,225.166 1160.5,241C 1161.52,242.049 1161.68,243.216 1161,244.5C 1157.84,248.805 1155.34,253.472 1153.5,258.5 Z"/></g>
<g><path style="opacity:1" fill="#364049" d="M 1021.5,228.5 C 1030.83,227.167 1040.17,227.167 1049.5,228.5C 1049.5,271.167 1049.5,313.833 1049.5,356.5C 1039.83,356.5 1030.17,356.5 1020.5,356.5C 1020.82,351.305 1020.49,346.305 1019.5,341.5C 1019.56,340.957 1019.89,340.624 1020.5,340.5C 1021.49,345.456 1021.83,350.456 1021.5,355.5C 1030.5,355.5 1039.5,355.5 1048.5,355.5C 1048.5,313.167 1048.5,270.833 1048.5,228.5C 1039.5,228.5 1030.5,228.5 1021.5,228.5 Z"/></g>
<g><path style="opacity:1" fill="#425363" d="M 962.5,228.5 C 962.333,257.169 962.5,285.835 963,314.5C 965.673,328.015 973.84,334.681 987.5,334.5C 1001.07,334.133 1012.23,328.8 1021,318.5C 1021.5,288.502 1021.67,258.502 1021.5,228.5C 1030.5,228.5 1039.5,228.5 1048.5,228.5C 1048.5,270.833 1048.5,313.167 1048.5,355.5C 1039.5,355.5 1030.5,355.5 1021.5,355.5C 1021.83,350.456 1021.49,345.456 1020.5,340.5C 1019.89,340.624 1019.56,340.957 1019.5,341.5C 1002.02,357.632 981.691,362.798 958.5,357C 953.523,355.503 949.19,353.003 945.5,349.5C 939.748,342.22 936.248,333.887 935,324.5C 934.5,293.835 934.333,263.168 934.5,232.5C 934.286,230.856 934.62,229.356 935.5,228C 944.676,227.176 953.676,227.343 962.5,228.5 Z"/></g>
<g><path style="opacity:1" fill="#3c4955" d="M 444.5,231.5 C 442.835,272.657 441.835,313.99 441.5,355.5C 441.5,313.833 441.5,272.167 441.5,230.5C 442.791,230.263 443.791,230.596 444.5,231.5 Z"/></g>
<g><path style="opacity:1" fill="#213b3d" d="M 215.5,239.5 C 218.314,238.835 221.314,238.502 224.5,238.5C 229.107,238.316 233.44,238.983 237.5,240.5C 235.833,240.5 234.167,240.5 232.5,240.5C 227.025,239.511 221.358,239.178 215.5,239.5 Z"/></g>
<g><path style="opacity:1" fill="#186f78" d="M 215.5,239.5 C 221.358,239.178 227.025,239.511 232.5,240.5C 224.466,240.302 216.466,240.635 208.5,241.5C 210.515,240.076 212.848,239.41 215.5,239.5 Z"/></g>
<g><path style="opacity:1" fill="#10a0ae" d="M 232.5,240.5 C 234.167,240.5 235.833,240.5 237.5,240.5C 252.74,243.704 266.073,250.704 277.5,261.5C 300.639,288.845 303.806,318.512 287,350.5C 264.074,382.199 233.907,392.032 196.5,380C 181.473,373.135 169.806,362.635 161.5,348.5C 154.396,335.487 151.396,321.487 152.5,306.5C 154.167,306.5 155.833,306.5 157.5,306.5C 157.243,328.905 165.576,347.405 182.5,362C 186.748,365.291 191.415,367.791 196.5,369.5C 198.102,371.074 200.102,371.741 202.5,371.5C 203.568,372.434 204.901,372.768 206.5,372.5C 206.918,373.222 207.584,373.722 208.5,374C 215.014,374.82 221.347,374.653 227.5,373.5C 228.833,373.5 230.167,373.5 231.5,373.5C 234.522,373.196 237.522,372.696 240.5,372C 243.025,371.576 245.025,370.41 246.5,368.5C 264.658,360 276.325,346 281.5,326.5C 282.268,325.737 282.768,324.737 283,323.5C 283.823,315.323 283.656,307.323 282.5,299.5C 282.5,299.167 282.5,298.833 282.5,298.5C 282.741,296.102 282.074,294.102 280.5,292.5C 280.741,290.102 280.074,288.102 278.5,286.5C 274.37,275.603 267.37,266.937 257.5,260.5C 249.822,254.666 241.155,250.999 231.5,249.5C 224.018,248.508 216.352,248.175 208.5,248.5C 208.5,246.833 208.5,245.167 208.5,243.5C 208.5,242.833 208.5,242.167 208.5,241.5C 216.466,240.635 224.466,240.302 232.5,240.5 Z"/></g>
<g><path style="opacity:1" fill="#214044" d="M 208.5,243.5 C 208.5,245.167 208.5,246.833 208.5,248.5C 216.352,248.175 224.018,248.508 231.5,249.5C 223.5,249.5 215.5,249.5 207.5,249.5C 207.205,247.265 207.539,245.265 208.5,243.5 Z"/></g>
<g><path style="opacity:1" fill="#262627" d="M 934.5,232.5 C 934.333,263.168 934.5,293.835 935,324.5C 936.248,333.887 939.748,342.22 945.5,349.5C 932.43,347.919 919.43,348.252 906.5,350.5C 909.771,347.732 912.938,344.732 916,341.5C 930.23,317.698 925.396,299.198 901.5,286C 884.443,281.153 867.443,276.153 850.5,271C 849.213,269.59 848.046,268.09 847,266.5C 845.385,257.087 849.218,250.92 858.5,248C 876.841,244.782 893.008,249.282 907,261.5C 908.412,260.314 909.579,258.981 910.5,257.5C 910.67,258.822 910.337,259.989 909.5,261C 917.5,261.667 925.5,261.667 933.5,261C 933.167,260 932.833,259 932.5,258C 933.154,249.402 933.82,240.902 934.5,232.5 Z"/></g>
<g><path style="opacity:1" fill="#272727" d="M 962.5,228.5 C 963.495,239.321 963.828,250.321 963.5,261.5C 982.167,261.5 1000.83,261.5 1019.5,261.5C 1019.09,250.281 1019.76,239.281 1021.5,228.5C 1021.67,258.502 1021.5,288.502 1021,318.5C 1012.23,328.8 1001.07,334.133 987.5,334.5C 973.84,334.681 965.673,328.015 963,314.5C 962.5,285.835 962.333,257.169 962.5,228.5 Z"/></g>
<g><path style="opacity:1" fill="#10a0ae" d="M 120.5,261.5 C 121.569,264.408 121.736,267.408 121,270.5C 117.551,277.474 112.051,279.974 104.5,278C 97.8792,274.264 95.5459,268.764 97.5,261.5C 105.076,252.195 112.742,252.195 120.5,261.5 Z"/></g>
<g><path style="opacity:1" fill="#262626" d="M 633.5,247.5 C 655.058,245.018 669.891,253.685 678,273.5C 678.497,276.146 678.664,278.813 678.5,281.5C 654.5,281.5 630.5,281.5 606.5,281.5C 608.908,264.775 617.908,253.442 633.5,247.5 Z"/></g>
<g><path style="opacity:1" fill="#2d3136" d="M 564.5,179.5 C 565.498,206.662 565.831,233.995 565.5,261.5C 565.5,290.5 565.5,319.5 565.5,348.5C 565.5,351.167 565.5,353.833 565.5,356.5C 554.986,356.828 544.653,356.494 534.5,355.5C 544.5,355.5 554.5,355.5 564.5,355.5C 564.5,296.833 564.5,238.167 564.5,179.5 Z"/></g>
<g><path style="opacity:1" fill="#272727" d="M 799.5,261.5 C 805.833,261.5 812.167,261.5 818.5,261.5C 818.263,260.209 818.596,259.209 819.5,258.5C 817.995,278.474 826.661,291.641 845.5,298C 857.844,301.005 870.178,304.005 882.5,307C 887.557,308.945 892.057,311.779 896,315.5C 897.308,324.892 893.474,331.392 884.5,335C 863.035,339.347 844.202,334.18 828,319.5C 823.423,325.742 819.257,332.242 815.5,339C 819.509,344.182 824.509,348.015 830.5,350.5C 825.042,348.973 819.376,348.306 813.5,348.5C 807.946,348.278 802.612,348.945 797.5,350.5C 805.44,344.634 810.94,336.967 814,327.5C 817.345,306.689 809.178,292.522 789.5,285C 773.857,280.397 758.191,275.897 742.5,271.5C 734.177,260.843 736.511,253.01 749.5,248C 763.694,245.275 777.027,247.609 789.5,255C 792.493,257.852 795.826,260.018 799.5,261.5 Z"/></g>
<g><path style="opacity:1" fill="#262626" d="M 1153.5,258.5 C 1153.59,259.496 1153.25,260.329 1152.5,261C 1194.83,261.5 1237.17,261.667 1279.5,261.5C 1279.5,290.5 1279.5,319.5 1279.5,348.5C 1237.5,348.333 1195.5,348.5 1153.5,349C 1151.03,351.547 1148.03,353.047 1144.5,353.5C 1149.87,350.364 1154.7,346.364 1159,341.5C 1173.91,312.235 1165.74,292.401 1134.5,282C 1120.48,279.246 1106.81,275.413 1093.5,270.5C 1087.09,260.109 1089.75,252.609 1101.5,248C 1120.25,244.71 1136.58,249.543 1150.5,262.5C 1151.15,260.816 1152.15,259.483 1153.5,258.5 Z"/></g>
<g><path style="opacity:1" fill="#373737" d="M 12.5,261.5 C 12.5,290.5 12.5,319.5 12.5,348.5C 12.6666,363.837 12.4999,379.17 12,394.5C 11.6667,388.833 11.3333,383.167 11,377.5C 10.8333,346 10.6667,314.5 10.5,283C 10.3827,246.817 10.8827,210.651 12,174.5C 12.5,203.498 12.6666,232.498 12.5,261.5 Z"/></g>
<g><path style="opacity:1" fill="#262727" d="M 134.5,258.5 C 150.289,269.782 165.955,281.282 181.5,293C 193.466,300.483 206.133,306.649 219.5,311.5C 220.167,311.167 220.833,310.833 221.5,310.5C 202.401,291.045 181.068,274.712 157.5,261.5C 191.004,261.832 224.338,261.498 257.5,260.5C 267.37,266.937 274.37,275.603 278.5,286.5C 278.259,288.898 278.926,290.898 280.5,292.5C 280.259,294.898 280.926,296.898 282.5,298.5C 282.5,298.833 282.5,299.167 282.5,299.5C 282.716,308.533 282.383,317.533 281.5,326.5C 276.325,346 264.658,360 246.5,368.5C 241.443,370.299 236.443,371.966 231.5,373.5C 230.167,373.5 228.833,373.5 227.5,373.5C 220.457,373.72 213.457,373.386 206.5,372.5C 204.901,372.768 203.568,372.434 202.5,371.5C 200.898,369.926 198.898,369.259 196.5,369.5C 191.415,367.791 186.748,365.291 182.5,362C 165.576,347.405 157.243,328.905 157.5,306.5C 155.833,306.5 154.167,306.5 152.5,306.5C 151.396,321.487 154.396,335.487 161.5,348.5C 154.978,348.177 148.645,348.51 142.5,349.5C 136.082,336.714 132.749,323.047 132.5,308.5C 130.833,308.5 129.167,308.5 127.5,308.5C 126.791,307.596 125.791,307.263 124.5,307.5C 124.182,312.032 124.515,316.366 125.5,320.5C 126.738,331.543 129.405,342.209 133.5,352.5C 131.896,351.713 131.229,350.38 131.5,348.5C 122.983,348.174 114.65,348.507 106.5,349.5C 103.231,341.942 101.231,333.942 100.5,325.5C 101.14,315.442 100.473,305.775 98.5,296.5C 96.0948,295.602 94.0948,294.102 92.5,292C 91.552,291.517 90.552,291.351 89.5,291.5C 89.5,301.833 89.5,312.167 89.5,322.5C 89.376,328.069 90.0427,333.402 91.5,338.5C 91.1868,342.413 91.8534,346.079 93.5,349.5C 66.5741,348.509 39.5741,348.176 12.5,348.5C 12.5,319.5 12.5,290.5 12.5,261.5C 40.8333,261.5 69.1667,261.5 97.5,261.5C 95.5459,268.764 97.8792,274.264 104.5,278C 112.051,279.974 117.551,277.474 121,270.5C 121.736,267.408 121.569,264.408 120.5,261.5C 125.844,261.666 131.177,261.499 136.5,261C 135.244,260.583 134.577,259.75 134.5,258.5 Z"/></g>
<g><path style="opacity:1" fill="#262929" d="M 322.5,258.5 C 325.295,263.104 327.295,268.104 328.5,273.5C 328.259,275.898 328.926,277.898 330.5,279.5C 330.41,282.152 331.076,284.485 332.5,286.5C 332.362,291.414 333.028,296.081 334.5,300.5C 334.5,306.833 334.5,313.167 334.5,319.5C 333.092,326.37 331.759,333.37 330.5,340.5C 328.828,345.259 327.161,349.926 325.5,354.5C 325.261,352.533 325.594,350.699 326.5,349C 324.167,348.333 321.833,348.333 319.5,349C 318.922,350.417 317.922,351.25 316.5,351.5C 324.579,332.112 326.579,312.112 322.5,291.5C 322.59,288.848 321.924,286.515 320.5,284.5C 318.069,276.529 315.069,268.862 311.5,261.5C 315.167,261.5 318.833,261.5 322.5,261.5C 322.5,260.5 322.5,259.5 322.5,258.5 Z"/></g>
<g><path style="opacity:1" fill="#262626" d="M 351.5,261.5 C 371.167,261.5 390.833,261.5 410.5,261.5C 410.5,290.5 410.5,319.5 410.5,348.5C 392.83,348.333 375.164,348.5 357.5,349C 356.956,349.717 356.289,350.217 355.5,350.5C 356.167,347.167 356.833,343.833 357.5,340.5C 358.222,340.082 358.722,339.416 359,338.5C 359.497,335.854 359.664,333.187 359.5,330.5C 360.265,327.904 360.599,325.237 360.5,322.5C 362.843,306.431 361.176,290.764 355.5,275.5C 354.773,270.654 353.44,265.987 351.5,261.5 Z"/></g>
<g><path style="opacity:1" fill="#262626" d="M 444.5,232.5 C 473.5,272.5 502.5,312.5 531.5,352.5C 529.922,351.934 528.588,350.934 527.5,349.5C 499.508,348.5 471.508,348.167 443.5,348.5C 443.168,309.663 443.501,270.996 444.5,232.5 Z"/></g>
<g><path style="opacity:1" fill="#262727" d="M 533.5,179.5 C 533.667,219.835 533.5,260.168 533,300.5C 522.658,287.128 512.824,273.461 503.5,259.5C 512.976,261.387 522.642,262.053 532.5,261.5C 532.169,233.995 532.502,206.662 533.5,179.5 Z"/></g>
<g><path style="opacity:1" fill="#262627" d="M 565.5,261.5 C 571.5,261.5 577.5,261.5 583.5,261.5C 581.482,267.402 579.649,273.402 578,279.5C 577.333,287.5 577.333,295.5 578,303.5C 581.667,322.622 591.167,337.956 606.5,349.5C 592.882,348.535 579.216,348.202 565.5,348.5C 565.5,319.5 565.5,290.5 565.5,261.5 Z"/></g>
<g><path style="opacity:1" fill="#272728" d="M 698.5,259.5 C 701.921,261.147 705.587,261.813 709.5,261.5C 710.232,279.738 719.232,291.905 736.5,298C 749.91,301.019 763.244,304.353 776.5,308C 780.44,309.886 783.94,312.386 787,315.5C 788.308,324.892 784.474,331.392 775.5,335C 753.949,339.592 735.116,334.426 719,319.5C 714.203,325.592 710.037,332.092 706.5,339C 709.614,342.392 712.947,345.558 716.5,348.5C 705.067,348.106 694.067,348.773 683.5,350.5C 687.984,347.418 692.317,344.084 696.5,340.5C 692.624,334.58 688.624,328.746 684.5,323C 678.121,327.361 671.121,331.028 663.5,334C 657.874,335.154 652.207,335.988 646.5,336.5C 625.26,335.262 612.26,324.262 607.5,303.5C 639.816,301.507 672.483,300.84 705.5,301.5C 705.666,294.825 705.5,288.158 705,281.5C 704.581,277.608 703.748,273.942 702.5,270.5C 701.929,266.542 700.595,262.876 698.5,259.5 Z"/></g>
<g><path style="opacity:1" fill="#272727" d="M 1049.5,228.5 C 1050.18,238.235 1050.84,248.068 1051.5,258C 1050.66,259.011 1050.33,260.178 1050.5,261.5C 1054.17,261.5 1057.83,261.5 1061.5,261.5C 1061.26,260.209 1061.6,259.209 1062.5,258.5C 1060.87,271.735 1065.2,282.568 1075.5,291C 1083.11,295.097 1091.11,298.43 1099.5,301C 1109.21,303.01 1118.88,305.343 1128.5,308C 1141.04,313.699 1142.71,321.699 1133.5,332C 1110.29,340.631 1089.62,336.464 1071.5,319.5C 1066.8,325.722 1062.47,332.222 1058.5,339C 1062.85,343.824 1067.85,347.658 1073.5,350.5C 1066.04,348.693 1058.38,348.027 1050.5,348.5C 1050.81,351.385 1050.47,354.052 1049.5,356.5C 1049.5,313.833 1049.5,271.167 1049.5,228.5 Z"/></g>
<g><path style="opacity:1" fill="#214f54" d="M 328.5,273.5 C 330.074,275.102 330.741,277.102 330.5,279.5C 328.926,277.898 328.259,275.898 328.5,273.5 Z"/></g>
<g><path style="opacity:1" fill="#1e6066" d="M 355.5,275.5 C 361.176,290.764 362.843,306.431 360.5,322.5C 360.988,306.586 359.321,290.919 355.5,275.5 Z"/></g>
<g><path style="opacity:1" fill="#1c6067" d="M 330.5,279.5 C 331.924,281.515 332.59,283.848 332.5,286.5C 331.076,284.485 330.41,282.152 330.5,279.5 Z"/></g>
<g><path style="opacity:1" fill="#1c6c74" d="M 320.5,284.5 C 321.924,286.515 322.59,288.848 322.5,291.5C 321.076,289.485 320.41,287.152 320.5,284.5 Z"/></g>
<g><path style="opacity:1" fill="#2e3338" d="M 411.5,179.5 C 411.5,238.167 411.5,296.833 411.5,355.5C 421.5,355.5 431.5,355.5 441.5,355.5C 441.835,313.99 442.835,272.657 444.5,231.5C 444.5,231.833 444.5,232.167 444.5,232.5C 443.501,270.996 443.168,309.663 443.5,348.5C 443.5,351.167 443.5,353.833 443.5,356.5C 432.5,356.5 421.5,356.5 410.5,356.5C 410.5,353.833 410.5,351.167 410.5,348.5C 410.5,319.5 410.5,290.5 410.5,261.5C 410.169,233.995 410.502,206.662 411.5,179.5 Z"/></g>
<g><path style="opacity:1" fill="#224d52" d="M 278.5,286.5 C 280.074,288.102 280.741,290.102 280.5,292.5C 278.926,290.898 278.259,288.898 278.5,286.5 Z"/></g>
<g><path style="opacity:1" fill="#1d6067" d="M 302.5,289.5 C 303.924,291.515 304.59,293.848 304.5,296.5C 303.076,294.485 302.41,292.152 302.5,289.5 Z"/></g>
<g><path style="opacity:1" fill="#21575d" d="M 280.5,292.5 C 282.074,294.102 282.741,296.102 282.5,298.5C 280.926,296.898 280.259,294.898 280.5,292.5 Z"/></g>
<g><path style="opacity:1" fill="#1c656c" d="M 332.5,286.5 C 333.972,290.919 334.638,295.586 334.5,300.5C 333.028,296.081 332.362,291.414 332.5,286.5 Z"/></g>
<g><path style="opacity:1" fill="#39444f" d="M 702.5,270.5 C 703.748,273.942 704.581,277.608 705,281.5C 705.5,288.158 705.666,294.825 705.5,301.5C 672.483,300.84 639.816,301.507 607.5,303.5C 606.596,302.791 606.263,301.791 606.5,300.5C 639.167,300.5 671.833,300.5 704.5,300.5C 704.653,290.432 703.986,280.432 702.5,270.5 Z"/></g>
<g><path style="opacity:1" fill="#243739" d="M 98.5,296.5 C 100.473,305.775 101.14,315.442 100.5,325.5C 99.8098,315.932 99.1432,306.265 98.5,296.5 Z"/></g>
<g><path style="opacity:1" fill="#205257" d="M 282.5,299.5 C 283.656,307.323 283.823,315.323 283,323.5C 282.768,324.737 282.268,325.737 281.5,326.5C 282.383,317.533 282.716,308.533 282.5,299.5 Z"/></g>
<g><path style="opacity:1" fill="#204b4f" d="M 127.5,308.5 C 125.577,312.029 124.911,316.029 125.5,320.5C 124.515,316.366 124.182,312.032 124.5,307.5C 125.791,307.263 126.791,307.596 127.5,308.5 Z"/></g>
<g><path style="opacity:1" fill="#1e585e" d="M 304.5,296.5 C 305.657,305.324 305.824,314.324 305,323.5C 304.768,324.737 304.268,325.737 303.5,326.5C 304.396,316.532 304.729,306.532 304.5,296.5 Z"/></g>
<g><path style="opacity:1" fill="#1c6168" d="M 89.5,322.5 C 90.8063,327.616 91.473,332.949 91.5,338.5C 90.0427,333.402 89.376,328.069 89.5,322.5 Z"/></g>
<g><path style="opacity:1" fill="#1a737c" d="M 334.5,319.5 C 334.412,324.536 333.912,329.536 333,334.5C 332.76,336.852 331.927,338.852 330.5,340.5C 331.759,333.37 333.092,326.37 334.5,319.5 Z"/></g>
<g><path style="opacity:1" fill="#20565b" d="M 359.5,330.5 C 359.664,333.187 359.497,335.854 359,338.5C 358.722,339.416 358.222,340.082 357.5,340.5C 357.549,336.922 358.215,333.589 359.5,330.5 Z"/></g>
<g><path style="opacity:1" fill="#24494d" d="M 91.5,338.5 C 92.9983,343.009 94.3316,347.676 95.5,352.5C 94.5987,351.71 93.9321,350.71 93.5,349.5C 91.8534,346.079 91.1868,342.413 91.5,338.5 Z"/></g>
<g><path style="opacity:1" fill="#222425" d="M 133.5,352.5 C 152.16,391.661 183.16,411.328 226.5,411.5C 268.591,409.375 298.591,389.375 316.5,351.5C 317.922,351.25 318.922,350.417 319.5,349C 321.833,348.333 324.167,348.333 326.5,349C 325.594,350.699 325.261,352.533 325.5,354.5C 312.805,385.195 291.139,406.862 260.5,419.5C 253.786,421.742 247.119,423.742 240.5,425.5C 225.899,427.806 211.232,428.139 196.5,426.5C 194.565,425.85 192.565,425.517 190.5,425.5C 188.485,424.076 186.152,423.41 183.5,423.5C 182.833,423.167 182.167,422.833 181.5,422.5C 179.898,420.926 177.898,420.259 175.5,420.5C 172.092,419.633 168.758,418.467 165.5,417C 137.062,402.069 117.395,379.569 106.5,349.5C 114.65,348.507 122.983,348.174 131.5,348.5C 131.229,350.38 131.896,351.713 133.5,352.5 Z"/></g>
<g><path style="opacity:1" fill="#242727" d="M 288.5,260.5 C 289.458,260.953 290.292,261.619 291,262.5C 296.465,270.801 300.299,279.801 302.5,289.5C 302.41,292.152 303.076,294.485 304.5,296.5C 304.729,306.532 304.396,316.532 303.5,326.5C 296.602,359.057 277.602,381.057 246.5,392.5C 243.99,392.927 241.657,393.593 239.5,394.5C 236.848,394.41 234.515,395.076 232.5,396.5C 231.833,396.5 231.167,396.5 230.5,396.5C 221.148,396.566 211.815,396.232 202.5,395.5C 200.585,395.784 198.919,395.451 197.5,394.5C 195.898,392.926 193.898,392.259 191.5,392.5C 169.26,384.928 152.926,370.595 142.5,349.5C 148.645,348.51 154.978,348.177 161.5,348.5C 169.806,362.635 181.473,373.135 196.5,380C 233.907,392.032 264.074,382.199 287,350.5C 303.806,318.512 300.639,288.845 277.5,261.5C 281.371,261.815 285.038,261.482 288.5,260.5 Z"/></g>
<g><path style="opacity:1" fill="#222323" d="M 1019.5,341.5 C 1020.49,346.305 1020.82,351.305 1020.5,356.5C 1030.17,356.5 1039.83,356.5 1049.5,356.5C 1050.47,354.052 1050.81,351.385 1050.5,348.5C 1058.38,348.027 1066.04,348.693 1073.5,350.5C 1096.71,361.31 1120.38,362.31 1144.5,353.5C 1148.03,353.047 1151.03,351.547 1153.5,349C 1195.5,348.5 1237.5,348.333 1279.5,348.5C 1279.5,378.167 1279.5,407.833 1279.5,437.5C 1148.5,437.5 1017.5,437.5 886.5,437.5C 892.07,421.588 898.403,405.921 905.5,390.5C 901.764,388.895 898.598,389.561 896,392.5C 891.966,403.32 887.633,413.987 883,424.5C 878.442,413.051 873.609,401.718 868.5,390.5C 866.167,389.167 863.833,389.167 861.5,390.5C 866.753,404.257 872.253,417.924 878,431.5C 878.842,436.133 877.676,440.133 874.5,443.5C 874.966,441.799 874.966,440.299 874.5,439C 875.167,438.667 875.833,438.333 876.5,438C 677.499,437.167 478.499,437.333 279.5,438.5C 276.988,439.795 274.321,440.461 271.5,440.5C 313.614,423.718 341.614,393.718 355.5,350.5C 356.289,350.217 356.956,349.717 357.5,349C 375.164,348.5 392.83,348.333 410.5,348.5C 410.5,351.167 410.5,353.833 410.5,356.5C 421.5,356.5 432.5,356.5 443.5,356.5C 443.5,353.833 443.5,351.167 443.5,348.5C 471.508,348.167 499.508,348.5 527.5,349.5C 528.588,350.934 529.922,351.934 531.5,352.5C 532.728,353.306 533.728,354.306 534.5,355.5C 544.653,356.494 554.986,356.828 565.5,356.5C 565.5,353.833 565.5,351.167 565.5,348.5C 579.216,348.202 592.882,348.535 606.5,349.5C 631.882,362.446 657.549,362.779 683.5,350.5C 694.067,348.773 705.067,348.106 716.5,348.5C 743.176,362.343 770.176,363.009 797.5,350.5C 802.612,348.945 807.946,348.278 813.5,348.5C 819.376,348.306 825.042,348.973 830.5,350.5C 855.827,362.466 881.16,362.466 906.5,350.5C 919.43,348.252 932.43,347.919 945.5,349.5C 949.19,353.003 953.523,355.503 958.5,357C 981.691,362.798 1002.02,357.632 1019.5,341.5 Z"/></g>
<g><path style="opacity:1" fill="#204e53" d="M 196.5,369.5 C 198.898,369.259 200.898,369.926 202.5,371.5C 200.102,371.741 198.102,371.074 196.5,369.5 Z"/></g>
<g><path style="opacity:1" fill="#196e77" d="M 246.5,368.5 C 245.025,370.41 243.025,371.576 240.5,372C 237.522,372.696 234.522,373.196 231.5,373.5C 236.443,371.966 241.443,370.299 246.5,368.5 Z"/></g>
<g><path style="opacity:1" fill="#1c5b61" d="M 206.5,372.5 C 213.457,373.386 220.457,373.72 227.5,373.5C 221.347,374.653 215.014,374.82 208.5,374C 207.584,373.722 206.918,373.222 206.5,372.5 Z"/></g>
<g><path style="opacity:1" fill="#40505f" d="M 722.5,371.5 C 724.833,371.5 727.167,371.5 729.5,371.5C 729.334,379.174 729.5,386.841 730,394.5C 731.938,391.894 734.438,390.061 737.5,389C 749.785,386.061 758.619,390.228 764,401.5C 766.649,413.077 764.149,423.244 756.5,432C 747.157,437.333 738.49,436.5 730.5,429.5C 729.548,431.045 729.215,432.712 729.5,434.5C 727.167,434.5 724.833,434.5 722.5,434.5C 722.5,413.5 722.5,392.5 722.5,371.5 Z"/></g>
<g><path style="opacity:1" fill="#425262" d="M 797.5,371.5 C 799.833,371.5 802.167,371.5 804.5,371.5C 804.5,392.5 804.5,413.5 804.5,434.5C 802.167,434.5 799.833,434.5 797.5,434.5C 797.5,413.5 797.5,392.5 797.5,371.5 Z"/></g>
<g><path style="opacity:1" fill="#404f5e" d="M 777.5,372.5 C 784.297,373.107 785.964,376.274 782.5,382C 778.193,383.308 775.86,381.808 775.5,377.5C 775.437,375.486 776.103,373.819 777.5,372.5 Z"/></g>
<g><path style="opacity:1" fill="#404f5e" d="M 819.5,372.5 C 826.632,372.789 828.298,375.956 824.5,382C 818.498,382.993 816.332,380.493 818,374.5C 818.717,373.956 819.217,373.289 819.5,372.5 Z"/></g>
<g><path style="opacity:1" fill="#415060" d="M 848.5,395.5 C 848.333,406.172 848.5,416.839 849,427.5C 852.112,428.573 855.279,428.573 858.5,427.5C 860.652,431.27 859.652,433.77 855.5,435C 848.563,437.22 843.73,435.053 841,428.5C 840.5,417.505 840.333,406.505 840.5,395.5C 838.167,395.5 835.833,395.5 833.5,395.5C 833.5,393.5 833.5,391.5 833.5,389.5C 836.167,389.5 838.833,389.5 841.5,389.5C 841.5,385.5 841.5,381.5 841.5,377.5C 843.5,377.5 845.5,377.5 847.5,377.5C 847.5,381.5 847.5,385.5 847.5,389.5C 850.5,389.5 853.5,389.5 856.5,389.5C 856.5,391.167 856.5,392.833 856.5,394.5C 853.615,394.194 850.948,394.527 848.5,395.5 Z"/></g>
<g><path style="opacity:1" fill="#37414c" d="M 848.5,395.5 C 850.948,394.527 853.615,394.194 856.5,394.5C 856.5,392.833 856.5,391.167 856.5,389.5C 853.5,389.5 850.5,389.5 847.5,389.5C 847.5,385.5 847.5,381.5 847.5,377.5C 845.5,377.5 843.5,377.5 841.5,377.5C 841.5,381.5 841.5,385.5 841.5,389.5C 838.833,389.5 836.167,389.5 833.5,389.5C 835.607,388.532 837.941,388.198 840.5,388.5C 840.5,384.5 840.5,380.5 840.5,376.5C 843.167,376.5 845.833,376.5 848.5,376.5C 848.5,380.5 848.5,384.5 848.5,388.5C 851.5,388.5 854.5,388.5 857.5,388.5C 857.5,390.833 857.5,393.167 857.5,395.5C 854.5,395.5 851.5,395.5 848.5,395.5 Z"/></g>
<g><path style="opacity:1" fill="#333c45" d="M 522.5,434.5 C 522.5,413.833 522.5,393.167 522.5,372.5C 520.5,372.5 518.5,372.5 516.5,372.5C 516.5,393.167 516.5,413.833 516.5,434.5C 515.503,413.673 515.169,392.673 515.5,371.5C 518.167,371.5 520.833,371.5 523.5,371.5C 523.831,392.673 523.497,413.673 522.5,434.5 Z"/></g>
<g><path style="opacity:1" fill="#435363" d="M 522.5,434.5 C 520.5,434.5 518.5,434.5 516.5,434.5C 516.5,413.833 516.5,393.167 516.5,372.5C 518.5,372.5 520.5,372.5 522.5,372.5C 522.5,393.167 522.5,413.833 522.5,434.5 Z"/></g>
<g><path style="opacity:1" fill="#415160" d="M 573.5,394.5 C 574.425,407.804 574.758,421.137 574.5,434.5C 572.167,434.5 569.833,434.5 567.5,434.5C 567.667,422.495 567.5,410.495 567,398.5C 559.031,392.63 551.698,393.297 545,400.5C 544.5,411.828 544.333,423.162 544.5,434.5C 542.167,434.5 539.833,434.5 537.5,434.5C 537.5,419.5 537.5,404.5 537.5,389.5C 539.5,389.5 541.5,389.5 543.5,389.5C 543.5,391.167 543.5,392.833 543.5,394.5C 544.791,394.737 545.791,394.404 546.5,393.5C 549.924,389.31 554.424,387.643 560,388.5C 565.964,387.402 570.464,389.402 573.5,394.5 Z"/></g>
<g><path style="opacity:1" fill="#40505e" d="M 600.5,388.5 C 620.275,386.291 630.275,394.957 630.5,414.5C 618.5,414.5 606.5,414.5 594.5,414.5C 595.753,425.914 602.086,430.747 613.5,429C 617.281,428.076 620.781,426.576 624,424.5C 625.394,425.613 626.561,426.947 627.5,428.5C 619.294,435.464 609.961,437.297 599.5,434C 588.074,426.963 583.908,416.797 587,403.5C 589.972,397.033 594.472,392.033 600.5,388.5 Z"/></g>
<g><path style="opacity:1" fill="#405160" d="M 641.5,388.5 C 643.833,388.5 646.167,388.5 648.5,388.5C 648.201,390.604 648.534,392.604 649.5,394.5C 653.233,390.3 657.899,388.3 663.5,388.5C 663.5,390.5 663.5,392.5 663.5,394.5C 657.478,394.353 652.644,396.686 649,401.5C 648.5,412.495 648.333,423.495 648.5,434.5C 646.167,434.5 643.833,434.5 641.5,434.5C 641.5,419.167 641.5,403.833 641.5,388.5 Z"/></g>
<g><path style="opacity:1" fill="#40505f" d="M 942.5,388.5 C 948.176,388.334 953.843,388.501 959.5,389C 963.046,390.267 966.046,392.267 968.5,395C 968,396.833 966.833,398 965,398.5C 958.983,394.788 952.483,393.621 945.5,395C 942.148,398.078 941.814,401.411 944.5,405C 949.011,406.836 953.677,408.17 958.5,409C 962.345,410.42 965.678,412.587 968.5,415.5C 971.153,425.026 967.82,431.526 958.5,435C 951.129,436.31 944.129,435.31 937.5,432C 933.719,429.248 933.719,426.414 937.5,423.5C 942.829,428.584 949.162,430.418 956.5,429C 962.659,426.988 963.993,423.322 960.5,418C 955.356,415.73 950.022,414.063 944.5,413C 936.613,410.133 933.447,404.633 935,396.5C 937.028,393.308 939.528,390.641 942.5,388.5 Z"/></g>
<g><path style="opacity:1" fill="#405060" d="M 992.5,388.5 C 997.844,388.334 1003.18,388.501 1008.5,389C 1012.25,390.2 1015.25,392.366 1017.5,395.5C 1016.46,397.375 1014.96,398.708 1013,399.5C 1010.84,398.015 1008.68,396.515 1006.5,395C 991.798,393.702 984.964,400.535 986,415.5C 988.795,426.295 995.628,430.462 1006.5,428C 1009.1,427.117 1011.27,425.617 1013,423.5C 1014.15,424.743 1015.49,425.743 1017,426.5C 1015.61,430.877 1012.44,433.71 1007.5,435C 993.047,437.854 983.547,432.354 979,418.5C 976.205,405.097 980.705,395.097 992.5,388.5 Z"/></g>
<g><path style="opacity:1" fill="#40505f" d="M 1094.5,387.5 C 1102.85,385.998 1109.35,388.665 1114,395.5C 1114.5,408.496 1114.67,421.496 1114.5,434.5C 1112.17,434.5 1109.83,434.5 1107.5,434.5C 1107.67,422.495 1107.5,410.495 1107,398.5C 1101.77,394.173 1095.94,393.34 1089.5,396C 1088,397.5 1086.5,399 1085,400.5C 1084.5,411.828 1084.33,423.162 1084.5,434.5C 1082.17,434.5 1079.83,434.5 1077.5,434.5C 1077.5,419.167 1077.5,403.833 1077.5,388.5C 1079.83,388.5 1082.17,388.5 1084.5,388.5C 1084.34,390.527 1084.5,392.527 1085,394.5C 1088.15,392.024 1091.31,389.69 1094.5,387.5 Z"/></g>
<g><path style="opacity:1" fill="#415160" d="M 1129.5,388.5 C 1131.83,388.5 1134.17,388.5 1136.5,388.5C 1136.21,390.288 1136.55,391.955 1137.5,393.5C 1143.64,388.709 1150.64,387.209 1158.5,389C 1161.1,389.883 1163.27,391.383 1165,393.5C 1166.41,407.115 1166.91,420.782 1166.5,434.5C 1164.17,434.5 1161.83,434.5 1159.5,434.5C 1159.67,422.829 1159.5,411.162 1159,399.5C 1156.53,395.85 1153.03,394.184 1148.5,394.5C 1143.52,394.242 1139.68,396.242 1137,400.5C 1136.5,411.828 1136.33,423.162 1136.5,434.5C 1134.17,434.5 1131.83,434.5 1129.5,434.5C 1129.5,419.167 1129.5,403.833 1129.5,388.5 Z"/></g>
<g><path style="opacity:1" fill="#40505f" d="M 1192.5,388.5 C 1212.17,386.174 1222.17,394.841 1222.5,414.5C 1210.5,414.5 1198.5,414.5 1186.5,414.5C 1187.11,423.78 1192.11,428.78 1201.5,429.5C 1206.74,428.922 1211.57,427.255 1216,424.5C 1219.29,426.95 1219.12,429.45 1215.5,432C 1200.63,439.297 1188.8,436.13 1180,422.5C 1175.19,407.576 1179.35,396.243 1192.5,388.5 Z"/></g>
<g><path style="opacity:1" fill="#40505f" d="M 412.5,389.5 C 415.972,388.963 418.805,389.963 421,392.5C 425.333,403.167 429.667,413.833 434,424.5C 439.127,413.377 443.96,402.043 448.5,390.5C 451.106,389.348 453.773,389.182 456.5,390C 450.365,404.438 444.365,418.938 438.5,433.5C 435.628,434.783 432.795,434.783 430,433.5C 423.292,419.099 417.459,404.433 412.5,389.5 Z"/></g>
<g><path style="opacity:1" fill="#415261" d="M 472.5,422.5 C 473.202,427.354 476.035,429.354 481,428.5C 486.469,428.513 490.969,426.513 494.5,422.5C 495.495,411.679 495.828,400.679 495.5,389.5C 497.5,389.5 499.5,389.5 501.5,389.5C 501.5,404.5 501.5,419.5 501.5,434.5C 499.167,434.5 496.833,434.5 494.5,434.5C 494.785,432.712 494.452,431.045 493.5,429.5C 485.052,436.527 476.219,437.193 467,431.5C 466.215,429.751 465.382,428.084 464.5,426.5C 464.5,414.167 464.5,401.833 464.5,389.5C 466.833,389.5 469.167,389.5 471.5,389.5C 471.172,400.679 471.505,411.679 472.5,422.5 Z"/></g>
<g><path style="opacity:1" fill="#343d47" d="M 546.5,393.5 C 545.791,394.404 544.791,394.737 543.5,394.5C 543.5,392.833 543.5,391.167 543.5,389.5C 541.5,389.5 539.5,389.5 537.5,389.5C 537.5,404.5 537.5,419.5 537.5,434.5C 536.504,419.342 536.17,404.009 536.5,388.5C 539.167,388.5 541.833,388.5 544.5,388.5C 544.077,390.781 544.744,392.448 546.5,393.5 Z"/></g>
<g><path style="opacity:1" fill="#37414c" d="M 782.5,434.5 C 782.5,419.5 782.5,404.5 782.5,389.5C 780.5,389.5 778.5,389.5 776.5,389.5C 776.5,404.5 776.5,419.5 776.5,434.5C 775.504,419.342 775.17,404.009 775.5,388.5C 778.167,388.5 780.833,388.5 783.5,388.5C 783.83,404.009 783.496,419.342 782.5,434.5 Z"/></g>
<g><path style="opacity:1" fill="#425363" d="M 782.5,434.5 C 780.5,434.5 778.5,434.5 776.5,434.5C 776.5,419.5 776.5,404.5 776.5,389.5C 778.5,389.5 780.5,389.5 782.5,389.5C 782.5,404.5 782.5,419.5 782.5,434.5 Z"/></g>
<g><path style="opacity:1" fill="#2a3034" d="M 825.5,434.5 C 825.5,419.5 825.5,404.5 825.5,389.5C 823.167,389.5 820.833,389.5 818.5,389.5C 818.5,404.5 818.5,419.5 818.5,434.5C 817.504,419.342 817.17,404.009 817.5,388.5C 820.5,388.5 823.5,388.5 826.5,388.5C 826.83,404.009 826.496,419.342 825.5,434.5 Z"/></g>
<g><path style="opacity:1" fill="#425262" d="M 825.5,434.5 C 823.167,434.5 820.833,434.5 818.5,434.5C 818.5,419.5 818.5,404.5 818.5,389.5C 820.833,389.5 823.167,389.5 825.5,389.5C 825.5,404.5 825.5,419.5 825.5,434.5 Z"/></g>
<g><path style="opacity:1" fill="#40505f" d="M 886.5,437.5 C 884.669,442.083 882.003,446.25 878.5,450C 874.454,452.174 870.121,453.007 865.5,452.5C 865.5,450.5 865.5,448.5 865.5,446.5C 867.857,446.663 870.19,446.497 872.5,446C 873.381,445.292 874.047,444.458 874.5,443.5C 877.676,440.133 878.842,436.133 878,431.5C 872.253,417.924 866.753,404.257 861.5,390.5C 863.833,389.167 866.167,389.167 868.5,390.5C 873.609,401.718 878.442,413.051 883,424.5C 887.633,413.987 891.966,403.32 896,392.5C 898.598,389.561 901.764,388.895 905.5,390.5C 898.403,405.921 892.07,421.588 886.5,437.5 Z"/></g>
<g><path style="opacity:1" fill="#415160" d="M 1233.5,388.5 C 1235.83,388.5 1238.17,388.5 1240.5,388.5C 1240.2,390.604 1240.53,392.604 1241.5,394.5C 1245.23,390.3 1249.9,388.3 1255.5,388.5C 1255.5,390.5 1255.5,392.5 1255.5,394.5C 1249.84,395.005 1245,397.338 1241,401.5C 1240.5,412.495 1240.33,423.495 1240.5,434.5C 1238.17,434.5 1235.83,434.5 1233.5,434.5C 1233.5,419.167 1233.5,403.833 1233.5,388.5 Z"/></g>
<g><path style="opacity:1" fill="#1d5055" d="M 191.5,392.5 C 193.898,392.259 195.898,392.926 197.5,394.5C 195.102,394.741 193.102,394.074 191.5,392.5 Z"/></g>
<g><path style="opacity:1" fill="#196e77" d="M 246.5,392.5 C 246.389,393.117 246.056,393.617 245.5,394C 243.527,394.495 241.527,394.662 239.5,394.5C 241.657,393.593 243.99,392.927 246.5,392.5 Z"/></g>
<g><path style="opacity:1" fill="#222323" d="M 601.5,394.5 C 609.815,392.745 616.648,395.079 622,401.5C 623.202,403.677 623.702,406.011 623.5,408.5C 613.833,408.5 604.167,408.5 594.5,408.5C 594.421,405.729 594.921,403.063 596,400.5C 598.04,398.63 599.873,396.63 601.5,394.5 Z"/></g>
<g><path style="opacity:1" fill="#222323" d="M 1193.5,394.5 C 1201.81,392.745 1208.65,395.079 1214,401.5C 1215.2,403.677 1215.7,406.011 1215.5,408.5C 1205.83,408.5 1196.17,408.5 1186.5,408.5C 1186.34,406.473 1186.5,404.473 1187,402.5C 1189,399.669 1191.17,397.003 1193.5,394.5 Z"/></g>
<g><path style="opacity:1" fill="#196f78" d="M 239.5,394.5 C 237.562,396.163 235.228,396.829 232.5,396.5C 234.515,395.076 236.848,394.41 239.5,394.5 Z"/></g>
<g><path style="opacity:1" fill="#212222" d="M 739.5,394.5 C 744.287,393.97 748.62,395.137 752.5,398C 754.774,400.344 755.941,403.178 756,406.5C 759.096,418.646 754.763,426.313 743,429.5C 737.616,429.044 733.282,426.711 730,422.5C 729.333,415.167 729.333,407.833 730,400.5C 732.551,397.319 735.718,395.319 739.5,394.5 Z"/></g>
<g><path style="opacity:1" fill="#1b595f" d="M 202.5,395.5 C 211.815,396.232 221.148,396.566 230.5,396.5C 227.016,397.165 223.349,397.499 219.5,397.5C 213.591,397.651 207.925,396.984 202.5,395.5 Z"/></g>
<g><path style="opacity:1" fill="#2a2f34" d="M 472.5,422.5 C 471.505,411.679 471.172,400.679 471.5,389.5C 469.167,389.5 466.833,389.5 464.5,389.5C 464.5,401.833 464.5,414.167 464.5,426.5C 463.505,414.011 463.171,401.344 463.5,388.5C 466.5,388.5 469.5,388.5 472.5,388.5C 472.5,399.833 472.5,411.167 472.5,422.5 Z"/></g>
<g><path style="opacity:1" fill="#354049" d="M 501.5,434.5 C 501.5,419.5 501.5,404.5 501.5,389.5C 499.5,389.5 497.5,389.5 495.5,389.5C 495.828,400.679 495.495,411.679 494.5,422.5C 494.5,411.167 494.5,399.833 494.5,388.5C 497.167,388.5 499.833,388.5 502.5,388.5C 502.83,404.009 502.496,419.342 501.5,434.5 Z"/></g>
<g><path style="opacity:1" fill="#40505f" d="M 682.5,388.5 C 689.391,387.901 696.058,388.735 702.5,391C 704,392.5 705.5,394 707,395.5C 708.462,408.401 708.962,421.401 708.5,434.5C 705.833,434.5 703.167,434.5 700.5,434.5C 700.719,433.325 700.386,432.325 699.5,431.5C 692.051,436.072 684.384,436.572 676.5,433C 670.885,428.032 669.052,421.865 671,414.5C 675.666,406.587 682.499,403.754 691.5,406C 694.284,406.892 696.95,408.058 699.5,409.5C 700.659,405.878 700.825,402.211 700,398.5C 694.869,394.601 689.035,393.435 682.5,395C 680.545,395.953 678.878,397.287 677.5,399C 676.365,399.749 675.365,399.583 674.5,398.5C 673.167,397.38 672.667,396.047 673,394.5C 675.843,391.837 679.009,389.837 682.5,388.5 Z"/></g>
<g><path style="opacity:1" fill="#40505f" d="M 1036.5,388.5 C 1041.84,388.334 1047.18,388.501 1052.5,389C 1056.47,389.964 1059.64,392.131 1062,395.5C 1063.46,408.401 1063.96,421.401 1063.5,434.5C 1061.17,434.5 1058.83,434.5 1056.5,434.5C 1056.76,433.022 1056.43,431.689 1055.5,430.5C 1047.96,435.988 1039.96,436.821 1031.5,433C 1025.74,427.763 1023.91,421.263 1026,413.5C 1034.27,404.364 1043.77,403.031 1054.5,409.5C 1056.65,403.66 1055.32,398.826 1050.5,395C 1046.17,394.333 1041.83,394.333 1037.5,395C 1035.54,395.953 1033.88,397.287 1032.5,399C 1031.36,399.749 1030.36,399.583 1029.5,398.5C 1028.17,397.38 1027.67,396.047 1028,394.5C 1030.64,392.109 1033.47,390.109 1036.5,388.5 Z"/></g>
<g><path style="opacity:1" fill="#2f363d" d="M 573.5,394.5 C 574.268,395.263 574.768,396.263 575,397.5C 575.827,410.007 575.66,422.34 574.5,434.5C 574.758,421.137 574.425,407.804 573.5,394.5 Z"/></g>
<g><path style="opacity:1" fill="#222323" d="M 684.5,410.5 C 690.613,409.41 695.779,411.077 700,415.5C 701.789,427.372 696.623,432.206 684.5,430C 678.184,427.535 676.018,423.035 678,416.5C 680.037,414.294 682.203,412.294 684.5,410.5 Z"/></g>
<g><path style="opacity:1" fill="#212223" d="M 1039.5,410.5 C 1045.46,409.734 1050.63,411.401 1055,415.5C 1057.35,422.541 1055.18,427.374 1048.5,430C 1041.89,432.003 1036.73,430.17 1033,424.5C 1032.33,421.833 1032.33,419.167 1033,416.5C 1035.06,414.266 1037.23,412.266 1039.5,410.5 Z"/></g>
<g><path style="opacity:1" fill="#1d494e" d="M 175.5,420.5 C 177.898,420.259 179.898,420.926 181.5,422.5C 179.102,422.741 177.102,422.074 175.5,420.5 Z"/></g>
<g><path style="opacity:1" fill="#17737d" d="M 260.5,419.5 C 256.848,421.787 252.848,423.621 248.5,425C 245.854,425.497 243.187,425.664 240.5,425.5C 247.119,423.742 253.786,421.742 260.5,419.5 Z"/></g>
<g><path style="opacity:1" fill="#17676f" d="M 183.5,423.5 C 186.152,423.41 188.485,424.076 190.5,425.5C 187.848,425.59 185.515,424.924 183.5,423.5 Z"/></g>
<g><path style="opacity:1" fill="#186a72" d="M 240.5,425.5 C 240.389,426.117 240.056,426.617 239.5,427C 226.538,428.52 213.538,428.853 200.5,428C 198.942,427.79 197.609,427.29 196.5,426.5C 211.232,428.139 225.899,427.806 240.5,425.5 Z"/></g>
<g><path style="opacity:1" fill="#1b1b1b" d="M 170.5,437.5 C 176.301,440.066 182.301,442.066 188.5,443.5C 190.515,444.924 192.848,445.59 195.5,445.5C 196.167,445.5 196.833,445.5 197.5,445.5C 200.258,446.761 203.258,447.594 206.5,448C 218.833,448.667 231.167,448.667 243.5,448C 244.737,447.768 245.737,447.268 246.5,446.5C 254.945,445.24 263.279,443.24 271.5,440.5C 274.321,440.461 276.988,439.795 279.5,438.5C 478.499,437.333 677.499,437.167 876.5,438C 875.833,438.333 875.167,438.667 874.5,439C 874.966,440.299 874.966,441.799 874.5,443.5C 874.047,444.458 873.381,445.292 872.5,446C 870.19,446.497 867.857,446.663 865.5,446.5C 865.5,448.5 865.5,450.5 865.5,452.5C 870.121,453.007 874.454,452.174 878.5,450C 882.003,446.25 884.669,442.083 886.5,437.5C 1017.5,437.5 1148.5,437.5 1279.5,437.5C 1279.5,473.5 1279.5,509.5 1279.5,545.5C 857.167,545.5 434.833,545.5 12.5,545.5C 12.1667,549.5 11.8333,549.5 11.5,545.5C 8.83333,545.5 6.16667,545.5 3.5,545.5C 3.5,510.167 3.5,474.833 3.5,439.5C 5.83333,439.5 8.16667,439.5 10.5,439.5C 10.4721,449.192 10.9721,458.859 12,468.5C 12.4998,458.172 12.6665,447.839 12.5,437.5C 65.1667,437.5 117.833,437.5 170.5,437.5 Z"/></g>
<g><path style="opacity:1" fill="#19555b" d="M 188.5,443.5 C 191.152,443.41 193.485,444.076 195.5,445.5C 192.848,445.59 190.515,444.924 188.5,443.5 Z"/></g>
<g><path style="opacity:1" fill="#1a5d64" d="M 197.5,445.5 C 213.778,447.702 230.111,448.036 246.5,446.5C 245.737,447.268 244.737,447.768 243.5,448C 231.167,448.667 218.833,448.667 206.5,448C 203.258,447.594 200.258,446.761 197.5,445.5 Z"/></g>
<g><path style="opacity:1" fill="#161616" d="M 3.5,545.5 C 6.16667,545.5 8.83333,545.5 11.5,545.5C 11.8333,549.5 12.1667,549.5 12.5,545.5C 434.833,545.5 857.167,545.5 1279.5,545.5C 1279.5,568.5 1279.5,591.5 1279.5,614.5C 854.167,614.5 428.833,614.5 3.5,614.5C 3.5,591.5 3.5,568.5 3.5,545.5 Z"/></g>
</svg>
