<?xml version="1.0" encoding="UTF-8"?>
<svg version="1.1" xmlns="http://www.w3.org/2000/svg" width="300" height="150">
<path d="M0 0 C11.06275627 6.57678213 17.32323591 15.94138831 21.5 27.875 C24.30585667 41.2028192 21.71200738 52.70574276 14.58984375 63.99609375 C13.4612683 65.70939075 12.32552381 67.41796428 11.1875 69.125 C16.6325 69.62 16.6325 69.62 22.1875 70.125 C22.1875 74.085 22.1875 78.045 22.1875 82.125 C15.94361512 82.17469116 9.69984712 82.21085699 3.45581055 82.23486328 C1.33469638 82.24487844 -0.78640413 82.25849446 -2.9074707 82.27587891 C-5.96829616 82.30032525 -9.02893797 82.31152825 -12.08984375 82.3203125 C-13.4966465 82.33579636 -13.4966465 82.33579636 -14.93186951 82.35159302 C-28.33157185 82.35384148 -37.68868631 78.74091807 -47.48046875 69.55078125 C-55.89345518 60.79958431 -59.39880779 51.30226855 -59.25 39.25 C-59.24097656 38.37158447 -59.23195313 37.49316895 -59.22265625 36.58813477 C-58.90732521 24.75336685 -54.78013443 15.92629772 -46.8125 7.125 C-33.77763061 -4.05357343 -15.92739847 -7.37250759 0 0 Z M-41.8125 19.125 C-46.80465025 27.05298054 -48.75341791 34.79533511 -47.8125 44.125 C-45.45543214 53.82265064 -41.23261438 61.25950255 -32.6875 66.5625 C-25.33243609 70.7670303 -17.52470637 71.36089032 -9.3125 69.1875 C-2.10454488 66.47331441 4.22478482 60.63302502 7.75 53.8125 C11.09148749 45.24085818 11.81246039 35.52232687 8.625 26.75 C4.92644508 18.84677211 -0.94365245 12.90529171 -8.8125 9.125 C-21.3068084 5.08119894 -33.42791465 9.47998679 -41.8125 19.125 Z " fill="#169875" transform="translate(71.8125,36.875)"/>
<path d="M0 0 C4.16625 -0.0825 8.3325 -0.165 12.625 -0.25 C13.92775879 -0.28641602 15.23051758 -0.32283203 16.57275391 -0.36035156 C27.29357384 -0.46326081 27.29357384 -0.46326081 32 4 C35.10104944 7.4976953 36.82071062 10.88442162 37.5625 15.5 C36.95808639 19.2607958 35.81246151 21.90598296 33.97265625 25.203125 C32.85679467 27.14043364 32.85679467 27.14043364 32 30 C33.23850828 32.27206247 34.50189553 34.35964425 35.9375 36.5 C40 42.61748748 40 42.61748748 40 46 C35.20044961 46.5991117 30.77634893 46.86558288 26 46 C21.65851416 42.3083544 19.10726885 37.57542432 18 32 C16.35 32 14.7 32 13 32 C13 36.62 13 41.24 13 46 C8.71 46 4.42 46 0 46 C0 30.82 0 15.64 0 0 Z M13 12 C13 14.64 13 17.28 13 20 C14.47906892 20.02689216 15.95827483 20.04634621 17.4375 20.0625 C18.67306641 20.07990234 18.67306641 20.07990234 19.93359375 20.09765625 C21.99163938 20.23267348 21.99163938 20.23267348 23 19 C23.04080783 17.00041636 23.04254356 14.99954746 23 13 C19.42181037 10.66041447 17.07775191 11.0732382 13 12 Z " fill="#169874" transform="translate(105,73)"/>
<path d="M0 0 C4.29 0 8.58 0 13 0 C13 11.88 13 23.76 13 36 C13.99 36 14.98 36 16 36 C16 39.96 16 43.92 16 48 C4.75 48.40178571 4.75 48.40178571 1 45 C0.38125 45.495 -0.2375 45.99 -0.875 46.5 C-5.29595481 48.62205831 -9.17644844 48.68907879 -14 48 C-18.89472807 45.64327908 -21.31615602 42.67187656 -24 38 C-25.80211131 32.59366608 -25.73284031 27.04423876 -23.8125 21.6875 C-21.42353611 18.1452432 -18.87398832 14.93699416 -15 13 C-12.7578125 12.796875 -12.7578125 12.796875 -10.125 12.75 C-8.82949219 12.71132812 -8.82949219 12.71132812 -7.5078125 12.671875 C-5 13 -5 13 -1 16 C-0.67 10.72 -0.34 5.44 0 0 Z M-9.75 25 C-11.84024784 28.34439654 -11.37057443 31.10896854 -11 35 C-8.09561011 37.37727232 -8.09561011 37.37727232 -4.375 36.75 C-3.26125 36.5025 -2.1475 36.255 -1 36 C0.42041821 33.15916359 0.31452272 31.14522722 0 28 C-1.62580082 25.54047777 -1.62580082 25.54047777 -4 24 C-7.75709864 23.66924071 -7.75709864 23.66924071 -9.75 25 Z " fill="#169875" transform="translate(208,71)"/>
<path d="M0 0 C3.77954604 2.99353425 5.73935147 5.37040889 6.6484375 10.09765625 C6.71532341 12.01326879 6.73375469 13.93101217 6.7109375 15.84765625 C6.70191406 16.8325 6.69289063 17.81734375 6.68359375 18.83203125 C6.67199219 19.5796875 6.66039062 20.32734375 6.6484375 21.09765625 C7.6384375 21.42765625 8.6284375 21.75765625 9.6484375 22.09765625 C9.6484375 25.72765625 9.6484375 29.35765625 9.6484375 33.09765625 C-0.69002404 33.58996394 -0.69002404 33.58996394 -4.0390625 31.09765625 C-4.4721875 30.43765625 -4.9053125 29.77765625 -5.3515625 29.09765625 C-5.9703125 29.75765625 -6.5890625 30.41765625 -7.2265625 31.09765625 C-11.61064819 33.90347109 -15.27645499 33.77489465 -20.3515625 33.09765625 C-23.95544253 31.71744688 -25.05585669 30.5313581 -27.2265625 27.34765625 C-28.64236032 23.25757366 -28.67975353 21.22980611 -27.3515625 17.09765625 C-24.43985733 13.78484884 -21.5431917 11.49486598 -17.3515625 10.09765625 C-15.62360898 10.02962658 -13.89320885 10.0126998 -12.1640625 10.03515625 C-11.26300781 10.04417969 -10.36195313 10.05320312 -9.43359375 10.0625 C-8.74652344 10.07410156 -8.05945313 10.08570312 -7.3515625 10.09765625 C-7.6815625 9.43765625 -8.0115625 8.77765625 -8.3515625 8.09765625 C-14.64295035 7.80251442 -14.64295035 7.80251442 -20.3515625 10.09765625 C-21.3415625 10.09765625 -22.3315625 10.09765625 -23.3515625 10.09765625 C-24.9140625 7.28515625 -24.9140625 7.28515625 -26.3515625 4.09765625 C-25.3515625 1.09765625 -25.3515625 1.09765625 -22.7265625 -0.58984375 C-15.84333514 -3.28016962 -6.42621945 -3.64751617 0 0 Z M-14.3515625 18.09765625 C-14.6815625 19.74765625 -15.0115625 21.39765625 -15.3515625 23.09765625 C-13.0500214 23.87567812 -13.0500214 23.87567812 -10.3515625 24.09765625 C-8.04652206 22.76612359 -8.04652206 22.76612359 -6.3515625 21.09765625 C-6.6815625 20.10765625 -7.0115625 19.11765625 -7.3515625 18.09765625 C-9.6615625 18.09765625 -11.9715625 18.09765625 -14.3515625 18.09765625 Z " fill="#179875" transform="translate(253.3515625,85.90234375)"/>
<path d="M0 0 C3.27393332 2.82748787 4.50574928 4.20310053 5.75 8.375 C5.97792453 12.72110644 5.92414679 17.02778012 5.75 21.375 C6.74 21.375 7.73 21.375 8.75 21.375 C8.75 25.335 8.75 29.295 8.75 33.375 C-2.5 33.77678571 -2.5 33.77678571 -6.25 30.375 C-6.86875 30.87 -7.4875 31.365 -8.125 31.875 C-12.53099057 33.98987547 -16.44493301 34.21934085 -21.25 33.375 C-24.36886578 31.68404867 -26.64018854 29.59462291 -28.25 26.375 C-28.75301361 21.34486386 -28.8576821 19.34014216 -26.125 15 C-21.96007573 11.19724306 -18.51329971 10.29716781 -13 10.1875 C-9.25 10.375 -9.25 10.375 -7.25 11.375 C-7.91 10.385 -8.57 9.395 -9.25 8.375 C-14.48685512 7.93859541 -18.31944421 8.40277768 -23.25 10.375 C-25.3125 7.5625 -25.3125 7.5625 -27.25 4.375 C-26.25 1.375 -26.25 1.375 -23.625 -0.3125 C-16.77817896 -2.98304431 -6.63337268 -3.3875557 0 0 Z M-14.25 18.375 C-14.91 19.695 -15.57 21.015 -16.25 22.375 C-15.59 23.035 -14.93 23.695 -14.25 24.375 C-11.15073181 24.05301034 -11.15073181 24.05301034 -8.25 23.375 C-7.92 21.725 -7.59 20.075 -7.25 18.375 C-9.56 18.375 -11.87 18.375 -14.25 18.375 Z " fill="#179875" transform="translate(173.25,85.625)"/>
<path d="M0 0 C4.29 0 8.58 0 13 0 C13.33 0.99 13.66 1.98 14 3 C14.804375 2.2575 14.804375 2.2575 15.625 1.5 C18 0 18 0 24 0 C24 3.96 24 7.92 24 12 C21.03 12.66 18.06 13.32 15 14 C14.67 20.93 14.34 27.86 14 35 C9.38 35 4.76 35 0 35 C0 23.45 0 11.9 0 0 Z " fill="#169874" transform="translate(265,84)"/>
<path d="M0 0 C7.84661825 0.0327625 13.08237692 1.78523636 19 7 C24.4148096 12.62761871 27.70715165 19.21681027 28.1875 27.0625 C28.0946875 28.0215625 28.0946875 28.0215625 28 29 C25.36 29 22.72 29 20 29 C19.79246094 28.20335938 19.58492187 27.40671875 19.37109375 26.5859375 C17.34315289 19.61117854 15.54043287 14.61244839 9 11 C6.04713811 9.77277555 3.09473124 8.79999855 0 8 C0 5.36 0 2.72 0 0 Z " fill="#179874" transform="translate(53,47)"/>
<path d="M0 0 C5.02245446 0.478329 8.0674916 1.83689542 12 5 C15.48521211 9.23877149 16.56416015 12.55200186 17 18 C14.69 18 12.38 18 10 18 C9.7525 16.906875 9.505 15.81375 9.25 14.6875 C7.96158675 10.88668091 7.44946027 9.82618485 4 8 C1.85266073 7.29485154 1.85266073 7.29485154 0 7 C0 4.69 0 2.38 0 0 Z " fill="#189677" transform="translate(53,58)"/>
</svg>
