<?xml version="1.0" encoding="UTF-8"?>
<svg version="1.1" xmlns="http://www.w3.org/2000/svg" width="200" height="200">
<path d="M0 0 C66 0 132 0 200 0 C200 66 200 132 200 200 C134 200 68 200 0 200 C0 134 0 68 0 0 Z " fill="#E72D05" transform="translate(0,0)"/>
<path d="M0 0 C11.55 0 23.1 0 35 0 C35 1.32 35 2.64 35 4 C35.598125 4.2475 36.19625 4.495 36.8125 4.75 C40.23599979 6.7062856 41.62904939 9.06171316 43.0625 12.6875 C43.76803846 15.15938605 43.76803846 15.15938605 46 16 C46.75169604 17.73216913 47.49937408 19.46655382 48.203125 21.21875 C49.17710299 23.39587727 50.54106008 25.12422011 52 27 C52 27.66 52 28.32 52 29 C52.99 29.33 53.98 29.66 55 30 C55.433125 30.94875 55.86625 31.8975 56.3125 32.875 C57.73208452 36.24462261 57.73208452 36.24462261 61.0625 37.4375 C64 39 64 39 65.125 42.1875 C65.41375 43.445625 65.7025 44.70375 66 46 C68.21022471 51.72597075 71.37777749 55.82029753 75.70703125 60.140625 C77 62 77 62 77.01171875 64.109375 C75.57862792 66.78742892 73.82222419 67.13162333 71 68 C69.84372186 66.44521347 68.7003781 64.88080281 67.5625 63.3125 C66.92441406 62.44238281 66.28632812 61.57226562 65.62890625 60.67578125 C64.01028351 58.01689258 63.3916038 56.06112831 63 53 C61.35 53 59.7 53 58 53 C57.76539063 53.59296875 57.53078125 54.1859375 57.2890625 54.796875 C55.70104575 57.51094 54.02397116 58.58493241 51.375 60.25 C50.55773438 60.77078125 49.74046875 61.2915625 48.8984375 61.828125 C48.27195313 62.21484375 47.64546875 62.6015625 47 63 C47.7940625 63.13535156 48.588125 63.27070312 49.40625 63.41015625 C52.35597071 64.08095117 52.96530746 64.8805286 55 67 C56.175625 67.4021875 56.175625 67.4021875 57.375 67.8125 C61.0518367 69.47583089 62.73674438 71.70211324 65 75 C65.3125 77.875 65.3125 77.875 65 80 C65.99 80 66.98 80 68 80 C68.625 81.875 68.625 81.875 69 84 C68.34 84.66 67.68 85.32 67 86 C65.68 84.68 64.36 83.36 63 82 C62.34 82.66 61.68 83.32 61 84 C61.99 84 62.98 84 64 84 C64 85.32 64 86.64 64 88 C64.66 88.33 65.32 88.66 66 89 C64.1746875 88.9690625 64.1746875 88.9690625 62.3125 88.9375 C56.18359142 88.92770941 50.10210174 89.47184282 44 90 C44 91.32 44 92.64 44 94 C41.03 93.505 41.03 93.505 38 93 C39.06940202 96.74290707 39.97848962 97.9832219 43.125 100.4375 C46 103 46 103 46.6875 106.0625 C46 109 46 109 43.8125 111.3125 C41.08301905 112.95018857 39.13584232 113.64161802 36 114 C36.99 114.99 36.99 114.99 38 116 C37.01 116.33 36.02 116.66 35 117 C34.26676204 119.01508358 34.26676204 119.01508358 34 121 C34.99 121.495 34.99 121.495 36 122 C35.773125 122.845625 35.54625 123.69125 35.3125 124.5625 C34.91338585 128.95275565 35.90006972 131.15012782 38 135 C39.64694485 136.68615782 41.31126121 138.35570171 43 140 C43.8125 142.3125 43.8125 142.3125 44 144 C45.32 144.33 46.64 144.66 48 145 C48 147.31 48 149.62 48 152 C48.99 152 49.98 152 51 152 C51.33 152.99 51.66 153.98 52 155 C50.5625 157.6875 50.5625 157.6875 49 160 C49.99 160.33 50.98 160.66 52 161 C51.195625 161.7425 50.39125 162.485 49.5625 163.25 C46.6205356 166.2014966 46.6205356 166.2014966 46 170 C47.39092892 172.62387135 47.39092892 172.62387135 49 175 C49 175.66 49 176.32 49 177 C49.66 177 50.32 177 51 177 C52.54847421 179.32271131 53.83960065 181.64912641 55 184.1875 C56.00322742 186.33477942 56.00322742 186.33477942 59 188 C59 188.99 59 189.98 59 191 C59.66 191.33 60.32 191.66 61 192 C60.67 193.32 60.34 194.64 60 196 C61.32 196 62.64 196 64 196 C64.33 197.32 64.66 198.64 65 200 C43.55 200 22.1 200 0 200 C0 134 0 68 0 0 Z M54 157 C54.66 157.33 55.32 157.66 56 158 C55.34 158.66 54.68 159.32 54 160 C53.01 159.67 52.02 159.34 51 159 C51.99 158.34 52.98 157.68 54 157 Z " fill="#E21E06" transform="translate(0,0)"/>
<path d="M0 0 C2.31 0 4.62 0 7 0 C7 0.33 7 0.66 7 1 C5.02 1 3.04 1 1 1 C1 11.56 1 22.12 1 33 C3.97 33 6.94 33 10 33 C10.969375 33.53625 11.93875 34.0725 12.9375 34.625 C16.99052011 36.44472331 19.22360555 35.51508786 23.421875 34.484375 C26.71516794 33.86563511 29.46499478 34.20841439 32.75 34.70703125 C36.50266134 35.19565903 40.22072762 35.05998845 44 35 C43.97679688 34.04738281 43.95359375 33.09476563 43.9296875 32.11328125 C43.91164063 30.85902344 43.89359375 29.60476562 43.875 28.3125 C43.85179688 27.07113281 43.82859375 25.82976562 43.8046875 24.55078125 C43.98967979 21.18762143 44.54232105 19.0014413 46 16 C47.98 16.495 47.98 16.495 50 17 C50.06058594 18.09699219 50.12117188 19.19398437 50.18359375 20.32421875 C50.26804498 21.77865654 50.35269066 23.23308305 50.4375 24.6875 C50.47681641 25.40873047 50.51613281 26.12996094 50.55664062 26.87304688 C50.8307947 32.5094155 50.8307947 32.5094155 52 38 C53.485 38.99 53.485 38.99 55 40 C55 40.66 55 41.32 55 42 C55.63903117 43.67745682 56.30341637 45.34561387 57 47 C57.99 47 58.98 47 60 47 C60.21914062 47.6290625 60.43828125 48.258125 60.6640625 48.90625 C62.61761371 54.17925003 64.78556029 58.35320143 68.28515625 62.734375 C70.43096909 65.56938968 72.3198231 68.54108076 74.1875 71.5625 C74.84105469 72.61566406 75.49460937 73.66882813 76.16796875 74.75390625 C78 78 78 78 79.54296875 81.671875 C80.83929479 84.63292001 81.92012602 86.39952775 84.125 88.6875 C86.46185538 91.12317762 87.2530163 92.7319463 88 96 C89.31129922 97.35500919 90.64691687 98.68671343 92 100 C93.02535687 101.65118777 94.02231876 103.32014371 95 105 C95.52980469 105.84820312 96.05960938 106.69640625 96.60546875 107.5703125 C97.12753906 108.41335937 97.64960938 109.25640625 98.1875 110.125 C98.71730469 110.97320312 99.24710938 111.82140625 99.79296875 112.6953125 C101 115 101 115 101 118 C101.66 118 102.32 118 103 118 C103 118.99 103 119.98 103 121 C66.37 121 29.74 121 -8 121 C-8.33 119.68 -8.66 118.36 -9 117 C-10.98 117.495 -10.98 117.495 -13 118 C-13 115 -13 115 -12 113 C-13.485 112.505 -13.485 112.505 -15 112 C-15 111.01 -15 110.02 -15 109 C-16.58688218 107.1750855 -18.37636989 105.66664381 -20.1875 104.0625 C-22 102 -22 102 -22 98 C-22.66 98 -23.32 98 -24 98 C-25.72264494 94.70450534 -27.29445932 91.66881155 -28 88 C-26.02 86.35 -24.04 84.7 -22 83 C-22.99 82.01 -23.98 81.02 -25 80 C-24.2575 78.824375 -24.2575 78.824375 -23.5 77.625 C-21.83462035 75.21447673 -21.83462035 75.21447673 -22 73 C-22.99 73 -23.98 73 -25 73 C-26.125 68.25 -26.125 68.25 -25 66 C-25.5775 65.979375 -26.155 65.95875 -26.75 65.9375 C-29.87314569 64.6361893 -30.53194902 62.65320352 -31.97265625 59.69140625 C-33.03752726 57.66934811 -33.03752726 57.66934811 -36 56 C-37.01953125 53.9765625 -37.01953125 53.9765625 -37.8125 51.625 C-38.08707031 50.85414063 -38.36164062 50.08328125 -38.64453125 49.2890625 C-39.07639362 46.50805865 -38.47152664 45.34374062 -37 43 C-37.99 42.67 -38.98 42.34 -40 42 C-38.25 38.125 -38.25 38.125 -36 37 C-36.99 36.01 -37.98 35.02 -39 34 C-38.37351563 33.87882812 -37.74703125 33.75765625 -37.1015625 33.6328125 C-35.87566406 33.38144531 -35.87566406 33.38144531 -34.625 33.125 C-33.40683594 32.88136719 -33.40683594 32.88136719 -32.1640625 32.6328125 C-29.81326077 32.13341068 -29.81326077 32.13341068 -28 30 C-27.24755499 27.1724011 -27.24755499 27.1724011 -28 24 C-29.70779122 22.27091462 -31.48095388 20.88837763 -33.46875 19.4921875 C-33.9740625 18.99976562 -34.479375 18.50734375 -35 18 C-35 16.68 -35 15.36 -35 14 C-33.02 14 -31.04 14 -29 14 C-29 13.34 -29 12.68 -29 12 C-29.66 11.34 -30.32 10.68 -31 10 C-27.79224458 9.80159605 -24.58379499 9.61824575 -21.375 9.4375 C-20.47136719 9.38142578 -19.56773438 9.32535156 -18.63671875 9.26757812 C-13.91943783 9.00933282 -9.65068353 8.95707263 -5 10 C-5 10.66 -5 11.32 -5 12 C-3.68 12.33 -2.36 12.66 -1 13 C-0.505 6.565 -0.505 6.565 0 0 Z M-20.625 79.5 C-21.07875 79.995 -21.5325 80.49 -22 81 C-20.02463255 80.65213292 -20.02463255 80.65213292 -18 80 C-17.67 79.34 -17.34 78.68 -17 78 C-19.12364481 77.77390663 -19.12364481 77.77390663 -20.625 79.5 Z " fill="#E11E08" transform="translate(73,79)"/>
<path d="M0 0 C30.69 0 61.38 0 93 0 C93 65.34 93 130.68 93 198 C92.34 198 91.68 198 91 198 C90.4225 196.96875 89.845 195.9375 89.25 194.875 C87.84271244 192.39214266 86.38150836 190.10662318 84.75 187.75 C83 185 83 185 83 182 C82.34 182 81.68 182 81 182 C79.85121668 179.89739659 78.70588808 177.79303461 77.5625 175.6875 C77.23701172 175.09259766 76.91152344 174.49769531 76.57617188 173.88476562 C75.16262616 171.27626374 73.94051367 168.82154101 73 166 C72.34 166 71.68 166 71 166 C69.7599543 164.087288 68.60663133 162.11787422 67.5 160.125 C65.13228841 155.77382622 65.13228841 155.77382622 62 152 C62 151.01 62 150.02 62 149 C61.34 149 60.68 149 60 149 C59.731875 148.05125 59.46375 147.1025 59.1875 146.125 C58.25013412 142.74732727 58.25013412 142.74732727 55 141 C53.56847724 138.38591496 52.32487785 135.71866918 51.09765625 133.00390625 C48.96857913 128.48068618 46.68121663 125.47670459 43 122 C43 121.34 43 120.68 43 120 C42.01 119.505 42.01 119.505 41 119 C41.33 118.34 41.66 117.68 42 117 C41.01 116.505 41.01 116.505 40 116 C40.495 114.515 40.495 114.515 41 113 C42.3921875 113.0928125 42.3921875 113.0928125 43.8125 113.1875 C46.98395103 113.30894264 46.98395103 113.30894264 48.875 111.5 C49.24625 111.005 49.6175 110.51 50 110 C50.33 110.33 50.66 110.66 51 111 C55.09789669 110.62056512 57.53958935 110.30694043 61 108 C63.33010909 107.32215008 65.66359824 106.65583207 68 106 C69.35350594 105.37530495 70.69934483 104.7283669 72 104 C71.505 100.04 71.505 100.04 71 96 C69.02 95.67 67.04 95.34 65 95 C65 94.01 65 93.02 65 92 C63.02 91.67 61.04 91.34 59 91 C58.79375 89.88625 58.5875 88.7725 58.375 87.625 C57.38709168 83.77439442 57.38709168 83.77439442 54.0625 82.5625 C49.87573455 81.79350227 48.62259178 81.58493881 45 84 C42.5625 83.1875 42.5625 83.1875 40 82 C38.67323492 81.64141484 37.34164079 81.2981424 36 81 C36.495 79.02 36.495 79.02 37 77 C36.34 77 35.68 77 35 77 C35 76.34 35 75.68 35 75 C34.38125 74.9175 33.7625 74.835 33.125 74.75 C31 74 31 74 29.875 72.3125 C28.8354652 69.56515803 27.89061283 66.79906888 27 64 C26.34 64 25.68 64 25 64 C24.03810003 62.27281484 23.08063492 60.54315942 22.125 58.8125 C21.32449219 57.36810547 21.32449219 57.36810547 20.5078125 55.89453125 C17.98396947 51.04953724 16.59725049 46.51440654 15.5625 41.18359375 C14.97607435 38.90712197 14.05983736 37.09069479 13 35 C12.85304688 34.37480469 12.70609375 33.74960937 12.5546875 33.10546875 C11.80820666 30.2719957 10.4869204 27.9042142 9.125 25.3125 C2.72740178 12.67146255 2.72740178 12.67146255 3.3125 6.9375 C3.539375 6.298125 3.76625 5.65875 4 5 C2.35 4.01 0.7 3.02 -1 2 C-0.67 1.34 -0.34 0.68 0 0 Z " fill="#DF130D" transform="translate(107,0)"/>
<path d="M0 0 C4.13988842 1.0349721 7.30737151 2.74053035 10.9375 4.875 C11.54529297 5.22691406 12.15308594 5.57882813 12.77929688 5.94140625 C14.52369497 6.95379695 16.26198 7.97669842 18 9 C18.95132812 9.5259375 19.90265625 10.051875 20.8828125 10.59375 C23 12 23 12 23.9375 14.625 C24.288125 15.40875 24.63875 16.1925 25 17 C28.05272465 17.89830839 28.05272465 17.89830839 31 18 C31.33 17.34 31.66 16.68 32 16 C33.34500955 17.06880223 34.67571438 18.15562508 36 19.25 C36.7425 19.85328125 37.485 20.4565625 38.25 21.078125 C40 23 40 23 40 27 C34.25 27.125 34.25 27.125 32 26 C32 26.99 32 27.98 32 29 C32.66 29.33 33.32 29.66 34 30 C34 30.66 34 31.32 34 32 C35.32 32.66 36.64 33.32 38 34 C37.01 34.33 36.02 34.66 35 35 C34.26676204 37.01508358 34.26676204 37.01508358 34 39 C34.99 39.495 34.99 39.495 36 40 C35.773125 40.845625 35.54625 41.69125 35.3125 42.5625 C34.91338585 46.95275565 35.90006972 49.15012782 38 53 C39.64694485 54.68615782 41.31126121 56.35570171 43 58 C43.8125 60.3125 43.8125 60.3125 44 62 C45.32 62.33 46.64 62.66 48 63 C48 65.31 48 67.62 48 70 C48.99 70 49.98 70 51 70 C51.33 70.99 51.66 71.98 52 73 C50.5625 75.6875 50.5625 75.6875 49 78 C49.99 78.33 50.98 78.66 52 79 C51.195625 79.7425 50.39125 80.485 49.5625 81.25 C46.6205356 84.2014966 46.6205356 84.2014966 46 88 C47.39092892 90.62387135 47.39092892 90.62387135 49 93 C49 93.66 49 94.32 49 95 C49.66 95 50.32 95 51 95 C52.54847421 97.32271131 53.83960065 99.64912641 55 102.1875 C56.00322742 104.33477942 56.00322742 104.33477942 59 106 C59 106.99 59 107.98 59 109 C59.99 109.495 59.99 109.495 61 110 C60.505 111.98 60.505 111.98 60 114 C61.32 114 62.64 114 64 114 C64.33 115.32 64.66 116.64 65 118 C43.55 118 22.1 118 0 118 C0 79.06 0 40.12 0 0 Z M54 75 C54.66 75.33 55.32 75.66 56 76 C55.34 76.66 54.68 77.32 54 78 C53.01 77.67 52.02 77.34 51 77 C51.99 76.34 52.98 75.68 54 75 Z " fill="#D80030" transform="translate(0,82)"/>
<path d="M0 0 C2.31 0 4.62 0 7 0 C7.33 3.96 7.66 7.92 8 12 C8.33 11.34 8.66 10.68 9 10 C11.31 10 13.62 10 16 10 C16.495 18.415 16.495 18.415 17 27 C21.47702364 28.06537205 21.47702364 28.06537205 24 28 C24.33 22.06 24.66 16.12 25 10 C29.95 9.67 34.9 9.34 40 9 C38.68 7.35 37.36 5.7 36 4 C36.33 3.34 36.66 2.68 37 2 C38.32 2 39.64 2 41 2 C41 2.66 41 3.32 41 4 C42.32 4.33 43.64 4.66 45 5 C44.67 6.32 44.34 7.64 44 9 C44.5775 8.690625 45.155 8.38125 45.75 8.0625 C47.84294184 7.07416636 49.74535275 6.4831387 52 6 C56.673972 10.72615351 57.7590382 13.80513822 57.8125 20.375 C57.83763672 21.11105469 57.86277344 21.84710938 57.88867188 22.60546875 C57.94703593 24.40308149 57.97650538 26.2015935 58 28 C58.33 28 58.66 28 59 28 C59.33 18.76 59.66 9.52 60 0 C61.98 0 63.96 0 66 0 C66.495 8.91 66.495 8.91 67 18 C70.7258644 13.71418455 70.7258644 13.71418455 72 9 C78.75 8.875 78.75 8.875 81 10 C82.46726798 6.18510326 81.43336419 3.70988378 80 0 C83.71305811 0.71404964 86.78177028 2.01428379 90 4 C91.06246527 5.96752828 92.07137808 7.96587579 93 10 C93.99 10.33 94.98 10.66 96 11 C96.99 11.495 96.99 11.495 98 12 C98 12.99 98 13.98 98 15 C98.969375 15.12375 99.93875 15.2475 100.9375 15.375 C101.948125 15.58125 102.95875 15.7875 104 16 C105.455276 18.91055201 105.45067148 20.78091798 105 24 C101.31468169 27.15884427 97.59479394 28.60158445 93 30 C92.319375 30.37125 91.63875 30.7425 90.9375 31.125 C88.49193966 32.22944661 86.65603673 32.20968711 84 32 C83.34 31.67 82.68 31.34 82 31 C81.34 31.99 80.68 32.98 80 34 C78.02 33.67 76.04 33.34 74 33 C75.52029584 38.96423753 76.7471411 43.49809407 82 47 C83.03485877 49.31808364 84.0355414 51.65175298 85 54 C85.66 54.66 86.32 55.32 87 56 C87.4640625 57.2375 87.4640625 57.2375 87.9375 58.5 C88.8583474 61.30191747 88.8583474 61.30191747 92 63 C92.6875 66.125 92.6875 66.125 93 69 C93.66 69 94.32 69 95 69 C96.06531241 70.62569593 97.05368827 72.30227449 98 74 C98.52980469 74.85980469 99.05960937 75.71960938 99.60546875 76.60546875 C100.12753906 77.45753906 100.64960938 78.30960937 101.1875 79.1875 C101.71730469 80.04730469 102.24710937 80.90710938 102.79296875 81.79296875 C104 84 104 84 104 86 C104.66 86 105.32 86 106 86 C106.94903868 87.66081769 107.89762394 89.32189635 108.84375 90.984375 C109.60560884 92.31248028 110.37626526 93.63558322 111.15625 94.953125 C114 99.7875 114 99.7875 114 102 C114.66 102 115.32 102 116 102 C116.32613281 102.60328125 116.65226562 103.2065625 116.98828125 103.828125 C117.42527344 104.62734375 117.86226563 105.4265625 118.3125 106.25 C118.95638672 107.43335938 118.95638672 107.43335938 119.61328125 108.640625 C120.94419187 111.02861519 120.94419187 111.02861519 122.66796875 113.109375 C124 115 124 115 124 118 C124.66 118 125.32 118 126 118 C126 118.66 126 119.32 126 120 C118.08 120 110.16 120 102 120 C102 119.01 102 118.02 102 117 C101.34 117 100.68 117 100 117 C99.5875 116.154375 99.175 115.30875 98.75 114.4375 C97.53192263 112.04484802 96.29062322 109.74845201 94.9375 107.4375 C93 104 93 104 91.875 101.125 C91.20068301 98.82668286 91.20068301 98.82668286 89 98 C86.97664549 96.31387125 86.05760386 95.15309826 85.12109375 92.6640625 C83.5982838 89.04539912 81.26470652 86.45915461 78.75390625 83.4765625 C77.03190653 81.04505288 75.96539017 78.65144031 74.85083008 75.90039062 C73.27282567 72.37580346 71.14101677 69.18344521 69.0625 65.9375 C68.63259766 65.25623047 68.20269531 64.57496094 67.75976562 63.87304688 C65.80094223 60.77875984 63.81263683 57.728791 61.73046875 54.71484375 C59.8338559 51.73934503 59.33187064 49.48464174 59 46 C58.01 46.33 57.02 46.66 56 47 C53.53264116 44.53264116 53.0927616 42.27828479 52 39 C51.34 38.34 50.68 37.68 50 37 C48.78416747 32.6600415 48.68164421 28.16614534 48.4375 23.6875 C48.39431641 22.94693359 48.35113281 22.20636719 48.30664062 21.44335938 C48.20129568 19.62908536 48.10021684 17.8145645 48 16 C47.01 15.67 46.02 15.34 45 15 C43.7763075 20.29929643 43.64298347 25.59923268 43.37890625 31.015625 C43.19134766 32.49289063 43.19134766 32.49289063 43 34 C40.04200997 35.47899501 37.3516424 35.13178874 34.0625 35.125 C32.81597656 35.12757812 31.56945312 35.13015625 30.28515625 35.1328125 C27 35 27 35 24 34 C21.89953921 34.42817238 21.89953921 34.42817238 19.6875 35.125 C15.04639911 36.25351246 13.18689936 35.35513089 9 33 C6.03 32.67 3.06 32.34 0 32 C0 21.44 0 10.88 0 0 Z " fill="#EE4B03" transform="translate(74,80)"/>
<path d="M0 0 C0.598125 0.350625 1.19625 0.70125 1.8125 1.0625 C1.8125 1.7225 1.8125 2.3825 1.8125 3.0625 C2.4725 3.3925 3.1325 3.7225 3.8125 4.0625 C3.8125 5.7125 3.8125 7.3625 3.8125 9.0625 C3.1525 9.3925 2.4925 9.7225 1.8125 10.0625 C1.16036708 12.08713255 1.16036708 12.08713255 0.8125 14.0625 C0.1525 14.0625 -0.5075 14.0625 -1.1875 14.0625 C-1.5175 14.7225 -1.8475 15.3825 -2.1875 16.0625 C-2.8475 15.7325 -3.5075 15.4025 -4.1875 15.0625 C-3.06895414 18.78864153 -3.06895414 18.78864153 -0.1875 21.0625 C-0.8475 22.0525 -1.5075 23.0425 -2.1875 24.0625 C-2.1875 23.0725 -2.1875 22.0825 -2.1875 21.0625 C-3.5075 22.0525 -4.8275 23.0425 -6.1875 24.0625 C-5.5275 24.3925 -4.8675 24.7225 -4.1875 25.0625 C-3.5625 28.125 -3.5625 28.125 -3.1875 31.0625 C-2.1975 31.0625 -1.2075 31.0625 -0.1875 31.0625 C-0.043125 31.825625 0.10125 32.58875 0.25 33.375 C0.7757594 36.14422908 0.7757594 36.14422908 1.8125 39.0625 C3.4625 39.0625 5.1125 39.0625 6.8125 39.0625 C7.1425 38.0725 7.4725 37.0825 7.8125 36.0625 C8.8025 36.5575 8.8025 36.5575 9.8125 37.0625 C10.4375 40.125 10.4375 40.125 10.8125 43.0625 C11.4725 43.0625 12.1325 43.0625 12.8125 43.0625 C12.8125 62.5325 12.8125 82.0025 12.8125 102.0625 C12.1525 102.0625 11.4925 102.0625 10.8125 102.0625 C10.235 101.03125 9.6575 100 9.0625 98.9375 C7.65521244 96.45464266 6.19400836 94.16912318 4.5625 91.8125 C2.8125 89.0625 2.8125 89.0625 2.8125 86.0625 C2.1525 86.0625 1.4925 86.0625 0.8125 86.0625 C-0.33628332 83.95989659 -1.48161192 81.85553461 -2.625 79.75 C-2.95048828 79.15509766 -3.27597656 78.56019531 -3.61132812 77.94726562 C-5.02487384 75.33876374 -6.24698633 72.88404101 -7.1875 70.0625 C-7.8475 70.0625 -8.5075 70.0625 -9.1875 70.0625 C-10.4275457 68.149788 -11.58086867 66.18037422 -12.6875 64.1875 C-15.05521159 59.83632622 -15.05521159 59.83632622 -18.1875 56.0625 C-18.1875 55.0725 -18.1875 54.0825 -18.1875 53.0625 C-18.8475 53.0625 -19.5075 53.0625 -20.1875 53.0625 C-20.455625 52.11375 -20.72375 51.165 -21 50.1875 C-21.93736588 46.80982727 -21.93736588 46.80982727 -25.1875 45.0625 C-26.61902276 42.44841496 -27.86262215 39.78116918 -29.08984375 37.06640625 C-31.21892087 32.54318618 -33.50628337 29.53920459 -37.1875 26.0625 C-37.1875 25.4025 -37.1875 24.7425 -37.1875 24.0625 C-37.8475 23.7325 -38.5075 23.4025 -39.1875 23.0625 C-38.8575 22.4025 -38.5275 21.7425 -38.1875 21.0625 C-38.8475 20.7325 -39.5075 20.4025 -40.1875 20.0625 C-39.6925 18.5775 -39.6925 18.5775 -39.1875 17.0625 C-37.7953125 17.1553125 -37.7953125 17.1553125 -36.375 17.25 C-33.20354897 17.37144264 -33.20354897 17.37144264 -31.3125 15.5625 C-30.94125 15.0675 -30.57 14.5725 -30.1875 14.0625 C-29.8575 14.3925 -29.5275 14.7225 -29.1875 15.0625 C-25.08960331 14.68306512 -22.64791065 14.36944043 -19.1875 12.0625 C-16.85739091 11.38465008 -14.52390176 10.71833207 -12.1875 10.0625 C-10.83399406 9.43780495 -9.48815517 8.7908669 -8.1875 8.0625 C-8.249375 7.299375 -8.31125 6.53625 -8.375 5.75 C-8.1875 3.0625 -8.1875 3.0625 -6.875 1.3125 C-4.35820705 -0.55179108 -2.95142428 -1.26489612 0 0 Z " fill="#E11D06" transform="translate(187.1875,95.9375)"/>
<path d="M0 0 C2.5 -0.4375 2.5 -0.4375 6 0 C8.14015298 1.57963672 9.98912726 3.30169521 11.875 5.17578125 C13.98050611 7.16246384 13.98050611 7.16246384 16.953125 8.296875 C20.91252502 10.51007809 22.4814376 13.10781888 24.75 16.9375 C25.13542969 17.55818359 25.52085938 18.17886719 25.91796875 18.81835938 C27.75947727 21.81001421 29.50222513 24.82121185 31 28 C31.66 28 32.32 28 33 28 C33.4125 29.03125 33.825 30.0625 34.25 31.125 C36.64480436 36.70163362 40.15728326 41.33384396 44 46 C43.505 46.99 43.505 46.99 43 48 C43.99 48.33 44.98 48.66 46 49 C46.33 49.99 46.66 50.98 47 52 C47.66 51.34 48.32 50.68 49 50 C49 60.56 49 71.12 49 82 C48.01 81.67 47.02 81.34 46 81 C45.505 70.605 45.505 70.605 45 60 C43.68 59.34 42.36 58.68 41 58 C41 57.34 41 56.68 41 56 C40.01 56.66 39.02 57.32 38 58 C38 58.33 38 58.66 38 59 C36.35 59 34.7 59 33 59 C33 57.68 33 56.36 33 55 C32.01 54.67 31.02 54.34 30 54 C30 53.34 30 52.68 30 52 C28.68 52 27.36 52 26 52 C26.309375 52.598125 26.61875 53.19625 26.9375 53.8125 C28 56 28 56 29 59 C25.03819045 60.20306259 20.98153079 60.44880543 16.875 60.75 C16.14667969 60.81832031 15.41835937 60.88664062 14.66796875 60.95703125 C12.5546875 61.109375 12.5546875 61.109375 9 61 C8.34 60.01 7.68 59.02 7 58 C7.33 57.34 7.66 56.68 8 56 C7.21625 56.20625 6.4325 56.4125 5.625 56.625 C4.75875 56.74875 3.8925 56.8725 3 57 C1 55 1 55 0.875 51.375 C0.91625 50.26125 0.9575 49.1475 1 48 C0.34 48 -0.32 48 -1 48 C-1.495 46.515 -1.495 46.515 -2 45 C-2.45375 44.566875 -2.9075 44.13375 -3.375 43.6875 C-5.56549585 41.41275431 -6.67301478 38.84353977 -8 36 C-5.29458469 33.07852722 -2.18840524 30.80926713 1 28.4375 C2.051875 27.65246094 3.10375 26.86742188 4.1875 26.05859375 C6.09436201 24.66287669 8.03379828 23.31080114 10 22 C9.35389319 18.51102321 7.98128683 15.93230451 6 13 C5.34 12.67 4.68 12.34 4 12 C3.28752268 10.3523962 2.62599617 8.68236471 2 7 C1.62875 6.29875 1.2575 5.5975 0.875 4.875 C0 3 0 3 0 0 Z " fill="#EC4603" transform="translate(85,30)"/>
<path d="M0 0 C15.51 0 31.02 0 47 0 C47 25.08 47 50.16 47 76 C45 75 45 75 44.1640625 72.82421875 C42.48972064 68.76197323 39.8071599 65.62905865 37.1015625 62.19726562 C34 58.1944374 34 58.1944374 34 56 C32.68 55.67 31.36 55.34 30 55 C30 54.01 30 53.02 30 52 C29.34 52 28.68 52 28 52 C27.67 51.01 27.34 50.02 27 49 C30 49 30 49 31.38671875 50.3125 C32.59114583 51.875 33.79557292 53.4375 35 55 C34.05238445 52.88608838 33.28679094 51.2618526 31.5625 49.6875 C29.67044712 47.64408289 28.96875962 45.45538128 27.94921875 42.8984375 C26.56215514 40.12431028 24.60911904 38.02536148 22.5 35.7734375 C19.22827453 31.90530374 17.07793186 27.31539543 14.8125 22.8125 C14.28269531 21.76707031 13.75289062 20.72164062 13.20703125 19.64453125 C12 17 12 17 12 15 C11.01 14.67 10.02 14.34 9 14 C7.5 12.2578125 7.5 12.2578125 6 10.125 C4.52247687 8.03953767 3.18564175 6.17274996 1.3125 4.4296875 C0 3 0 3 0 0 Z " fill="#D80030" transform="translate(153,0)"/>
<path d="M0 0 C4.13988842 1.0349721 7.30737151 2.74053035 10.9375 4.875 C11.54529297 5.22691406 12.15308594 5.57882813 12.77929688 5.94140625 C14.52369497 6.95379695 16.26198 7.97669842 18 9 C18.95132812 9.5259375 19.90265625 10.051875 20.8828125 10.59375 C23 12 23 12 23.9375 14.625 C24.288125 15.40875 24.63875 16.1925 25 17 C28.05272465 17.89830839 28.05272465 17.89830839 31 18 C31.33 17.34 31.66 16.68 32 16 C33.34500955 17.06880223 34.67571438 18.15562508 36 19.25 C36.7425 19.85328125 37.485 20.4565625 38.25 21.078125 C40 23 40 23 40 27 C34.25 27.125 34.25 27.125 32 26 C32 26.99 32 27.98 32 29 C32.66 29.33 33.32 29.66 34 30 C34 30.66 34 31.32 34 32 C35.32 32.66 36.64 33.32 38 34 C37.01 34.33 36.02 34.66 35 35 C34.26676204 37.01508358 34.26676204 37.01508358 34 39 C34.99 39.495 34.99 39.495 36 40 C35.773125 40.845625 35.54625 41.69125 35.3125 42.5625 C34.91338585 46.95275565 35.90006972 49.15012782 38 53 C39.64694485 54.68615782 41.31126121 56.35570171 43 58 C43.8125 60.3125 43.8125 60.3125 44 62 C45.32 62.33 46.64 62.66 48 63 C48 65.31 48 67.62 48 70 C48.99 70 49.98 70 51 70 C51.33 70.99 51.66 71.98 52 73 C50.68 74.32 49.36 75.64 48 77 C43.12592685 71.96730317 39.56787388 66.84101364 36.359375 60.61328125 C35.01326404 57.94726596 35.01326404 57.94726596 33.328125 55.29296875 C32 53 32 53 32 51 C29.06279492 49.47700477 26.0831351 48.19899698 23 47 C23 45.68 23 44.36 23 43 C21.453125 42.7215625 21.453125 42.7215625 19.875 42.4375 C13.38572636 40.5984346 10.20047152 34.52808717 7 29 C6.278125 28.113125 5.55625 27.22625 4.8125 26.3125 C3 24 3 24 3 22 C2.01 21.67 1.02 21.34 0 21 C0 14.07 0 7.14 0 0 Z " fill="#DB041E" transform="translate(0,82)"/>
<path d="M0 0 C2.31 0 4.62 0 7 0 C7.33 3.96 7.66 7.92 8 12 C8.33 11.34 8.66 10.68 9 10 C11.31 10 13.62 10 16 10 C16.495 18.415 16.495 18.415 17 27 C21.47702364 28.06537205 21.47702364 28.06537205 24 28 C24.33 22.06 24.66 16.12 25 10 C30.28 10 35.56 10 41 10 C41.495 10.99 41.495 10.99 42 12 C42.99 11.34 43.98 10.68 45 10 C48.41468867 9.68957376 51.01424679 9.59174115 54.20703125 10.9140625 C57.18021176 14.37305682 56.41696334 18.29829075 56.25 22.6875 C56.23195312 23.58017578 56.21390625 24.47285156 56.1953125 25.39257812 C56.14817759 27.59613504 56.08240657 29.79752601 56 32 C53.69 32 51.38 32 49 32 C48.67 26.72 48.34 21.44 48 16 C47.01 15.67 46.02 15.34 45 15 C43.7763075 20.29929643 43.64298347 25.59923268 43.37890625 31.015625 C43.19134766 32.49289063 43.19134766 32.49289063 43 34 C40.04200997 35.47899501 37.3516424 35.13178874 34.0625 35.125 C32.81597656 35.12757812 31.56945312 35.13015625 30.28515625 35.1328125 C27 35 27 35 24 34 C21.89953921 34.42817238 21.89953921 34.42817238 19.6875 35.125 C15.04639911 36.25351246 13.18689936 35.35513089 9 33 C6.03 32.67 3.06 32.34 0 32 C0 21.44 0 10.88 0 0 Z " fill="#C7480E" transform="translate(74,80)"/>
<path d="M0 0 C1.32 0.33 2.64 0.66 4 1 C4.06058594 2.09699219 4.12117188 3.19398437 4.18359375 4.32421875 C4.26804498 5.77865654 4.35269066 7.23308305 4.4375 8.6875 C4.49647461 9.7693457 4.49647461 9.7693457 4.55664062 10.87304688 C4.8307947 16.5094155 4.8307947 16.5094155 6 22 C6.99 22.66 7.98 23.32 9 24 C9 24.66 9 25.32 9 26 C9.63903117 27.67745682 10.30341637 29.34561387 11 31 C11.99 31 12.98 31 14 31 C14.21914062 31.6290625 14.43828125 32.258125 14.6640625 32.90625 C16.61761371 38.17925003 18.78556029 42.35320143 22.28515625 46.734375 C24.43096909 49.56938968 26.3198231 52.54108076 28.1875 55.5625 C28.84105469 56.61566406 29.49460938 57.66882813 30.16796875 58.75390625 C32 62 32 62 33.54296875 65.671875 C34.83929479 68.63292001 35.92012602 70.39952775 38.125 72.6875 C40.46185538 75.12317762 41.2530163 76.7319463 42 80 C43.31129922 81.35500919 44.64691687 82.68671343 46 84 C47.02535687 85.65118777 48.02231876 87.32014371 49 89 C49.52980469 89.84820312 50.05960938 90.69640625 50.60546875 91.5703125 C51.38857422 92.83488281 51.38857422 92.83488281 52.1875 94.125 C52.98220703 95.39730469 52.98220703 95.39730469 53.79296875 96.6953125 C55 99 55 99 55 102 C55.66 102 56.32 102 57 102 C57 102.99 57 103.98 57 105 C56.01 105 55.02 105 54 105 C50 99.74285714 50 99.74285714 50 97 C48.68 96.67 47.36 96.34 46 96 C46 94.68 46 93.36 46 92 C45.34 92 44.68 92 44 92 C42.17270951 90.06469234 40.53104622 88.00952377 38.8515625 85.9453125 C36.98037539 83.97938174 35.39212136 83.19092737 33 82 C32.25 79.375 32.25 79.375 32 77 C31.360625 76.896875 30.72125 76.79375 30.0625 76.6875 C29.381875 76.460625 28.70125 76.23375 28 76 C27.67 75.01 27.34 74.02 27 73 C26.01 72.67 25.02 72.34 24 72 C22.35179805 69.39757586 22 68.13751221 22 65 C21.01 65 20.02 65 19 65 C18.70867187 64.32453125 18.41734375 63.6490625 18.1171875 62.953125 C15.49054813 57.23729342 13.60858575 53.93176073 8 51 C7 50 7 50 6.9375 47.4375 C6.958125 46.633125 6.97875 45.82875 7 45 C6.13375 44.7215625 6.13375 44.7215625 5.25 44.4375 C1.83301758 42.2544279 0.7842002 39.63212185 -1 36 C-1 35.01 -1 34.02 -1 33 C-1.66 33 -2.32 33 -3 33 C-3.28875 32.360625 -3.5775 31.72125 -3.875 31.0625 C-4.82823451 28.84793921 -4.82823451 28.84793921 -7 28 C-9 25 -9 25 -9 22 C-9.66 22 -10.32 22 -11 22 C-11 21.34 -11 20.68 -11 20 C-8.03 19.67 -5.06 19.34 -2 19 C-2.02320312 18.04738281 -2.04640625 17.09476563 -2.0703125 16.11328125 C-2.08835937 14.85902344 -2.10640625 13.60476562 -2.125 12.3125 C-2.14820312 11.07113281 -2.17140625 9.82976562 -2.1953125 8.55078125 C-2.01032021 5.18762143 -1.45767895 3.0014413 0 0 Z " fill="#EB3F03" transform="translate(119,95)"/>
<path d="M0 0 C3.29438001 2.49918483 4.35746873 4.74985097 5.375 8.625 C6.96546533 14.44253095 9.6982356 18.99220143 13 24 C13.69222656 25.05316406 14.38445312 26.10632813 15.09765625 27.19140625 C17.05101247 30.13739358 19.0208098 33.07133342 21 36 C21.66 36.99 22.32 37.98 23 39 C23.64195312 39.93972656 24.28390625 40.87945312 24.9453125 41.84765625 C25.66460937 42.90855469 26.38390625 43.96945313 27.125 45.0625 C27.84945312 46.12597656 28.57390625 47.18945312 29.3203125 48.28515625 C31 51 31 51 31 53 C33.97 52.34 36.94 51.68 40 51 C40 52.65 40 54.3 40 56 C40.66 56 41.32 56 42 56 C44.19629783 59.54143525 44.23275752 62.39667247 44.1953125 66.515625 C44.18886719 67.76601562 44.18242187 69.01640625 44.17578125 70.3046875 C44.15902344 71.60664063 44.14226562 72.90859375 44.125 74.25 C44.11597656 75.56742187 44.10695312 76.88484375 44.09765625 78.2421875 C44.07408533 81.49497462 44.04118022 84.74739589 44 88 C43.34 88 42.68 88 42 88 C41.4225 86.96875 40.845 85.9375 40.25 84.875 C38.84271244 82.39214266 37.38150836 80.10662318 35.75 77.75 C34 75 34 75 34 72 C33.34 72 32.68 72 32 72 C30.85121668 69.89739659 29.70588808 67.79303461 28.5625 65.6875 C28.23701172 65.09259766 27.91152344 64.49769531 27.57617188 63.88476562 C26.16262616 61.27626374 24.94051367 58.82154101 24 56 C23.34 56 22.68 56 22 56 C20.7599543 54.087288 19.60663133 52.11787422 18.5 50.125 C16.13228841 45.77382622 16.13228841 45.77382622 13 42 C13 41.01 13 40.02 13 39 C12.34 39 11.68 39 11 39 C10.731875 38.05125 10.46375 37.1025 10.1875 36.125 C9.25013412 32.74732727 9.25013412 32.74732727 6 31 C4.56847724 28.38591496 3.32487785 25.71866918 2.09765625 23.00390625 C-0.03142087 18.48068618 -2.31878337 15.47670459 -6 12 C-6 11.34 -6 10.68 -6 10 C-6.66 9.67 -7.32 9.34 -8 9 C-7.67 8.34 -7.34 7.68 -7 7 C-7.66 6.67 -8.32 6.34 -9 6 C-8.67 5.01 -8.34 4.02 -8 3 C-6.576875 3.0928125 -6.576875 3.0928125 -5.125 3.1875 C-3.578125 3.0946875 -3.578125 3.0946875 -2 3 C-1.34 2.01 -0.68 1.02 0 0 Z " fill="#E83403" transform="translate(156,110)"/>
<path d="M0 0 C1.98 0 3.96 0 6 0 C6.33 5.94 6.66 11.88 7 18 C10.7258644 13.71418455 10.7258644 13.71418455 12 9 C18.75 8.875 18.75 8.875 21 10 C22.46726798 6.18510326 21.43336419 3.70988378 20 0 C23.71305811 0.71404964 26.78177028 2.01428379 30 4 C31.06246527 5.96752828 32.07137808 7.96587579 33 10 C33.99 10.33 34.98 10.66 36 11 C36.66 11.33 37.32 11.66 38 12 C38 12.99 38 13.98 38 15 C38.969375 15.12375 39.93875 15.2475 40.9375 15.375 C41.948125 15.58125 42.95875 15.7875 44 16 C45.455276 18.91055201 45.45067148 20.78091798 45 24 C41.31468169 27.15884427 37.59479394 28.60158445 33 30 C32.319375 30.37125 31.63875 30.7425 30.9375 31.125 C28.49193966 32.22944661 26.65603673 32.20968711 24 32 C23.34 31.67 22.68 31.34 22 31 C21.01 32.485 21.01 32.485 20 34 C12.88493435 31.86548031 10.75812766 28.32465386 7 22 C6.67 25.3 6.34 28.6 6 32 C4.02 32 2.04 32 0 32 C0 21.44 0 10.88 0 0 Z " fill="#D62C0B" transform="translate(134,80)"/>
<path d="M0 0 C5.22788746 -0.3737491 10.44788436 -0.644126 15.68603516 -0.82397461 C17.46215226 -0.89896049 19.23735674 -1.00101432 21.01025391 -1.1315918 C35.26825082 -2.15460508 35.26825082 -2.15460508 39.84631348 1.45623779 C43.51840179 5.48965567 46.04820043 9.92647845 48 15 C47.5874939 17.22743225 47.5874939 17.22743225 47 19 C45.68 19.33 44.36 19.66 43 20 C43 22.31 43 24.62 43 27 C41.02 26.67 39.04 26.34 37 26 C37 25.34 37 24.68 37 24 C36.278125 23.9175 35.55625 23.835 34.8125 23.75 C30.49872847 22.59966093 27.93601977 19.96354977 24.875 16.8125 C23.0333941 14.77113594 23.0333941 14.77113594 20 14 C19.34 16.31 18.68 18.62 18 21 C14.66272214 19.82744291 12.22562513 18.81131596 10 16 C10 15.34 10 14.68 10 14 C9.34 14 8.68 14 8 14 C4.74505877 10.48141867 2.44053685 6.84590538 2 2 C1.34 2 0.68 2 0 2 C0 1.34 0 0.68 0 0 Z " fill="#E51E09" transform="translate(56,0)"/>
<path d="M0 0 C6.93 0 13.86 0 21 0 C21 0.66 21 1.32 21 2 C21.66 2 22.32 2 23 2 C25 6 27 10 29 14 C29.66 14 30.32 14 31 14 C31.515625 15.11375 32.03125 16.2275 32.5625 17.375 C34.74110558 21.79490484 37.52215629 25.60281656 40.51171875 29.5078125 C42.21626711 32.36214807 42.64326592 34.71804648 43 38 C42.67 37.34 42.34 36.68 42 36 C41.113125 36.185625 40.22625 36.37125 39.3125 36.5625 C36.07961002 36.98948547 34.0786285 36.99847411 31 36 C30.505 35.484375 30.01 34.96875 29.5 34.4375 C28.02124974 32.71343023 28.02124974 32.71343023 25.3125 32.8125 C24.549375 32.874375 23.78625 32.93625 23 33 C22.67 32.01 22.34 31.02 22 30 C21.34 29.67 20.68 29.34 20 29 C20 28.34 20 27.68 20 27 C19.34 27 18.68 27 18 27 C16.29115995 25.37660195 14.62553283 23.70680947 13 22 C12.34 21.34 11.68 20.68 11 20 C11 18.68 11 17.36 11 16 C10.38125 15.773125 9.7625 15.54625 9.125 15.3125 C6.34515555 13.59553725 6.18730254 12.003177 5 9 C4.13375 8.154375 3.2675 7.30875 2.375 6.4375 C0 4 0 4 0 0 Z " fill="#EC3904" transform="translate(35,0)"/>
<path d="M0 0 C1.32 0.66 2.64 1.32 4 2 C3.835 2.556875 3.67 3.11375 3.5 3.6875 C2.57140081 7.98227124 3.02806371 11.74777873 4 16 C4.66 16 5.32 16 6 16 C7.21875 17.390625 7.21875 17.390625 8.5 19.25 C9.16128906 20.2090625 9.16128906 20.2090625 9.8359375 21.1875 C11.04175471 23.06501405 12.00313108 25.00626215 13 27 C13.495 27.495 13.99 27.99 14.5 28.5 C16.22892502 30.22892502 16.98418569 31.7779062 18 34 C18.53625 35.03125 19.0725 36.0625 19.625 37.125 C21 40 21 40 21 42 C22.485 42.495 22.485 42.495 24 43 C26.1519437 46.22791555 26.20086443 47.28400809 26 51 C26.66 50.34 27.32 49.68 28 49 C27.67 50.65 27.34 52.3 27 54 C25.515 54.495 25.515 54.495 24 55 C20.22374101 51.35395683 20.22374101 51.35395683 18.78515625 49.078125 C16.3915925 46.29174444 13.52170801 45.01161193 10.25 43.5 C9.05890625 42.9328125 7.8678125 42.365625 6.640625 41.78125 C6.10985352 41.53439453 5.57908203 41.28753906 5.03222656 41.03320312 C1.95985766 39.47118184 -1.00747419 37.71001475 -4 36 C-4 25.44 -4 14.88 -4 4 C-2.68 3.67 -1.36 3.34 0 3 C0 2.01 0 1.02 0 0 Z " fill="#E2150B" transform="translate(4,46)"/>
<path d="M0 0 C3 0 6 0 9 0 C10.27875 -0.103125 11.5575 -0.20625 12.875 -0.3125 C16.47984589 -0.33241628 16.91697503 -0.06712657 19.9375 2.375 C22.80447117 6.0238724 23.34486292 8.20719953 23.28515625 12.8984375 C22.81849096 16.33769673 21.21874413 18.41146518 19 21 C15.80244251 23.34487549 12.89275089 23.40549488 9 23 C7.68 22.01 6.36 21.02 5 20 C5 24.29 5 28.58 5 33 C3.35 33 1.7 33 0 33 C0 22.11 0 11.22 0 0 Z " fill="#FDD5B4" transform="translate(49,90)"/>
<path d="M0 0 C4.10045902 0.67488852 7.41133171 2.80165763 10.9375 4.875 C11.54529297 5.22691406 12.15308594 5.57882813 12.77929688 5.94140625 C14.52369497 6.95379695 16.26198 7.97669842 18 9 C18.95132812 9.5259375 19.90265625 10.051875 20.8828125 10.59375 C23 12 23 12 23.9375 14.625 C24.288125 15.40875 24.63875 16.1925 25 17 C28.05272465 17.89830839 28.05272465 17.89830839 31 18 C31.33 17.34 31.66 16.68 32 16 C33.34500955 17.06880223 34.67571438 18.15562508 36 19.25 C36.7425 19.85328125 37.485 20.4565625 38.25 21.078125 C40 23 40 23 40 27 C34.25 27.125 34.25 27.125 32 26 C32.495 28.475 32.495 28.475 33 31 C25 31.15384615 25 31.15384615 22 30 C21.67 29.34 21.34 28.68 21 28 C19.35636866 27.27840576 17.68949614 26.60648579 16 26 C15.67 23.03 15.34 20.06 15 17 C14.278125 16.814375 13.55625 16.62875 12.8125 16.4375 C9.42290255 14.70503908 8.20479345 12.81430371 6.2109375 9.65625 C4.92985108 7.70458328 4.92985108 7.70458328 2 6 C1.01 6.495 1.01 6.495 0 7 C0 4.69 0 2.38 0 0 Z " fill="#DE0A13" transform="translate(0,82)"/>
<path d="M0 0 C0.66 0.33 1.32 0.66 2 1 C1.34 2.65 0.68 4.3 0 6 C0.99 6.33 1.98 6.66 3 7 C5.51895886 9.50105157 7.71857646 12.28234822 10 15 C10.49371094 15.53367187 10.98742187 16.06734375 11.49609375 16.6171875 C14.74207582 20.18102538 15.84378866 23.37515462 17 28 C17.66 28.66 18.32 29.32 19 30 C15.00999834 31.42500059 11.19469571 32.40075776 7 33 C6.34 32.01 5.68 31.02 5 30 C5.33 29.34 5.66 28.68 6 28 C5.21625 28.20625 4.4325 28.4125 3.625 28.625 C2.75875 28.74875 1.8925 28.8725 1 29 C-1 27 -1 27 -1.125 23.375 C-1.08375 22.26125 -1.0425 21.1475 -1 20 C-1.66 20 -2.32 20 -3 20 C-3.33 19.01 -3.66 18.02 -4 17 C-4.45375 16.566875 -4.9075 16.13375 -5.375 15.6875 C-7.56549585 13.41275431 -8.67301478 10.84353977 -10 8 C-7.92141021 5.81907964 -5.78143382 4.03609531 -3.3125 2.3125 C-2.68988281 1.87550781 -2.06726563 1.43851563 -1.42578125 0.98828125 C-0.95527344 0.66214844 -0.48476562 0.33601563 0 0 Z " fill="#EC3E03" transform="translate(87,58)"/>
<path d="M0 0 C1.98 0 3.96 0 6 0 C6.33 5.94 6.66 11.88 7 18 C9.31 15.36 11.62 12.72 14 10 C15.32 10.33 16.64 10.66 18 11 C17.45773019 14.79588866 15.79872437 16.47211993 13 19 C14.4859916 23.59306496 16.85014682 26.43569245 20 30 C19.67 30.66 19.34 31.32 19 32 C16.73828125 32.3125 16.73828125 32.3125 14 32 C11.98046875 29.8125 11.98046875 29.8125 10.1875 27 C9.58292969 26.071875 8.97835937 25.14375 8.35546875 24.1875 C7.90816406 23.465625 7.46085938 22.74375 7 22 C6.67 25.3 6.34 28.6 6 32 C4.02 32 2.04 32 0 32 C0 21.44 0 10.88 0 0 Z " fill="#FCF9ED" transform="translate(134,80)"/>
<path d="M0 0 C1.98 0 3.96 0 6 0 C6.33 5.61 6.66 11.22 7 17 C11.47702364 18.06537205 11.47702364 18.06537205 14 18 C14.495 9.09 14.495 9.09 15 0 C16.98 0 18.96 0 21 0 C21 7.26 21 14.52 21 22 C18.33333333 22 15.66666667 22 13 22 C12.34 22.33 11.68 22.66 11 23 C4.52941176 23.35294118 4.52941176 23.35294118 1 21 C0.07811539 18.23434618 -0.11785222 16.61716298 -0.09765625 13.76953125 C-0.09282227 12.56586914 -0.09282227 12.56586914 -0.08789062 11.33789062 C-0.07951172 10.50451172 -0.07113281 9.67113281 -0.0625 8.8125 C-0.05798828 7.96751953 -0.05347656 7.12253906 -0.04882812 6.25195312 C-0.03705403 4.16793845 -0.0191189 2.08396023 0 0 Z " fill="#FDEAC5" transform="translate(84,90)"/>
<path d="M0 0 C1.98 0 3.96 0 6 0 C6.33 0.66 6.66 1.32 7 2 C7.99 1.34 8.98 0.68 10 0 C13.41468867 -0.31042624 16.01424679 -0.40825885 19.20703125 0.9140625 C22.18021176 4.37305682 21.41696334 8.29829075 21.25 12.6875 C21.23195312 13.58017578 21.21390625 14.47285156 21.1953125 15.39257812 C21.14817759 17.59613504 21.08240657 19.79752601 21 22 C19.02 22 17.04 22 15 22 C14.67 16.39 14.34 10.78 14 5 C12.02 5 10.04 5 8 5 C5.94077598 7.05922402 6.58572421 11.21708124 6.4375 14.0625 C6.39431641 14.82111328 6.35113281 15.57972656 6.30664062 16.36132812 C6.20026367 18.24065438 6.09960066 20.12030244 6 22 C4.02 22 2.04 22 0 22 C0 14.74 0 7.48 0 0 Z " fill="#FDE8B3" transform="translate(109,90)"/>
<path d="M0 0 C0 0.66 0 1.32 0 2 C-0.68707031 1.98839844 -1.37414062 1.97679688 -2.08203125 1.96484375 C-2.98308594 1.95582031 -3.88414063 1.94679688 -4.8125 1.9375 C-5.70582031 1.92589844 -6.59914063 1.91429688 -7.51953125 1.90234375 C-10.13413791 1.88990033 -10.13413791 1.88990033 -13 3 C-13 2.34 -13 1.68 -13 1 C-14.98 1 -16.96 1 -19 1 C-19 12.22 -19 23.44 -19 35 C-17.35 35 -15.7 35 -14 35 C-14 35.99 -14 36.98 -14 38 C-14.66 38 -15.32 38 -16 38 C-16 37.34 -16 36.68 -16 36 C-17.65 35.67 -19.3 35.34 -21 35 C-21 31.7 -21 28.4 -21 25 C-22.32 24.67 -23.64 24.34 -25 24 C-24.67 24.99 -24.34 25.98 -24 27 C-24.33 27.66 -24.66 28.32 -25 29 C-28.45925163 27.7508258 -31.14693203 26.32472205 -34 24 C-33.37351563 23.87882812 -32.74703125 23.75765625 -32.1015625 23.6328125 C-31.28429688 23.46523437 -30.46703125 23.29765625 -29.625 23.125 C-28.40683594 22.88136719 -28.40683594 22.88136719 -27.1640625 22.6328125 C-24.81326077 22.13341068 -24.81326077 22.13341068 -23 20 C-22.24755499 17.1724011 -22.24755499 17.1724011 -23 14 C-24.70779122 12.27091462 -26.48095388 10.88837763 -28.46875 9.4921875 C-28.9740625 8.99976562 -29.479375 8.50734375 -30 8 C-30 6.68 -30 5.36 -30 4 C-28.02 4 -26.04 4 -24 4 C-24 3.34 -24 2.68 -24 2 C-24.66 1.34 -25.32 0.68 -26 0 C-17.15967082 -0.77546747 -8.83223535 -1.19354532 0 0 Z " fill="#BE2717" transform="translate(68,89)"/>
<path d="M0 0 C1.21236328 0.04060547 1.21236328 0.04060547 2.44921875 0.08203125 C3.06410156 0.11683594 3.67898437 0.15164062 4.3125 0.1875 C4.3125 1.5075 4.3125 2.8275 4.3125 4.1875 C1.3425 3.6925 1.3425 3.6925 -1.6875 3.1875 C-0.61809798 6.93040707 0.29098962 8.1707219 3.4375 10.625 C6.3125 13.1875 6.3125 13.1875 7 16.25 C6.3125 19.1875 6.3125 19.1875 4.25 21.5625 C0.63209017 23.56389692 -1.60768168 23.64081315 -5.6875 23.1875 C-6.6775 22.5275 -7.6675 21.8675 -8.6875 21.1875 C-8.3575 19.8675 -8.0275 18.5475 -7.6875 17.1875 C-5.0475 17.8475 -2.4075 18.5075 0.3125 19.1875 C-0.75690202 15.44459293 -1.66598962 14.2042781 -4.8125 11.75 C-7.6875 9.1875 -7.6875 9.1875 -8.25 6.0625 C-7.25759406 0.99020299 -5.00030219 -0.21740444 0 0 Z " fill="#FAD3CD" transform="translate(39.6875,89.8125)"/>
<path d="M0 0 C1.98 0 3.96 0 6 0 C6 10.56 6 21.12 6 32 C4.02 32 2.04 32 0 32 C0 21.44 0 10.88 0 0 Z " fill="#FCEAD8" transform="translate(74,80)"/>
<path d="M0 0 C3.11227195 0 5.94152152 0.45627049 9 1 C9.0809313 3.60478883 9.14045434 6.20706653 9.1875 8.8125 C9.22520508 9.91948242 9.22520508 9.91948242 9.26367188 11.04882812 C9.33756362 16.4921869 9.33756362 16.4921869 7.65234375 19.02734375 C6 20 6 20 3.375 19.75 C1 19 1 19 0 18 C-0.08631874 16.65732587 -0.10706473 15.31025678 -0.09765625 13.96484375 C-0.09443359 13.15595703 -0.09121094 12.34707031 -0.08789062 11.51367188 C-0.07951172 10.66353516 -0.07113281 9.81339844 -0.0625 8.9375 C-0.05798828 8.08349609 -0.05347656 7.22949219 -0.04882812 6.34960938 C-0.03700373 4.23304337 -0.01906769 2.11651315 0 0 Z " fill="#D83708" transform="translate(90,89)"/>
<path d="M0 0 C2.93167219 0.31693753 4.58982661 0.63225834 6.8125 2.625 C8.46999413 5.93998827 8.39203556 8.34100144 8 12 C6.875 14.4375 6.875 14.4375 5 16 C2 16.5625 2 16.5625 -1 16 C-3.32988436 13.35946439 -3.93127096 11.47128484 -4.4375 8 C-3.9001142 4.31506879 -2.51917486 2.67662329 0 0 Z " fill="#C33417" transform="translate(58,93)"/>
<path d="M0 0 C0.66 0 1.32 0 2 0 C2.93160009 1.34564457 3.85228075 2.69990557 4.72265625 4.0859375 C6.75394462 7.1297641 9.10125582 9.92097056 11.4140625 12.75390625 C14.98482371 17.8110188 15.26589976 22.24839121 15.125 28.3125 C15.11597656 29.05306641 15.10695312 29.79363281 15.09765625 30.55664062 C15.07424213 32.37123467 15.03837615 34.18566071 15 36 C12.96166576 34.7260411 10.96147874 33.38938077 9 32 C9 31.34 9 30.68 9 30 C8.34 30 7.68 30 7 30 C5.768606 26.30581799 6.35567236 23.7943739 7 20 C7.99 20 8.98 20 10 20 C8.45458106 14.88822965 6.81327314 10.70661002 2.875 7 C0.69095258 4.67034942 0.34746283 3.1271655 0 0 Z " fill="#E00F11" transform="translate(185,56)"/>
<path d="M0 0 C1.32 0 2.64 0 4 0 C4 0.66 4 1.32 4 2 C4.66 2.33 5.32 2.66 6 3 C5.34 3 4.68 3 4 3 C4.66 7.95 5.32 12.9 6 18 C5.34 18 4.68 18 4 18 C4 22.62 4 27.24 4 32 C2.35 32 0.7 32 -1 32 C-1.14036598 21.28539694 -0.73259082 10.6879768 0 0 Z " fill="#FAF4F1" transform="translate(50,91)"/>
<path d="M0 0 C2.31 0 4.62 0 7 0 C7 0.33 7 0.66 7 1 C5.02 1 3.04 1 1 1 C1 12.22 1 23.44 1 35 C-5 36 -5 36 -7 36 C-7.66 36.66 -8.32 37.32 -9 38 C-10.875 38.875 -10.875 38.875 -13 39 C-15.25 37.0625 -15.25 37.0625 -17 35 C-17 37.97 -17 40.94 -17 44 C-17.33 44 -17.66 44 -18 44 C-18 40.04 -18 36.08 -18 32 C-15.78645833 32.32552083 -13.57291667 32.65104167 -11.359375 32.9765625 C-8.62900108 33.00368542 -7.28512544 32.45775244 -5 31 C-2.12525814 27.50924202 -1.54122269 24.51531333 -1.6953125 20.00390625 C-2.1551454 16.97962064 -3.44094131 14.59843115 -5 12 C-3.68 12.33 -2.36 12.66 -1 13 C-0.67 8.71 -0.34 4.42 0 0 Z " fill="#BC2D0B" transform="translate(73,79)"/>
<path d="M0 0 C1.32 0.33 2.64 0.66 4 1 C3.45773019 4.79588866 1.79872437 6.47211993 -1 9 C0.4859916 13.59306496 2.85014682 16.43569245 6 20 C5.67 20.66 5.34 21.32 5 22 C2.76953125 22.34375 2.76953125 22.34375 0 22 C-2.23828125 19.59375 -2.23828125 19.59375 -4.3125 16.5 C-5.00988281 15.4790625 -5.70726562 14.458125 -6.42578125 13.40625 C-6.94527344 12.6121875 -7.46476563 11.818125 -8 11 C-6.63629701 8.00779732 -5.05091917 5.70973471 -2.875 3.25 C-2.33617187 2.63640625 -1.79734375 2.0228125 -1.2421875 1.390625 C-0.62730469 0.70226562 -0.62730469 0.70226562 0 0 Z " fill="#FDEACB" transform="translate(148,90)"/>
<path d="M0 0 C0.33 0 0.66 0 1 0 C1.33 3.96 1.66 7.92 2 12 C2.66 11.34 3.32 10.68 4 10 C4.06058594 11.26457031 4.12117188 12.52914062 4.18359375 13.83203125 C4.26800904 15.49219871 4.35265655 17.15235437 4.4375 18.8125 C4.47681641 19.64587891 4.51613281 20.47925781 4.55664062 21.33789062 C4.59853516 22.14033203 4.64042969 22.94277344 4.68359375 23.76953125 C4.72025146 24.50792236 4.75690918 25.24631348 4.79467773 26.00708008 C4.94842141 28.207495 4.94842141 28.207495 6 31 C9.02437339 32.5121867 11.66241534 32.17263369 15 32 C17.35369807 31.11935073 17.35369807 31.11935073 19 30 C18.67 31.32 18.34 32.64 18 34 C16.70021173 34.45477226 15.38363045 34.86156506 14.0625 35.25 C12.96615234 35.59804687 12.96615234 35.59804687 11.84765625 35.953125 C9 36 9 36 0 32 C0 21.44 0 10.88 0 0 Z " fill="#D33810" transform="translate(80,80)"/>
<path d="M0 0 C9 4.5 9 4.5 18 9 C17.93359375 11.26171875 17.93359375 11.26171875 17 14 C14.65076184 15.53546919 12.59038737 16.67758129 10.0625 17.8125 C9.41603516 18.12380859 8.76957031 18.43511719 8.10351562 18.75585938 C3.35382898 21 3.35382898 21 1 21 C1 19.68 1 18.36 1 17 C1.78246094 16.66226563 2.56492188 16.32453125 3.37109375 15.9765625 C4.88896484 15.30753906 4.88896484 15.30753906 6.4375 14.625 C7.44683594 14.18414062 8.45617187 13.74328125 9.49609375 13.2890625 C12.12143547 12.24923714 12.12143547 12.24923714 13 10 C12.39671875 9.80664062 11.7934375 9.61328125 11.171875 9.4140625 C10.37265625 9.15367188 9.5734375 8.89328125 8.75 8.625 C7.96109375 8.36976562 7.1721875 8.11453125 6.359375 7.8515625 C4.13372042 7.04826333 2.09068328 6.10288338 0 5 C0 3.35 0 1.7 0 0 Z " fill="#FEE3CD" transform="translate(159,90)"/>
<path d="M0 0 C1.051875 0.350625 2.10375 0.70125 3.1875 1.0625 C7.68614425 2.168724 9.61275502 1.26412143 14 0 C17.36983111 0.10376313 20.66711628 0.50375574 24 1 C24.625 2.875 24.625 2.875 25 5 C24.34 5.66 23.68 6.32 23 7 C23 6.34 23 5.68 23 5 C22.34 5 21.68 5 21 5 C21 5.66 21 6.32 21 7 C20.34 7 19.68 7 19 7 C19 6.34 19 5.68 19 5 C18.01 5 17.02 5 16 5 C15.34 4.34 14.68 3.68 14 3 C13.34 3 12.68 3 12 3 C11.34 4.65 10.68 6.3 10 8 C9.21625 7.835 8.4325 7.67 7.625 7.5 C5.11791961 6.9376293 5.11791961 6.9376293 3 7 C3 7.66 3 8.32 3 9 C0.69 9 -1.62 9 -4 9 C-3.34 8.34 -2.68 7.68 -2 7 C-1.01 7 -0.02 7 1 7 C1 6.01 1 5.02 1 4 C0.01 3.67 -0.98 3.34 -2 3 C-2 2.34 -2 1.68 -2 1 C-1.34 0.67 -0.68 0.34 0 0 Z " fill="#E52A04" transform="translate(84,113)"/>
<path d="M0 0 C1.34106405 2.6821281 1.21450419 4.88398032 1.31640625 7.8828125 C1.37924805 9.63271484 1.37924805 9.63271484 1.44335938 11.41796875 C1.48267578 12.64128906 1.52199219 13.86460938 1.5625 15.125 C1.60568359 16.35605469 1.64886719 17.58710937 1.69335938 18.85546875 C1.79968704 21.90352853 1.90171781 24.9516719 2 28 C3.65 28.33 5.3 28.66 7 29 C7 29.99 7 30.98 7 32 C6.34 32 5.68 32 5 32 C5 31.34 5 30.68 5 30 C3.35 29.67 1.7 29.34 0 29 C0 25.7 0 22.4 0 19 C-1.32 18.67 -2.64 18.34 -4 18 C-3.67 18.99 -3.34 19.98 -3 21 C-3.33 21.66 -3.66 22.32 -4 23 C-7.45925163 21.7508258 -10.14693203 20.32472205 -13 18 C-12.37351563 17.87882812 -11.74703125 17.75765625 -11.1015625 17.6328125 C-10.28429688 17.46523437 -9.46703125 17.29765625 -8.625 17.125 C-7.40683594 16.88136719 -7.40683594 16.88136719 -6.1640625 16.6328125 C-3.81326077 16.13341068 -3.81326077 16.13341068 -2 14 C-1.77350622 10.52709542 -1.78191234 7.28883667 -3 4 C-3.66 3.67 -4.32 3.34 -5 3 C-2.25 0 -2.25 0 0 0 Z " fill="#BE1311" transform="translate(47,95)"/>
<path d="M0 0 C0.639375 0.33 1.27875 0.66 1.9375 1 C2.5975 0.67 3.2575 0.34 3.9375 0 C4.5975 1.32 5.2575 2.64 5.9375 4 C6.9275 3.67 7.9175 3.34 8.9375 3 C11.0625 3.625 11.0625 3.625 12.9375 5 C13.87330311 7.87939419 14.30995106 9.25509788 12.9375 12 C12.9375 12.99 12.9375 13.98 12.9375 15 C11.9475 15 10.9575 15 9.9375 15 C9.9375 14.01 9.9375 13.02 9.9375 12 C6.9675 11.505 6.9675 11.505 3.9375 11 C3.73125 9.88625 3.525 8.7725 3.3125 7.625 C2.85875 6.42875 2.405 5.2325 1.9375 4 C-1.04645292 2.61598022 -1.04645292 2.61598022 -4.0625 2 C-4.3925 1.34 -4.7225 0.68 -5.0625 0 C-2.0625 -1 -2.0625 -1 0 0 Z " fill="#E01D06" transform="translate(162.0625,80)"/>
<path d="M0 0 C0.66 0 1.32 0 2 0 C2.433125 0.969375 2.86625 1.93875 3.3125 2.9375 C4.7014861 6.27731765 4.7014861 6.27731765 8 7 C8.66 7.33 9.32 7.66 10 8 C10 8.99 10 9.98 10 11 C10.969375 11.12375 11.93875 11.2475 12.9375 11.375 C13.948125 11.58125 14.95875 11.7875 16 12 C17.455276 14.91055201 17.45067148 16.78091798 17 20 C14.03744762 22.61806955 12.08965379 23.9052475 8.125 24.25 C7.42375 24.1675 6.7225 24.085 6 24 C8.02243866 22.41094106 9.81460406 21.0794554 12.1875 20.0625 C14.20746992 19.14026135 14.20746992 19.14026135 14.75 16.875 C14.87375 15.946875 14.87375 15.946875 15 15 C14.236875 14.79375 13.47375 14.5875 12.6875 14.375 C7.50101406 12.44105609 2.80966916 9.7214854 -2 7 C-2.66 7.99 -3.32 8.98 -4 10 C-4 8.35 -4 6.7 -4 5 C-2.35 5 -0.7 5 1 5 C0.67 3.35 0.34 1.7 0 0 Z " fill="#D4260F" transform="translate(162,84)"/>
<path d="M0 0 C1.98 0 3.96 0 6 0 C6 5.94 6 11.88 6 18 C5.67 18 5.34 18 5 18 C5 12.39 5 6.78 5 1 C4.01 1 3.02 1 2 1 C2.66 1.99 3.32 2.98 4 4 C3.9765625 6.91796875 3.9765625 6.91796875 3.625 10.1875 C3.51414063 11.27417969 3.40328125 12.36085938 3.2890625 13.48046875 C3.19367188 14.31191406 3.09828125 15.14335938 3 16 C2.34 16 1.68 16 1 16 C1 21.28 1 26.56 1 32 C0.67 32 0.34 32 0 32 C0 21.44 0 10.88 0 0 Z " fill="#FEE0B9" transform="translate(134,80)"/>
<path d="M0 0 C1.32 0 2.64 0 4 0 C4 0.66 4 1.32 4 2 C5.32 2.33 6.64 2.66 8 3 C7.67 4.32 7.34 5.64 7 7 C7.86625 6.5359375 7.86625 6.5359375 8.75 6.0625 C10.84294184 5.07416636 12.74535275 4.4831387 15 4 C18.61139896 7.87564767 18.61139896 7.87564767 20 10 C19.8125 12.375 19.8125 12.375 19 14 C18.71125 13.360625 18.4225 12.72125 18.125 12.0625 C17.17176549 9.84793921 17.17176549 9.84793921 15 9 C10.76028942 8.76446052 7.63821698 8.67154114 4 11 C4 10.01 4 9.02 4 8 C2.35 8 0.7 8 -1 8 C0.32 7.67 1.64 7.34 3 7 C1.68 5.35 0.36 3.7 -1 2 C-0.67 1.34 -0.34 0.68 0 0 Z " fill="#E5570C" transform="translate(111,82)"/>
<path d="M0 0 C12 12 12 12 12 15 C13.32 15.33 14.64 15.66 16 16 C16.33 17.98 16.66 19.96 17 22 C17.66 22 18.32 22 19 22 C19 23.98 19 25.96 19 28 C17 27 17 27 16.1640625 24.82421875 C14.48972064 20.76197323 11.8071599 17.62905865 9.1015625 14.19726562 C6 10.1944374 6 10.1944374 6 8 C4.68 7.67 3.36 7.34 2 7 C2 6.01 2 5.02 2 4 C1.34 4 0.68 4 0 4 C-0.33 3.01 -0.66 2.02 -1 1 C-0.67 0.67 -0.34 0.34 0 0 Z " fill="#D5031D" transform="translate(181,48)"/>
<path d="M0 0 C2.31 0 4.62 0 7 0 C7 1.32 7 2.64 7 4 C7.598125 4.2475 8.19625 4.495 8.8125 4.75 C11.34094503 6.19482573 12.55070617 7.48280545 14 10 C13.67 10.99 13.34 11.98 13 13 C13 12.34 13 11.68 13 11 C12.01 11 11.02 11 10 11 C10.33 12.32 10.66 13.64 11 15 C10.01 15.495 10.01 15.495 9 16 C7 12 5 8 3 4 C2.01 4 1.02 4 0 4 C0 2.68 0 1.36 0 0 Z " fill="#E42A05" transform="translate(28,0)"/>
<path d="M0 0 C1.32 0.66 2.64 1.32 4 2 C4 5.63 4 9.26 4 13 C-1.75 14.125 -1.75 14.125 -4 13 C-4 11.35 -4 9.7 -4 8 C-3.34 7.67 -2.68 7.34 -2 7 C-2.33 6.67 -2.66 6.34 -3 6 C-3.04063832 4.33382885 -3.042721 2.66611905 -3 1 C-2.67 1.66 -2.34 2.32 -2 3 C-1.01 3 -0.02 3 1 3 C0.67 2.01 0.34 1.02 0 0 Z " fill="#DC1108" transform="translate(34,76)"/>
<path d="M0 0 C1.76949095 -0.10815225 3.54087487 -0.18566083 5.3125 -0.25 C6.29863281 -0.29640625 7.28476563 -0.3428125 8.30078125 -0.390625 C11 0 11 0 12.85546875 1.828125 C14 4 14 4 14 7 C14.66 7.33 15.32 7.66 16 8 C15.01 8.66 14.02 9.32 13 10 C12.01 9.01 11.02 8.02 10 7 C10.33 6.34 10.66 5.68 11 5 C10.01 5.33 9.02 5.66 8 6 C7.67 5.67 7.34 5.34 7 5 C6.34 5.66 5.68 6.32 5 7 C3.29115995 5.37660195 1.62553283 3.70680947 0 2 C0 1.34 0 0.68 0 0 Z " fill="#DF110D" transform="translate(72,0)"/>
<path d="M0 0 C1.48206495 0.254496 2.96068615 0.52911762 4.4375 0.8125 C5.67306641 1.03873047 5.67306641 1.03873047 6.93359375 1.26953125 C7.61550781 1.51058594 8.29742187 1.75164062 9 2 C9.33 2.99 9.66 3.98 10 5 C10.66 5.33 11.32 5.66 12 6 C10.97519531 6.06316406 9.95039062 6.12632813 8.89453125 6.19140625 C1.42226776 6.57038568 1.42226776 6.57038568 -5.109375 9.69140625 C-6.6241948 11.78115212 -6.6241948 11.78115212 -8 15 C-9 13 -9 13 -8.25 10.5 C-7 8 -7 8 -4 6 C-2.68 6 -1.36 6 0 6 C0 4.02 0 2.04 0 0 Z " fill="#D61A08" transform="translate(38,83)"/>
<path d="M0 0 C0.99 0.33 1.98 0.66 3 1 C3 6.61 3 12.22 3 18 C1.68 18 0.36 18 -1 18 C-1.02684312 15.18743719 -1.04676188 12.37512759 -1.0625 9.5625 C-1.07087891 8.76005859 -1.07925781 7.95761719 -1.08789062 7.13085938 C-1.0965143 5.08704779 -1.0522815 3.04316098 -1 1 C-0.67 0.67 -0.34 0.34 0 0 Z " fill="#FDF9E7" transform="translate(126,93)"/>
<path d="M0 0 C1.32 0 2.64 0 4 0 C4 6.27 4 12.54 4 19 C3.34 19 2.68 19 2 19 C-0.44989101 15.25764681 -0.23086143 11.55774581 -0.125 7.25 C-0.11597656 6.55261719 -0.10695313 5.85523437 -0.09765625 5.13671875 C-0.07419888 3.42433042 -0.03833104 1.71211996 0 0 Z " fill="#FDF8F4" transform="translate(85,91)"/>
<path d="M0 0 C0.33 0 0.66 0 1 0 C1.66 3.63 2.32 7.26 3 11 C2.34 11 1.68 11 1 11 C1 15.62 1 20.24 1 25 C-0.65 25 -2.3 25 -4 25 C-4 20.71 -4 16.42 -4 12 C-2 14 -2 14 -1.8046875 16.1640625 C-1.82789063 16.97617188 -1.85109375 17.78828125 -1.875 18.625 C-1.89304688 19.44226563 -1.91109375 20.25953125 -1.9296875 21.1015625 C-1.95289063 21.72804688 -1.97609375 22.35453125 -2 23 C-1.34 23 -0.68 23 0 23 C0 19.37 0 15.74 0 12 C-0.66 12 -1.32 12 -2 12 C-2 10.68 -2 9.36 -2 8 C-1.34 8 -0.68 8 0 8 C0 5.36 0 2.72 0 0 Z " fill="#FCEBDF" transform="translate(53,98)"/>
<path d="M0 0 C1.32 0 2.64 0 4 0 C4.33 0.66 4.66 1.32 5 2 C5.66 1.34 6.32 0.68 7 0 C7 3.96 7 7.92 7 12 C4.97954558 11.39816251 2.97888961 10.72693904 1 10 C-0.60725635 6.78548731 -0.05748185 3.56387464 0 0 Z " fill="#DB1B05" transform="translate(56,97)"/>
<path d="M0 0 C3 0 6 0 9 0 C9.9590625 -0.05220703 9.9590625 -0.05220703 10.9375 -0.10546875 C16.56115108 -0.32913669 16.56115108 -0.32913669 19 1.5 C19.33 1.995 19.66 2.49 20 3 C17.525 2.505 17.525 2.505 15 2 C14.67 2.99 14.34 3.98 14 5 C13.2575 4.7525 12.515 4.505 11.75 4.25 C10.8425 4.1675 9.935 4.085 9 4 C6.66545339 5.83358335 6.66545339 5.83358335 5 8 C3.66667905 5.3333581 4.32897967 3.83319697 5 1 C3.68 1 2.36 1 1 1 C1 6.61 1 12.22 1 18 C0.67 18 0.34 18 0 18 C0 12.06 0 6.12 0 0 Z " fill="#FDD3B6" transform="translate(49,90)"/>
<path d="M0 0 C0.66 0.33 1.32 0.66 2 1 C1.34 1.66 0.68 2.32 0 3 C-0.99 2.67 -1.98 2.34 -3 2 C-2.01 1.34 -1.02 0.68 0 0 Z M-4 3 C-3.34 3.66 -2.68 4.32 -2 5 C-4.97 7.475 -4.97 7.475 -8 10 C-7.21302675 13.41021743 -6.12880057 16.68885166 -5 20 C-4.34 20 -3.68 20 -3 20 C-3.33 21.32 -3.66 22.64 -4 24 C-4.66 23.67 -5.32 23.34 -6 23 C-6 21.68 -6 20.36 -6 19 C-6.66 19 -7.32 19 -8 19 C-9.2890625 17.3203125 -9.2890625 17.3203125 -10.625 15.125 C-11.07101563 14.40570313 -11.51703125 13.68640625 -11.9765625 12.9453125 C-13 11 -13 11 -13 9 C-12.360625 8.71125 -11.72125 8.4225 -11.0625 8.125 C-8.84793921 7.17176549 -8.84793921 7.17176549 -8 5 C-5.9375 3.875 -5.9375 3.875 -4 3 Z " fill="#DF041C" transform="translate(54,157)"/>
<path d="M0 0 C0.99 0 1.98 0 3 0 C3.33 1.32 3.66 2.64 4 4 C-1.75 5 -1.75 5 -4 5 C-4.66 5.66 -5.32 6.32 -6 7 C-7.875 7.875 -7.875 7.875 -10 8 C-12.25 6.0625 -12.25 6.0625 -14 4 C-14 6.97 -14 9.94 -14 13 C-14.33 13 -14.66 13 -15 13 C-15 9.04 -15 5.08 -15 1 C-12.958125 1.2475 -12.958125 1.2475 -10.875 1.5 C-7.22839851 1.90901849 -3.67372509 2.09419808 0 2 C0 1.34 0 0.68 0 0 Z " fill="#D11B07" transform="translate(70,110)"/>
<path d="M0 0 C0.33 0.66 0.66 1.32 1 2 C3.02463255 2.65213292 3.02463255 2.65213292 5 3 C4.34 4.32 3.68 5.64 3 7 C2.34 7 1.68 7 1 7 C0.67 9.31 0.34 11.62 0 14 C0.99 14.33 1.98 14.66 3 15 C1.35 16.65 -0.3 18.3 -2 20 C-2 13.73 -2 7.46 -2 1 C-1.34 0.67 -0.68 0.34 0 0 Z " fill="#D33A10" transform="translate(142,79)"/>
<path d="M0 0 C2.35171131 0.59861742 4.6859378 1.26924352 7 2 C8.16983345 4.3396669 8.1661241 5.83391527 8.1875 8.4375 C8.20167969 9.21996094 8.21585938 10.00242187 8.23046875 10.80859375 C8 13 8 13 6 16 C5.34 16 4.68 16 4 16 C3.96261719 15.24074219 3.92523438 14.48148438 3.88671875 13.69921875 C3.82097656 12.70535156 3.75523438 11.71148437 3.6875 10.6875 C3.62949219 9.70136719 3.57148437 8.71523437 3.51171875 7.69921875 C2.94340105 4.70145133 2.23500395 3.9473895 0 2 C0 1.34 0 0.68 0 0 Z " fill="#F7F9F5" transform="translate(63,91)"/>
<path d="M0 0 C1.98 0 3.96 0 6 0 C6 5.61 6 11.22 6 17 C5.67 17 5.34 17 5 17 C5 11.72 5 6.44 5 1 C3.68 1 2.36 1 1 1 C1.14165893 3.39614575 1.28818841 5.79182897 1.4375 8.1875 C1.47681641 8.86103516 1.51613281 9.53457031 1.55664062 10.22851562 C1.78927565 13.89699102 2.17207011 17.41694206 3 21 C5.64 21.33 8.28 21.66 11 22 C11 22.33 11 22.66 11 23 C4.375 23.25 4.375 23.25 1 21 C0.07811539 18.23434618 -0.11785222 16.61716298 -0.09765625 13.76953125 C-0.09282227 12.56586914 -0.09282227 12.56586914 -0.08789062 11.33789062 C-0.07951172 10.50451172 -0.07113281 9.67113281 -0.0625 8.8125 C-0.05798828 7.96751953 -0.05347656 7.12253906 -0.04882812 6.25195312 C-0.03705403 4.16793845 -0.0191189 2.08396023 0 0 Z " fill="#FDD5A4" transform="translate(84,90)"/>
<path d="M0 0 C0.99 0.33 1.98 0.66 3 1 C2.96519531 1.93972656 2.96519531 1.93972656 2.9296875 2.8984375 C2.91164063 3.71570313 2.89359375 4.53296875 2.875 5.375 C2.85179687 6.18710938 2.82859375 6.99921875 2.8046875 7.8359375 C2.78629949 10.21342243 2.78629949 10.21342243 5 12 C1.98131566 13.50934217 -0.67297229 13.17510672 -4 13 C-4.99 12.34 -5.98 11.68 -7 11 C-6.67 9.68 -6.34 8.36 -6 7 C-3.36 7.66 -0.72 8.32 2 9 C1.67 8.2575 1.34 7.515 1 6.75 C0 4 0 4 0 0 Z " fill="#FCE6E5" transform="translate(38,100)"/>
<path d="M0 0 C0.33 0 0.66 0 1 0 C1.06058594 1.26457031 1.12117188 2.52914062 1.18359375 3.83203125 C1.26800904 5.49219871 1.35265655 7.15235437 1.4375 8.8125 C1.47681641 9.64587891 1.51613281 10.47925781 1.55664062 11.33789062 C1.59853516 12.14033203 1.64042969 12.94277344 1.68359375 13.76953125 C1.72025146 14.50792236 1.75690918 15.24631348 1.79467773 16.00708008 C1.94842141 18.207495 1.94842141 18.207495 3 21 C6.02437339 22.5121867 8.66241534 22.17263369 12 22 C14.35369807 21.11935073 14.35369807 21.11935073 16 20 C15.67 21.32 15.34 22.64 15 24 C13.63289181 24.42228453 12.25558226 24.81159889 10.875 25.1875 C10.10929687 25.40792969 9.34359375 25.62835938 8.5546875 25.85546875 C6 26 6 26 0 23 C0 15.41 0 7.82 0 0 Z " fill="#BC320B" transform="translate(83,90)"/>
<path d="M0 0 C7.68490153 5.0940919 7.68490153 5.0940919 9 8.875 C9 9.57625 9 10.2775 9 11 C3.25 11.125 3.25 11.125 1 10 C1.33 11.65 1.66 13.3 2 15 C0.68 14.67 -0.64 14.34 -2 14 C-1.67 12.35 -1.34 10.7 -1 9 C0.65 8.67 2.3 8.34 4 8 C3.525625 7.236875 3.05125 6.47375 2.5625 5.6875 C1 3 1 3 0 0 Z " fill="#B71A19" transform="translate(31,98)"/>
<path d="M0 0 C4.58960042 1.52986681 6.29989198 5.12790264 9 9 C9.56847656 9.81210938 10.13695312 10.62421875 10.72265625 11.4609375 C15 17.71010638 15 17.71010638 15 20 C13.0625 19.1875 13.0625 19.1875 11 18 C10.67 17.01 10.34 16.02 10 15 C9.319375 14.319375 8.63875 13.63875 7.9375 12.9375 C7.298125 12.298125 6.65875 11.65875 6 11 C6 10.34 6 9.68 6 9 C5.34 9 4.68 9 4 9 C0 2.25 0 2.25 0 0 Z " fill="#E3022B" transform="translate(0,103)"/>
<path d="M0 0 C0.66 0 1.32 0 2 0 C2.93118931 1.34505122 3.85111657 2.69903861 4.71875 4.0859375 C6.76588163 7.14415244 9.15879584 9.92737573 11.51171875 12.75390625 C13.13677449 15.20641819 13.6184886 17.10560017 14 20 C9.443682 18.27174145 8.00953943 15.22098675 6.0625 10.9375 C5.04164634 8.83862045 5.04164634 8.83862045 2.9375 7.0625 C0.71029591 4.69160532 0.35370563 3.18335068 0 0 Z " fill="#E70819" transform="translate(185,56)"/>
<path d="M0 0 C0.66 0.33 1.32 0.66 2 1 C1.67 4.96 1.34 8.92 1 13 C2.32 12.01 3.64 11.02 5 10 C7.25 10.3125 7.25 10.3125 9 11 C8.67 12.98 8.34 14.96 8 17 C7.34 16.690625 6.68 16.38125 6 16.0625 C2.29523985 14.75039745 -1.09263991 14.39735865 -5 14 C-5 13.67 -5 13.34 -5 13 C-3.35 13 -1.7 13 0 13 C0 8.71 0 4.42 0 0 Z " fill="#E12E22" transform="translate(54,110)"/>
<path d="M0 0 C1.32 0.33 2.64 0.66 4 1 C4 3.97 4 6.94 4 10 C3.46375 9.505 2.9275 9.01 2.375 8.5 C0.02781213 6.72187865 0.02781213 6.72187865 -3.125 7 C-4.07375 7 -5.0225 7 -6 7 C-6.66 6.01 -7.32 5.02 -8 4 C-5.6875 3.375 -5.6875 3.375 -3 3 C-2.01 3.66 -1.02 4.32 0 5 C0 3.35 0 1.7 0 0 Z " fill="#E10A0F" transform="translate(43,113)"/>
<path d="M0 0 C2.41850323 2.245753 4.23468372 4.3555814 6.0625 7.125 C7.8550539 10.17781028 7.8550539 10.17781028 11 12 C9.35 12.33 7.7 12.66 6 13 C5.67 11.68 5.34 10.36 5 9 C4.01 9 3.02 9 2 9 C1.67 9.99 1.34 10.98 1 12 C-1.31 12 -3.62 12 -6 12 C-6 11.67 -6 11.34 -6 11 C-4.02 11 -2.04 11 0 11 C0 7.37 0 3.74 0 0 Z " fill="#D95B1B" transform="translate(140,101)"/>
<path d="M0 0 C1.4540625 0.0309375 1.4540625 0.0309375 2.9375 0.0625 C2.6075 1.0525 2.2775 2.0425 1.9375 3.0625 C2.9275 3.3925 3.9175 3.7225 4.9375 4.0625 C5.2675 3.0725 5.5975 2.0825 5.9375 1.0625 C6.5975 2.3825 7.2575 3.7025 7.9375 5.0625 C6.9475 5.0625 5.9575 5.0625 4.9375 5.0625 C5.5975 6.7125 6.2575 8.3625 6.9375 10.0625 C5.9475 10.5575 5.9475 10.5575 4.9375 11.0625 C4.9375 10.4025 4.9375 9.7425 4.9375 9.0625 C4.380625 8.85625 3.82375 8.65 3.25 8.4375 C0.01248698 6.51249226 -1.74481141 4.02399098 -4.0625 1.0625 C-3.0625 0.0625 -3.0625 0.0625 0 0 Z " fill="#EA2305" transform="translate(173.0625,107.9375)"/>
<path d="M0 0 C2.37948772 0.17625835 3.70225849 0.69719773 5.37890625 2.40234375 C6.62115486 3.90649092 7.81376056 5.45129851 9 7 C8.67 7.66 8.34 8.32 8 9 C6.35 9 4.7 9 3 9 C0 3.375 0 3.375 0 0 Z " fill="#FCF3E4" transform="translate(145,103)"/>
<path d="M0 0 C1.32 0.66 2.64 1.32 4 2 C4.125 4.875 4.125 4.875 4 8 C3.34 8.66 2.68 9.32 2 10 C-0.125 9.625 -0.125 9.625 -2 9 C-1.125 1.125 -1.125 1.125 0 0 Z " fill="#FBE6E2" transform="translate(42,101)"/>
<path d="M0 0 C2.31 0 4.62 0 7 0 C8.455276 2.91055201 8.45067148 4.78091798 8 8 C5.03744762 10.61806955 3.08965379 11.9052475 -0.875 12.25 C-1.57625 12.1675 -2.2775 12.085 -3 12 C-0.97756134 10.41094106 0.81460406 9.0794554 3.1875 8.0625 C5.20746992 7.14026135 5.20746992 7.14026135 5.75 4.875 C5.8325 4.25625 5.915 3.6375 6 3 C4.02 2.34 2.04 1.68 0 1 C0 0.67 0 0.34 0 0 Z " fill="#C82E14" transform="translate(171,96)"/>
<path d="M0 0 C0 1.65 0 3.3 0 5 C-2.84083641 6.42041821 -4.85477278 6.31452272 -8 6 C-10.375 4 -10.375 4 -12 2 C-8.7955129 0.93183763 -6.35033432 1 -3 1 C-1 0 -1 0 0 0 Z " fill="#FDD9C3" transform="translate(66,107)"/>
<path d="M0 0 C1.21236328 0.04060547 1.21236328 0.04060547 2.44921875 0.08203125 C3.06410156 0.11683594 3.67898437 0.15164062 4.3125 0.1875 C4.3125 1.5075 4.3125 2.8275 4.3125 4.1875 C2.0025 4.1875 -0.3075 4.1875 -2.6875 4.1875 C-2.6875 3.5275 -2.6875 2.8675 -2.6875 2.1875 C-3.6775 2.8475 -4.6675 3.5075 -5.6875 4.1875 C-5.9377157 7.27115871 -5.9377157 7.27115871 -5.6875 10.1875 C-6.3475 9.8575 -7.0075 9.5275 -7.6875 9.1875 C-8.05369718 3.69454225 -8.05369718 3.69454225 -6.46875 1.5 C-4.16706546 -0.19597808 -2.82643251 -0.12288837 0 0 Z " fill="#FDD7CA" transform="translate(39.6875,89.8125)"/>
<path d="M0 0 C2 1 2 1 4 4 C3.34 4 2.68 4 2 4 C2 9.28 2 14.56 2 20 C1.34 20 0.68 20 0 20 C0 13.4 0 6.8 0 0 Z " fill="#FAFBF8" transform="translate(111,91)"/>
<path d="M0 0 C3 0.125 3 0.125 4 1.125 C4.07325168 3.98767567 4.09238205 6.825719 4.0625 9.6875 C4.05798828 10.49380859 4.05347656 11.30011719 4.04882812 12.13085938 C4.03700518 14.12893756 4.01906914 16.12697783 4 18.125 C3.67 18.125 3.34 18.125 3 18.125 C2.67 12.845 2.34 7.565 2 2.125 C1.01 1.795 0.02 1.465 -1 1.125 C-1.66 3.105 -2.32 5.085 -3 7.125 C-3.66 6.465 -4.32 5.805 -5 5.125 C-4.40256972 1.18196016 -4.1426006 0.17260836 0 0 Z " fill="#D35A12" transform="translate(120,93.875)"/>
<path d="M0 0 C2.64 0 5.28 0 8 0 C6.02 0.99 6.02 0.99 4 2 C4 3.32 4 4.64 4 6 C4.94875 5.484375 5.8975 4.96875 6.875 4.4375 C7.90625 3.963125 8.9375 3.48875 10 3 C10.66 3.33 11.32 3.66 12 4 C8.48812804 6.40814077 6.27343092 7.36629408 2 7 C0.5393715 4.35261084 0 3.10551666 0 0 Z " fill="#C93614" transform="translate(156,105)"/>
<path d="M0 0 C0.598125 0.226875 1.19625 0.45375 1.8125 0.6875 C1.46370368 3.94293229 0.79116739 4.70623107 -1.75 6.9375 C-2.9565625 7.80375 -2.9565625 7.80375 -4.1875 8.6875 C-4.875 5.875 -4.875 5.875 -5.1875 2.6875 C-3.62441875 0.13720955 -3.00012909 -0.42858987 0 0 Z " fill="#FED7B2" transform="translate(150.1875,90.3125)"/>
<path d="M0 0 C1.32 0.66 2.64 1.32 4 2 C3.835 2.556875 3.67 3.11375 3.5 3.6875 C2.95958649 6.18691249 2.92917935 8.45045662 3 11 C-0 10 -0 10 -2 7 C-1.67 6.01 -1.34 5.02 -1 4 C-0.65772583 2.66893378 -0.32248257 1.33599921 0 0 Z " fill="#D80C0C" transform="translate(4,46)"/>
<path d="M0 0 C0.99 0.33 1.98 0.66 3 1 C3 4.96 3 8.92 3 13 C2.34 12.67 1.68 12.34 1 12 C0.33203125 9.53125 0.33203125 9.53125 -0.1875 6.5 C-0.36667969 5.4996875 -0.54585938 4.499375 -0.73046875 3.46875 C-0.81941406 2.6540625 -0.90835938 1.839375 -1 1 C-0.67 0.67 -0.34 0.34 0 0 Z " fill="#F9FBF6" transform="translate(126,93)"/>
<path d="M0 0 C2.97 0.495 2.97 0.495 6 1 C6.33 2.98 6.66 4.96 7 7 C3.7 6.01 0.4 5.02 -3 4 C-2.01 3.67 -1.02 3.34 0 3 C0 2.01 0 1.02 0 0 Z " fill="#D32104" transform="translate(74,112)"/>
<path d="M0 0 C0.66 0 1.32 0 2 0 C4 5.625 4 5.625 4 9 C2.02 8.34 0.04 7.68 -2 7 C-2.66 7.99 -3.32 8.98 -4 10 C-4 8.35 -4 6.7 -4 5 C-2.35 5 -0.7 5 1 5 C0.67 3.35 0.34 1.7 0 0 Z " fill="#C12509" transform="translate(162,84)"/>
<path d="M0 0 C0.66 1.32 1.32 2.64 2 4 C-3.75 7 -3.75 7 -6 7 C-6 5.68 -6 4.36 -6 3 C-4.02 2.01 -2.04 1.02 0 0 Z " fill="#FED9B0" transform="translate(166,104)"/>
<path d="M0 0 C2.97 0.495 2.97 0.495 6 1 C5.67 1.66 5.34 2.32 5 3 C4.34 3 3.68 3 3 3 C2.67 4.32 2.34 5.64 2 7 C1.01 6.67 0.02 6.34 -1 6 C-0.67 4.02 -0.34 2.04 0 0 Z " fill="#D60715" transform="translate(32,114)"/>
<path d="M0 0 C2.31 0.66 4.62 1.32 7 2 C5.68 2.33 4.36 2.66 3 3 C3 3.66 3 4.32 3 5 C4.98 5 6.96 5 9 5 C9 5.33 9 5.66 9 6 C2.375 6.25 2.375 6.25 -1 4 C-0.67 2.68 -0.34 1.36 0 0 Z " fill="#FCB1AF" transform="translate(32,107)"/>
<path d="M0 0 C0.66 0 1.32 0 2 0 C2 2.64 2 5.28 2 8 C0.68 8 -0.64 8 -2 8 C-1.34 5.36 -0.68 2.72 0 0 Z " fill="#EA0917" transform="translate(20,101)"/>
<path d="M0 0 C1.98 0.99 3.96 1.98 6 3 C6 4.32 6 5.64 6 7 C4.02 6.34 2.04 5.68 0 5 C0 3.35 0 1.7 0 0 Z " fill="#FCBB93" transform="translate(159,90)"/>
<path d="M0 0 C0.99 0 1.98 0 3 0 C5.75 2.75 5.75 2.75 8 6 C7.8125 8.375 7.8125 8.375 7 10 C6.79375 9.4225 6.5875 8.845 6.375 8.25 C4.50249112 5.18589456 2.03041481 3.84460032 -1 2 C-0.67 1.34 -0.34 0.68 0 0 Z " fill="#D34C0B" transform="translate(123,86)"/>
<path d="M0 0 C0.66 0 1.32 0 2 0 C3.23076923 5.41538462 3.23076923 5.41538462 2.0625 8.375 C1.711875 8.91125 1.36125 9.4475 1 10 C-0.85064319 6.87703962 -1.29356154 4.62059232 -1 1 C-0.67 0.67 -0.34 0.34 0 0 Z " fill="#EE2005" transform="translate(154,82)"/>
<path d="M0 0 C2.475 0.495 2.475 0.495 5 1 C5.33 3.31 5.66 5.62 6 8 C5.34 7.67 4.68 7.34 4 7 C4 6.34 4 5.68 4 5 C2.68 4.34 1.36 3.68 0 3 C0 2.01 0 1.02 0 0 Z " fill="#E4022C" transform="translate(14,191)"/>
<path d="M0 0 C0.99 0 1.98 0 3 0 C3 3.63 3 7.26 3 11 C2.34 11 1.68 11 1 11 C0.67 7.37 0.34 3.74 0 0 Z " fill="#F8FBFB" transform="translate(50,110)"/>
<path d="M0 0 C0.598125 0.763125 1.19625 1.52625 1.8125 2.3125 C3.46959332 4.3483575 5.10297674 6.1978279 7 8 C6.67 8.66 6.34 9.32 6 10 C5.01 9.67 4.02 9.34 3 9 C2.3125 6.9375 2.3125 6.9375 2 5 C1.34 5 0.68 5 0 5 C-0.5625 3.0625 -0.5625 3.0625 -1 1 C-0.67 0.67 -0.34 0.34 0 0 Z " fill="#DF0320" transform="translate(52,180)"/>
<path d="M0 0 C4.455 0.99 4.455 0.99 9 2 C9 2.33 9 2.66 9 3 C6.36 3 3.72 3 1 3 C1 5.97 1 8.94 1 12 C0.67 12 0.34 12 0 12 C0 8.04 0 4.08 0 0 Z " fill="#AB1C10" transform="translate(55,111)"/>
<path d="M0 0 C1.485 0.99 1.485 0.99 3 2 C3 2.66 3 3.32 3 4 C3.66 4 4.32 4 5 4 C6.625 6 6.625 6 8 8 C6.02 8 4.04 8 2 8 C1.814375 6.824375 1.814375 6.824375 1.625 5.625 C1.20882007 2.85942178 1.20882007 2.85942178 -1 1 C-0.67 0.67 -0.34 0.34 0 0 Z " fill="#DC0B11" transform="translate(83,192)"/>
<path d="M0 0 C0 0.99 0 1.98 0 3 C-2.97 2.505 -2.97 2.505 -6 2 C-6.33 1.01 -6.66 0.02 -7 -1 C-3.51418144 -2.2020064 -3.32007656 -2.21338437 0 0 Z " fill="#E92005" transform="translate(167,100)"/>
<path d="M0 0 C0.99 0.495 0.99 0.495 2 1 C3.28571429 7.42857143 3.28571429 7.42857143 2 10 C1.34 10 0.68 10 0 10 C0 6.7 0 3.4 0 0 Z " fill="#F7FBFA" transform="translate(101,93)"/>
<path d="M0 0 C2.38564077 0.57584432 4.66682784 1.22227595 7 2 C7 2.66 7 3.32 7 4 C4.33333333 4 1.66666667 4 -1 4 C-0.67 2.68 -0.34 1.36 0 0 Z " fill="#E30D0C" transform="translate(54,124)"/>
<path d="M0 0 C0.8971875 0.309375 0.8971875 0.309375 1.8125 0.625 C0.6678125 1.2128125 0.6678125 1.2128125 -0.5 1.8125 C-3.43466071 3.79168978 -4.58876898 5.5116817 -6.1875 8.625 C-7.1875 6.625 -7.1875 6.625 -6.4375 4.125 C-4.90220531 1.05441061 -3.61005372 -0.61886635 0 0 Z " fill="#C31915" transform="translate(36.1875,89.375)"/>
<path d="M0 0 C0.66 0 1.32 0 2 0 C1.67 2.64 1.34 5.28 1 8 C0.34 8 -0.32 8 -1 8 C-1.625 5.125 -1.625 5.125 -2 2 C-1.34 1.34 -0.68 0.68 0 0 Z " fill="#F8F7F4" transform="translate(35,92)"/>
<path d="M0 0 C1.9375 0.625 1.9375 0.625 4 2 C4.75 5.125 4.75 5.125 5 8 C4.01 7.67 3.02 7.34 2 7 C2 6.01 2 5.02 2 4 C1.34 4 0.68 4 0 4 C0 2.68 0 1.36 0 0 Z " fill="#DF031F" transform="translate(175,40)"/>
<path d="M0 0 C2 3 2 3 2 5 C2.66 5.33 3.32 5.66 4 6 C3.38125 5.814375 2.7625 5.62875 2.125 5.4375 C-0.04160178 4.76313824 -0.04160178 4.76313824 -2 6 C-2 5.34 -2 4.68 -2 4 C-3.32 3.67 -4.64 3.34 -6 3 C-4.02 2.67 -2.04 2.34 0 2 C0 1.34 0 0.68 0 0 Z " fill="#FCDBAB" transform="translate(98,106)"/>
<path d="M0 0 C0.66 0.66 1.32 1.32 2 2 C1.625 4.625 1.625 4.625 1 7 C-0.32 6.67 -1.64 6.34 -3 6 C-2.67 4.68 -2.34 3.36 -2 2 C-2 2.66 -2 3.32 -2 4 C-1.34 4 -0.68 4 0 4 C0 2.68 0 1.36 0 0 Z " fill="#DE4404" transform="translate(98,80)"/>
<path d="M0 0 C1.32 0.33 2.64 0.66 4 1 C3.67 1.99 3.34 2.98 3 4 C1.02 4.33 -0.96 4.66 -3 5 C-3.33 4.01 -3.66 3.02 -4 2 C-3.01 2 -2.02 2 -1 2 C-0.67 1.34 -0.34 0.68 0 0 Z " fill="#EF2405" transform="translate(156,102)"/>
<path d="M0 0 C0 2.31 0 4.62 0 7 C-0.99 6.67 -1.98 6.34 -3 6 C-3 5.34 -3 4.68 -3 4 C-3.66 3.67 -4.32 3.34 -5 3 C-2.25 0 -2.25 0 0 0 Z " fill="#DA1407" transform="translate(47,95)"/>
<path d="M0 0 C1.32 0.66 2.64 1.32 4 2 C4 2.66 4 3.32 4 4 C2.35 4.33 0.7 4.66 -1 5 C-1 1 -1 1 0 0 Z " fill="#F34A02" transform="translate(110,85)"/>
<path d="M0 0 C2.64 0 5.28 0 8 0 C7.67 0.99 7.34 1.98 7 3 C4.625 3.1875 4.625 3.1875 2 3 C1.34 2.01 0.68 1.02 0 0 Z " fill="#E1450E" transform="translate(99,112)"/>
<path d="M0 0 C0.33 1.32 0.66 2.64 1 4 C0.01 4 -0.98 4 -2 4 C-2 4.66 -2 5.32 -2 6 C-3.32 5.67 -4.64 5.34 -6 5 C-4.02 3.35 -2.04 1.7 0 0 Z " fill="#CF2C11" transform="translate(72,106)"/>
<path d="M0 0 C2 2 2 2 2.1953125 4.1640625 C2.16050781 5.38222656 2.16050781 5.38222656 2.125 6.625 C2.10695313 7.44226563 2.08890625 8.25953125 2.0703125 9.1015625 C2.04710938 9.72804688 2.02390625 10.35453125 2 11 C-1.125 4.75 -1.125 4.75 0 0 Z " fill="#FDEBD8" transform="translate(69,93)"/>
<path d="M0 0 C-0.33 1.32 -0.66 2.64 -1 4 C-2.32 4.33 -3.64 4.66 -5 5 C-4.625 3.0625 -4.625 3.0625 -4 1 C-2 0 -2 0 0 0 Z " fill="#EC2605" transform="translate(153,97)"/>
<path d="M0 0 C1.32 1.32 2.64 2.64 4 4 C3.67 4.66 3.34 5.32 3 6 C1.35 6 -0.3 6 -2 6 C-2.33 5.34 -2.66 4.68 -3 4 C-1.68 4.33 -0.36 4.66 1 5 C0.67 3.35 0.34 1.7 0 0 Z " fill="#FED6A1" transform="translate(150,106)"/>
<path d="M0 0 C3.465 1.485 3.465 1.485 7 3 C6.67 3.99 6.34 4.98 6 6 C5.01 5.67 4.02 5.34 3 5 C3.33 4.34 3.66 3.68 4 3 C2.68 2.67 1.36 2.34 0 2 C0 1.34 0 0.68 0 0 Z " fill="#B84321" transform="translate(165,97)"/>
</svg>
