<?xml version="1.0" standalone="no"?>
<!DOCTYPE svg PUBLIC "-//W3C//DTD SVG 20010904//EN"
 "http://www.w3.org/TR/2001/REC-SVG-20010904/DTD/svg10.dtd">
<svg version="1.0" xmlns="http://www.w3.org/2000/svg"
 width="600.000000pt" height="600.000000pt" viewBox="0 0 600.000000 600.000000"
 preserveAspectRatio="xMidYMid meet">

<g transform="translate(0.000000,600.000000) scale(0.100000,-0.100000)"
fill="#000000" stroke="none">
<path d="M1138 5294 c-153 -37 -305 -155 -377 -293 -76 -146 -71 -1 -71 -1996
0 -1542 2 -1799 15 -1853 49 -209 228 -388 437 -437 95 -22 3611 -22 3706 0
209 49 388 228 437 437 22 95 22 3611 0 3706 -49 209 -227 387 -436 437 -56
13 -296 15 -1859 14 -1493 -1 -1805 -3 -1852 -15z m3663 -104 c184 -34 345
-196 379 -380 7 -36 9 -522 8 -1385 l-3 -1330 -496 -3 c-390 -2 -499 1 -507
10 -18 23 -103 270 -143 418 -45 168 -81 342 -105 520 -24 175 -24 551 -1 715
44 299 127 548 262 786 30 52 55 101 55 107 0 7 -9 21 -20 32 -25 25 -95 26
-290 5 -331 -35 -610 -118 -879 -262 -205 -110 -350 -220 -536 -407 -398 -401
-690 -994 -830 -1686 -13 -63 -26 -141 -30 -172 l-7 -58 -429 0 -429 0 0 1328
c0 1457 -2 1405 61 1522 61 115 202 219 326 240 72 12 3549 12 3614 0z m-757
-694 c-255 -491 -311 -1134 -158 -1826 44 -202 141 -506 197 -620 l32 -65 538
-3 537 -2 0 -383 c0 -287 -4 -394 -14 -432 -44 -164 -177 -297 -341 -341 -74
-20 -3606 -20 -3680 0 -164 44 -297 177 -341 341 -10 38 -14 145 -14 433 l0
382 459 0 c422 0 460 1 479 18 17 13 24 41 37 132 72 507 279 1066 535 1445
207 307 478 565 758 723 289 163 676 276 958 281 l61 1 -43 -84z"/>
<path d="M1040 1648 c0 -7 25 -122 57 -255 l57 -243 32 0 32 0 53 215 c29 118
55 212 57 210 2 -2 28 -97 56 -212 l52 -208 30 -3 30 -3 58 237 c32 130 61
245 63 256 4 15 0 18 -26 18 -17 0 -31 -1 -31 -3 0 -2 -20 -94 -45 -205 -25
-111 -45 -205 -46 -209 0 -4 -11 39 -25 97 -13 58 -37 152 -52 210 -27 104
-27 105 -59 108 -23 2 -34 -2 -41 -15 -5 -10 -31 -106 -58 -213 -26 -107 -50
-188 -52 -180 -1 8 -22 103 -45 210 -42 193 -42 195 -69 198 -18 2 -28 -1 -28
-10z"/>
<path d="M1690 1406 l0 -256 30 0 30 0 -2 253 -3 252 -27 3 -28 3 0 -255z"/>
<path d="M1858 1654 c-5 -4 -8 -119 -8 -256 l0 -248 30 0 c34 0 32 -9 30 128
l-1 92 62 0 c57 0 64 -2 91 -32 16 -18 48 -67 71 -108 40 -70 45 -75 80 -78
20 -2 37 0 37 3 0 15 -95 169 -120 194 l-28 28 42 21 c47 22 76 69 76 121 0
45 -33 105 -67 120 -31 15 -283 28 -295 15z m268 -78 c36 -30 39 -86 6 -119
-20 -20 -33 -22 -120 -22 l-97 0 -3 69 c-2 38 -1 75 2 83 4 9 29 13 95 13 80
0 93 -3 117 -24z"/>
<path d="M2320 1648 c-1 -15 -1 -480 0 -490 0 -5 77 -8 171 -8 l170 0 -3 28
-3 27 -137 3 -138 3 0 84 0 85 125 0 125 0 0 30 0 30 -125 0 -125 0 0 80 0 80
129 0 c77 0 132 4 136 10 3 6 3 19 0 30 -6 19 -15 20 -166 20 -120 0 -159 -3
-159 -12z"/>
<path d="M2801 1642 c-62 -34 -89 -119 -56 -182 22 -43 60 -68 139 -91 81 -24
106 -42 106 -76 0 -36 -34 -63 -81 -63 -53 0 -78 14 -95 56 -12 29 -19 34 -47
34 -53 0 -60 -10 -42 -60 29 -83 84 -120 177 -120 113 1 178 59 178 159 0 93
-43 135 -175 170 -81 21 -108 64 -63 95 44 31 111 15 128 -30 8 -21 16 -24 55
-24 40 0 45 2 45 23 0 32 -35 84 -72 107 -44 27 -149 28 -197 2z"/>
<path d="M3167 1653 c-4 -3 -7 -118 -7 -255 l0 -248 44 0 c54 0 56 4 56 126
l0 94 85 0 85 0 1 -92 c1 -51 2 -100 3 -108 1 -11 15 -16 49 -18 l47 -3 -2
253 -3 253 -42 3 c-51 4 -53 -2 -50 -116 l2 -82 -87 0 c-63 0 -88 4 -89 13 0
6 -1 42 -1 79 0 100 -4 108 -47 108 -21 0 -41 -3 -44 -7z"/>
<path d="M3746 1628 c-15 -35 -166 -467 -166 -474 0 -2 22 -4 48 -4 l48 0 18
55 17 55 93 0 92 0 18 -55 17 -55 50 0 c48 0 50 1 43 23 -4 12 -44 126 -89
252 l-83 230 -46 3 c-44 3 -47 2 -60 -30z m88 -186 c14 -42 26 -80 26 -85 0
-4 -26 -7 -59 -7 l-59 0 27 85 c14 47 29 85 33 85 3 0 18 -35 32 -78z"/>
<path d="M4088 1654 c-5 -4 -8 -119 -8 -256 l0 -248 50 0 50 0 0 105 0 105 30
0 c38 0 56 -18 121 -124 l52 -86 54 0 c29 0 53 2 53 5 0 12 -95 163 -118 187
-14 15 -24 29 -21 30 2 2 17 10 33 18 48 25 70 64 70 124 0 58 -18 95 -60 123
-20 13 -56 18 -163 21 -75 2 -139 1 -143 -4z m254 -101 c10 -9 18 -30 18 -49
0 -48 -29 -64 -112 -64 l-68 0 0 65 0 65 72 0 c52 0 76 -4 90 -17z"/>
<path d="M4550 1406 l0 -256 45 0 45 0 0 76 c0 69 2 78 32 115 17 21 34 39 37
39 4 0 33 -52 66 -115 l60 -115 58 0 c31 0 57 2 57 5 0 3 -38 71 -85 152 -47
80 -85 149 -83 154 2 4 38 48 81 97 42 50 77 93 77 96 0 3 -26 6 -57 6 l-58 0
-90 -111 -90 -111 -5 109 -5 108 -42 3 -43 3 0 -255z"/>
</g>
</svg>
